<svg width="401" height="435" viewBox="0 0 401 435" fill="none" xmlns="http://www.w3.org/2000/svg">
<path d="M57.75 136.392C50.2595 136.392 43.8793 134.354 38.6094 130.277C33.3395 126.167 29.3125 120.218 26.5284 112.429C23.7443 104.607 22.3523 95.161 22.3523 84.0909C22.3523 73.0871 23.7443 63.6908 26.5284 55.902C29.3456 48.08 33.3892 42.1141 38.6591 38.0043C43.9621 33.8613 50.3258 31.7898 57.75 31.7898C65.1742 31.7898 71.5213 33.8613 76.7912 38.0043C82.0942 42.1141 86.1378 48.08 88.9219 55.902C91.7391 63.6908 93.1477 73.0871 93.1477 84.0909C93.1477 95.161 91.7557 104.607 88.9716 112.429C86.1875 120.218 82.1605 126.167 76.8906 130.277C71.6207 134.354 65.2405 136.392 57.75 136.392ZM57.75 125.455C65.1742 125.455 70.9413 121.875 75.0511 114.716C79.161 107.557 81.2159 97.3485 81.2159 84.0909C81.2159 75.2746 80.2713 67.7675 78.3821 61.5696C76.526 55.3717 73.8414 50.6487 70.3281 47.4006C66.848 44.1525 62.6553 42.5284 57.75 42.5284C50.392 42.5284 44.6416 46.1577 40.4986 53.4162C36.3556 60.6416 34.2841 70.8665 34.2841 84.0909C34.2841 92.9072 35.2121 100.398 37.0682 106.562C38.9242 112.727 41.5923 117.417 45.0724 120.632C48.5857 123.847 52.8116 125.455 57.75 125.455Z" fill="#A4A4A4"/>
<path d="M160.153 114.119V103.977L204.898 33.1818H212.256V48.892H207.284L173.477 102.386V103.182H233.733V114.119H160.153ZM208.08 135V111.037V106.314V33.1818H219.812V135H208.08Z" fill="#A4A4A4"/>
<path d="M300.153 114.119V103.977L344.898 33.1818H352.256V48.892H347.284L313.477 102.386V103.182H373.733V114.119H300.153ZM348.08 135V111.037V106.314V33.1818H359.812V135H348.08Z" fill="#A4A4A4"/>
<path d="M201.241 263.69C193.386 263.657 186.675 261.586 181.107 257.476C175.538 253.366 171.279 247.384 168.33 239.528C165.38 231.673 163.905 222.211 163.905 211.141C163.905 200.104 165.38 190.674 168.33 182.852C171.313 175.03 175.588 169.064 181.156 164.955C186.758 160.845 193.453 158.79 201.241 158.79C209.03 158.79 215.709 160.861 221.277 165.004C226.845 169.114 231.104 175.08 234.054 182.902C237.037 190.691 238.528 200.104 238.528 211.141C238.528 222.244 237.054 231.723 234.104 239.578C231.154 247.4 226.895 253.383 221.327 257.526C215.759 261.635 209.063 263.69 201.241 263.69ZM201.241 250.416C208.135 250.416 213.521 247.052 217.399 240.324C221.31 233.596 223.266 223.868 223.266 211.141C223.266 202.689 222.371 195.546 220.581 189.713C218.824 183.847 216.289 179.405 212.974 176.389C209.693 173.34 205.782 171.815 201.241 171.815C194.381 171.815 188.995 175.196 185.084 181.957C181.173 188.719 179.201 198.446 179.168 211.141C179.168 219.625 180.046 226.801 181.803 232.668C183.592 238.501 186.128 242.926 189.409 245.942C192.69 248.925 196.634 250.416 201.241 250.416Z" fill="#FFC700"/>
<path d="M21.6562 242.114V229.685L65.6548 160.182H75.4489V178.477H69.2344L37.7642 228.293V229.088H98.0696V242.114H21.6562ZM69.9304 262V238.335L70.0298 232.668V160.182H84.5966V262H69.9304Z" fill="#FFC700"/>
<path d="M301.656 242.114V229.685L345.655 160.182H355.449V178.477H349.234L317.764 228.293V229.088H378.07V242.114H301.656ZM349.93 262V238.335L350.03 232.668V160.182H364.597V262H349.93Z" fill="#FFC700"/>
<path d="M197.75 402.392C190.259 402.392 183.879 400.354 178.609 396.277C173.339 392.167 169.313 386.218 166.528 378.429C163.744 370.607 162.352 361.161 162.352 350.091C162.352 339.087 163.744 329.691 166.528 321.902C169.346 314.08 173.389 308.114 178.659 304.004C183.962 299.861 190.326 297.79 197.75 297.79C205.174 297.79 211.521 299.861 216.791 304.004C222.094 308.114 226.138 314.08 228.922 321.902C231.739 329.691 233.148 339.087 233.148 350.091C233.148 361.161 231.756 370.607 228.972 378.429C226.188 386.218 222.161 392.167 216.891 396.277C211.621 400.354 205.241 402.392 197.75 402.392ZM197.75 391.455C205.174 391.455 210.941 387.875 215.051 380.716C219.161 373.557 221.216 363.348 221.216 350.091C221.216 341.275 220.271 333.768 218.382 327.57C216.526 321.372 213.841 316.649 210.328 313.401C206.848 310.152 202.655 308.528 197.75 308.528C190.392 308.528 184.642 312.158 180.499 319.416C176.356 326.642 174.284 336.866 174.284 350.091C174.284 358.907 175.212 366.398 177.068 372.562C178.924 378.727 181.592 383.417 185.072 386.632C188.586 389.847 192.812 391.455 197.75 391.455Z" fill="#A4A4A4"/>
<path d="M57.75 402.392C50.2595 402.392 43.8793 400.354 38.6094 396.277C33.3395 392.167 29.3125 386.218 26.5284 378.429C23.7443 370.607 22.3523 361.161 22.3523 350.091C22.3523 339.087 23.7443 329.691 26.5284 321.902C29.3456 314.08 33.3892 308.114 38.6591 304.004C43.9621 299.861 50.3258 297.79 57.75 297.79C65.1742 297.79 71.5213 299.861 76.7912 304.004C82.0942 308.114 86.1378 314.08 88.9219 321.902C91.7391 329.691 93.1477 339.087 93.1477 350.091C93.1477 361.161 91.7557 370.607 88.9716 378.429C86.1875 386.218 82.1605 392.167 76.8906 396.277C71.6207 400.354 65.2405 402.392 57.75 402.392ZM57.75 391.455C65.1742 391.455 70.9413 387.875 75.0511 380.716C79.161 373.557 81.2159 363.348 81.2159 350.091C81.2159 341.275 80.2713 333.768 78.3821 327.57C76.526 321.372 73.8414 316.649 70.3281 313.401C66.848 310.152 62.6553 308.528 57.75 308.528C50.392 308.528 44.6416 312.158 40.4986 319.416C36.3556 326.642 34.2841 336.866 34.2841 350.091C34.2841 358.907 35.2121 366.398 37.0682 372.562C38.9242 378.727 41.5923 383.417 45.0724 386.632C48.5857 389.847 52.8116 391.455 57.75 391.455Z" fill="#A4A4A4"/>
<path d="M302.153 380.119V369.977L346.898 299.182H354.256V314.892H349.284L315.477 368.386V369.182H375.733V380.119H302.153ZM350.08 401V377.037V372.314V299.182H361.812V401H350.08Z" fill="#A4A4A4"/>
<line x1="131" y1="15" x2="131" y2="415" stroke="#FFC700"/>
<line x1="271" y1="15" x2="271" y2="415" stroke="#FFC700"/>
<line x1="0.5" y1="144.5" x2="400.5" y2="144.5" stroke="#FFC700"/>
<line x1="0.5" y1="284.5" x2="400.5" y2="284.5" stroke="#FFC700"/>
</svg>
