<svg width="20" height="20" viewBox="0 0 20 20" fill="none" xmlns="http://www.w3.org/2000/svg">
<circle cx="10" cy="10" r="10" fill="#FFC700"/>
<path d="M9.79856 15.9048V7.17751H11.1395V15.9048H9.79856ZM10.4804 5.72297C10.219 5.72297 9.99364 5.63395 9.80424 5.45592C9.61864 5.27789 9.52583 5.06388 9.52583 4.81388C9.52583 4.56388 9.61864 4.34986 9.80424 4.17183C9.99364 3.9938 10.219 3.90479 10.4804 3.90479C10.7417 3.90479 10.9652 3.9938 11.1508 4.17183C11.3402 4.34986 11.4349 4.56388 11.4349 4.81388C11.4349 5.06388 11.3402 5.27789 11.1508 5.45592C10.9652 5.63395 10.7417 5.72297 10.4804 5.72297Z" fill="#11141F"/>
</svg>
