<svg width="100" height="113" viewBox="0 0 100 113" fill="none" xmlns="http://www.w3.org/2000/svg">
<path d="M20.322 3.49985C19.622 7.29985 18.622 7.59985 13.122 6.09985C10.422 5.29985 9.72204 5.39985 8.82204 7.09985C7.22204 10.1998 8.12204 13.4999 10.722 13.7999C13.922 14.2999 13.822 15.1998 8.82204 34.2999C7.92204 37.6999 7.52204 38.0998 5.12204 37.7998C3.12204 37.5998 2.22204 38.0998 1.22204 39.9998C-0.977957 44.3998 -0.377957 45.6998 4.42204 46.8998L8.92204 47.9998L8.32204 52.3998C7.72204 56.2998 7.92204 56.7998 10.022 57.2998C14.222 58.3998 14.822 58.0998 15.922 53.9998C17.322 48.6998 18.022 48.8998 17.322 54.3998C16.722 58.5998 16.822 58.8998 19.322 59.5998C23.122 60.4998 24.622 59.5998 25.322 55.7998C25.922 52.5998 26.022 52.4998 31.322 52.3998C37.722 52.3998 41.522 50.1998 43.522 45.4998C45.322 40.9998 45.322 36.9998 43.322 34.1999C41.822 32.0998 41.822 31.6999 43.322 30.0998C47.622 25.3998 46.022 17.3998 40.022 13.7999C38.022 12.5998 36.322 11.5998 36.222 11.4999C36.022 11.3998 36.422 9.79985 36.922 7.89985C37.722 5.09985 37.622 4.29985 36.222 3.19985C35.322 2.59985 33.522 1.99985 32.322 1.99985C30.522 1.99985 29.922 2.69985 29.322 5.49985C29.022 7.39985 28.322 8.99985 27.922 8.99985C27.422 8.99985 27.422 7.59985 27.922 5.79985C29.122 1.89985 27.722 -0.000152588 23.822 -0.000152588C21.422 -0.000152588 20.922 0.499847 20.322 3.49985ZM26.322 3.59985C26.222 4.09985 25.822 5.99985 25.422 7.69985C24.822 10.6998 24.922 10.9999 27.322 10.9999C29.322 10.9999 30.022 10.2998 30.722 7.69985C31.322 5.49985 32.122 4.49985 33.522 4.49985C35.522 4.49985 35.522 4.59985 34.422 9.69985C33.822 12.6998 34.022 12.9999 37.222 14.3998C44.222 17.2999 46.022 24.0998 41.122 28.9998L38.322 31.7999L40.622 34.3998C43.422 37.6998 43.522 41.4998 40.922 45.7998C38.522 49.6998 35.022 51.1998 29.022 50.7998C24.622 50.4998 24.522 50.4998 23.622 54.1998C22.922 56.9998 22.222 57.9998 20.722 57.9998C18.922 57.9998 18.722 57.5998 19.322 53.5998C19.922 50.0998 19.722 49.0998 18.422 48.5998C16.022 47.6998 15.122 48.5998 14.322 52.5998C13.822 55.0998 13.222 55.9998 12.022 55.7998C10.822 55.4998 10.522 54.3998 10.722 50.7998L11.022 46.1998L6.92204 45.4998C4.72204 45.0998 2.72204 44.4998 2.42204 43.9998C1.32204 42.1998 3.22204 40.0998 6.22204 39.7998C9.42204 39.4998 9.42204 39.2999 12.122 29.4998C15.622 16.1998 15.722 13.1998 12.322 12.3998C10.422 11.8998 9.92204 11.1998 10.122 9.59985C10.322 8.49985 11.022 7.59985 11.622 7.69985C20.322 9.39985 20.822 9.39985 21.522 6.39985C21.922 4.79985 22.422 3.09985 22.622 2.69985C23.222 1.59985 26.422 2.39985 26.322 3.59985Z" fill="#151515"/>
<path d="M23.4222 17.2002C23.2222 17.9002 22.6222 20.2002 22.0222 22.3002C21.1222 25.8002 21.2222 26.2002 23.5222 27.1002C29.2222 29.2002 34.9222 27.3002 34.9222 23.2002C34.9222 20.5002 33.6222 19.2002 29.6222 17.5002C25.2222 15.7002 24.0222 15.6002 23.4222 17.2002ZM29.5222 19.5002C32.3222 20.6002 33.0222 21.4002 32.7222 23.2002C32.5222 25.1002 31.7222 25.6002 28.2222 25.8002C23.6222 26.1002 23.1222 25.4002 24.5222 20.2002C25.2222 17.6002 25.0222 17.6002 29.5222 19.5002Z" fill="#151515"/>
<path d="M18.9219 35.2C18.3219 37.6 17.6219 40.2 17.3219 41.2C17.0219 42.4 17.7219 43 20.0219 43.5C26.0219 44.8 30.2219 44.3 32.1219 42.1C35.3219 38.1 31.2219 33.2 23.2219 31.5C20.1219 30.9 20.0219 31 18.9219 35.2ZM28.8219 35.9C31.8219 38 32.2219 39 30.9219 41C30.3219 42 28.5219 42.4 25.3219 42.3C22.8219 42.2 20.5219 41.9 20.2219 41.6C19.9219 41.4 20.0219 39.3 20.4219 37.1C21.0219 33.3 21.3219 33 23.7219 33.6C25.2219 33.9 27.5219 35 28.8219 35.9Z" fill="#151515"/>
<path d="M69.2219 43.9997C66.6219 45.0997 66.5219 45.2997 67.8219 49.7997C68.3219 51.4997 68.4219 52.9997 67.9219 52.9997C67.5219 52.9997 66.8219 51.3997 66.5219 49.3997C65.7219 45.2997 64.3219 44.4997 60.6219 45.8997C58.1219 46.8997 57.9219 47.3997 58.1219 51.1997C58.4219 55.3997 58.4219 55.3997 54.2219 56.3997C50.2219 57.1997 49.9219 57.4997 49.9219 60.5997C49.9219 64.3997 51.3219 65.4997 55.1219 65.0997C58.1219 64.7997 57.9219 64.3997 61.7219 80.5997L63.5219 88.6997L60.9219 89.6997C58.4219 90.5997 58.2219 90.9997 58.8219 94.5997C59.5219 98.7997 60.2219 99.0997 66.6219 97.5997C69.7219 96.8997 69.8219 96.9997 70.5219 100.4C71.3219 104.8 72.1219 105.3 76.0219 104.5C79.0219 103.8 79.1219 103.7 78.5219 99.0997C78.0219 95.1997 78.1219 94.8997 79.0219 96.9997C81.2219 102.1 81.6219 102.5 84.5219 102.2C88.2219 101.8 88.9219 100.5 87.8219 96.5997C86.6219 92.3997 86.5219 92.5997 90.4219 91.1997C92.2219 90.4997 94.9219 88.4997 96.4219 86.8997C101.122 81.1997 99.1219 69.4997 93.1219 67.5997C91.7219 67.0997 91.4219 66.1997 91.7219 63.4997C92.2219 59.0997 90.3219 54.2997 87.5219 52.7997C86.4219 52.0997 83.4219 51.2997 80.9219 50.9997C76.7219 50.4997 76.4219 50.2997 75.6219 46.6997C74.7219 42.7997 73.4219 42.2997 69.2219 43.9997ZM74.2219 49.2997C75.1219 52.9997 75.2219 52.9997 80.0219 52.9997C86.5219 52.9997 89.9219 55.9997 89.9219 61.8997C89.9219 64.0997 89.5219 66.1997 88.9219 66.4997C87.1219 67.5997 87.9219 68.8997 90.6219 69.1997C94.2219 69.5997 96.9219 73.5997 97.1219 78.7997C97.2219 82.1997 96.7219 83.5997 94.4219 85.9997C92.8219 87.5997 90.0219 89.4997 88.2219 90.0997C84.9219 91.1997 84.8219 91.2997 85.4219 95.1997C85.9219 98.0997 85.7219 99.4997 84.8219 100.1C82.5219 101.5 82.1219 101.2 81.4219 96.9997C80.8219 93.5997 80.4219 92.9997 78.2219 92.9997C75.8219 92.9997 75.7219 93.1997 76.3219 97.4997C76.9219 101.1 76.7219 102.1 75.4219 102.6C73.4219 103.4 72.8219 102.8 72.0219 98.7997C71.2219 95.2997 69.6219 94.7997 63.8219 96.2997C61.5219 96.8997 61.1219 96.5997 60.6219 94.3997C60.3219 92.3997 60.7219 91.6997 62.4219 90.9997C63.7219 90.4997 64.9219 89.7997 65.1219 89.2997C65.4219 88.8997 64.2219 82.8997 62.5219 75.9997L59.4219 63.4997L55.7219 63.1997C52.7219 62.8997 51.9219 62.4997 51.9219 60.9997C51.9219 59.5997 53.0219 58.7997 56.2219 57.8997C61.9219 56.3997 61.9219 56.4997 60.7219 52.3997C60.0219 49.5997 60.0219 48.4997 61.1219 47.8997C63.3219 46.4997 63.8219 46.7997 64.9219 50.9997C66.0219 54.8997 67.2219 55.6997 69.6219 54.1997C70.5219 53.5997 70.6219 52.4997 69.9219 50.0997C68.8219 46.1997 69.4219 44.7997 71.7219 45.1997C72.6219 45.3997 73.7219 47.0997 74.2219 49.2997Z" fill="#151515"/>
<path d="M69.7221 59.6998C67.6221 60.1998 67.5221 61.9998 69.0221 67.1998C70.2221 71.6998 72.5221 72.0998 77.7221 68.9998C81.9221 66.3998 82.5221 64.5998 80.5221 61.4998C79.2221 59.4998 78.1221 58.9998 75.1221 59.0998C73.1221 59.1998 70.6221 59.3998 69.7221 59.6998ZM78.8221 62.3998C79.4221 63.0998 79.7221 64.3998 79.4221 65.1998C78.8221 66.7998 74.7221 68.9998 72.5221 68.9998C71.1221 68.9998 69.5221 63.3998 70.5221 61.8998C71.3221 60.4998 77.5221 60.7998 78.8221 62.3998Z" fill="#151515"/>
<path d="M74.2221 75.0998L71.1221 75.9998L72.4221 81.5998C73.1221 84.5998 73.9221 87.2998 74.2221 87.5998C75.1221 88.4998 82.6221 86.0998 85.3221 83.8998C88.4221 81.4998 88.6221 78.6998 85.9221 75.9998C83.8221 73.8998 79.6221 73.4998 74.2221 75.0998ZM84.9221 77.4998C87.2221 80.1998 83.8221 83.9998 77.8221 85.3998C75.4221 85.8998 75.1221 85.5998 74.2221 81.4998C73.3221 77.3998 73.4221 77.0998 75.3221 76.6998C80.0221 75.7998 83.7221 76.0998 84.9221 77.4998Z" fill="#151515"/>
<path d="M19.5223 67.5C17.7223 70.3 17.4223 72 18.9223 72C21.9223 72 20.5223 75.5 14.8223 82.3C9.12227 89.2 8.42227 89.7 6.32227 88.8C4.42228 87.9 3.52228 88 1.92228 89.5C-0.677725 91.9 -0.577725 92.8 2.62228 96.2C5.12227 98.8 5.12227 99.1 3.62227 100.8C2.72228 101.8 1.92228 103.4 1.92228 104.2C1.92228 106.4 4.62228 108.3 6.82228 107.7C8.22227 107.4 8.62228 107.6 8.22227 108.6C7.52227 110.4 9.62228 113 11.7223 113C12.6223 113 14.3223 112.1 15.5223 110.9C17.6223 109 17.9223 108.9 20.7223 110.4C26.0223 113.1 30.6223 112.5 34.6223 108.5C37.5223 105.6 38.0223 104.4 37.7223 101.6C37.4223 98.8 37.7223 98.1 40.0223 97.1C44.9223 95 46.5223 87.3 42.9223 82.7C40.9223 80.2 40.9223 80.2 42.9223 77.7C45.5223 74.4 45.4223 73.6 42.4223 72C40.1223 70.8 39.6223 70.9 37.1223 73.1L34.4223 75.5L36.7223 72.9C39.5223 69.7 39.4223 68.9 36.2223 66.6L33.6223 64.7L31.2223 67.4L28.9223 70.1L25.8223 67.6C22.0223 64.4 21.5223 64.4 19.5223 67.5ZM25.9223 70.2L28.9223 72.4L31.2223 70.2C35.4223 66.2 37.4223 67.8 34.2223 72.6C32.8223 74.9 32.8223 75.3 34.1223 76.6C35.5223 78 35.9223 77.9 37.7223 75.5C39.1223 73.7 40.4223 73 41.5223 73.4C43.0223 74 43.0223 74.2 41.5223 76.3C38.7223 80.1 38.6223 80.9 40.8223 83.6C44.6223 88.4 42.5223 96 37.3223 96C35.0223 96 34.9223 96.2 35.5223 100.1C36.1223 103.6 35.8223 104.5 33.3223 107.1C29.9223 110.6 24.9223 111 20.4223 108L17.4223 106.1L14.7223 108.7C12.5223 110.8 11.6223 111.1 10.7223 110.2C9.82228 109.3 10.1223 108.4 11.9223 106.5C14.2223 104.1 14.2223 103.9 12.6223 102.2C10.9223 100.6 10.7223 100.7 8.52227 103.5C6.62228 105.8 5.82227 106.2 4.92228 105.3C3.92227 104.4 4.12227 103.5 5.82227 101.2L7.92228 98.2L4.82227 95.5C1.92228 93.1 1.72228 92.7 3.22228 91.3C4.52227 90 5.12227 89.9 6.32227 90.9C7.22227 91.6 8.32228 92 8.82228 91.8C10.6223 91.2 22.9223 75.5 22.9223 73.8C22.9223 72.9 22.2223 71.7 21.3223 71.2C19.6223 70.3 20.1223 68 22.0223 68C22.5223 68 24.3223 69 25.9223 70.2Z" fill="#151515"/>
<path d="M26.5221 82.1001C23.3221 85.9001 23.3221 86.4001 26.5221 88.9001C30.8221 92.3001 35.9221 91.2001 35.9221 86.9001C35.9221 85.1001 31.3221 79.0001 29.9221 79.0001C29.4221 79.0001 27.9221 80.4001 26.5221 82.1001ZM32.4221 84.0001C35.9221 87.8001 31.6221 90.9001 27.7221 87.3001C26.0221 85.8001 26.0221 85.6001 27.5221 83.8001C29.6221 81.5001 30.2221 81.5001 32.4221 84.0001Z" fill="#151515"/>
<path d="M17.922 92.3003C13.722 97.4003 13.722 97.6003 17.722 100.4C22.222 103.5 26.422 103.8 27.922 101.1C29.422 98.3003 29.222 97.5003 26.322 94.1003C22.122 89.1003 20.822 88.8003 17.922 92.3003ZM24.322 94.9003C27.522 98.3003 27.222 101 23.722 101C22.422 101 20.322 100.1 19.022 99.1003C16.622 97.3003 16.622 97.3003 18.522 94.7003C19.522 93.2003 20.722 92.0003 21.022 92.0003C21.322 92.0003 22.822 93.3003 24.322 94.9003Z" fill="#151515"/>
<path d="M22.4219 6.09952C21.6219 9.89952 20.0219 10.4995 14.9219 9.19952C11.6219 8.39952 10.9219 8.49952 10.9219 9.59952C10.9219 10.3995 12.0219 11.5995 13.4219 12.1995C16.5219 13.5995 16.5219 14.5995 13.3219 27.7995C10.3219 39.8995 9.52187 41.2995 6.32188 40.6995C4.42188 40.3995 2.92188 41.5995 2.92188 43.4995C2.92188 43.5995 5.02188 44.2995 7.52187 44.8995L12.0219 46.0995L11.3219 50.4995C10.6219 55.6995 12.6219 56.9995 13.5219 51.9995C14.3219 48.1995 15.9219 46.8995 18.8219 47.6995C20.9219 48.1995 21.0219 48.6995 20.4219 52.5995C19.7219 57.6995 21.6219 58.8995 22.6219 53.9995C23.3219 50.0995 24.1219 49.6995 31.0219 49.5995C38.3219 49.4995 40.9219 47.2995 41.6219 40.7995C42.1219 36.7995 41.8219 36.0995 39.3219 34.0995L36.5219 31.8995L39.7219 29.3995C45.2219 25.0995 43.9219 18.5995 36.8219 14.9995C33.7219 13.3995 32.9219 12.4995 33.3219 10.9995C33.7219 9.89952 34.2219 8.09952 34.5219 6.99952C34.8219 5.69952 34.6219 4.99952 33.6219 4.99952C32.7219 4.99952 31.9219 6.39952 31.5219 8.59952C30.8219 11.7995 30.5219 12.0995 27.6219 11.7995C24.3219 11.4995 24.0219 10.7995 25.3219 5.49952C25.8219 3.69952 25.5219 2.99952 24.5219 2.99952C23.7219 2.99952 22.8219 4.39952 22.4219 6.09952ZM30.6219 16.9995C35.2219 19.0995 36.9219 22.3995 35.0219 25.7995C33.5219 28.4995 30.6219 29.2995 25.3219 28.4995C20.1219 27.7995 19.9219 26.9995 22.0219 18.6995C23.1219 14.3995 24.4219 14.0995 30.6219 16.9995ZM26.0219 31.4995C31.6219 33.4995 33.9219 35.6995 33.9219 38.9995C33.9219 43.5995 30.9219 45.3995 23.8219 44.6995C20.4219 44.3995 17.3219 43.5995 16.9219 42.9995C16.2219 41.7995 17.9219 33.3995 19.3219 31.0995C20.2219 29.6995 20.8219 29.6995 26.0219 31.4995Z" fill="#ECC115"/>
<path d="M21.9218 69.9C21.9218 70.5 22.4218 71.2 22.9218 71.5C25.2218 72.9 23.5218 76.6 16.8218 84.6C12.9218 89.2 9.32178 93 8.72178 93C8.22178 93 6.92178 92.5 5.92178 92C2.62178 90.3 2.62178 92.7 5.92178 95.1C9.42178 97.8 9.62178 99 6.92178 101.5C5.82178 102.5 4.92178 103.8 4.92178 104.3C4.92178 104.9 6.22178 104.1 7.82178 102.6C10.4218 100.2 10.9218 100 12.8218 101.2C15.4218 102.8 15.4218 103.5 12.8218 107.1C11.7218 108.7 11.2218 110 11.7218 110C12.3218 110 13.6218 108.8 14.7218 107.3L16.6218 104.7L20.1218 106.8C24.9218 109.8 29.3218 109.6 32.6218 106.4C34.8218 104.2 35.0218 103.3 34.4218 99.4C33.8218 95.2 33.9218 95 36.2218 95C41.6218 95 43.6218 88.4 39.8218 83.6C37.9218 81.1 37.8218 80.6 39.0218 78.2C41.3218 73.6 41.3218 73.4 38.6218 75.8C36.9218 77.5 35.4218 78 34.0218 77.5C31.6218 76.8 31.2218 73.8 33.4218 72C34.2218 71.3 34.9218 70.3 34.9218 69.7C34.9218 69.1 33.9218 69.6 32.6218 70.8C29.7218 73.5 27.7218 73.6 25.4218 71C23.5218 68.9 21.9218 68.4 21.9218 69.9ZM33.6218 81.2C35.4218 83 36.9218 85.4 36.9218 86.6C36.9218 89.4 34.4218 92 31.7218 92C28.9218 92 22.9218 88.2 22.9218 86.4C22.9218 84.6 28.0218 78 29.4218 78C29.9218 78 31.8218 79.4 33.6218 81.2ZM25.8218 92.5C30.3218 97.4 30.6218 98.5 28.3218 101.8C25.8218 105.4 19.1218 104.2 14.5218 99.2C12.7218 97.1 12.7218 97 16.4218 92.6C18.5218 90 20.5218 88 20.9218 88C21.3218 88 23.5218 90 25.8218 92.5Z" fill="#C1EC6B"/>
<path d="M69.9219 46.7999C69.9219 47.1999 70.3219 48.9999 70.8219 50.7999C71.6219 53.4999 71.5219 54.1999 69.8219 55.0999C66.9219 56.5999 65.1219 55.5999 64.1219 51.7999C63.0219 47.2999 61.4219 48.0999 61.4219 53.2999C61.4219 57.3999 61.3219 57.4999 57.2219 58.3999C54.2219 58.9999 52.9219 59.7999 52.9219 60.9999C52.9219 62.1999 53.6219 62.5999 55.7219 62.1999C57.3219 61.9999 59.0219 62.3999 59.6219 63.1999C60.8219 64.7999 65.9219 84.9999 65.9219 88.4999C65.9219 90.2999 65.2219 91.0999 63.4219 91.5999C61.8219 91.9999 60.9219 92.8999 60.9219 94.1999C60.9219 95.8999 61.3219 96.0999 64.2219 95.3999C70.3219 93.9999 71.3219 94.2999 72.5219 97.9999C74.2219 103.2 76.3219 103.3 75.4219 97.9999C74.9219 94.8999 75.0219 93.4999 76.0219 92.8999C79.0219 90.9999 80.8219 91.9999 81.9219 95.9999C83.4219 101.6 85.3219 101.2 84.5219 95.4999L83.8219 90.9999L88.1219 89.0999C94.2219 86.4999 96.4219 83.6999 96.4219 78.4999C96.4219 73.5999 93.9219 69.9999 90.3219 69.9999C87.1219 69.9999 86.7219 68.7999 88.5219 65.1999C89.8219 62.4999 89.8219 61.6999 88.5219 58.5999C87.0219 54.8999 85.6219 54.1999 78.4219 53.7999C74.7219 53.4999 74.4219 53.1999 73.6219 49.6999C73.1219 47.5999 72.1219 45.9999 71.3219 45.9999C70.5219 45.9999 69.9219 46.2999 69.9219 46.7999ZM79.7219 59.5999C81.9219 61.0999 82.6219 65.2999 81.1219 67.6999C80.1219 69.1999 73.6219 71.9999 71.0219 71.9999C69.4219 71.9999 68.8219 70.8999 67.9219 66.3999C67.2219 63.2999 67.1219 60.3999 67.6219 59.9999C69.9219 57.7999 76.8219 57.5999 79.7219 59.5999ZM86.4219 75.4999C89.5219 78.4999 89.6219 80.9999 86.6219 83.7999C84.1219 86.1999 76.1219 89.2999 74.3219 88.5999C73.1219 88.1999 70.9219 80.5999 70.9219 77.0999C70.9219 75.5999 71.9219 74.8999 75.2219 74.1999C82.0219 72.5999 83.8219 72.8999 86.4219 75.4999Z" fill="#ECECEC"/>
</svg>
