<svg width="65" height="65" viewBox="0 0 65 65" fill="none" xmlns="http://www.w3.org/2000/svg">
<g clip-path="url(#clip0_1_45999)">
<path d="M32.5006 63.6018L24.4482 62.5489L16.9476 59.4393L10.5084 54.4919L5.56093 48.0526L2.45128 40.552L1.39844 32.4996L2.45128 24.4472L5.56093 16.9467L10.5084 10.5074L16.9476 5.55996L24.4482 2.45031L32.5006 1.39746L40.553 2.45031L48.0545 5.55996L54.4938 10.5074L59.4403 16.9467L62.5499 24.4472L63.6028 32.4996L62.5499 40.552L59.4403 48.0535L54.4928 54.4928L48.0536 59.4393L40.553 62.5489L32.5006 63.6018Z" fill="#FFC700"/>
<path d="M32.6833 65H32.3176L24.2653 63.9472L23.908 63.8513L16.4065 60.7416L16.0878 60.5574L9.64857 55.6099L9.38912 55.3514L4.44169 48.9122L4.25744 48.5925L1.14779 41.092L1.0519 40.7347L0 32.6824V32.3167L1.05284 24.2652L1.14873 23.908L4.25838 16.4065L4.44263 16.0869L9.39006 9.64763L9.64951 9.38912L16.0888 4.44169L16.4084 4.25744L23.909 1.14779L24.2662 1.0519L32.3176 0H32.6833L40.7357 1.05284L41.0929 1.14873L48.5944 4.25838L48.9131 4.44263L55.3524 9.39006L55.6118 9.64857L60.5592 16.0878L60.7435 16.4075L63.8532 23.908L63.949 24.2652L65.0019 32.3167V32.6824L63.949 40.7347L63.8532 41.092L60.7435 48.5935L60.5592 48.9131L55.6118 55.3524L55.3524 55.6109L48.9131 60.5583L48.5935 60.7426L41.0929 63.8522L40.7357 63.9481L32.6833 65ZM24.8161 61.1759L32.5009 62.1799L40.1858 61.1759L47.3423 58.2091L53.4873 53.4873L58.2092 47.3423L61.1759 40.1848L62.1799 32.5L61.1759 24.8161L58.2092 17.6596L53.4873 11.5145L47.3423 6.79273L40.1848 3.82502L32.5 2.82012L24.8152 3.82408L17.6586 6.79085L11.5136 11.5127L6.79179 17.6577L3.82502 24.8152L2.82012 32.5L3.82408 40.1848L6.79085 47.3413L11.5127 53.4873L17.6577 58.2091L24.8161 61.1759Z" fill="#231F20"/>
<path d="M46.9009 25.9074L46.7345 28.1024L46.2363 30.2457L45.4157 32.2865L44.2914 34.1788L42.8926 35.8775L41.2541 37.3449L40.2953 38.2144L39.4934 39.2297L38.8608 40.3587L38.4058 41.5704L38.1322 42.8357L38.041 44.1273V44.9273V45.7263V46.5291V47.3328V48.1394V48.9459L37.8455 50.4096L37.2693 51.7679L36.3555 52.9261L35.1702 53.8041L33.7949 54.3371L32.3275 54.4875L30.8996 54.2449L29.592 53.6254L28.4902 52.6873L27.6574 51.5038L27.1366 50.152L26.9589 48.7156V47.9579V47.2022V46.4426V45.6821V44.9188V44.1555L26.8677 42.8563L26.5923 41.5845L26.1345 40.3662L25.4981 39.2306L24.6906 38.2097L23.7271 37.3355L22.0416 35.8117L20.6146 34.0435L19.4818 32.0741L18.6743 29.9505L18.2137 27.7255L18.1094 25.4553L18.6687 21.9386L20.0863 18.671L22.255 15.8462L25.0403 13.6258L28.2815 12.1528L31.7888 11.5352L35.6515 11.8623L39.2857 13.2103L42.4273 15.4805L44.8526 18.5046L46.382 22.0655L46.9009 25.9074Z" fill="white"/>
<path d="M32.4714 55.8901L32.0925 55.8779L30.6655 55.6354L30.298 55.5197L28.9904 54.9003L28.6792 54.6991L27.3387 53.4987L26.3432 52.0106L25.7388 50.3251L25.5508 48.7157V44.2054L25.4699 43.0567L25.2377 41.9841L24.8542 40.9632L24.325 40.0185L23.6594 39.1762L20.9474 36.6973L19.3945 34.7467L18.1658 32.5753L17.2954 30.2364L16.8075 27.7904L16.7031 25.5203L16.7191 25.2335L17.3781 21.3775L18.9705 17.8129L21.3789 14.7446L24.4585 12.3428L28.04 10.7635L31.9092 10.1309L35.7718 10.4571L36.1441 10.5398L39.7783 11.8878L40.1139 12.0664L43.2555 14.3375L43.529 14.5979L45.9543 17.6211L46.1499 17.9464L47.6793 21.5082L47.7808 21.8757L48.3082 26.0119L48.1099 28.4203L47.5468 30.7704L46.6293 33.0049L45.3819 35.072L43.8355 36.9258L41.3312 39.1781L40.6704 40.0147L40.1449 40.9529L39.7642 41.9681L39.5339 43.0341L39.453 44.1753L39.4408 49.1312L39.2453 50.5949L39.1456 50.9587L38.5694 52.317L38.3786 52.6404L37.4648 53.7985L37.1969 54.058L36.0115 54.936L35.6825 55.1174L34.3073 55.6504L33.9406 55.7388L32.4714 55.8901ZM31.3283 52.8867L32.3755 53.0644L33.4631 52.9534L34.484 52.5577L35.3657 51.9044L36.0463 51.0423L36.474 50.0327L36.632 48.8511L36.6357 44.0259L36.7551 42.5369L37.087 41.0742L37.6312 39.6688L38.388 38.3546L39.3487 37.1692L41.8727 34.8972L43.1342 33.3649L44.1476 31.6597L44.8874 29.82L45.3367 27.8882L45.4834 25.9489L45.0105 22.4454L43.6324 19.237L41.4469 16.5119L38.6155 14.4654L35.3413 13.2509L31.8519 12.9566L28.7018 13.5103L25.782 14.8376L23.2684 16.8418L21.3103 19.3921L20.0337 22.3363L19.5242 25.5353L19.6172 27.5498L20.0327 29.5558L20.7603 31.4688L21.7822 33.2455L23.07 34.8407L25.7971 37.3366L26.7287 38.5417L27.4553 39.8709L27.9714 41.2866L28.275 42.7578L28.37 44.1556V48.6293L28.5157 49.8081L28.9114 50.8346L29.5422 51.7304L30.3657 52.4327L31.3283 52.8867Z" fill="#231F20"/>
<path d="M38.0431 44.9541V45.6178V46.2796V46.9442V47.6107V48.2781V48.9465L37.8475 50.4101L37.2713 51.7685L36.3576 52.9266L35.1722 53.8046L33.7969 54.3376L32.3295 54.488L30.9016 54.2455L29.594 53.626L28.4923 52.6878L27.6594 51.5043L27.1386 50.1525L26.9609 48.7161V48.091V47.4678V46.8408V46.2138V45.5839V44.9541H28.8053H30.6515H32.4968H34.344H36.194H38.0431Z" fill="#231F20"/>
<path d="M32.4714 55.8905L32.0925 55.8782L30.6655 55.6357L30.298 55.5201L28.9904 54.9006L28.6792 54.6994L27.3387 53.499L26.3432 52.0109L25.7388 50.3254L25.5508 48.7161V44.955L26.9608 43.5449H38.043L39.453 44.955L39.4408 49.1335L39.2453 50.5971L39.1456 50.9609L38.5694 52.3193L38.3786 52.6426L37.4648 53.8008L37.1969 54.0602L36.0115 54.9382L35.6825 55.1196L34.3073 55.6526L33.9406 55.741L32.4714 55.8905ZM31.3283 52.887L32.3755 53.0647L33.4631 52.9538L34.484 52.558L35.3657 51.9047L36.0463 51.0427L36.474 50.0331L36.632 48.8514V46.3632H28.37V48.6277L28.5157 49.8065L28.9114 50.8331L29.5422 51.7289L30.3657 52.4311L31.3283 52.887Z" fill="#231F20"/>
</g>
<defs>
<clipPath id="clip0_1_45999">
<rect width="65" height="65" fill="white"/>
</clipPath>
</defs>
</svg>
