<svg width="18" height="17" viewBox="0 0 18 17" fill="none" xmlns="http://www.w3.org/2000/svg">
<path d="M16.3333 9.4912C15.2408 11.4077 13.1788 12.6997 10.815 12.6997C7.3092 12.6997 4.46729 9.8578 4.46729 6.3521C4.46729 3.98811 5.7596 1.92595 7.6762 0.833496C3.64983 1.21526 0.5 4.6059 0.5 8.7323C0.5 13.1144 4.05243 16.6668 8.4346 16.6668C12.5607 16.6668 15.9513 13.5173 16.3333 9.4912Z" fill="#131D30"/>
<path d="M13.8333 6.6667L13.3185 5.637C13.0973 5.1945 12.9866 4.9733 12.8389 4.7816C12.7077 4.6115 12.5552 4.4589 12.3851 4.3278C12.1934 4.18 11.9721 4.0694 11.5297 3.84816L10.5 3.33333L11.5297 2.81851C11.9721 2.59727 12.1934 2.48665 12.3851 2.33886C12.5552 2.20773 12.7077 2.05522 12.8389 1.88509C12.9866 1.69338 13.0973 1.47213 13.3185 1.02965L13.8333 0L14.3482 1.02965C14.5694 1.47213 14.68 1.69338 14.8278 1.88509C14.9589 2.05522 15.1114 2.20773 15.2816 2.33886C15.4733 2.48665 15.6945 2.59727 16.137 2.81851L17.1667 3.33333L16.137 3.84816C15.6945 4.0694 15.4733 4.18 15.2816 4.3278C15.1114 4.4589 14.9589 4.6115 14.8278 4.7816C14.68 4.9733 14.5694 5.1945 14.3482 5.637L13.8333 6.6667Z" fill="#131D30"/>
</svg>
