<svg width="74" height="63" viewBox="0 0 74 63" fill="none" xmlns="http://www.w3.org/2000/svg">
<g clip-path="url(#clip0_1_45992)">
<path d="M62.211 1.28809H56.0518H49.8909H43.7334H37.5708H31.4029H25.236L22.5211 1.64455L19.9936 2.69334L17.8234 4.35627L16.153 6.51482L15.099 9.02984L14.7408 11.7313V14.729V17.7293V20.7305V23.7317V26.7389V29.7452L12.7562 34.6902L10.7716 39.6361L8.7879 44.5794L6.80246 49.527L4.81529 54.478L2.82812 59.429L6.02296 57.1777L9.21693 54.9272L12.4109 52.6767L15.6057 50.4254L18.8058 48.1707L22.0058 45.9151L22.5306 46.0705L23.0624 46.1994L23.6002 46.2999L24.1423 46.372L24.6887 46.4158L25.236 46.4304H31.3952H37.5561H43.7136H49.877H56.044H62.211L64.9258 46.0731L67.4534 45.0243L69.6236 43.3622L71.2939 41.2028L72.3479 38.6878L72.7062 35.9864V31.9459V27.9071V23.8674V19.8235V15.7778V11.7313L72.3479 9.02984L71.2939 6.51482L69.6236 4.35541L67.4534 2.69334L64.9258 1.64455L62.211 1.28809Z" fill="white"/>
<path d="M0 63L13.4449 29.4982L13.4561 11.5632L13.8368 8.69176L15.022 5.86322L17.0325 3.33532L19.3373 1.57017L22.18 0.389965L25.235 0L62.3791 0.0111664L65.2649 0.389965L68.1076 1.56931L70.6481 3.56981L72.422 5.86322L73.6081 8.69176L74 11.7316L73.9888 36.1551L73.6081 39.0266L72.4229 41.8551L70.4124 44.383L68.1076 46.1482L65.2649 47.3284L62.2099 47.7183L24.6531 47.7037L23.4273 47.5775L22.2421 47.3275L0 63ZM16.0346 11.8166V29.9938L5.65506 55.8587L21.7717 44.5024L23.3669 44.9482L24.3139 45.096L25.2704 45.1432H62.1262L64.5864 44.8194L66.7989 43.9012L68.7006 42.4444L70.1646 40.5521L71.0874 38.3514L71.412 35.9034V11.8166L71.0874 9.36861L70.1646 7.16711L68.7006 5.27484L66.7989 3.81805L64.5873 2.89983L62.1271 2.57686H25.3204L22.8602 2.89983L20.6486 3.81805L18.7469 5.27484L17.2828 7.16711L16.3609 9.36775L16.0363 11.8158L16.0346 11.8166Z" fill="#231F20"/>
<path d="M34.9614 31.2758L31.6026 27.4973L29.7656 22.9371L30.3431 18.2223C32.427 12.9148 40.3705 12.1297 43.6309 17.3925L43.7121 17.3899C44.255 16.0251 45.6319 14.9428 46.9647 14.2608C50.1613 13.2996 52.9349 13.7583 55.6653 15.8103C62.4779 24.8027 49.709 37.3589 39.4839 33.7625L34.9606 31.2767L34.9614 31.2758Z" fill="#CF21A9"/>
<path d="M44.4007 35.3235L39.4077 34.5488L38.9813 34.4036L34.5434 31.9667L34.199 31.6919L30.9031 27.9812L30.6718 27.6075L28.8728 23.1461L28.7891 22.5097L29.3562 17.8979L29.5099 17.4289L30.5112 15.6346L30.7987 15.2833L32.6667 13.7406L34.59 12.8078L35.0337 12.6832L37.2229 12.4736L37.5569 12.4848L39.7547 12.8447L40.1147 12.9589L41.2412 13.5121L42.4895 14.2774L43.6281 15.3992L43.7524 15.2377L44.4041 14.481L44.6717 14.2457L45.5229 13.6839L46.4586 13.129L46.8402 12.9787L49.2926 12.4779L51.5258 12.5277L51.9074 12.5939L54.3305 13.4408L56.2141 14.6408L56.6008 15.023L57.7843 16.8302L57.9431 17.1764L58.6769 19.8349L58.7874 22.252L58.7295 22.6952L57.9025 25.23L56.5576 27.544L54.9416 29.365L53.3015 31.0949L51.5163 32.5672L49.4256 33.9741L47.1052 34.8571L44.8573 35.3132L44.3989 35.3235H44.4007ZM40.0318 32.038L44.569 32.7415L46.4793 32.3541L48.3396 31.6292L49.991 30.4833L51.5845 29.164L53.027 27.6299L54.5273 25.9386L55.5813 24.0807L56.1907 22.1412L56.0975 20.1029L55.5088 18.0749L54.5825 16.661L53.0684 15.6973L51.2712 15.0995L49.3893 15.0574L47.5998 15.4499L46.2515 16.2925L45.7456 16.8792L45.2829 17.5002L44.979 18.281L42.6509 18.4623L42.1494 17.6007L41.47 16.8758L40.8053 16.2427L39.9749 15.7609L39.1436 15.3554L37.3006 15.0539L35.5128 15.2249L33.9503 15.9833L32.6615 17.0862L31.895 18.4597L31.3995 22.4933L32.9913 26.4411L35.9902 29.8176L40.031 32.0372L40.0318 32.038Z" fill="#231F20"/>
</g>
<defs>
<clipPath id="clip0_1_45992">
<rect width="74" height="63" fill="white"/>
</clipPath>
</defs>
</svg>
