<svg width="17" height="18" viewBox="0 0 17 18" fill="none" xmlns="http://www.w3.org/2000/svg">
<path d="M8.5 1.5V3M8.5 15V16.5M2.5 9H1M4.23559 4.73559L3.17493 3.67493M12.7644 4.73559L13.8251 3.67493M4.23559 13.2675L3.17493 14.3282M12.7644 13.2675L13.8251 14.3282M16 9H14.5M12.25 9C12.25 11.0711 10.5711 12.75 8.5 12.75C6.4289 12.75 4.75 11.0711 4.75 9C4.75 6.9289 6.4289 5.25 8.5 5.25C10.5711 5.25 12.25 6.9289 12.25 9Z" stroke-width="1.5" stroke-linecap="round" stroke-linejoin="round"/>
<path d="M8.5 1.5V3M8.5 15V16.5M2.5 9H1M4.23559 4.73559L3.17493 3.67493M12.7644 4.73559L13.8251 3.67493M4.23559 13.2675L3.17493 14.3282M12.7644 13.2675L13.8251 14.3282M16 9H14.5M12.25 9C12.25 11.0711 10.5711 12.75 8.5 12.75C6.4289 12.75 4.75 11.0711 4.75 9C4.75 6.9289 6.4289 5.25 8.5 5.25C10.5711 5.25 12.25 6.9289 12.25 9Z" stroke-width="1.5" stroke-linecap="round" stroke-linejoin="round"/>
</svg>
