<svg width="105" height="22" viewBox="0 0 105 22" fill="none" xmlns="http://www.w3.org/2000/svg">
<path d="M0 1.78949H0.964107V20.6947H0V1.78949ZM5.78464 1.78949H6.74875V16.0118H13.8481V16.9657H6.74875V17.9196H13.8481V18.8736H6.74875V19.8275H13.8481V20.7814H5.87229V1.87621L5.78464 1.78949ZM3.85643 1.78949H4.82053V20.6947H3.85643V1.78949ZM1.92821 1.78949H2.89232V20.6947H1.92821V1.78949ZM21.6486 1.78949H22.6127V20.6947H21.6486V1.78949ZM19.7204 1.78949H20.6845V20.6947H19.7204V1.78949ZM17.7922 1.78949H18.7563V20.6947H17.7922V1.78949ZM15.8639 1.78949H16.828V20.6947H15.8639V1.78949ZM45.1377 1.78949H44.086L38.7396 11.3288L43.9983 20.6947H45.0501L39.7913 11.3288L45.1377 1.78949ZM43.0342 1.78949H41.9825L36.6361 11.3288L41.8948 20.6947H42.9466L37.6878 11.3288L43.0342 1.78949ZM40.9307 1.78949H39.879L34.5326 11.3288L39.7913 20.6947H40.8431L35.5843 11.3288L40.9307 1.78949ZM38.8272 1.78949H37.7755L32.429 11.3288L37.6878 20.6947H38.7396L33.4808 11.3288L38.8272 1.78949ZM30.8514 1.78949H31.8155V20.6947H30.8514V1.78949ZM28.9232 1.78949H29.8873V20.6947H28.9232V1.78949ZM26.995 1.78949H27.9591V20.6947H26.995V1.78949ZM25.0668 1.78949H26.0309V20.6947H25.0668V1.78949ZM61.9658 13.0632L61.0017 11.3288V1.78949H61.9658V13.0632ZM63.894 16.3587L62.9299 14.7977V1.78949H63.894V16.3587ZM50.7471 9.42095L51.7112 11.1554V20.6947H50.7471V9.42095ZM48.8189 6.03883L49.783 7.77325V20.7814H48.8189V6.03883ZM49.1694 1.78949H50.3088L61.3523 20.6947H60.2129L49.1694 1.78949ZM51.4482 1.78949H52.5876L63.6311 20.6947H62.4916L51.4482 1.78949ZM53.727 1.78949H54.8664L64.9457 19.047V1.78949H65.9099V20.6947H64.7704L53.727 1.78949ZM47.9424 3.43719V20.7814H46.9783V1.87621H48.1177L59.1611 20.7814H58.0217L47.8548 3.43719H47.9424ZM75.7262 8.55374C74.9374 9.33423 74.5868 10.2014 74.5868 11.2421C74.5868 12.2828 74.9374 13.15 75.7262 13.9305C76.515 14.7109 77.3915 15.0578 78.4432 15.0578C79.495 15.0578 80.3714 14.7109 81.1603 13.9305C81.9491 13.15 82.2997 12.2828 82.2997 11.2421C82.2997 10.2014 81.9491 9.33423 81.1603 8.55374C80.3714 7.77325 79.495 7.42637 78.4432 7.42637C77.3915 7.42637 76.515 7.77325 75.7262 8.55374ZM75.025 14.5375C74.0609 13.5836 73.6227 12.5429 73.6227 11.1554C73.6227 9.85456 74.0609 8.72718 75.025 7.77325C75.9891 6.81932 77.0409 6.38571 78.4432 6.38571C79.7579 6.38571 80.8973 6.81932 81.8614 7.77325C82.8255 8.72718 83.2638 9.85456 83.2638 11.1554C83.2638 12.4562 82.8255 13.5836 81.8614 14.5375C80.8973 15.4914 79.7579 15.925 78.4432 15.925C77.1285 15.925 75.9891 15.4914 75.025 14.5375ZM74.3239 7.1662C73.1845 8.29358 72.6586 9.5944 72.6586 11.1554C72.6586 12.7164 73.1845 14.0172 74.3239 15.1446C75.4633 16.2719 76.778 16.7923 78.3556 16.7923C79.9332 16.7923 81.3356 16.2719 82.3873 15.1446C83.5267 14.0172 84.0526 12.7164 84.0526 11.1554C84.0526 9.5944 83.5267 8.29358 82.3873 7.1662C81.2479 6.03883 79.9332 5.5185 78.3556 5.5185C76.778 5.5185 75.4633 6.03883 74.3239 7.1662ZM72.571 14.5375C71.9574 13.4969 71.6945 12.3695 71.6945 11.2421C71.6945 10.028 71.9574 8.90063 72.571 7.94669C73.1845 6.90604 73.9733 6.12555 75.025 5.5185C76.0768 4.91145 77.2162 4.65129 78.3556 4.65129C79.5826 4.65129 80.722 4.91145 81.6861 5.5185C82.7379 6.12555 83.5267 6.90604 84.1402 7.94669C84.7538 8.98735 85.0167 10.1147 85.0167 11.2421C85.0167 12.4562 84.7538 13.5836 84.1402 14.5375C83.5267 15.5782 82.7379 16.3587 81.6861 16.9657C80.6344 17.5728 79.495 17.8329 78.3556 17.8329C77.1285 17.8329 75.9891 17.5728 75.025 16.9657C73.9733 16.3587 73.1845 15.5782 72.571 14.5375ZM71.3439 8.29358C70.9057 9.24751 70.7304 10.2014 70.7304 11.2421C70.7304 12.2828 70.9057 13.2367 71.3439 14.1906C71.7821 15.1446 72.308 15.925 73.0092 16.6188C73.7104 17.3126 74.4992 17.8329 75.4633 18.2665C76.4274 18.7001 77.3915 18.8736 78.4432 18.8736C79.495 18.8736 80.4591 18.7001 81.4232 18.2665C82.3873 17.8329 83.1761 17.3126 83.8773 16.6188C84.5785 15.925 85.1043 15.1446 85.5426 14.1906C85.9808 13.2367 86.1561 12.2828 86.1561 11.2421C86.1561 10.2014 85.9808 9.24751 85.5426 8.29358C85.1043 7.33964 84.5785 6.55915 83.8773 5.86538C83.1761 5.17161 82.3873 4.65129 81.4232 4.21768C80.4591 3.78407 79.495 3.61063 78.4432 3.61063C77.3915 3.61063 76.4274 3.78407 75.4633 4.21768C74.4992 4.65129 73.7104 5.17161 73.0092 5.86538C72.308 6.55915 71.7821 7.33964 71.3439 8.29358ZM70.4674 14.5375C70.0292 13.4969 69.7663 12.3695 69.7663 11.2421C69.7663 10.1147 70.0292 8.98735 70.4674 7.94669C70.9057 6.90604 71.5192 5.9521 72.308 5.25833C73.0968 4.47784 73.9733 3.8708 75.025 3.43719C76.0768 3.00358 77.2162 2.74342 78.3556 2.74342C79.495 2.74342 80.6344 3.00358 81.6861 3.43719C82.7379 3.8708 83.702 4.47784 84.4032 5.25833C85.192 6.03883 85.8055 6.90604 86.2437 7.94669C86.682 8.98735 86.9449 10.1147 86.9449 11.2421C86.9449 12.3695 86.682 13.4969 86.2437 14.5375C85.8055 15.5782 85.192 16.5321 84.4032 17.2259C83.6143 18.0064 82.7379 18.6134 81.6861 19.047C80.6344 19.4806 79.495 19.7408 78.3556 19.7408C77.2162 19.7408 76.0768 19.4806 75.025 19.047C73.9733 18.6134 73.0092 18.0064 72.308 17.2259C71.5192 16.4454 70.9057 15.5782 70.4674 14.5375ZM69.591 7.51309C69.0651 8.64046 68.8022 9.94128 68.8022 11.1554C68.8022 12.4562 69.0651 13.6703 69.591 14.7977C70.1169 16.0118 70.818 16.9657 71.6068 17.8329C72.4833 18.7001 73.4474 19.3939 74.6745 19.8275C75.8139 20.3478 77.1285 20.608 78.3556 20.608C79.6703 20.608 80.8973 20.3478 82.0367 19.8275C83.2638 19.3072 84.2279 18.6134 85.1043 17.8329C85.9808 16.9657 86.5943 16.0118 87.1202 14.7977C87.6461 13.6703 87.909 12.3695 87.909 11.1554C87.909 9.85456 87.6461 8.64046 87.1202 7.51309C86.5943 6.29899 85.8932 5.34506 85.1043 4.47784C84.2279 3.61063 83.2638 3.00358 82.0367 2.48326C80.8973 1.96293 79.5826 1.70276 78.3556 1.70276C77.0409 1.70276 75.8139 1.96293 74.6745 2.48326C73.4474 3.00358 72.4833 3.69735 71.6068 4.47784C70.7304 5.34506 70.0292 6.29899 69.591 7.51309ZM68.7145 15.2313C68.1886 13.9305 67.8381 12.6296 67.8381 11.1554C67.8381 9.76784 68.101 8.3803 68.7145 7.07948C69.2404 5.77866 70.0292 4.65129 70.9933 3.78407C71.9574 2.83014 73.0092 2.13637 74.3239 1.52932C75.6386 1.00899 76.9533 0.662109 78.4432 0.662109C79.8456 0.662109 81.2479 0.922273 82.5626 1.52932C83.8773 2.04965 85.0167 2.83014 85.8932 3.78407C86.8573 4.73801 87.5584 5.77866 88.172 7.07948C88.6978 8.3803 89.0484 9.68112 89.0484 11.1554C89.0484 12.5429 88.7855 13.9305 88.172 15.2313C87.6461 16.5321 86.8573 17.6595 85.8932 18.5267C84.929 19.4806 83.8773 20.1744 82.5626 20.7814C81.2479 21.3018 79.9332 21.6486 78.4432 21.6486C77.0409 21.6486 75.6386 21.3885 74.3239 20.7814C73.0092 20.2611 71.8698 19.4806 70.9933 18.5267C70.0292 17.5728 69.328 16.5321 68.7145 15.2313ZM94.4825 6.99276H95.4466V20.6947H94.4825V6.99276ZM90.626 2.6567V1.70276H105V2.6567H90.626ZM90.626 4.56456V3.61063H105V4.56456H90.626ZM90.626 6.47243V5.5185H105V6.47243H90.626ZM100.179 6.99276H101.144V20.6947H100.179V6.99276ZM98.2513 6.99276H99.2154V20.6947H98.2513V6.99276ZM96.323 6.99276H97.2871V20.6947H96.323V6.99276Z" fill="#FFC700"/>
</svg>
