<svg width="99" height="24" viewBox="0 0 99 24" fill="none" xmlns="http://www.w3.org/2000/svg">
<path d="M0.0480001 23V0.599998H4.528V18.712H17.84V23H0.0480001ZM20.681 11.832C20.681 5.08 25.929 0.119999 32.969 0.119999C39.977 0.119999 45.225 4.824 45.225 11.832C45.225 18.744 39.977 23.48 32.969 23.48C25.961 23.48 20.681 18.488 20.681 11.832ZM25.161 11.832C25.161 16.152 28.425 19.192 32.969 19.192C37.609 19.192 40.745 16.152 40.745 11.832C40.745 7.416 37.609 4.408 32.969 4.408C28.393 4.408 25.161 7.416 25.161 11.832ZM51.5613 11.832C51.5613 16.248 54.7933 19.32 59.3053 19.32C62.7292 19.32 65.3853 17.336 66.2812 14.232H59.0813V10.488H71.4653V23H67.4333L67.0813 19.992C64.9693 22.232 62.1213 23.48 58.7613 23.48C52.0733 23.48 47.0813 18.488 47.0813 11.832C47.0813 5.08 52.1053 0.119999 59.0493 0.119999C64.7773 0.119999 69.2573 3.384 70.6973 8.536H66.2173C65.0013 5.88 62.3773 4.248 59.0173 4.248C54.6653 4.248 51.5613 7.384 51.5613 11.832ZM74.0247 11.832C74.0247 5.08 79.2728 0.119999 86.3128 0.119999C93.3208 0.119999 98.5688 4.824 98.5688 11.832C98.5688 18.744 93.3208 23.48 86.3128 23.48C79.3048 23.48 74.0247 18.488 74.0247 11.832ZM78.5048 11.832C78.5048 16.152 81.7688 19.192 86.3128 19.192C90.9528 19.192 94.0888 16.152 94.0888 11.832C94.0888 7.416 90.9528 4.408 86.3128 4.408C81.7368 4.408 78.5048 7.416 78.5048 11.832Z" fill="white"/>
</svg>
