<svg width="102" height="63" viewBox="0 0 102 63" fill="none" xmlns="http://www.w3.org/2000/svg">
<path d="M29.0473 0.0357895C28.9202 0.0516853 28.4195 0.107319 27.9347 0.155003C21.0837 0.838505 14.2726 4.105 9.25759 9.0882C4.30618 14.0078 1.21453 20.2388 0.229014 27.2566C0.0144266 28.7905 -0.072998 32.4703 0.0700604 34.0996C0.7933 42.3413 4.54461 49.7565 10.7597 55.1927C12.7466 56.9333 14.8607 58.348 17.3245 59.5799C20.2731 61.0581 22.9991 61.9562 26.1464 62.4887C28.1969 62.8305 28.9996 62.894 31.5508 62.8861C33.6014 62.8861 34.1815 62.8543 35.326 62.7033C40.2377 62.0516 44.593 60.462 48.5668 57.887C49.608 57.2114 50.8796 56.2657 50.8478 56.1862C50.8319 56.1465 50.5538 55.9001 50.2279 55.6299C44.5135 50.893 40.6271 44.1216 39.3793 36.7461C39.0217 34.6241 38.9184 33.1697 38.966 30.7854C39.0137 28.568 39.1488 27.1692 39.4985 25.4207C40.8814 18.5062 44.4658 12.307 49.7511 7.69736C50.363 7.15691 50.8637 6.7039 50.8637 6.67211C50.8558 6.64826 50.514 6.37009 50.0849 6.05219C46.4607 3.38176 41.9941 1.41869 37.5911 0.552387C35.3896 0.123211 33.8875 -0.011898 31.3522 0.0039978C30.2156 0.0039978 29.1824 0.0278397 29.0473 0.0357895Z" fill="#EC1515"/>
<path d="M49.7035 7.72902C44.4183 12.3784 40.8736 18.5299 39.4986 25.4206C38.99 27.9877 38.7992 31.6516 39.0536 34.2425C39.7132 41.1729 42.3598 47.2767 46.9218 52.4347C48.0345 53.6984 50.6254 56.0986 50.8638 56.0986C51.1738 56.0986 54.3926 52.999 55.5927 51.5446C59.3996 46.9429 61.7363 41.5782 62.5549 35.5539C62.7615 34.012 62.8489 30.515 62.7138 28.8937C62.086 21.3831 58.9228 14.564 53.6137 9.23907C52.4772 8.10256 50.9671 6.73555 50.8559 6.7435C50.84 6.7435 50.3234 7.18857 49.7035 7.72902Z" fill="#EC4015"/>
<path d="M67.7924 0.0436668C64.0729 0.425156 61.5534 1.02123 58.5333 2.22928C56.5782 3.0161 54.9966 3.85061 53.1368 5.05071C52.1275 5.71037 50.832 6.65614 50.8797 6.70383C50.8956 6.71178 51.1738 6.95021 51.4996 7.22043C55.6165 10.63 58.9625 15.3509 60.862 20.4215C63.9775 28.7269 63.4132 38.121 59.336 45.9733C57.4604 49.5816 54.7264 52.9991 51.7142 55.4947C51.1817 55.9397 50.8876 56.2338 50.9353 56.2815C51.1976 56.5438 53.1607 57.879 54.1621 58.4751C61.0925 62.6237 69.2627 63.9351 77.2104 62.1707C84.5858 60.5335 91.1347 56.2497 95.7046 50.0585C98.9553 45.6634 101.022 40.3066 101.61 34.7353C101.769 33.257 101.769 29.5455 101.61 28.1228C100.879 21.5898 98.3433 15.7642 94.0754 10.8366C93.1932 9.81137 91.5003 8.14236 90.483 7.29196C85.5237 3.15121 79.5152 0.65564 73.0378 0.0675087C72.2033 -0.00402069 68.452 -0.0278625 67.7924 0.0436668Z" fill="#EC9615"/>
</svg>
