<svg width="58" height="64" viewBox="0 0 58 64" fill="none" xmlns="http://www.w3.org/2000/svg">
<g clip-path="url(#clip0_1_44777)">
<path d="M46.0789 10.5571L42.5895 19.2823L39.1001 28.0074L35.6105 36.7332L32.1209 45.4585L28.6309 54.185L25.1409 62.9115L20.9947 61.204L16.8484 59.4964L12.7022 57.7887L8.55573 56.0811L4.40872 54.3732L0.261719 52.6654L3.75113 43.9403L7.24055 35.2151L10.7302 26.4894L14.2198 17.764L17.7097 9.03753L21.1997 0.311035L25.346 2.0185L29.4922 3.72615L33.6385 5.4338L37.7849 7.14145L41.9319 8.84929L46.0789 10.5571Z" fill="#CAE062"/>
<path d="M32.1531 6.9585C32.273 6.96842 32.3782 6.87802 32.388 6.75635C32.3978 6.63467 32.3087 6.52787 32.1888 6.51796C32.0689 6.50804 31.9636 6.59844 31.9539 6.72011C31.9441 6.84179 32.0332 6.9484 32.1531 6.9585Z" fill="white"/>
<path d="M32.2468 5.81788C32.3667 5.82799 32.472 5.7374 32.4817 5.61572C32.4915 5.49405 32.4024 5.38725 32.2825 5.37733C32.1626 5.36741 32.0574 5.45781 32.0476 5.57949C32.0378 5.70116 32.1271 5.80796 32.2468 5.81788Z" fill="white"/>
<path d="M31.1648 5.15382C31.2847 5.16393 31.39 5.07334 31.3997 4.95166C31.4095 4.82999 31.3204 4.72319 31.2005 4.71327C31.0806 4.70335 30.9756 4.79375 30.9656 4.91543C30.9556 5.0371 31.0449 5.14371 31.1648 5.15382Z" fill="white"/>
<path d="M30.0906 4.48978C30.2105 4.49989 30.3157 4.4093 30.3255 4.28762C30.3355 4.16595 30.2462 4.05915 30.1263 4.04923C30.0064 4.03912 29.9011 4.12971 29.8914 4.25139C29.8816 4.37287 29.9707 4.47967 30.0906 4.48978Z" fill="white"/>
<path d="M30.9812 7.43458C31.1011 7.44469 31.2064 7.3541 31.2161 7.23242C31.2259 7.11075 31.1368 7.00395 31.0169 6.99403C30.897 6.98411 30.792 7.07451 30.782 7.19619C30.772 7.31786 30.8613 7.42466 30.9812 7.43458Z" fill="white"/>
<path d="M31.0749 6.29444C31.1948 6.30455 31.3001 6.21396 31.3099 6.09229C31.3196 5.97061 31.2306 5.86381 31.1107 5.85389C30.9908 5.84398 30.8857 5.93437 30.8757 6.05605C30.866 6.17753 30.955 6.28433 31.0749 6.29444Z" fill="white"/>
<path d="M29.9031 6.77052C30.023 6.78043 30.1282 6.69004 30.138 6.56836C30.1478 6.44668 30.0587 6.33988 29.9388 6.32997C29.8189 6.32005 29.7136 6.41045 29.7039 6.53212C29.6941 6.6538 29.7834 6.7606 29.9031 6.77052Z" fill="white"/>
<path d="M29.9968 5.62998C30.1167 5.6399 30.2218 5.5495 30.2317 5.42782C30.2417 5.30615 30.1524 5.19935 30.0325 5.18943C29.9126 5.17932 29.8074 5.26991 29.7976 5.39159C29.7878 5.51326 29.8769 5.62006 29.9968 5.62998Z" fill="white"/>
<path d="M30.8874 8.57496C31.0073 8.58507 31.1126 8.49448 31.1224 8.3728C31.1321 8.25113 31.0431 8.14433 30.9232 8.13441C30.8033 8.12449 30.698 8.21489 30.6882 8.33657C30.6785 8.45824 30.7675 8.56485 30.8874 8.57496Z" fill="white"/>
<path d="M29.7195 9.05128C29.8394 9.0612 29.9447 8.9708 29.9544 8.84912C29.9644 8.72745 29.8751 8.62065 29.7552 8.61073C29.6353 8.60081 29.5301 8.69121 29.5203 8.81289C29.5103 8.93437 29.5996 9.04117 29.7195 9.05128Z" fill="white"/>
<path d="M29.8093 7.91117C29.9292 7.92128 30.0345 7.83069 30.0442 7.70901C30.054 7.58734 29.9649 7.48054 29.845 7.47062C29.7251 7.46051 29.6199 7.5511 29.6101 7.67278C29.6003 7.79445 29.6894 7.90106 29.8093 7.91117Z" fill="white"/>
<path d="M29.5359 11.332C29.6558 11.342 29.761 11.2516 29.7708 11.1299C29.7806 11.0082 29.6915 10.9014 29.5716 10.8915C29.4517 10.8816 29.3464 10.972 29.3367 11.0936C29.3269 11.2153 29.416 11.3221 29.5359 11.332Z" fill="white"/>
<path d="M29.6257 10.1914C29.7456 10.2015 29.8509 10.111 29.8606 9.98928C29.8706 9.86761 29.7813 9.76081 29.6614 9.75089C29.5415 9.74078 29.4363 9.83137 29.4265 9.95305C29.4167 10.0747 29.506 10.1815 29.6257 10.1914Z" fill="white"/>
<path d="M28.9187 4.96583C29.0386 4.97594 29.1438 4.88535 29.1536 4.76367C29.1634 4.642 29.0743 4.5352 28.9544 4.52528C28.8345 4.51536 28.7293 4.60576 28.7195 4.72744C28.7097 4.84911 28.7988 4.95572 28.9187 4.96583Z" fill="white"/>
<path d="M29.0124 3.82538C29.0126 3.82538 29.0126 3.82538 29.0124 3.82538C29.1318 3.83529 29.2363 3.74566 29.247 3.62475L29.0357 3.53778L28.8649 3.46741C28.8377 3.50097 28.817 3.54026 28.8132 3.58679C28.8035 3.70866 28.8927 3.81546 29.0124 3.82538Z" fill="white"/>
<path d="M27.8406 4.30179C27.9605 4.3119 28.0657 4.22131 28.0755 4.09964C28.0853 3.97796 27.9962 3.87116 27.8763 3.86124C27.7564 3.85114 27.6512 3.94172 27.6414 4.0634C27.6314 4.18508 27.7207 4.29168 27.8406 4.30179Z" fill="white"/>
<path d="M28.7312 7.24708C28.8511 7.25719 28.9563 7.1666 28.9661 7.04492C28.9761 6.92325 28.8868 6.81645 28.7669 6.80653C28.647 6.79661 28.5419 6.88701 28.532 7.00869C28.5222 7.13017 28.6115 7.23697 28.7312 7.24708Z" fill="white"/>
<path d="M28.825 6.10645C28.9449 6.11656 29.0501 6.02597 29.0599 5.9043C29.0697 5.78262 28.9806 5.67582 28.8607 5.6659C28.7408 5.65599 28.6357 5.74639 28.6258 5.86806C28.6158 5.98974 28.7051 6.09635 28.825 6.10645Z" fill="white"/>
<path d="M27.657 6.58253C27.7769 6.59245 27.8821 6.50205 27.8919 6.38037C27.9019 6.2587 27.8126 6.1519 27.6927 6.14198C27.5728 6.13206 27.4675 6.22246 27.4578 6.34414C27.448 6.46581 27.5371 6.57261 27.657 6.58253Z" fill="white"/>
<path d="M27.7507 5.44239C27.8706 5.45231 27.9757 5.36191 27.9856 5.24023C27.9956 5.11856 27.9063 5.01176 27.7864 5.00184C27.6665 4.99193 27.5613 5.08232 27.5515 5.204C27.5417 5.32548 27.631 5.43228 27.7507 5.44239Z" fill="white"/>
<path d="M28.5515 9.52784C28.6714 9.53795 28.7767 9.44736 28.7865 9.32568C28.7962 9.20401 28.7071 9.09721 28.5872 9.08729C28.4673 9.07737 28.3621 9.16777 28.3523 9.28945C28.3424 9.41112 28.4316 9.51773 28.5515 9.52784Z" fill="white"/>
<path d="M28.6414 8.38715C28.7613 8.39726 28.8665 8.30667 28.8763 8.185C28.8863 8.06332 28.797 7.95652 28.6771 7.94661C28.5572 7.93669 28.4521 8.02709 28.4422 8.14876C28.4322 8.27044 28.5215 8.37724 28.6414 8.38715Z" fill="white"/>
<path d="M27.4695 8.86353C27.5894 8.87345 27.6946 8.78305 27.7044 8.66138C27.7142 8.5397 27.6251 8.4329 27.5052 8.42299C27.3853 8.41307 27.28 8.50347 27.2703 8.62514C27.2605 8.74682 27.3496 8.85343 27.4695 8.86353Z" fill="white"/>
<path d="M27.5633 7.72318C27.6832 7.73329 27.7884 7.6427 27.7982 7.52102C27.8079 7.39935 27.7189 7.29255 27.599 7.28263C27.4791 7.27252 27.3738 7.36311 27.364 7.48479C27.3541 7.60646 27.4434 7.71326 27.5633 7.72318Z" fill="white"/>
<path d="M28.364 11.8085C28.4839 11.8186 28.5892 11.7281 28.5989 11.6064C28.6089 11.4847 28.5196 11.3779 28.3997 11.368C28.2798 11.3581 28.1748 11.4485 28.1648 11.5701C28.155 11.6916 28.2441 11.7984 28.364 11.8085Z" fill="white"/>
<path d="M26.9929 12.0463C26.9831 12.168 27.0722 12.2748 27.1921 12.2847C27.312 12.2948 27.4173 12.2042 27.4271 12.0825C27.4368 11.9608 27.3477 11.854 27.2278 11.8441C27.1079 11.8342 27.0029 11.9246 26.9929 12.0463Z" fill="white"/>
<path d="M28.4578 10.668C28.5777 10.6781 28.6829 10.5875 28.6927 10.4658C28.7025 10.3441 28.6134 10.2373 28.4935 10.2274C28.3736 10.2175 28.2685 10.3079 28.2585 10.4296C28.2488 10.5513 28.3379 10.6579 28.4578 10.668Z" fill="white"/>
<path d="M27.2859 11.1441C27.4058 11.154 27.511 11.0636 27.5208 10.9419C27.5308 10.8202 27.4415 10.7134 27.3216 10.7035C27.2017 10.6934 27.0964 10.784 27.0867 10.9057C27.0769 11.0274 27.1662 11.1342 27.2859 11.1441Z" fill="white"/>
<path d="M27.3797 10.0039C27.4996 10.014 27.6048 9.92346 27.6146 9.80178C27.6245 9.68011 27.5353 9.57331 27.4154 9.56339C27.2955 9.55328 27.1902 9.64387 27.1804 9.76555C27.1705 9.88722 27.2598 9.99383 27.3797 10.0039Z" fill="white"/>
<path d="M26.8094 14.3271C26.7994 14.4487 26.8887 14.5555 27.0086 14.5655C27.1285 14.5754 27.2337 14.485 27.2435 14.3633C27.2534 14.2416 27.1642 14.1348 27.0443 14.1249C26.9244 14.1148 26.8191 14.2054 26.8094 14.3271Z" fill="white"/>
<path d="M27.1341 12.9848C27.0142 12.9747 26.909 13.0653 26.8992 13.1869C26.8892 13.3086 26.9785 13.4154 27.0984 13.4253C27.2183 13.4352 27.3236 13.3448 27.3333 13.2232C27.3431 13.1015 27.254 12.9949 27.1341 12.9848Z" fill="white"/>
<path d="M26.0599 12.3207C25.94 12.3108 25.8348 12.4012 25.825 12.5228C25.815 12.6445 25.9043 12.7511 26.0242 12.7612C26.1441 12.7713 26.2493 12.6808 26.2591 12.5591C26.2691 12.4374 26.1798 12.3306 26.0599 12.3207Z" fill="white"/>
<path d="M26.7195 15.4677C26.7097 15.5893 26.7988 15.6961 26.9187 15.7061C27.0386 15.7162 27.1438 15.6256 27.1536 15.5039C27.1636 15.3822 27.0743 15.2754 26.9544 15.2655C26.8345 15.2556 26.7294 15.3462 26.7195 15.4677Z" fill="white"/>
<path d="M23.1598 62.0229C23.1187 62.0195 23.0813 62.0311 23.0469 62.0485L23.3481 62.1725C23.3211 62.0916 23.2491 62.0304 23.1598 62.0229Z" fill="white"/>
<path d="M22.0809 61.3588C21.963 61.3489 21.8604 61.4366 21.8477 61.5552L22.058 61.6418L22.2312 61.7131C22.2568 61.6801 22.2765 61.6422 22.2803 61.5972C22.2901 61.4755 22.2008 61.3687 22.0809 61.3588Z" fill="white"/>
<path d="M26.6687 4.77784C26.7886 4.78795 26.8939 4.69736 26.9036 4.57568C26.9136 4.45401 26.8243 4.34721 26.7044 4.33729C26.5845 4.32737 26.4795 4.41777 26.4695 4.53945C26.4595 4.66112 26.5488 4.76792 26.6687 4.77784Z" fill="white"/>
<path d="M26.7624 3.6377C26.8823 3.64781 26.9876 3.55722 26.9974 3.43555C27.0073 3.31387 26.9181 3.20707 26.7982 3.19715C26.6783 3.18724 26.5732 3.27764 26.5632 3.39931C26.5535 3.5208 26.6425 3.6276 26.7624 3.6377Z" fill="white"/>
<path d="M25.5945 4.1138C25.7144 4.12391 25.8196 4.03332 25.8294 3.91165C25.8392 3.78997 25.7501 3.68317 25.6302 3.67326C25.5103 3.66315 25.405 3.75374 25.3953 3.87541C25.3855 3.99709 25.4746 4.10389 25.5945 4.1138Z" fill="white"/>
<path d="M25.6882 2.97364C25.8081 2.98356 25.9134 2.89316 25.9231 2.77148C25.9331 2.64981 25.8438 2.54301 25.7239 2.53309C25.604 2.52318 25.4988 2.61357 25.489 2.73525C25.4792 2.85692 25.5685 2.96372 25.6882 2.97364Z" fill="white"/>
<path d="M26.489 7.05909C26.6089 7.0692 26.7142 6.97861 26.7239 6.85693C26.7337 6.73526 26.6446 6.62846 26.5247 6.61854C26.4048 6.60862 26.2998 6.69902 26.2898 6.8207C26.28 6.94237 26.3691 7.04898 26.489 7.05909Z" fill="white"/>
<path d="M26.5789 5.91853C26.6988 5.92863 26.804 5.83805 26.8138 5.71637C26.8235 5.59469 26.7345 5.48789 26.6146 5.47798C26.4947 5.46806 26.3894 5.55846 26.3796 5.68013C26.3699 5.80181 26.4589 5.90842 26.5789 5.91853Z" fill="white"/>
<path d="M25.407 6.39503C25.5269 6.40495 25.6321 6.31455 25.6419 6.19287C25.6519 6.0712 25.5626 5.9644 25.4427 5.95448C25.3228 5.94456 25.2175 6.03496 25.2078 6.15664C25.198 6.27812 25.2871 6.38492 25.407 6.39503Z" fill="white"/>
<path d="M25.5007 5.25443C25.6206 5.26435 25.7257 5.17395 25.7356 5.05227C25.7454 4.9306 25.6563 4.8238 25.5364 4.81388C25.4165 4.80377 25.3113 4.89436 25.3015 5.01604C25.2917 5.13771 25.3808 5.24432 25.5007 5.25443Z" fill="white"/>
<path d="M26.3015 9.33973C26.4214 9.34984 26.5267 9.25925 26.5364 9.13757C26.5464 9.0159 26.4571 8.9091 26.3372 8.89918C26.2173 8.88926 26.1123 8.97966 26.1023 9.10134C26.0925 9.22301 26.1816 9.32981 26.3015 9.33973Z" fill="white"/>
<path d="M26.3953 8.19972C26.5152 8.20982 26.6204 8.11923 26.6302 7.99756C26.6401 7.87588 26.5509 7.76908 26.431 7.75917C26.3111 7.74925 26.206 7.83965 26.196 7.96132C26.1863 8.08281 26.2755 8.18961 26.3953 8.19972Z" fill="white"/>
<path d="M25.2234 8.67579C25.3433 8.68571 25.4485 8.59531 25.4583 8.47363C25.4681 8.35196 25.379 8.24516 25.2591 8.23524C25.1392 8.22532 25.0339 8.31572 25.0242 8.4374C25.0144 8.55907 25.1035 8.66587 25.2234 8.67579Z" fill="white"/>
<path d="M25.3171 7.53519C25.437 7.5453 25.5423 7.45471 25.5521 7.33303C25.562 7.21136 25.4727 7.10456 25.3528 7.09464C25.2329 7.08453 25.1277 7.17512 25.1179 7.2968C25.1081 7.41847 25.1972 7.52527 25.3171 7.53519Z" fill="white"/>
<path d="M26.1179 11.6206C26.2378 11.6307 26.3431 11.5401 26.3528 11.4185C26.3626 11.2968 26.2735 11.19 26.1536 11.1801C26.0337 11.1701 25.9287 11.2605 25.9187 11.3822C25.9089 11.5039 25.9982 11.6105 26.1179 11.6206Z" fill="white"/>
<path d="M24.9817 11.6564C24.8618 11.6465 24.7566 11.7369 24.7468 11.8585C24.7371 11.9802 24.8261 12.087 24.946 12.0969C25.0659 12.107 25.1712 12.0165 25.181 11.8948C25.1907 11.7733 25.1017 11.6665 24.9817 11.6564Z" fill="white"/>
<path d="M23.9036 10.9921C23.7837 10.9822 23.6785 11.0726 23.6687 11.1942C23.6589 11.3159 23.748 11.4225 23.8679 11.4326C23.9878 11.4425 24.0931 11.3521 24.1028 11.2305C24.1126 11.1088 24.0235 11.0022 23.9036 10.9921Z" fill="white"/>
<path d="M26.2078 10.48C26.3277 10.4901 26.4329 10.3995 26.4427 10.2778C26.4525 10.1562 26.3634 10.0494 26.2435 10.0394C26.1236 10.0295 26.0183 10.1199 26.0085 10.2416C25.9988 10.3633 26.0879 10.4701 26.2078 10.48Z" fill="white"/>
<path d="M25.0359 10.9566C25.1558 10.9665 25.261 10.8761 25.2708 10.7544C25.2808 10.6327 25.1915 10.5259 25.0716 10.516C24.9517 10.5061 24.8464 10.5965 24.8367 10.7182C24.8269 10.8396 24.916 10.9464 25.0359 10.9566Z" fill="white"/>
<path d="M25.1296 9.81595C25.2495 9.82606 25.3548 9.73547 25.3646 9.6138C25.3743 9.49212 25.2852 9.38532 25.1653 9.3754C25.0454 9.3653 24.9402 9.45589 24.9304 9.57756C24.9206 9.69924 25.0097 9.80585 25.1296 9.81595Z" fill="white"/>
<path d="M25.7312 13.663C25.7214 13.7847 25.8105 13.8913 25.9304 13.9014C26.0503 13.9113 26.1556 13.8209 26.1653 13.6992C26.1753 13.5775 26.086 13.4707 25.9661 13.4608C25.8462 13.4509 25.741 13.5415 25.7312 13.663Z" fill="white"/>
<path d="M24.5633 14.1395C24.5533 14.2612 24.6426 14.368 24.7625 14.3779C24.8824 14.3879 24.9876 14.2975 24.9974 14.1758C25.0072 14.0541 24.9181 13.9473 24.7982 13.9374C24.6783 13.9275 24.573 14.0179 24.5633 14.1395Z" fill="white"/>
<path d="M24.657 12.9989C24.6472 13.1206 24.7363 13.2274 24.8562 13.2373C24.9761 13.2472 25.0813 13.1568 25.0911 13.0352C25.1009 12.9135 25.0118 12.8067 24.8919 12.7968C24.7722 12.7868 24.6669 12.8772 24.657 12.9989Z" fill="white"/>
<path d="M25.5476 15.9437C25.5377 16.0654 25.6269 16.172 25.7468 16.1821C25.8667 16.1921 25.972 16.1017 25.9818 15.98C25.9915 15.8583 25.9025 15.7515 25.7826 15.7416C25.6627 15.7317 25.5576 15.8221 25.5476 15.9437Z" fill="white"/>
<path d="M24.3757 16.4203C24.366 16.542 24.455 16.6488 24.5749 16.6587C24.6949 16.6686 24.8001 16.5782 24.8099 16.4565C24.8198 16.3349 24.7306 16.2281 24.6107 16.2181C24.4908 16.2082 24.3857 16.2988 24.3757 16.4203Z" fill="white"/>
<path d="M25.6375 14.8036C25.6277 14.9253 25.7168 15.0319 25.8367 15.042C25.9566 15.0521 26.0618 14.9615 26.0716 14.8398C26.0814 14.7182 25.9923 14.6114 25.8724 14.6015C25.7527 14.5915 25.6474 14.6819 25.6375 14.8036Z" fill="white"/>
<path d="M24.4695 15.2799C24.4595 15.4016 24.5488 15.5084 24.6687 15.5183C24.7886 15.5284 24.8939 15.4378 24.9036 15.3161C24.9136 15.1945 24.8243 15.0877 24.7044 15.0777C24.5845 15.0676 24.4793 15.1582 24.4695 15.2799Z" fill="white"/>
<path d="M24.1921 18.7011C24.1824 18.8227 24.2714 18.9295 24.3914 18.9395C24.5113 18.9494 24.6165 18.859 24.6263 18.7373C24.636 18.6156 24.547 18.5088 24.4271 18.4989C24.3073 18.489 24.2021 18.5794 24.1921 18.7011Z" fill="white"/>
<path d="M25.4539 17.0844C25.4439 17.2061 25.5332 17.3127 25.6531 17.3228C25.773 17.3329 25.8782 17.2423 25.888 17.1206C25.898 16.999 25.8087 16.8922 25.6888 16.8822C25.5689 16.8721 25.4637 16.9627 25.4539 17.0844Z" fill="white"/>
<path d="M24.282 17.5604C24.2722 17.6821 24.3613 17.7889 24.4812 17.7988C24.6011 17.8089 24.7063 17.7184 24.7161 17.5967C24.7259 17.475 24.6368 17.3682 24.5169 17.3583C24.397 17.3484 24.2918 17.4388 24.282 17.5604Z" fill="white"/>
<path d="M20.0169 58.89C19.897 58.8801 19.7918 58.9705 19.782 59.0922C19.772 59.2139 19.8613 59.3205 19.9812 59.3306C20.1011 59.3405 20.2064 59.2501 20.2161 59.1284C20.2259 59.0067 20.1368 58.9001 20.0169 58.89Z" fill="white"/>
<path d="M21.0013 60.6947C20.8814 60.6846 20.7762 60.7752 20.7664 60.8969C20.7564 61.0186 20.8457 61.1254 20.9656 61.1353C21.0855 61.1454 21.1907 61.0548 21.2005 60.9331C21.2103 60.8116 21.1212 60.7048 21.0013 60.6947Z" fill="white"/>
<path d="M19.9271 60.0307C19.8072 60.0207 19.7019 60.1111 19.6921 60.2328C19.6824 60.3545 19.7714 60.4611 19.8914 60.4712C20.0113 60.4813 20.1165 60.3907 20.1263 60.269C20.1362 60.1474 20.047 60.0408 19.9271 60.0307Z" fill="white"/>
<path d="M24.6062 2.30958C24.7261 2.31969 24.8313 2.2291 24.8411 2.10742C24.8509 1.98575 24.7618 1.87895 24.6419 1.86903C24.522 1.85911 24.4168 1.94951 24.407 2.07119C24.3972 2.19286 24.4863 2.29947 24.6062 2.30958Z" fill="white"/>
<path d="M23.532 1.64542C23.6519 1.65553 23.7571 1.56494 23.7669 1.44327C23.7692 1.41581 23.7648 1.38949 23.7577 1.3645L23.4453 1.23596C23.3844 1.27067 23.3388 1.33113 23.3328 1.40722C23.323 1.52871 23.4121 1.63532 23.532 1.64542Z" fill="white"/>
<path d="M24.4265 4.59034C24.5464 4.60045 24.6517 4.50986 24.6614 4.38818C24.6714 4.26651 24.5821 4.15971 24.4622 4.14979C24.3423 4.13987 24.2373 4.23027 24.2273 4.35195C24.2175 4.47343 24.3066 4.58023 24.4265 4.59034Z" fill="white"/>
<path d="M24.5164 3.44996C24.6363 3.46007 24.7415 3.36948 24.7513 3.2478C24.761 3.12613 24.672 3.01933 24.5521 3.00941C24.4322 2.99949 24.3271 3.08989 24.3171 3.21157C24.3074 3.33324 24.3966 3.43985 24.5164 3.44996Z" fill="white"/>
<path d="M23.3445 3.92606C23.4644 3.93617 23.5696 3.84558 23.5794 3.7239C23.5894 3.60223 23.5001 3.49543 23.3802 3.48551C23.2603 3.4754 23.155 3.56599 23.1453 3.68767C23.1355 3.80934 23.2246 3.91614 23.3445 3.92606Z" fill="white"/>
<path d="M23.4382 2.78565C23.5581 2.79557 23.6634 2.70517 23.6731 2.5835C23.6831 2.46182 23.5938 2.35502 23.4739 2.3451C23.354 2.33519 23.2488 2.42559 23.239 2.54726C23.2292 2.66875 23.3183 2.77555 23.4382 2.78565Z" fill="white"/>
<path d="M24.239 6.8711C24.3589 6.88121 24.4642 6.79062 24.4739 6.66895C24.4837 6.54727 24.3946 6.44047 24.2747 6.43055C24.1548 6.42064 24.0496 6.51103 24.0398 6.63271C24.03 6.75439 24.1191 6.86118 24.239 6.8711Z" fill="white"/>
<path d="M24.3328 5.73048C24.4527 5.74059 24.5579 5.65 24.5677 5.52832C24.5777 5.40665 24.4884 5.29985 24.3685 5.28993C24.2486 5.28001 24.1435 5.37041 24.1336 5.49209C24.1236 5.61376 24.2129 5.72056 24.3328 5.73048Z" fill="white"/>
<path d="M23.1609 6.20704C23.2808 6.21696 23.3861 6.12656 23.3958 6.00488C23.4056 5.88321 23.3165 5.77641 23.1966 5.76649C23.0767 5.75657 22.9715 5.84697 22.9617 5.96865C22.9517 6.09032 23.041 6.19693 23.1609 6.20704Z" fill="white"/>
<path d="M23.2546 5.06641C23.3745 5.07633 23.4796 4.98593 23.4896 4.86426C23.4993 4.74258 23.4102 4.63578 23.2903 4.62587C23.1704 4.61595 23.0652 4.70635 23.0554 4.82802C23.0456 4.9497 23.1347 5.0565 23.2546 5.06641Z" fill="white"/>
<path d="M24.0554 9.15211C24.0556 9.15211 24.0556 9.15211 24.0554 9.15211C24.1753 9.16222 24.2806 9.07163 24.2903 8.94995C24.3003 8.82828 24.211 8.72148 24.0911 8.71156C23.9712 8.70164 23.8662 8.79204 23.8562 8.91372C23.8464 9.0352 23.9357 9.142 24.0554 9.15211Z" fill="white"/>
<path d="M24.1453 8.01173C24.2652 8.02184 24.3704 7.93125 24.3802 7.80957C24.39 7.6879 24.3009 7.5811 24.181 7.57118C24.0611 7.56126 23.956 7.65166 23.946 7.77334C23.9363 7.89501 24.0254 8.00162 24.1453 8.01173Z" fill="white"/>
<path d="M22.9734 8.4878C23.0933 8.49772 23.1985 8.40732 23.2083 8.28564C23.2183 8.16397 23.129 8.05717 23.0091 8.04725C22.8892 8.03734 22.7839 8.12773 22.7742 8.24941C22.7644 8.37108 22.8535 8.47788 22.9734 8.4878Z" fill="white"/>
<path d="M23.0672 7.34769C23.1871 7.3578 23.2923 7.26721 23.3021 7.14553C23.312 7.02386 23.2228 6.91706 23.1029 6.90714C22.983 6.89703 22.8777 6.98762 22.8679 7.1093C22.858 7.23097 22.9473 7.33758 23.0672 7.34769Z" fill="white"/>
<path d="M22.7357 11.4686C22.6158 11.4587 22.5105 11.5491 22.5008 11.6708C22.4908 11.7925 22.5801 11.8993 22.7 11.9092C22.8199 11.9193 22.9251 11.8287 22.9349 11.707C22.9449 11.5854 22.8556 11.4786 22.7357 11.4686Z" fill="white"/>
<path d="M21.6575 10.8046C21.5376 10.7947 21.4324 10.8851 21.4226 11.0067C21.4128 11.1284 21.5019 11.235 21.6218 11.2451C21.7417 11.255 21.847 11.1646 21.8567 11.043C21.8665 10.9213 21.7774 10.8145 21.6575 10.8046Z" fill="white"/>
<path d="M23.9617 10.2925C24.0816 10.3026 24.1868 10.212 24.1966 10.0903C24.2066 9.96866 24.1173 9.86186 23.9974 9.85194C23.8775 9.84202 23.7724 9.93242 23.7625 10.0541C23.7525 10.1758 23.8418 10.2826 23.9617 10.2925Z" fill="white"/>
<path d="M22.7937 10.7686C22.9136 10.7785 23.0188 10.6881 23.0286 10.5664C23.0384 10.4448 22.9493 10.338 22.8294 10.328C22.7095 10.3179 22.6043 10.4085 22.5945 10.5302C22.5847 10.6519 22.674 10.7585 22.7937 10.7686Z" fill="white"/>
<path d="M22.8836 9.62833C23.0035 9.63844 23.1087 9.54785 23.1185 9.42617C23.1283 9.3045 23.0392 9.1977 22.9193 9.18778C22.7994 9.17767 22.6941 9.26826 22.6844 9.38994C22.6744 9.51161 22.7637 9.61841 22.8836 9.62833Z" fill="white"/>
<path d="M23.4851 13.4755C23.4752 13.5972 23.5644 13.7038 23.6843 13.7139C23.8042 13.7238 23.9095 13.6334 23.9193 13.5117C23.9292 13.3901 23.84 13.2833 23.7201 13.2734C23.6002 13.2632 23.4951 13.3538 23.4851 13.4755Z" fill="white"/>
<path d="M22.3132 13.9516C22.3035 14.0732 22.3925 14.18 22.5124 14.19C22.6323 14.1999 22.7376 14.1095 22.7474 13.9878C22.7571 13.8661 22.6681 13.7593 22.5482 13.7494C22.4284 13.7395 22.3232 13.8299 22.3132 13.9516Z" fill="white"/>
<path d="M23.5789 12.3349C23.5689 12.4565 23.6582 12.5631 23.7781 12.5733C23.898 12.5834 24.0032 12.4928 24.013 12.3711C24.0228 12.2494 23.9337 12.1426 23.8138 12.1327C23.6939 12.1228 23.5887 12.2132 23.5789 12.3349Z" fill="white"/>
<path d="M22.407 12.8111C22.3972 12.9328 22.4863 13.0396 22.6062 13.0495C22.7261 13.0594 22.8313 12.969 22.8411 12.8474C22.8511 12.7257 22.7618 12.6189 22.6419 12.609C22.522 12.599 22.4168 12.6896 22.407 12.8111Z" fill="white"/>
<path d="M23.2976 15.7562C23.2878 15.8779 23.3769 15.9845 23.4968 15.9946C23.6167 16.0046 23.722 15.9142 23.7317 15.7925C23.7415 15.6708 23.6524 15.564 23.5325 15.5541C23.4126 15.5442 23.3074 15.6346 23.2976 15.7562Z" fill="white"/>
<path d="M22.1296 16.2323C22.1199 16.354 22.2089 16.4608 22.3289 16.4707C22.4488 16.4807 22.554 16.3903 22.5638 16.2686C22.5737 16.1469 22.4845 16.0401 22.3646 16.0302C22.2447 16.0201 22.1394 16.1107 22.1296 16.2323Z" fill="white"/>
<path d="M23.3914 14.6156C23.3816 14.7373 23.4707 14.8439 23.5906 14.854C23.7105 14.8641 23.8157 14.7735 23.8255 14.6519C23.8355 14.5302 23.7462 14.4234 23.6263 14.4135C23.5064 14.4035 23.4011 14.4941 23.3914 14.6156Z" fill="white"/>
<path d="M22.2195 15.0922C22.2095 15.2139 22.2988 15.3207 22.4187 15.3306C22.5386 15.3407 22.6439 15.2501 22.6536 15.1284C22.6634 15.0067 22.5743 14.8999 22.4544 14.89C22.3345 14.8801 22.2295 14.9705 22.2195 15.0922Z" fill="white"/>
<path d="M23.114 18.0371C23.1041 18.1588 23.1934 18.2654 23.3133 18.2755C23.4332 18.2854 23.5384 18.195 23.5482 18.0733C23.5581 17.9517 23.4689 17.8449 23.349 17.8349C23.2291 17.8248 23.1238 17.9154 23.114 18.0371Z" fill="white"/>
<path d="M21.946 18.5133C21.9363 18.635 22.0254 18.7418 22.1453 18.7517C22.2652 18.7616 22.3704 18.6712 22.3802 18.5496C22.39 18.4279 22.3009 18.3211 22.181 18.3112C22.0611 18.3013 21.9558 18.3916 21.946 18.5133Z" fill="white"/>
<path d="M23.2039 16.8964C23.1939 17.0181 23.2832 17.1247 23.4031 17.1348C23.523 17.1449 23.6282 17.0543 23.638 16.9326C23.6478 16.8109 23.5587 16.7041 23.4388 16.6942C23.3189 16.6843 23.2138 16.7747 23.2039 16.8964Z" fill="white"/>
<path d="M22.0359 17.3729C22.0261 17.4946 22.1152 17.6014 22.2351 17.6113C22.355 17.6214 22.4603 17.5309 22.47 17.4092C22.48 17.2875 22.3907 17.1807 22.2708 17.1708C22.1509 17.1609 22.0458 17.2515 22.0359 17.3729Z" fill="white"/>
<path d="M22.9304 20.3178C22.9206 20.4394 23.0097 20.5461 23.1296 20.5562C23.2495 20.5663 23.3548 20.4757 23.3646 20.354C23.3743 20.2323 23.2852 20.1255 23.1653 20.1156C23.0454 20.1057 22.9404 20.1961 22.9304 20.3178Z" fill="white"/>
<path d="M21.9935 20.5922C21.8736 20.5821 21.7683 20.6727 21.7585 20.7944C21.7488 20.916 21.8379 21.0226 21.9578 21.0327C22.0777 21.0427 22.1827 20.9523 22.1927 20.8306C22.2026 20.7089 22.1134 20.6021 21.9935 20.5922Z" fill="white"/>
<path d="M23.0242 19.1777C23.0144 19.2993 23.1035 19.4059 23.2234 19.4161C23.3433 19.426 23.4485 19.3356 23.4583 19.2139C23.4683 19.0922 23.379 18.9854 23.2591 18.9755C23.1392 18.9654 23.0339 19.056 23.0242 19.1777Z" fill="white"/>
<path d="M21.8523 19.6537C21.8424 19.7754 21.9316 19.8822 22.0515 19.8921C22.1714 19.9022 22.2767 19.8116 22.2865 19.6899C22.2962 19.5683 22.2071 19.4615 22.0872 19.4515C21.9673 19.4416 21.8621 19.532 21.8523 19.6537Z" fill="white"/>
<path d="M20.7318 22.2089C20.6119 22.199 20.5066 22.2894 20.4969 22.411C20.4869 22.5327 20.5762 22.6393 20.6961 22.6494C20.816 22.6595 20.9212 22.5689 20.931 22.4473C20.9408 22.3256 20.8517 22.219 20.7318 22.2089Z" fill="white"/>
<path d="M21.6648 21.9347C21.655 22.0564 21.7441 22.1632 21.864 22.1731C21.9839 22.1832 22.0892 22.0926 22.0989 21.971C22.1089 21.8493 22.0196 21.7425 21.8997 21.7326C21.7798 21.7225 21.6746 21.8131 21.6648 21.9347Z" fill="white"/>
<path d="M18.845 59.3666C18.7251 59.3567 18.6199 59.4471 18.6101 59.5687C18.6003 59.6904 18.6894 59.797 18.8093 59.8071C18.9292 59.8171 19.0345 59.7267 19.0442 59.605C19.054 59.4833 18.9647 59.3765 18.845 59.3666Z" fill="white"/>
<path d="M17.7708 58.7025C17.6509 58.6926 17.5457 58.783 17.5359 58.9047C17.526 59.0264 17.6152 59.133 17.7351 59.1431C17.855 59.153 17.9603 59.0626 17.97 58.9409C17.9798 58.8192 17.8907 58.7124 17.7708 58.7025Z" fill="white"/>
<path d="M18.9388 58.226C18.8189 58.2159 18.7136 58.3065 18.7039 58.4281C18.6941 58.5498 18.7832 58.6566 18.9031 58.6665C19.023 58.6766 19.1282 58.5861 19.138 58.4644C19.148 58.3427 19.0587 58.2361 18.9388 58.226Z" fill="white"/>
<path d="M17.8646 57.5619C17.7447 57.552 17.6394 57.6424 17.6296 57.7641C17.6199 57.8857 17.7089 57.9923 17.8289 58.0024C17.9488 58.0126 18.054 57.922 18.0638 57.8003C18.0735 57.6786 17.9845 57.5718 17.8646 57.5619Z" fill="white"/>
<path d="M22.364 2.12159C22.4839 2.1317 22.5892 2.04111 22.5989 1.91943C22.6089 1.79776 22.5196 1.69096 22.3997 1.68104C22.2798 1.67112 22.1746 1.76152 22.1648 1.8832C22.155 2.00487 22.2441 2.11167 22.364 2.12159Z" fill="white"/>
<path d="M21.282 1.45755C21.4019 1.46766 21.5071 1.37707 21.5169 1.2554C21.5267 1.13372 21.4376 1.02692 21.3177 1.01701C21.1978 1.0069 21.0925 1.09749 21.0828 1.21916C21.073 1.34084 21.1621 1.44764 21.282 1.45755Z" fill="white"/>
<path d="M22.1765 4.40235C22.1767 4.40235 22.1767 4.40235 22.1765 4.40235C22.2964 4.41246 22.4017 4.32187 22.4114 4.2002C22.4212 4.07852 22.3321 3.97172 22.2122 3.9618C22.0923 3.95189 21.9873 4.04228 21.9773 4.16396C21.9675 4.28564 22.0568 4.39224 22.1765 4.40235Z" fill="white"/>
<path d="M22.2703 3.26222C22.3902 3.27232 22.4954 3.18173 22.5052 3.06006C22.515 2.93838 22.4259 2.83158 22.306 2.82167C22.1861 2.81175 22.0808 2.90215 22.071 3.02382C22.0613 3.1455 22.1504 3.25211 22.2703 3.26222Z" fill="white"/>
<path d="M21.0984 3.7385C21.2183 3.74861 21.3235 3.65802 21.3333 3.53634C21.3433 3.41467 21.254 3.30787 21.1341 3.29795C21.0142 3.28784 20.9089 3.37843 20.8992 3.50011C20.8894 3.62178 20.9785 3.72839 21.0984 3.7385Z" fill="white"/>
<path d="M21.1922 2.59815C21.3121 2.60807 21.4173 2.51767 21.4271 2.396C21.4369 2.27432 21.3478 2.16752 21.2279 2.1576C21.108 2.14769 21.0027 2.23809 20.9929 2.35976C20.983 2.48144 21.0723 2.58805 21.1922 2.59815Z" fill="white"/>
<path d="M21.9929 6.68336C22.1128 6.69347 22.2181 6.60288 22.2278 6.4812C22.2378 6.35953 22.1485 6.25273 22.0286 6.24281C21.9087 6.23289 21.8035 6.32329 21.7937 6.44497C21.7839 6.56664 21.873 6.67344 21.9929 6.68336Z" fill="white"/>
<path d="M22.0828 5.54298C22.2027 5.55309 22.3079 5.4625 22.3177 5.34082C22.3276 5.21915 22.2384 5.11235 22.1185 5.10243C21.9986 5.09251 21.8935 5.18291 21.8835 5.30458C21.8738 5.42607 21.9629 5.53287 22.0828 5.54298Z" fill="white"/>
<path d="M20.9109 6.01905C21.0308 6.02897 21.136 5.93857 21.1458 5.81689C21.1556 5.69522 21.0665 5.58842 20.9466 5.5785C20.8267 5.56859 20.7214 5.65898 20.7117 5.78066C20.7019 5.90233 20.7912 6.00913 20.9109 6.01905Z" fill="white"/>
<path d="M21.0047 4.87894C21.1246 4.88886 21.2298 4.79846 21.2396 4.67678C21.2495 4.55511 21.1603 4.44831 21.0404 4.43839C20.9205 4.42828 20.8152 4.51887 20.8054 4.64055C20.7955 4.76222 20.8848 4.86902 21.0047 4.87894Z" fill="white"/>
<path d="M21.8054 8.96436C21.9253 8.97447 22.0306 8.88388 22.0403 8.76221C22.0501 8.64053 21.961 8.53373 21.8411 8.52382C21.7212 8.5139 21.6162 8.6043 21.6062 8.72597C21.5964 8.84765 21.6855 8.95426 21.8054 8.96436Z" fill="white"/>
<path d="M21.8992 7.82374C22.0191 7.83385 22.1243 7.74326 22.1341 7.62158C22.1439 7.49991 22.0548 7.39311 21.9349 7.38319C21.815 7.37327 21.7097 7.46367 21.7 7.58535C21.6902 7.70702 21.7794 7.81363 21.8992 7.82374Z" fill="white"/>
<path d="M20.7312 8.3003C20.8511 8.31022 20.9564 8.21982 20.9661 8.09814C20.9761 7.97647 20.8868 7.86967 20.7669 7.85975C20.647 7.84984 20.5418 7.94023 20.532 8.06191C20.522 8.18339 20.6113 8.29019 20.7312 8.3003Z" fill="white"/>
<path d="M20.8211 7.1597C20.941 7.16981 21.0462 7.07922 21.056 6.95755C21.0658 6.83587 20.9767 6.72907 20.8568 6.71915C20.7369 6.70905 20.6316 6.79963 20.6219 6.92131C20.6119 7.04299 20.7012 7.14959 20.8211 7.1597Z" fill="white"/>
<path d="M20.2508 11.4828C20.2408 11.6045 20.3301 11.7113 20.45 11.7212C20.5699 11.7313 20.6751 11.6407 20.6849 11.519C20.6947 11.3974 20.6056 11.2906 20.4857 11.2807C20.3658 11.2707 20.2605 11.3611 20.2508 11.4828Z" fill="white"/>
<path d="M21.7117 10.1047C21.8316 10.1149 21.9368 10.0243 21.9466 9.90259C21.9566 9.78091 21.8673 9.67411 21.7474 9.6642C21.6275 9.65428 21.5224 9.74468 21.5125 9.86635C21.5025 9.98784 21.5918 10.0946 21.7117 10.1047Z" fill="white"/>
<path d="M20.5437 10.5809C20.6636 10.5908 20.7688 10.5004 20.7786 10.3787C20.7884 10.2571 20.6993 10.1503 20.5794 10.1404C20.4595 10.1302 20.3543 10.2208 20.3445 10.3425C20.3347 10.4642 20.4238 10.571 20.5437 10.5809Z" fill="white"/>
<path d="M20.6374 9.44046C20.7574 9.45057 20.8626 9.35998 20.8724 9.23831C20.8823 9.11663 20.7931 9.00983 20.6732 8.99992C20.5533 8.98981 20.448 9.0804 20.4382 9.20207C20.4285 9.32375 20.5175 9.43055 20.6374 9.44046Z" fill="white"/>
<path d="M21.2351 13.2875C21.2252 13.4092 21.3144 13.5158 21.4343 13.5259C21.5542 13.5358 21.6595 13.4454 21.6693 13.3237C21.679 13.2021 21.59 13.0953 21.4701 13.0853C21.3502 13.0754 21.2449 13.1658 21.2351 13.2875Z" fill="white"/>
<path d="M20.0671 13.7636C20.0574 13.8852 20.1464 13.992 20.2664 14.002C20.3863 14.0119 20.4915 13.9215 20.5013 13.7998C20.511 13.6781 20.422 13.5713 20.3021 13.5614C20.1822 13.5515 20.0769 13.6421 20.0671 13.7636Z" fill="white"/>
<path d="M21.3289 12.1469C21.3191 12.2685 21.4082 12.3752 21.5281 12.3853C21.648 12.3954 21.7532 12.3048 21.763 12.1831C21.7728 12.0614 21.6837 11.9546 21.5638 11.9447C21.4439 11.9348 21.3388 12.0252 21.3289 12.1469Z" fill="white"/>
<path d="M20.3958 12.4213C20.2759 12.4112 20.1707 12.5018 20.1609 12.6235C20.1511 12.7451 20.2402 12.8519 20.3601 12.8619C20.48 12.8718 20.5852 12.7814 20.595 12.6597C20.605 12.538 20.5157 12.4312 20.3958 12.4213Z" fill="white"/>
<path d="M21.0515 15.5683C21.0417 15.6899 21.1308 15.7965 21.2507 15.8066C21.3706 15.8166 21.4759 15.7262 21.4856 15.6045C21.4956 15.4828 21.4063 15.376 21.2864 15.3661C21.1665 15.3562 21.0615 15.4468 21.0515 15.5683Z" fill="white"/>
<path d="M19.8796 16.0446C19.8699 16.1663 19.9589 16.273 20.0789 16.283C20.1988 16.2929 20.304 16.2025 20.3138 16.0808C20.3235 15.9591 20.2345 15.8523 20.1146 15.8424C19.9947 15.8325 19.8896 15.9229 19.8796 16.0446Z" fill="white"/>
<path d="M21.1414 14.4281C21.1314 14.5498 21.2207 14.6564 21.3406 14.6665C21.4605 14.6766 21.5657 14.5861 21.5755 14.4644C21.5855 14.3427 21.4962 14.2359 21.3763 14.226C21.2564 14.2159 21.1512 14.3065 21.1414 14.4281Z" fill="white"/>
<path d="M19.9734 14.9042C19.9636 15.0259 20.0527 15.1327 20.1726 15.1426C20.2925 15.1527 20.3978 15.0621 20.4075 14.9404C20.4173 14.8188 20.3282 14.712 20.2083 14.702C20.0886 14.6921 19.9833 14.7825 19.9734 14.9042Z" fill="white"/>
<path d="M20.8679 17.849C20.8581 17.9707 20.9472 18.0773 21.0671 18.0874C21.187 18.0973 21.2923 18.0069 21.3021 17.8853C21.3118 17.7636 21.2227 17.6568 21.1028 17.6469C20.9831 17.6369 20.8779 17.7273 20.8679 17.849Z" fill="white"/>
<path d="M19.696 18.3256C19.696 18.3258 19.696 18.3258 19.696 18.3256C19.6863 18.4473 19.7754 18.5541 19.8953 18.564C20.0152 18.5739 20.1204 18.4835 20.1302 18.3618C20.1401 18.2401 20.0509 18.1333 19.931 18.1234C19.8111 18.1135 19.706 18.2041 19.696 18.3256Z" fill="white"/>
<path d="M20.9617 16.7089C20.9519 16.8306 21.041 16.9372 21.1609 16.9473C21.2808 16.9574 21.386 16.8668 21.3958 16.7451C21.4056 16.6234 21.3165 16.5166 21.1966 16.5067C21.0767 16.4968 20.9714 16.5872 20.9617 16.7089Z" fill="white"/>
<path d="M19.7898 17.185C19.7799 17.3067 19.8691 17.4135 19.989 17.4234C20.1089 17.4335 20.2142 17.3429 20.224 17.2212C20.2337 17.0995 20.1446 16.9927 20.0247 16.9828C19.9048 16.9727 19.7996 17.0633 19.7898 17.185Z" fill="white"/>
<path d="M18.9466 16.3189C18.8267 16.309 18.7214 16.3994 18.7117 16.5211C18.7019 16.6428 18.791 16.7494 18.9109 16.7595C19.0308 16.7696 19.136 16.679 19.1458 16.5573C19.1556 16.4356 19.0665 16.3288 18.9466 16.3189Z" fill="white"/>
<path d="M20.6804 20.1303C20.6706 20.252 20.7597 20.3586 20.8796 20.3687C20.9995 20.3788 21.1048 20.2882 21.1146 20.1665C21.1245 20.0449 21.0352 19.9381 20.9153 19.9281C20.7954 19.918 20.6902 20.0086 20.6804 20.1303Z" fill="white"/>
<path d="M19.5125 20.6063C19.5027 20.728 19.5918 20.8348 19.7117 20.8447C19.8316 20.8547 19.9366 20.7643 19.9466 20.6426C19.9564 20.5209 19.8673 20.4141 19.7474 20.4042C19.6275 20.3943 19.5222 20.4847 19.5125 20.6063Z" fill="white"/>
<path d="M20.7742 18.9897C20.7642 19.1113 20.8535 19.218 20.9734 19.2281C21.0933 19.238 21.1986 19.1476 21.2083 19.0259C21.2183 18.9042 21.129 18.7974 21.0091 18.7875C20.8892 18.7774 20.7842 18.868 20.7742 18.9897Z" fill="white"/>
<path d="M19.6023 19.4657C19.5925 19.5874 19.6816 19.6942 19.8015 19.7041C19.9214 19.7142 20.0267 19.6236 20.0364 19.502C20.0462 19.3803 19.9571 19.2735 19.8372 19.2636C19.7173 19.2536 19.6121 19.344 19.6023 19.4657Z" fill="white"/>
<path d="M19.3289 22.8871C19.3191 23.0088 19.4082 23.1156 19.5281 23.1255C19.648 23.1354 19.7532 23.045 19.763 22.9234C19.7728 22.8017 19.6837 22.6949 19.5638 22.685C19.4439 22.6749 19.3386 22.7655 19.3289 22.8871Z" fill="white"/>
<path d="M20.5867 21.2704C20.5769 21.3921 20.666 21.4987 20.7859 21.5088C20.9058 21.5187 21.011 21.4283 21.0208 21.3066C21.0306 21.185 20.9415 21.0782 20.8216 21.0682C20.7017 21.0583 20.5966 21.1487 20.5867 21.2704Z" fill="white"/>
<path d="M19.4187 21.7468C19.4089 21.8685 19.498 21.9753 19.6179 21.9852C19.7378 21.9953 19.8431 21.9047 19.8528 21.783C19.8628 21.6614 19.7735 21.5546 19.6536 21.5447C19.5337 21.5345 19.4287 21.6251 19.4187 21.7468Z" fill="white"/>
<path d="M19.1414 25.168C19.1316 25.2897 19.2207 25.3965 19.3406 25.4064C19.4605 25.4165 19.5657 25.326 19.5755 25.2043C19.5853 25.0826 19.4962 24.9758 19.3763 24.9659C19.2564 24.956 19.1513 25.0464 19.1414 25.168Z" fill="white"/>
<path d="M20.4031 23.5512C20.3933 23.6728 20.4824 23.7795 20.6023 23.7896C20.7222 23.7995 20.8274 23.7091 20.8372 23.5874C20.8472 23.4657 20.7579 23.3589 20.638 23.349C20.5181 23.3391 20.4128 23.4295 20.4031 23.5512Z" fill="white"/>
<path d="M19.2351 24.0277C19.2253 24.1494 19.3144 24.2562 19.4343 24.2661C19.5542 24.276 19.6595 24.1856 19.6692 24.064C19.679 23.9423 19.5899 23.8355 19.47 23.8256C19.3503 23.8157 19.2451 23.9061 19.2351 24.0277Z" fill="white"/>
<path d="M16.7825 56.8978C16.6626 56.8879 16.5574 56.9783 16.5476 57.1C16.5378 57.2217 16.6269 57.3283 16.7468 57.3384C16.8667 57.3483 16.972 57.2579 16.9817 57.1362C16.9915 57.0146 16.9024 56.9078 16.7825 56.8978Z" fill="white"/>
<path d="M15.7083 56.2338C15.5884 56.2239 15.4832 56.3143 15.4734 56.4359C15.4636 56.5576 15.5527 56.6642 15.6726 56.6743C15.7925 56.6842 15.8977 56.5938 15.9075 56.4722C15.9175 56.3505 15.8282 56.2439 15.7083 56.2338Z" fill="white"/>
<path d="M16.6004 59.1786C16.507 59.1708 16.4241 59.2248 16.3867 59.3062L16.6192 59.4019L16.7846 59.47C16.7906 59.4527 16.7981 59.4361 16.7998 59.417C16.8096 59.2953 16.7203 59.1887 16.6004 59.1786Z" fill="white"/>
<path d="M15.5208 58.5145C15.5206 58.5145 15.5206 58.5145 15.5208 58.5145C15.4009 58.5046 15.2957 58.595 15.2859 58.7167C15.281 58.776 15.3004 58.8311 15.3348 58.8738L15.4866 58.9364L15.5214 58.9507C15.6251 58.9414 15.7112 58.8616 15.72 58.7529C15.7298 58.6313 15.6405 58.5245 15.5208 58.5145Z" fill="white"/>
<path d="M16.6927 58.0381C16.5728 58.028 16.4675 58.1186 16.4578 58.2403C16.448 58.362 16.5371 58.4688 16.657 58.4787C16.7769 58.4888 16.8821 58.3982 16.8919 58.2765C16.9019 58.155 16.8126 58.0482 16.6927 58.0381Z" fill="white"/>
<path d="M15.6146 57.3739C15.4947 57.364 15.3894 57.4544 15.3796 57.5761C15.3699 57.6977 15.4589 57.8044 15.5789 57.8145C15.6988 57.8246 15.804 57.734 15.8138 57.6123C15.8235 57.4906 15.7345 57.384 15.6146 57.3739Z" fill="white"/>
<path d="M19.929 4.2148C20.0489 4.22491 20.1541 4.13432 20.1639 4.01265C20.1737 3.89097 20.0846 3.78417 19.9647 3.77425C19.8906 3.76815 19.8252 3.80286 19.7815 3.85702L19.7307 3.98385C19.7253 4.10228 19.8117 4.20508 19.929 4.2148Z" fill="white"/>
<path d="M19.7429 6.49561C19.8628 6.50572 19.9681 6.41513 19.9778 6.29346C19.9876 6.17178 19.8985 6.06498 19.7786 6.05507C19.6587 6.04515 19.5535 6.13555 19.5437 6.25722C19.5339 6.37871 19.623 6.48551 19.7429 6.49561Z" fill="white"/>
<path d="M19.8367 5.35499C19.9566 5.3651 20.0618 5.27451 20.0716 5.15283C20.0814 5.03116 19.9923 4.92436 19.8724 4.91444C19.7525 4.90452 19.6474 4.99492 19.6375 5.1166C19.6275 5.23827 19.7168 5.34488 19.8367 5.35499Z" fill="white"/>
<path d="M19.5593 8.77638C19.6792 8.78648 19.7845 8.69589 19.7943 8.57422C19.804 8.45254 19.715 8.34574 19.5951 8.33583C19.4752 8.32591 19.3699 8.41631 19.3601 8.53798C19.3502 8.65966 19.4394 8.76627 19.5593 8.77638Z" fill="white"/>
<path d="M19.6492 7.636C19.7691 7.6461 19.8743 7.55551 19.8841 7.43384C19.8939 7.31216 19.8048 7.20536 19.6849 7.19545C19.565 7.18553 19.4597 7.27593 19.45 7.3976C19.4402 7.51928 19.5293 7.62608 19.6492 7.636Z" fill="white"/>
<path d="M18.4812 8.11231C18.6011 8.12223 18.7063 8.03183 18.7161 7.91016C18.7259 7.78848 18.6368 7.68168 18.5169 7.67176C18.397 7.66185 18.2918 7.75225 18.282 7.87392C18.2722 7.9956 18.3613 8.10221 18.4812 8.11231Z" fill="white"/>
<path d="M19.3718 11.0571C19.4917 11.0672 19.597 10.9767 19.6068 10.855C19.6167 10.7333 19.5275 10.6265 19.4076 10.6166C19.2877 10.6067 19.1826 10.6971 19.1726 10.8187C19.1627 10.9404 19.2519 11.047 19.3718 11.0571Z" fill="white"/>
<path d="M17.1257 10.8695C17.2456 10.8794 17.3509 10.789 17.3606 10.6673C17.3704 10.5456 17.2813 10.4388 17.1614 10.4289C17.1582 10.4287 17.1554 10.4301 17.1522 10.4301L17 10.8105C17.0344 10.8418 17.0763 10.8653 17.1257 10.8695Z" fill="white"/>
<path d="M19.4656 9.917C19.5855 9.92711 19.6907 9.83652 19.7005 9.71484C19.7103 9.59317 19.6212 9.48637 19.5013 9.47645C19.3814 9.46653 19.2761 9.55693 19.2664 9.67861C19.2566 9.80028 19.3457 9.90689 19.4656 9.917Z" fill="white"/>
<path d="M18.2976 10.3933C18.4175 10.4033 18.5227 10.3129 18.5325 10.1912C18.5423 10.0695 18.4532 9.96271 18.3333 9.9528C18.2134 9.94269 18.1082 10.0333 18.0984 10.155C18.0886 10.2766 18.1777 10.3832 18.2976 10.3933Z" fill="white"/>
<path d="M18.3875 9.25296C18.5074 9.26307 18.6126 9.17248 18.6224 9.05081C18.6324 8.92913 18.5431 8.82233 18.4232 8.81242C18.3033 8.80231 18.198 8.8929 18.1883 9.01457C18.1783 9.13625 18.2676 9.24286 18.3875 9.25296Z" fill="white"/>
<path d="M19.1882 13.3381C19.3081 13.3482 19.4134 13.2576 19.4231 13.1359C19.4329 13.0143 19.3438 12.9075 19.2239 12.8975C19.104 12.8876 18.9988 12.978 18.989 13.0997C18.9792 13.2214 19.0683 13.3282 19.1882 13.3381Z" fill="white"/>
<path d="M19.2781 12.1978C19.398 12.2079 19.5032 12.1173 19.513 11.9956C19.5228 11.8739 19.4337 11.7671 19.3138 11.7572C19.1939 11.7473 19.0886 11.8377 19.0789 11.9594C19.0691 12.081 19.1584 12.1878 19.2781 12.1978Z" fill="white"/>
<path d="M18.1101 12.6739C18.23 12.6838 18.3353 12.5934 18.345 12.4717C18.3548 12.35 18.2657 12.2432 18.1458 12.2333C18.0259 12.2232 17.9207 12.3138 17.9109 12.4355C17.901 12.5571 17.9902 12.6639 18.1101 12.6739Z" fill="white"/>
<path d="M18.2039 11.5337C18.3238 11.5438 18.429 11.4532 18.4388 11.3315C18.4485 11.2099 18.3595 11.1031 18.2396 11.0932C18.1197 11.0832 18.0144 11.1736 18.0046 11.2953C17.9949 11.417 18.0839 11.5238 18.2039 11.5337Z" fill="white"/>
<path d="M19.0046 15.6191C19.1245 15.6293 19.2298 15.5387 19.2396 15.417C19.2493 15.2953 19.1602 15.1885 19.0403 15.1786C18.9204 15.1687 18.8152 15.2591 18.8054 15.3808C18.7956 15.5024 18.8849 15.609 19.0046 15.6191Z" fill="white"/>
<path d="M19.0984 14.4785C19.2183 14.4886 19.3236 14.398 19.3333 14.2764C19.3431 14.1547 19.254 14.0479 19.1341 14.038C19.0142 14.0281 18.9092 14.1185 18.8992 14.2401C18.8892 14.3618 18.9785 14.4684 19.0984 14.4785Z" fill="white"/>
<path d="M17.9265 14.9551C18.0464 14.9652 18.1517 14.8746 18.1614 14.753C18.1712 14.6313 18.0821 14.5245 17.9622 14.5146C17.8423 14.5045 17.7371 14.595 17.7273 14.7167C17.7175 14.8384 17.8066 14.945 17.9265 14.9551Z" fill="white"/>
<path d="M18.0164 13.8145C18.1363 13.8244 18.2415 13.734 18.2513 13.6123C18.261 13.4906 18.172 13.3838 18.0521 13.3739C17.9322 13.364 17.8269 13.4544 17.8171 13.5761C17.8074 13.6977 17.8964 13.8044 18.0164 13.8145Z" fill="white"/>
<path d="M18.6179 17.6615C18.6081 17.7832 18.6972 17.8898 18.8171 17.8999C18.937 17.9098 19.0423 17.8194 19.0521 17.6978C19.0618 17.5761 18.9727 17.4693 18.8528 17.4594C18.7329 17.4494 18.6277 17.5398 18.6179 17.6615Z" fill="white"/>
<path d="M17.739 17.2359C17.8589 17.246 17.9642 17.1554 17.9739 17.0337C17.9837 16.912 17.8946 16.8052 17.7747 16.7953C17.6548 16.7852 17.5496 16.8758 17.5398 16.9975C17.53 17.1192 17.6191 17.226 17.739 17.2359Z" fill="white"/>
<path d="M17.8328 16.0952C17.9527 16.1051 18.0579 16.0147 18.0677 15.8931C18.0775 15.7714 17.9884 15.6646 17.8685 15.6547C17.7486 15.6448 17.6433 15.7352 17.6336 15.8568C17.6236 15.9785 17.7129 16.0853 17.8328 16.0952Z" fill="white"/>
<path d="M18.4343 19.9423C18.4246 20.064 18.5136 20.1706 18.6335 20.1807C18.7534 20.1908 18.8587 20.1002 18.8685 19.9785C18.8784 19.8569 18.7892 19.7501 18.6692 19.7401C18.5493 19.73 18.4443 19.8206 18.4343 19.9423Z" fill="white"/>
<path d="M17.5013 20.2162C17.3814 20.2061 17.2761 20.2967 17.2664 20.4184C17.2566 20.5401 17.3457 20.6467 17.4656 20.6568C17.5855 20.6667 17.6907 20.5763 17.7005 20.4546C17.7105 20.3331 17.6212 20.2263 17.5013 20.2162Z" fill="white"/>
<path d="M18.5242 18.8017C18.5142 18.9233 18.6035 19.0299 18.7234 19.04C18.8433 19.05 18.9486 18.9596 18.9583 18.8379C18.9681 18.7162 18.879 18.6094 18.7591 18.5995C18.6392 18.5896 18.534 18.68 18.5242 18.8017Z" fill="white"/>
<path d="M17.5554 19.5166C17.6753 19.5267 17.7806 19.4362 17.7903 19.3145C17.8001 19.1928 17.711 19.086 17.5911 19.0761C17.4712 19.066 17.366 19.1566 17.3562 19.2782C17.3464 19.3999 17.4355 19.5065 17.5554 19.5166Z" fill="white"/>
<path d="M17.6453 18.376C17.7652 18.3859 17.8704 18.2955 17.8802 18.1738C17.8902 18.0522 17.8009 17.9454 17.681 17.9354C17.5611 17.9255 17.4558 18.0159 17.4461 18.1376C17.4361 18.2593 17.5254 18.3659 17.6453 18.376Z" fill="white"/>
<path d="M18.2468 22.223C18.2371 22.3447 18.3261 22.4513 18.446 22.4614C18.5659 22.4715 18.6712 22.381 18.681 22.2593C18.6907 22.1376 18.6017 22.0308 18.4817 22.0209C18.3618 22.011 18.2568 22.1014 18.2468 22.223Z" fill="white"/>
<path d="M17.0789 22.6994C17.0689 22.8211 17.1582 22.9279 17.2781 22.9378C17.398 22.9478 17.5032 22.8574 17.513 22.7357C17.5228 22.614 17.4337 22.5072 17.3138 22.4973C17.1941 22.4872 17.0888 22.5778 17.0789 22.6994Z" fill="white"/>
<path d="M18.3406 21.0829C18.3308 21.2046 18.4199 21.3112 18.5398 21.3213C18.6597 21.3312 18.7649 21.2408 18.7747 21.1192C18.7845 20.9975 18.6954 20.8907 18.5755 20.8808C18.4556 20.8707 18.3503 20.9613 18.3406 21.0829Z" fill="white"/>
<path d="M17.1726 21.559C17.1628 21.6807 17.2519 21.7875 17.3718 21.7974C17.4917 21.8075 17.597 21.7169 17.6067 21.5952C17.6165 21.4735 17.5274 21.3667 17.4075 21.3568C17.2876 21.3469 17.1824 21.4373 17.1726 21.559Z" fill="white"/>
<path d="M18.0633 24.5038C18.0533 24.6255 18.1426 24.7321 18.2625 24.7422C18.3824 24.7523 18.4876 24.6617 18.4974 24.54C18.5072 24.4184 18.4181 24.3116 18.2982 24.3016C18.1783 24.2917 18.073 24.3821 18.0633 24.5038Z" fill="white"/>
<path d="M16.8914 24.9804C16.8816 25.102 16.9707 25.2088 17.0906 25.2188C17.2105 25.2289 17.3157 25.1383 17.3255 25.0166C17.3353 24.8949 17.2462 24.7881 17.1263 24.7782C17.0064 24.7683 16.9011 24.8587 16.8914 24.9804Z" fill="white"/>
<path d="M18.157 23.3637C18.1472 23.4853 18.2363 23.592 18.3562 23.6021C18.4761 23.612 18.5813 23.5216 18.5911 23.3999C18.6009 23.2782 18.5118 23.1714 18.3919 23.1615C18.272 23.1516 18.1669 23.242 18.157 23.3637Z" fill="white"/>
<path d="M16.9851 23.8398C16.9753 23.9614 17.0644 24.0682 17.1843 24.0782C17.3042 24.0881 17.4095 23.9977 17.4192 23.876C17.429 23.7543 17.3399 23.6475 17.22 23.6376C17.1001 23.6275 16.9951 23.7181 16.9851 23.8398Z" fill="white"/>
<path d="M16.1419 22.9735C16.022 22.9636 15.9169 23.054 15.907 23.1757C15.8972 23.2974 15.9863 23.404 16.1062 23.4141C16.2261 23.424 16.3313 23.3336 16.3411 23.2119C16.3509 23.0902 16.262 22.9836 16.1419 22.9735Z" fill="white"/>
<path d="M17.8796 26.7846C17.8699 26.9062 17.9589 27.0128 18.0789 27.023C18.1988 27.0331 18.304 26.9425 18.3138 26.8208C18.3235 26.6991 18.2345 26.5923 18.1146 26.5824C17.9947 26.5725 17.8894 26.6631 17.8796 26.7846Z" fill="white"/>
<path d="M16.7078 27.2612C16.698 27.3828 16.7871 27.4896 16.907 27.4995C17.0269 27.5097 17.1321 27.4191 17.1419 27.2974C17.1519 27.1757 17.0626 27.0689 16.9427 27.059C16.8228 27.0489 16.7175 27.1395 16.7078 27.2612Z" fill="white"/>
<path d="M17.9695 25.6445C17.9597 25.7661 18.0488 25.8727 18.1687 25.8828C18.2886 25.8928 18.3938 25.8024 18.4036 25.6807C18.4134 25.559 18.3243 25.4522 18.2044 25.4423C18.0845 25.4322 17.9794 25.5228 17.9695 25.6445Z" fill="white"/>
<path d="M16.8015 26.1205C16.7916 26.2422 16.8808 26.349 17.0008 26.3589C17.1207 26.3688 17.2259 26.2784 17.2357 26.1567C17.2454 26.0351 17.1564 25.9283 17.0365 25.9183C16.9166 25.9084 16.8115 25.9988 16.8015 26.1205Z" fill="white"/>
<path d="M16.5242 29.5419C16.5144 29.6636 16.6035 29.7704 16.7234 29.7803C16.8433 29.7904 16.9485 29.6998 16.9583 29.5781C16.9681 29.4564 16.879 29.3496 16.7591 29.3397C16.6392 29.3298 16.5341 29.4204 16.5242 29.5419Z" fill="white"/>
<path d="M17.7859 27.9252C17.776 28.0469 17.8652 28.1535 17.9851 28.1636C18.105 28.1735 18.2103 28.0831 18.22 27.9614C18.2298 27.8398 18.1407 27.733 18.0208 27.723C17.9009 27.7131 17.7957 27.8035 17.7859 27.9252Z" fill="white"/>
<path d="M16.6179 28.4015C16.6081 28.5232 16.6972 28.63 16.8171 28.6399C16.937 28.6498 17.0423 28.5594 17.0521 28.4378C17.0618 28.3161 16.9727 28.2093 16.8528 28.1994C16.7329 28.1893 16.6277 28.2799 16.6179 28.4015Z" fill="white"/>
<path d="M14.5403 56.7099C14.4204 56.6999 14.3152 56.7903 14.3054 56.912C14.2956 57.0337 14.3847 57.1403 14.5046 57.1504C14.6245 57.1603 14.7298 57.0699 14.7396 56.9482C14.7495 56.8266 14.6602 56.7198 14.5403 56.7099Z" fill="white"/>
<path d="M13.4583 56.046C13.3384 56.0361 13.2332 56.1265 13.2234 56.2482C13.2136 56.3699 13.3027 56.4765 13.4226 56.4866C13.5425 56.4965 13.6477 56.4061 13.6575 56.2844C13.6673 56.1627 13.5782 56.0559 13.4583 56.046Z" fill="white"/>
<path d="M14.6302 55.5696C14.5103 55.5594 14.405 55.65 14.3953 55.7717C14.3855 55.8934 14.4746 56.0002 14.5945 56.0101C14.7144 56.0202 14.8196 55.9296 14.8294 55.8079C14.8392 55.6863 14.7501 55.5797 14.6302 55.5696Z" fill="white"/>
<path d="M13.5521 54.9057C13.4322 54.8957 13.3269 54.9861 13.3171 55.1078C13.3074 55.2295 13.3964 55.3361 13.5164 55.3462C13.6363 55.3563 13.7415 55.2657 13.7513 55.144C13.761 55.0224 13.672 54.9156 13.5521 54.9057Z" fill="white"/>
<path d="M14.4466 57.8505C14.3267 57.8404 14.2214 57.931 14.2117 58.0527C14.2019 58.1743 14.291 58.2811 14.4109 58.291C14.5308 58.3012 14.636 58.2106 14.6458 58.0889C14.6556 57.9672 14.5665 57.8604 14.4466 57.8505Z" fill="white"/>
<path d="M13.3685 57.1864C13.2486 57.1765 13.1433 57.2669 13.1335 57.3886C13.1238 57.5102 13.2129 57.6169 13.3328 57.627C13.4527 57.6371 13.5579 57.5465 13.5677 57.4248C13.5776 57.3033 13.4884 57.1965 13.3685 57.1864Z" fill="white"/>
<path d="M16.9421 13.1504C17.062 13.1605 17.1673 13.0699 17.1771 12.9482C17.1868 12.8266 17.0977 12.7198 16.9778 12.7099C16.8579 12.6999 16.7527 12.7903 16.7429 12.912C16.7331 13.0337 16.8222 13.1405 16.9421 13.1504Z" fill="white"/>
<path d="M17.0359 12.0098C17.1558 12.0199 17.2611 11.9293 17.2708 11.8076C17.2806 11.6859 17.1915 11.5791 17.0716 11.5692C16.9517 11.5593 16.8465 11.6497 16.8367 11.7714C16.8267 11.8931 16.916 11.9997 17.0359 12.0098Z" fill="white"/>
<path d="M16.7547 15.4312C16.8746 15.4413 16.9798 15.3507 16.9896 15.229C16.9994 15.1073 16.9103 15.0005 16.7904 14.9906C16.6705 14.9807 16.5654 15.0711 16.5554 15.1928C16.5455 15.3144 16.6348 15.4211 16.7547 15.4312Z" fill="white"/>
<path d="M16.8484 14.2905C16.9683 14.3006 17.0735 14.2101 17.0833 14.0884C17.0931 13.9667 17.004 13.8599 16.8841 13.85C16.7642 13.8401 16.6591 13.9305 16.6492 14.0521C16.6394 14.1738 16.7285 14.2806 16.8484 14.2905Z" fill="white"/>
<path d="M15.6798 14.767C15.7997 14.7771 15.9049 14.6865 15.9147 14.5649C15.9247 14.4432 15.8354 14.3364 15.7155 14.3265C15.6653 14.3223 15.6195 14.3387 15.5804 14.3648L15.4883 14.595C15.509 14.6865 15.5828 14.7588 15.6798 14.767Z" fill="white"/>
<path d="M16.571 17.7119C16.6909 17.722 16.7962 17.6314 16.806 17.5098C16.8157 17.3881 16.7267 17.2813 16.6067 17.2714C16.4868 17.2615 16.3816 17.3519 16.3718 17.4735C16.3621 17.5952 16.4511 17.7018 16.571 17.7119Z" fill="white"/>
<path d="M16.6609 16.5718C16.7808 16.5819 16.8861 16.4913 16.8958 16.3696C16.9058 16.248 16.8165 16.1412 16.6966 16.1312C16.5767 16.1213 16.4717 16.2117 16.4617 16.3334C16.4517 16.4551 16.541 16.5617 16.6609 16.5718Z" fill="white"/>
<path d="M15.4929 17.0478C15.6128 17.0579 15.7181 16.9673 15.7278 16.8457C15.7376 16.724 15.6485 16.6172 15.5286 16.6073C15.4087 16.5972 15.3035 16.6878 15.2937 16.8094C15.2839 16.9311 15.3732 17.0379 15.4929 17.0478Z" fill="white"/>
<path d="M15.5828 15.9077C15.7027 15.9176 15.8079 15.8272 15.8177 15.7056C15.8275 15.5839 15.7384 15.4771 15.6185 15.4672C15.4986 15.4573 15.3933 15.5477 15.3835 15.6693C15.3738 15.7908 15.4629 15.8976 15.5828 15.9077Z" fill="white"/>
<path d="M16.3835 19.9929C16.5034 20.003 16.6087 19.9124 16.6185 19.7908C16.6282 19.6691 16.5391 19.5623 16.4192 19.5524C16.2993 19.5425 16.1943 19.6329 16.1843 19.7545C16.1746 19.8762 16.2638 19.9828 16.3835 19.9929Z" fill="white"/>
<path d="M16.4773 18.8525C16.5972 18.8627 16.7025 18.7721 16.7122 18.6504C16.722 18.5287 16.6329 18.4219 16.513 18.412C16.3931 18.4021 16.2879 18.4925 16.2781 18.6142C16.2681 18.7358 16.3574 18.8426 16.4773 18.8525Z" fill="white"/>
<path d="M15.3093 19.3286C15.4292 19.3388 15.5345 19.2482 15.5442 19.1265C15.554 19.0048 15.4649 18.898 15.345 18.8881C15.2251 18.878 15.1199 18.9686 15.1101 19.0903C15.1003 19.2119 15.1894 19.3185 15.3093 19.3286Z" fill="white"/>
<path d="M15.4031 18.1885C15.523 18.1984 15.6282 18.108 15.638 17.9863C15.6478 17.8647 15.5587 17.7579 15.4388 17.7479C15.3189 17.738 15.2136 17.8284 15.2039 17.9501C15.1941 18.0718 15.2832 18.1786 15.4031 18.1885Z" fill="white"/>
<path d="M16.1999 22.2739C16.3199 22.284 16.4251 22.1935 16.4349 22.0718C16.4446 21.9501 16.3556 21.8433 16.2357 21.8334C16.1158 21.8235 16.0105 21.9139 16.0007 22.0355C15.991 22.1572 16.08 22.2638 16.1999 22.2739Z" fill="white"/>
<path d="M16.2937 21.1333C16.4136 21.1434 16.5188 21.0528 16.5286 20.9312C16.5384 20.8095 16.4493 20.7027 16.3294 20.6928C16.2095 20.6828 16.1043 20.7732 16.0945 20.8949C16.0847 21.0166 16.1738 21.1232 16.2937 21.1333Z" fill="white"/>
<path d="M15.1218 21.6094C15.2417 21.6195 15.347 21.5289 15.3567 21.4072C15.3665 21.2856 15.2774 21.1788 15.1575 21.1688C15.0376 21.1589 14.9324 21.2493 14.9226 21.371C14.9128 21.4927 15.0019 21.5995 15.1218 21.6094Z" fill="white"/>
<path d="M15.2156 20.4693C15.3355 20.4792 15.4407 20.3888 15.4505 20.2671C15.4603 20.1454 15.3712 20.0386 15.2513 20.0287C15.1314 20.0186 15.0261 20.1092 15.0164 20.2309C15.0066 20.3524 15.0959 20.4592 15.2156 20.4693Z" fill="white"/>
<path d="M15.8133 24.3163C15.8033 24.438 15.8926 24.5446 16.0125 24.5547C16.1324 24.5648 16.2376 24.4742 16.2474 24.3525C16.2572 24.2309 16.1681 24.1241 16.0482 24.1141C15.9283 24.1042 15.8232 24.1946 15.8133 24.3163Z" fill="white"/>
<path d="M14.9382 23.8906C15.0581 23.9006 15.1634 23.8102 15.1731 23.6885C15.1831 23.5668 15.0938 23.46 14.9739 23.4501C14.854 23.4402 14.7488 23.5306 14.739 23.6522C14.7292 23.7739 14.8183 23.8805 14.9382 23.8906Z" fill="white"/>
<path d="M15.0281 22.75C15.148 22.76 15.2532 22.6696 15.263 22.5479C15.2728 22.4262 15.1837 22.3194 15.0638 22.3095C14.9439 22.2994 14.8387 22.39 14.8289 22.5116C14.8189 22.6333 14.9082 22.7401 15.0281 22.75Z" fill="white"/>
<path d="M15.6335 26.5971C15.6238 26.7188 15.7129 26.8254 15.8328 26.8355C15.9527 26.8456 16.0579 26.755 16.0677 26.6333C16.0775 26.5117 15.9884 26.4049 15.8685 26.3949C15.7486 26.3848 15.6435 26.4754 15.6335 26.5971Z" fill="white"/>
<path d="M14.6966 26.871C14.5767 26.8609 14.4714 26.9515 14.4617 27.0732C14.4519 27.1948 14.541 27.3016 14.6609 27.3116C14.7808 27.3217 14.886 27.2311 14.8958 27.1094C14.9058 26.9877 14.8165 26.8811 14.6966 26.871Z" fill="white"/>
<path d="M15.7234 25.4564C15.7136 25.5781 15.8027 25.6847 15.9226 25.6948C16.0425 25.7048 16.1477 25.6144 16.1575 25.4927C16.1675 25.371 16.0782 25.2642 15.9583 25.2543C15.8384 25.2444 15.7332 25.3348 15.7234 25.4564Z" fill="white"/>
<path d="M14.7507 26.1712C14.8706 26.1811 14.9759 26.0907 14.9856 25.969C14.9954 25.8473 14.9063 25.7405 14.7864 25.7306C14.6665 25.7207 14.5613 25.8111 14.5515 25.9328C14.5417 26.0544 14.631 26.1612 14.7507 26.1712Z" fill="white"/>
<path d="M14.8445 25.0308C14.9644 25.0409 15.0696 24.9503 15.0794 24.8286C15.0892 24.707 15.0001 24.6002 14.8802 24.5902C14.7603 24.5801 14.655 24.6707 14.6453 24.7924C14.6355 24.9141 14.7246 25.0207 14.8445 25.0308Z" fill="white"/>
<path d="M15.446 28.8778C15.4363 28.9995 15.5254 29.1061 15.6453 29.1162C15.7652 29.1261 15.8704 29.0357 15.8802 28.9141C15.89 28.7924 15.8009 28.6856 15.681 28.6757C15.5613 28.6658 15.456 28.7562 15.446 28.8778Z" fill="white"/>
<path d="M14.2742 29.3542C14.2644 29.4758 14.3535 29.5826 14.4734 29.5926C14.5933 29.6027 14.6985 29.5121 14.7083 29.3904C14.7181 29.2687 14.629 29.1619 14.5091 29.152C14.3892 29.1419 14.2839 29.2325 14.2742 29.3542Z" fill="white"/>
<path d="M15.5398 27.7372C15.53 27.8589 15.6191 27.9655 15.739 27.9756C15.8589 27.9855 15.9642 27.8951 15.9739 27.7734C15.9837 27.6518 15.8946 27.545 15.7747 27.535C15.6548 27.5251 15.5496 27.6157 15.5398 27.7372Z" fill="white"/>
<path d="M14.3679 28.2138C14.3581 28.3354 14.4472 28.4422 14.5671 28.4522C14.687 28.4621 14.7923 28.3717 14.8021 28.25C14.8118 28.1283 14.7227 28.0215 14.6028 28.0116C14.4829 28.0017 14.3779 28.0921 14.3679 28.2138Z" fill="white"/>
<path d="M15.2585 31.1586C15.2488 31.2803 15.3379 31.3869 15.4578 31.397C15.5777 31.4069 15.6829 31.3165 15.6927 31.1949C15.7025 31.0732 15.6134 30.9664 15.4935 30.9565C15.3736 30.9464 15.2683 31.0369 15.2585 31.1586Z" fill="white"/>
<path d="M14.0906 31.6352C14.0806 31.7568 14.1699 31.8636 14.2898 31.8735C14.4097 31.8837 14.515 31.7931 14.5247 31.6714C14.5345 31.5497 14.4454 31.4429 14.3255 31.433C14.2056 31.4231 14.1006 31.5135 14.0906 31.6352Z" fill="white"/>
<path d="M13.4466 31.0073C13.4566 30.8856 13.3673 30.7788 13.2474 30.7689C13.1275 30.759 13.0224 30.8494 13.0125 30.9711C13.0025 31.0928 13.0918 31.1994 13.2117 31.2095C13.3316 31.2196 13.4368 31.129 13.4466 31.0073Z" fill="white"/>
<path d="M15.3523 30.0185C15.3424 30.1401 15.4316 30.2467 15.5515 30.2568C15.6714 30.267 15.7767 30.1764 15.7865 30.0547C15.7962 29.933 15.7071 29.8262 15.5872 29.8163C15.4673 29.8064 15.3623 29.8968 15.3523 30.0185Z" fill="white"/>
<path d="M14.1804 30.4945C14.1706 30.6162 14.2597 30.723 14.3796 30.7329C14.4995 30.7428 14.6048 30.6524 14.6146 30.5308C14.6243 30.4091 14.5352 30.3023 14.4153 30.2924C14.2954 30.2825 14.1904 30.373 14.1804 30.4945Z" fill="white"/>
<path d="M14.0007 32.7753C13.991 32.897 14.08 33.0038 14.1999 33.0137C14.3198 33.0236 14.4251 32.9332 14.4349 32.8115C14.4448 32.6898 14.3556 32.583 14.2357 32.5731C14.1158 32.5632 14.0105 32.6536 14.0007 32.7753Z" fill="white"/>
<path d="M12.4778 54.2416C12.3579 54.2317 12.2527 54.3221 12.2429 54.4437C12.2331 54.5654 12.3222 54.672 12.4421 54.6821C12.562 54.6922 12.6673 54.6017 12.6771 54.48C12.6868 54.3583 12.5977 54.2515 12.4778 54.2416Z" fill="white"/>
<path d="M11.3958 53.577C11.2759 53.5671 11.1707 53.6575 11.1609 53.7792C11.1511 53.9009 11.2402 54.0075 11.3601 54.0176C11.48 54.0275 11.5852 53.9371 11.595 53.8154C11.6048 53.6939 11.5157 53.5871 11.3958 53.577Z" fill="white"/>
<path d="M12.2903 56.5224C12.1704 56.5124 12.0652 56.6028 12.0554 56.7245C12.0456 56.8462 12.1347 56.9528 12.2546 56.9629C12.3745 56.9728 12.4798 56.8824 12.4896 56.7607C12.4993 56.6391 12.4102 56.5325 12.2903 56.5224Z" fill="white"/>
<path d="M11.2122 55.8581C11.0923 55.8482 10.9871 55.9386 10.9773 56.0603C10.9675 56.1819 11.0566 56.2886 11.1765 56.2987C11.2964 56.3086 11.4017 56.2182 11.4114 56.0965C11.4214 55.9748 11.3321 55.868 11.2122 55.8581Z" fill="white"/>
<path d="M12.3841 55.3818C12.2642 55.3716 12.1589 55.4622 12.1492 55.5839C12.1394 55.7056 12.2285 55.8124 12.3484 55.8223C12.4683 55.8324 12.5735 55.7418 12.5833 55.6201C12.5931 55.4987 12.504 55.3919 12.3841 55.3818Z" fill="white"/>
<path d="M11.306 54.7177C11.1861 54.7077 11.0808 54.7981 11.071 54.9198C11.0613 55.0415 11.1504 55.1481 11.2703 55.1582C11.3902 55.1683 11.4954 55.0777 11.5052 54.9561C11.515 54.8344 11.4257 54.7278 11.306 54.7177Z" fill="white"/>
<path d="M11.1171 56.9984C11.0496 56.9928 10.9891 57.0209 10.9453 57.0665L11.106 57.1326L11.314 57.2183C11.3137 57.1048 11.2306 57.0077 11.1171 56.9984Z" fill="white"/>
<path d="M14.1375 19.8052C14.2574 19.8153 14.3626 19.7247 14.3724 19.603C14.3822 19.4814 14.2931 19.3746 14.1732 19.3646C14.0533 19.3547 13.9482 19.4451 13.9383 19.5668C13.9283 19.6885 14.0176 19.7953 14.1375 19.8052Z" fill="white"/>
<path d="M14.2312 18.6646C14.3511 18.6747 14.4563 18.5841 14.4661 18.4624C14.4759 18.3407 14.3868 18.2339 14.2669 18.224C14.147 18.2141 14.0418 18.3045 14.032 18.4262C14.0222 18.5477 14.1113 18.6545 14.2312 18.6646Z" fill="white"/>
<path d="M13.95 22.0859C14.0699 22.0961 14.1751 22.0055 14.1849 21.8838C14.1949 21.7621 14.1056 21.6553 13.9857 21.6454C13.8658 21.6355 13.7607 21.7259 13.7508 21.8476C13.7408 21.9692 13.8301 22.0758 13.95 22.0859Z" fill="white"/>
<path d="M14.0437 20.9453C14.1636 20.9554 14.2688 20.8648 14.2786 20.7432C14.2884 20.6215 14.1993 20.5147 14.0794 20.5048C13.9595 20.4949 13.8544 20.5853 13.8445 20.7069C13.8347 20.8286 13.924 20.9352 14.0437 20.9453Z" fill="white"/>
<path d="M13.1112 21.2196C13.1204 21.105 13.0407 21.0066 12.9313 20.9869L12.7734 21.3815C12.8035 21.4025 12.8371 21.4185 12.8762 21.4218C12.996 21.4317 13.1012 21.3413 13.1112 21.2196Z" fill="white"/>
<path d="M13.7703 24.3667C13.8902 24.3768 13.9954 24.2862 14.0052 24.1646C14.015 24.0429 13.9259 23.9361 13.806 23.9262C13.6861 23.9162 13.5808 24.0066 13.571 24.1283C13.5613 24.25 13.6505 24.3568 13.7703 24.3667Z" fill="white"/>
<path d="M13.8601 23.2264C13.8603 23.2264 13.8603 23.2264 13.8601 23.2264C13.98 23.2365 14.0852 23.1459 14.095 23.0242C14.1048 22.9026 14.0157 22.7958 13.8958 22.7858C13.7759 22.7759 13.6707 22.8663 13.6609 22.988C13.6511 23.1097 13.7404 23.2163 13.8601 23.2264Z" fill="white"/>
<path d="M12.6882 23.7026C12.8081 23.7128 12.9134 23.6222 12.9231 23.5005C12.9329 23.3788 12.8438 23.272 12.7239 23.2621C12.604 23.2522 12.4988 23.3426 12.489 23.4643C12.4792 23.5859 12.5683 23.6927 12.6882 23.7026Z" fill="white"/>
<path d="M12.782 22.562C12.9019 22.572 13.0071 22.4816 13.0169 22.3599C13.0267 22.2382 12.9376 22.1314 12.8177 22.1215C12.6978 22.1114 12.5925 22.202 12.5828 22.3237C12.573 22.4453 12.6621 22.5521 12.782 22.562Z" fill="white"/>
<path d="M13.5828 26.6475C13.5829 26.6475 13.5829 26.6475 13.5828 26.6475C13.7027 26.6576 13.8079 26.567 13.8177 26.4453C13.8275 26.3236 13.7384 26.2168 13.6185 26.2069C13.4986 26.197 13.3933 26.2874 13.3835 26.4091C13.3738 26.5308 13.463 26.6374 13.5828 26.6475Z" fill="white"/>
<path d="M13.6765 25.5073C13.7964 25.5174 13.9017 25.4269 13.9114 25.3052C13.9212 25.1835 13.8321 25.0767 13.7122 25.0668C13.5923 25.0569 13.4873 25.1473 13.4773 25.2689C13.4675 25.3906 13.5566 25.4972 13.6765 25.5073Z" fill="white"/>
<path d="M12.5046 25.9834C12.6245 25.9933 12.7298 25.9029 12.7396 25.7813C12.7493 25.6596 12.6602 25.5528 12.5403 25.5429C12.4204 25.5329 12.3152 25.6233 12.3054 25.745C12.2956 25.8667 12.3847 25.9733 12.5046 25.9834Z" fill="white"/>
<path d="M12.5984 24.8433C12.7183 24.8534 12.8235 24.7628 12.8333 24.6411C12.8431 24.5195 12.754 24.4127 12.6341 24.4027C12.5142 24.3926 12.4089 24.4832 12.3992 24.6049C12.3894 24.7266 12.4787 24.8332 12.5984 24.8433Z" fill="white"/>
<path d="M13.3953 28.9282C13.5152 28.9383 13.6204 28.8478 13.6302 28.7261C13.64 28.6044 13.5509 28.4976 13.431 28.4877C13.3111 28.4778 13.206 28.5682 13.1961 28.6898C13.1861 28.8115 13.2754 28.9183 13.3953 28.9282Z" fill="white"/>
<path d="M13.489 27.7881C13.6089 27.7982 13.7142 27.7076 13.7239 27.5859C13.7337 27.4643 13.6446 27.3575 13.5247 27.3475C13.4048 27.3376 13.2996 27.428 13.2898 27.5497C13.28 27.6714 13.3691 27.778 13.489 27.7881Z" fill="white"/>
<path d="M12.3171 28.2642C12.437 28.2741 12.5423 28.1837 12.5521 28.062C12.5618 27.9403 12.4727 27.8335 12.3528 27.8236C12.2329 27.8137 12.1277 27.9041 12.1179 28.0258C12.1081 28.1475 12.1972 28.2543 12.3171 28.2642Z" fill="white"/>
<path d="M12.4109 27.1241C12.5308 27.1342 12.6361 27.0436 12.6458 26.9219C12.6556 26.8002 12.5665 26.6934 12.4466 26.6835C12.3267 26.6734 12.2215 26.764 12.2117 26.8857C12.2017 27.0073 12.291 27.1141 12.4109 27.1241Z" fill="white"/>
<path d="M13.3054 30.0689C13.4253 30.079 13.5306 29.9884 13.5403 29.8667C13.5501 29.745 13.461 29.6382 13.3411 29.6283C13.2212 29.6184 13.1162 29.7088 13.1062 29.8305C13.0964 29.9521 13.1857 30.0589 13.3054 30.0689Z" fill="white"/>
<path d="M12.1374 30.5454C12.2573 30.5554 12.3626 30.465 12.3724 30.3433C12.3821 30.2216 12.2931 30.1148 12.1732 30.1049C12.0533 30.0948 11.948 30.1854 11.9382 30.3071C11.9285 30.4287 12.0175 30.5353 12.1374 30.5454Z" fill="white"/>
<path d="M12.2273 29.4048C12.3472 29.4149 12.4524 29.3243 12.4622 29.2026C12.4722 29.0809 12.3829 28.9741 12.263 28.9642C12.1431 28.9541 12.0378 29.0447 12.0281 29.1664C12.0183 29.288 12.1074 29.3947 12.2273 29.4048Z" fill="white"/>
<path d="M12.8289 33.2519C12.8191 33.3735 12.9082 33.4801 13.0281 33.4902C13.148 33.5002 13.2532 33.4098 13.263 33.2881C13.2728 33.1664 13.1837 33.0596 13.0638 33.0497C12.9439 33.0398 12.8386 33.1304 12.8289 33.2519Z" fill="white"/>
<path d="M12.9226 32.1113C12.9128 32.2329 13.0019 32.3395 13.1218 32.3496C13.2417 32.3598 13.347 32.2692 13.3567 32.1475C13.3665 32.0258 13.2774 31.919 13.1575 31.9091C13.0376 31.899 12.9324 31.9896 12.9226 32.1113Z" fill="white"/>
<path d="M11.9499 32.826C12.0698 32.8359 12.1751 32.7455 12.1849 32.6238C12.1946 32.5021 12.1056 32.3953 11.9857 32.3854C11.8658 32.3753 11.7605 32.4659 11.7507 32.5876C11.741 32.7092 11.83 32.816 11.9499 32.826Z" fill="white"/>
<path d="M12.0437 31.6856C12.1636 31.6957 12.2688 31.6051 12.2786 31.4834C12.2884 31.3617 12.1993 31.2549 12.0794 31.245C11.9595 31.2351 11.8543 31.3255 11.8445 31.4472C11.8347 31.5686 11.9238 31.6754 12.0437 31.6856Z" fill="white"/>
<path d="M12.6414 35.5326C12.6316 35.6543 12.7207 35.7609 12.8406 35.771C12.9605 35.7809 13.0657 35.6905 13.0755 35.5688C13.0853 35.4472 12.9962 35.3404 12.8763 35.3305C12.7564 35.3205 12.6511 35.4109 12.6414 35.5326Z" fill="white"/>
<path d="M11.4734 36.0087C11.4734 36.0089 11.4734 36.0089 11.4734 36.0087C11.4636 36.1304 11.5527 36.2372 11.6726 36.2471C11.7925 36.257 11.8977 36.1666 11.9075 36.0449C11.9173 35.9232 11.8282 35.8164 11.7083 35.8065C11.5884 35.7966 11.4833 35.8872 11.4734 36.0087Z" fill="white"/>
<path d="M12.7351 34.392C12.7253 34.5137 12.8144 34.6203 12.9343 34.6304C13.0542 34.6405 13.1595 34.5499 13.1692 34.4282C13.179 34.3065 13.0899 34.1997 12.97 34.1898C12.8501 34.1799 12.7451 34.2703 12.7351 34.392Z" fill="white"/>
<path d="M11.5632 34.8686C11.5535 34.9903 11.6425 35.0971 11.7624 35.107C11.8823 35.1171 11.9876 35.0265 11.9974 34.9048C12.0071 34.7831 11.9181 34.6763 11.7982 34.6664C11.6784 34.6563 11.5732 34.7469 11.5632 34.8686Z" fill="white"/>
<path d="M12.0911 33.7642C12.1009 33.6425 12.0118 33.5357 11.8919 33.5258C11.772 33.5159 11.6668 33.6062 11.657 33.7279C11.6472 33.8496 11.7363 33.9562 11.8562 33.9663C11.9761 33.9764 12.0812 33.8858 12.0911 33.7642Z" fill="white"/>
<path d="M10.6458 37.6621C10.6556 37.5404 10.5665 37.4336 10.4466 37.4237C10.3267 37.4138 10.2214 37.5042 10.2117 37.6259C10.2019 37.7475 10.291 37.8542 10.4109 37.8643C10.5306 37.8742 10.6358 37.7838 10.6458 37.6621Z" fill="white"/>
<path d="M11.3797 37.1493C11.3697 37.271 11.459 37.3778 11.5789 37.3877C11.6988 37.3978 11.804 37.3072 11.8138 37.1855C11.8236 37.0639 11.7345 36.9571 11.6146 36.9472C11.4947 36.9372 11.3894 37.0276 11.3797 37.1493Z" fill="white"/>
<path d="M10.5521 38.8024C10.5618 38.6807 10.4727 38.5739 10.3528 38.564C10.2329 38.5541 10.1277 38.6445 10.1179 38.7661C10.1081 38.8878 10.1972 38.9944 10.3171 39.0045C10.437 39.0144 10.5423 38.924 10.5521 38.8024Z" fill="white"/>
<path d="M10.2278 54.0536C10.1079 54.0437 10.0027 54.1341 9.99292 54.2558C9.98315 54.3774 10.0722 54.484 10.1921 54.4941C10.312 54.5043 10.4173 54.4137 10.4271 54.292C10.4368 54.1703 10.3477 54.0635 10.2278 54.0536Z" fill="white"/>
<path d="M9.14974 53.3895C9.02984 53.3796 8.92459 53.47 8.91482 53.5916C8.90486 53.7133 8.99413 53.8199 9.11403 53.83C9.23394 53.8399 9.33918 53.7495 9.34895 53.6279C9.35873 53.5062 9.26965 53.3994 9.14974 53.3895Z" fill="white"/>
<path d="M10.3216 52.913C10.2017 52.9029 10.0964 52.9935 10.0867 53.1152C10.0769 53.2368 10.166 53.3436 10.2859 53.3535C10.4058 53.3635 10.511 53.2731 10.5208 53.1514C10.5306 53.0297 10.4413 52.9231 10.3216 52.913Z" fill="white"/>
<path d="M9.24347 52.2489C9.12356 52.239 9.01832 52.3294 9.00855 52.4511C8.99877 52.5727 9.08785 52.6794 9.20776 52.6895C9.32766 52.6996 9.43291 52.609 9.44268 52.4873C9.45245 52.3656 9.36337 52.2588 9.24347 52.2489Z" fill="white"/>
<path d="M10.04 56.3344C9.92012 56.3244 9.81487 56.4148 9.8051 56.5365C9.80322 56.5586 9.80811 56.5792 9.81243 56.5998L10.1417 56.7354C10.1949 56.6992 10.2336 56.6426 10.2392 56.5728C10.2492 56.4513 10.1599 56.3445 10.04 56.3344Z" fill="white"/>
<path d="M8.96222 55.6703C8.84231 55.6604 8.73707 55.7508 8.7273 55.8725C8.71752 55.9941 8.8066 56.1007 8.92651 56.1108C9.04641 56.1208 9.15166 56.0304 9.16143 55.9087C9.1712 55.787 9.08212 55.6804 8.96222 55.6703Z" fill="white"/>
<path d="M10.1341 55.1943C10.0142 55.1841 9.90897 55.2747 9.8992 55.3964C9.88924 55.5181 9.97851 55.6249 10.0984 55.6348C10.2183 55.6449 10.3236 55.5543 10.3333 55.4326C10.3431 55.311 10.254 55.2042 10.1341 55.1943Z" fill="white"/>
<path d="M9.05597 54.5297C8.93606 54.5198 8.83082 54.6102 8.82105 54.7318C8.81127 54.8535 8.90035 54.9601 9.02026 54.9702C9.14016 54.9803 9.24541 54.8897 9.25518 54.7681C9.26514 54.6466 9.17587 54.5398 9.05597 54.5297Z" fill="white"/>
<path d="M11.3367 26.4597C11.4566 26.4698 11.5618 26.3792 11.5716 26.2576C11.5814 26.1359 11.4923 26.0291 11.3724 26.0192C11.2525 26.0093 11.1474 26.0997 11.1375 26.2213C11.1277 26.343 11.2168 26.4498 11.3367 26.4597Z" fill="white"/>
<path d="M11.4276 25.3193C11.5475 25.3294 11.6527 25.2388 11.6625 25.1171C11.6723 24.9955 11.5832 24.8887 11.4633 24.8787C11.4293 24.8759 11.3973 24.8829 11.3675 24.8946L11.25 25.1887C11.2816 25.2592 11.3462 25.3126 11.4276 25.3193Z" fill="white"/>
<path d="M11.1492 28.7407C11.2691 28.7508 11.3743 28.6602 11.3841 28.5386C11.3939 28.4169 11.3048 28.3101 11.1849 28.3002C11.065 28.2903 10.9597 28.3807 10.95 28.5023C10.9402 28.624 11.0293 28.7306 11.1492 28.7407Z" fill="white"/>
<path d="M11.2429 27.6001C11.3628 27.6102 11.4681 27.5196 11.4779 27.3979C11.4878 27.2763 11.3986 27.1695 11.2786 27.1596C11.1587 27.1496 11.0537 27.24 11.0437 27.3617C11.0338 27.4834 11.123 27.59 11.2429 27.6001Z" fill="white"/>
<path d="M10.9656 31.0215C10.9658 31.0215 10.9658 31.0215 10.9656 31.0215C11.0855 31.0316 11.1907 30.941 11.2005 30.8193C11.2103 30.6977 11.1212 30.5909 11.0013 30.5809C10.8814 30.571 10.7763 30.6614 10.7664 30.7831C10.7566 30.9048 10.8459 31.0116 10.9656 31.0215Z" fill="white"/>
<path d="M11.0593 29.8809C11.1792 29.891 11.2845 29.8004 11.2942 29.6787C11.304 29.557 11.2149 29.4502 11.095 29.4403C10.9751 29.4304 10.8699 29.5208 10.8601 29.6425C10.8503 29.7642 10.9394 29.871 11.0593 29.8809Z" fill="white"/>
<path d="M9.88745 30.3574C10.0073 30.3673 10.1126 30.2769 10.1224 30.1552C10.1321 30.0336 10.0431 29.9268 9.92315 29.9168C9.80325 29.9067 9.69801 29.9973 9.68823 30.119C9.67846 30.2407 9.76754 30.3473 9.88745 30.3574Z" fill="white"/>
<path d="M9.98122 29.2168C10.1011 29.2269 10.2064 29.1364 10.2161 29.0147C10.2259 28.893 10.1368 28.7862 10.0169 28.7763C9.89703 28.7662 9.79178 28.8568 9.78201 28.9784C9.77205 29.1001 9.86132 29.2069 9.98122 29.2168Z" fill="white"/>
<path d="M10.7781 33.3023C10.898 33.3124 11.0032 33.2218 11.013 33.1001C11.0228 32.9784 10.9337 32.8716 10.8138 32.8617C10.6939 32.8518 10.5886 32.9422 10.5789 33.0639C10.5691 33.1855 10.6582 33.2921 10.7781 33.3023Z" fill="white"/>
<path d="M10.8718 32.1621C10.9917 32.1722 11.097 32.0816 11.1067 31.96C11.1165 31.8383 11.0274 31.7315 10.9075 31.7216C10.7876 31.7117 10.6824 31.802 10.6726 31.9237C10.6628 32.0454 10.7519 32.152 10.8718 32.1621Z" fill="white"/>
<path d="M9.69994 32.6382C9.81985 32.6481 9.92509 32.5577 9.93487 32.4361C9.94464 32.3144 9.85556 32.2076 9.73565 32.1977C9.61575 32.1876 9.5105 32.2782 9.50073 32.3998C9.49096 32.5213 9.58023 32.6281 9.69994 32.6382Z" fill="white"/>
<path d="M8.62618 31.974C8.74609 31.9841 8.85133 31.8935 8.8611 31.7718C8.86956 31.6671 8.80303 31.5775 8.70831 31.547L8.64855 31.6963L8.54688 31.9507C8.57112 31.9631 8.59762 31.9717 8.62618 31.974Z" fill="white"/>
<path d="M9.79372 31.4981C9.91363 31.5082 10.0189 31.4176 10.0286 31.2959C10.0384 31.1742 9.94933 31.0674 9.82943 31.0575C9.70953 31.0476 9.60428 31.138 9.59451 31.2597C9.58455 31.3813 9.67382 31.488 9.79372 31.4981Z" fill="white"/>
<path d="M10.5945 35.5831C10.7144 35.5932 10.8196 35.5027 10.8294 35.381C10.8392 35.2593 10.7501 35.1525 10.6302 35.1426C10.5103 35.1327 10.4052 35.2231 10.3953 35.3447C10.3855 35.4664 10.4746 35.5732 10.5945 35.5831Z" fill="white"/>
<path d="M10.6843 34.4429C10.8042 34.453 10.9095 34.3624 10.9192 34.2407C10.929 34.119 10.8399 34.0122 10.72 34.0023C10.6001 33.9924 10.4951 34.0828 10.4851 34.2045C10.4753 34.3262 10.5644 34.433 10.6843 34.4429Z" fill="white"/>
<path d="M9.51635 34.919C9.63625 34.9291 9.7415 34.8385 9.75127 34.7168C9.76123 34.5951 9.67196 34.4883 9.55206 34.4784C9.43216 34.4683 9.32691 34.5589 9.31714 34.6806C9.30737 34.8023 9.39645 34.9091 9.51635 34.919Z" fill="white"/>
<path d="M9.61013 33.7788C9.73003 33.7889 9.83528 33.6983 9.84505 33.5767C9.85482 33.455 9.76574 33.3482 9.64584 33.3383C9.52593 33.3284 9.42069 33.4188 9.41092 33.5404C9.40095 33.6621 9.49022 33.7689 9.61013 33.7788Z" fill="white"/>
<path d="M10.5047 36.7236C10.6246 36.7337 10.7298 36.6432 10.7396 36.5215C10.7495 36.3998 10.6603 36.293 10.5404 36.2831C10.4205 36.2732 10.3154 36.3636 10.3054 36.4852C10.2955 36.6069 10.3848 36.7135 10.5047 36.7236Z" fill="white"/>
<path d="M9.33276 37.2002C9.45266 37.2103 9.55791 37.1197 9.56768 36.9981C9.57745 36.8764 9.48837 36.7696 9.36847 36.7597C9.24856 36.7496 9.14332 36.8402 9.13355 36.9618C9.12377 37.0835 9.21285 37.1901 9.33276 37.2002Z" fill="white"/>
<path d="M9.42651 36.0596C9.54641 36.0695 9.65166 35.9791 9.66143 35.8574C9.6712 35.7357 9.58212 35.6289 9.46222 35.619C9.34231 35.6091 9.23707 35.6995 9.2273 35.8212C9.21752 35.9429 9.3066 36.0495 9.42651 36.0596Z" fill="white"/>
<path d="M8.8562 40.3827C8.84643 40.5044 8.93551 40.611 9.05541 40.6211C9.17532 40.631 9.28056 40.5406 9.29034 40.419C9.30011 40.2973 9.21103 40.1905 9.09112 40.1806C8.97122 40.1705 8.86597 40.2611 8.8562 40.3827Z" fill="white"/>
<path d="M9.14526 39.4807C9.26516 39.4909 9.37041 39.4003 9.38018 39.2786C9.38995 39.1569 9.30087 39.0501 9.18097 39.0402C9.06106 39.0301 8.95582 39.1207 8.94605 39.2424C8.93627 39.364 9.02535 39.4708 9.14526 39.4807Z" fill="white"/>
<path d="M9.23903 38.3403C9.35894 38.3503 9.46418 38.2599 9.47395 38.1382C9.48373 38.0165 9.39465 37.9097 9.27474 37.8998C9.15484 37.8899 9.04959 37.9803 9.03982 38.1019C9.02986 38.2236 9.11913 38.3304 9.23903 38.3403Z" fill="white"/>
<path d="M8.16537 51.5849C8.04546 51.5749 7.94022 51.6653 7.93045 51.787C7.92049 51.9087 8.00976 52.0155 8.12966 52.0254C8.24956 52.0355 8.35481 51.9449 8.36458 51.8232C8.37454 51.7016 8.28527 51.5948 8.16537 51.5849Z" fill="white"/>
<path d="M7.08722 50.9207C6.96731 50.9108 6.86207 51.0012 6.8523 51.1229C6.84252 51.2446 6.9316 51.3512 7.05151 51.3613C7.17141 51.3712 7.27666 51.2808 7.28643 51.1591C7.2962 51.0376 7.20712 50.9308 7.08722 50.9207Z" fill="white"/>
<path d="M7.97784 53.8656C7.85794 53.8557 7.75269 53.9461 7.74292 54.0678C7.73315 54.1894 7.82223 54.2961 7.94213 54.3062C8.06204 54.3163 8.16709 54.2257 8.17705 54.104C8.18701 53.9823 8.09774 53.8757 7.97784 53.8656Z" fill="white"/>
<path d="M6.89972 53.2015C6.77981 53.1916 6.67457 53.282 6.6648 53.4037C6.65502 53.5254 6.7441 53.632 6.86401 53.6421C6.98391 53.652 7.08916 53.5616 7.09893 53.4399C7.1087 53.3183 7.01962 53.2115 6.89972 53.2015Z" fill="white"/>
<path d="M8.07159 52.725C7.95169 52.7149 7.84644 52.8055 7.83667 52.9272C7.8269 53.0489 7.91598 53.1557 8.03588 53.1656C8.15579 53.1755 8.26103 53.0851 8.2708 52.9634C8.28058 52.8419 8.19149 52.7351 8.07159 52.725Z" fill="white"/>
<path d="M6.99347 52.0614C6.87356 52.0515 6.76832 52.1419 6.75855 52.2636C6.74877 52.3852 6.83785 52.4919 6.95776 52.502C7.07766 52.5121 7.18272 52.4215 7.19268 52.2998C7.20264 52.1781 7.11337 52.0715 6.99347 52.0614Z" fill="white"/>
<path d="M7.888 55.0063C7.76809 54.9962 7.66285 55.0867 7.65308 55.2084C7.6433 55.3301 7.73239 55.4369 7.85229 55.4468C7.97219 55.4569 8.07744 55.3663 8.08721 55.2447C8.09698 55.123 8.0079 55.0162 7.888 55.0063Z" fill="white"/>
<path d="M6.80987 54.3421C6.68997 54.3322 6.58472 54.4226 6.57495 54.5443C6.56518 54.6659 6.65426 54.7726 6.77416 54.7827C6.89407 54.7928 6.99931 54.7022 7.00908 54.5805C7.01886 54.4588 6.92978 54.352 6.80987 54.3421Z" fill="white"/>
<path d="M8.532 33.1145C8.65191 33.1246 8.75715 33.034 8.76692 32.9124C8.77688 32.7907 8.68761 32.6839 8.56771 32.674C8.44781 32.664 8.34275 32.7544 8.33279 32.8761C8.32283 32.9978 8.4121 33.1044 8.532 33.1145Z" fill="white"/>
<path d="M8.34838 35.3955C8.46829 35.4056 8.57353 35.315 8.5833 35.1934C8.59308 35.0717 8.50399 34.9649 8.38409 34.955C8.26419 34.9451 8.15894 35.0354 8.14917 35.1571C8.1394 35.2788 8.22848 35.3854 8.34838 35.3955Z" fill="white"/>
<path d="M8.44213 34.2549C8.56204 34.265 8.66728 34.1744 8.67705 34.0527C8.68683 33.9311 8.59774 33.8243 8.47784 33.8143C8.35794 33.8044 8.25269 33.8948 8.24292 34.0165C8.23315 34.1382 8.32223 34.2448 8.44213 34.2549Z" fill="white"/>
<path d="M8.16088 37.6763C8.28079 37.6864 8.38603 37.5958 8.3958 37.4741C8.40558 37.3524 8.31649 37.2456 8.19659 37.2357C8.07669 37.2258 7.97144 37.3162 7.96167 37.4379C7.9519 37.5596 8.04098 37.6662 8.16088 37.6763Z" fill="white"/>
<path d="M8.25463 36.5357C8.37454 36.5458 8.47978 36.4552 8.48955 36.3336C8.49951 36.2119 8.41024 36.1051 8.29034 36.0952C8.17044 36.0852 8.06538 36.1756 8.05542 36.2973C8.04565 36.419 8.13473 36.5258 8.25463 36.5357Z" fill="white"/>
<path d="M7.08276 37.0122C7.20266 37.0223 7.3079 36.9318 7.31768 36.8101C7.32745 36.6884 7.23837 36.5816 7.11846 36.5717C6.99856 36.5616 6.89332 36.6522 6.88354 36.7738C6.87377 36.8955 6.96304 37.0021 7.08276 37.0122Z" fill="white"/>
<path d="M7.17593 35.8717C7.29584 35.8816 7.40108 35.7912 7.41086 35.6695C7.42063 35.5479 7.33155 35.4411 7.21164 35.4311C7.19003 35.4294 7.16973 35.4342 7.14944 35.4386L7.06844 35.6409L7.01562 35.7729C7.05152 35.8267 7.10734 35.866 7.17593 35.8717Z" fill="white"/>
<path d="M7.97729 39.957C8.09719 39.9671 8.20244 39.8766 8.21221 39.7549C8.22198 39.6332 8.1329 39.5264 8.013 39.5165C7.89309 39.5066 7.78804 39.597 7.77808 39.7186C7.7683 39.8401 7.85739 39.9469 7.97729 39.957Z" fill="white"/>
<path d="M8.06713 38.8169C8.18704 38.827 8.29228 38.7364 8.30205 38.6147C8.31183 38.4931 8.22274 38.3863 8.10284 38.3764C7.98294 38.3664 7.87769 38.4568 7.86792 38.5785C7.85815 38.7002 7.94742 38.8068 8.06713 38.8169Z" fill="white"/>
<path d="M6.89919 39.293C7.01909 39.3031 7.12434 39.2125 7.13411 39.0908C7.14388 38.9692 7.0548 38.8624 6.9349 38.8525C6.81499 38.8423 6.70975 38.9329 6.69998 39.0546C6.69002 39.1763 6.77929 39.2831 6.89919 39.293Z" fill="white"/>
<path d="M6.98901 38.1528C7.10891 38.1628 7.21416 38.0724 7.22393 37.9507C7.2337 37.829 7.14462 37.7222 7.02472 37.7123C6.90481 37.7024 6.79957 37.7928 6.7898 37.9144C6.78002 38.0359 6.8691 38.1427 6.98901 38.1528Z" fill="white"/>
<path d="M7.79372 42.2378C7.91362 42.2479 8.01887 42.1573 8.02864 42.0356C8.0386 41.914 7.94933 41.8072 7.82943 41.7973C7.70953 41.7873 7.60447 41.8777 7.59451 41.9994C7.58455 42.1211 7.67382 42.2277 7.79372 42.2378Z" fill="white"/>
<path d="M7.88356 41.0972C8.00347 41.1073 8.10871 41.0167 8.11849 40.895C8.12826 40.7733 8.03918 40.6665 7.91927 40.6566C7.79937 40.6467 7.69431 40.7371 7.68435 40.8588C7.67439 40.9805 7.76366 41.0873 7.88356 41.0972Z" fill="white"/>
<path d="M6.71557 41.5737C6.83547 41.5838 6.94072 41.4933 6.95049 41.3716C6.96026 41.2499 6.87118 41.1431 6.75128 41.1332C6.63138 41.1233 6.52613 41.2137 6.51636 41.3353C6.50659 41.457 6.59567 41.5636 6.71557 41.5737Z" fill="white"/>
<path d="M6.80932 40.4331C6.92922 40.443 7.03447 40.3526 7.04424 40.231C7.0542 40.1093 6.96493 40.0025 6.84503 39.9926C6.72512 39.9826 6.61988 40.073 6.61011 40.1947C6.60033 40.3164 6.6896 40.4232 6.80932 40.4331Z" fill="white"/>
<path d="M6.52807 43.8545C6.64797 43.8646 6.75322 43.774 6.76299 43.6523C6.77295 43.5307 6.68368 43.4239 6.56378 43.414C6.44388 43.404 6.33863 43.4944 6.32886 43.6161C6.31909 43.7378 6.40817 43.8446 6.52807 43.8545Z" fill="white"/>
<path d="M6.62185 42.7143C6.74175 42.7242 6.84699 42.6338 6.85677 42.5121C6.86654 42.3904 6.77746 42.2836 6.65755 42.2737C6.53765 42.2636 6.43241 42.3542 6.42263 42.4759C6.41267 42.5976 6.50194 42.7042 6.62185 42.7143Z" fill="white"/>
<path d="M5.21224 46.1713C5.09234 46.1614 4.98709 46.2518 4.97732 46.3734C4.96736 46.4951 5.05663 46.6017 5.17653 46.6118C5.29644 46.6219 5.40168 46.5313 5.41145 46.4097C5.42123 46.288 5.33215 46.1814 5.21224 46.1713Z" fill="white"/>
<path d="M6.38018 45.695C6.26028 45.685 6.15504 45.7754 6.14526 45.8971C6.13549 46.0188 6.22457 46.1256 6.34448 46.1355C6.46438 46.1454 6.56962 46.055 6.5794 45.9333C6.58917 45.8117 6.4999 45.7051 6.38018 45.695Z" fill="white"/>
<path d="M5.30206 45.0307C5.18216 45.0207 5.07691 45.1111 5.06714 45.2328C5.05737 45.3545 5.14645 45.4611 5.26635 45.4712C5.38626 45.4811 5.4915 45.3907 5.50127 45.269C5.51105 45.1474 5.42196 45.0406 5.30206 45.0307Z" fill="white"/>
<path d="M6.43435 44.9952C6.55425 45.0053 6.65949 44.9147 6.66927 44.793C6.67904 44.6713 6.58996 44.5645 6.47005 44.5546C6.35015 44.5445 6.24491 44.6351 6.23513 44.7568C6.22517 44.8784 6.31444 44.9852 6.43435 44.9952Z" fill="white"/>
<path d="M6.10284 49.1161C5.98294 49.106 5.87769 49.1966 5.86792 49.3183C5.85815 49.44 5.94723 49.5468 6.06713 49.5567C6.18704 49.5668 6.29228 49.4762 6.30205 49.3545C6.31201 49.2328 6.22274 49.1262 6.10284 49.1161Z" fill="white"/>
<path d="M5.02472 48.4521C4.90481 48.4422 4.79957 48.5326 4.7898 48.6543C4.78002 48.7759 4.8691 48.8825 4.98901 48.8927C5.10891 48.9028 5.21416 48.8122 5.22393 48.6905C5.2337 48.5688 5.14462 48.4622 5.02472 48.4521Z" fill="white"/>
<path d="M5.11847 47.3114C4.99856 47.3015 4.89332 47.3919 4.88355 47.5136C4.87377 47.6352 4.96285 47.7419 5.08276 47.752C5.20266 47.7619 5.30791 47.6715 5.31768 47.5498C5.32764 47.4281 5.23837 47.3215 5.11847 47.3114Z" fill="white"/>
<path d="M5.91925 51.3971C5.79934 51.3872 5.6941 51.4776 5.68433 51.5993C5.67455 51.7209 5.76364 51.8277 5.88354 51.8377C6.00344 51.8478 6.10869 51.7572 6.11846 51.6355C6.12823 51.5138 6.03896 51.407 5.91925 51.3971Z" fill="white"/>
<path d="M4.83722 50.7333C4.71731 50.7234 4.61207 50.8138 4.6023 50.9354C4.59252 51.0571 4.6816 51.1637 4.80151 51.1738C4.92141 51.1838 5.02666 51.0934 5.03643 50.9717C5.04639 50.85 4.95712 50.7432 4.83722 50.7333Z" fill="white"/>
<path d="M6.00909 50.2568C5.88919 50.2466 5.78394 50.3372 5.77417 50.4589C5.7644 50.5806 5.85348 50.6874 5.97338 50.6973C6.09329 50.7072 6.19853 50.6168 6.2083 50.4951C6.21826 50.3735 6.12899 50.2669 6.00909 50.2568Z" fill="white"/>
<path d="M4.93097 49.5927C4.81106 49.5827 4.70582 49.6731 4.69605 49.7948C4.68627 49.9165 4.77535 50.0231 4.89526 50.0332C5.01516 50.0433 5.12041 49.9527 5.13018 49.8311C5.13995 49.7094 5.05068 49.6026 4.93097 49.5927Z" fill="white"/>
<path d="M5.73175 53.6776C5.61184 53.6677 5.5066 53.7581 5.49683 53.8798C5.48705 54.0015 5.57614 54.1081 5.69604 54.1182C5.81594 54.1283 5.92119 54.0377 5.93096 53.916C5.94073 53.7945 5.85165 53.6877 5.73175 53.6776Z" fill="white"/>
<path d="M4.65753 53.0136C4.65734 53.0136 4.65734 53.0136 4.65753 53.0136C4.53763 53.0036 4.43238 53.094 4.42261 53.2157C4.41284 53.3374 4.50192 53.444 4.62182 53.4541C4.74172 53.464 4.84697 53.3736 4.85674 53.252C4.86651 53.1303 4.77724 53.0237 4.65753 53.0136Z" fill="white"/>
<path d="M5.8255 52.5375C5.70559 52.5274 5.60035 52.618 5.59058 52.7397C5.5808 52.8613 5.66989 52.9681 5.78979 52.9781C5.90969 52.988 6.01494 52.8976 6.02471 52.7759C6.03467 52.6542 5.9454 52.5474 5.8255 52.5375Z" fill="white"/>
<path d="M4.74737 51.8733C4.62747 51.8634 4.52222 51.9538 4.51245 52.0755C4.50268 52.1971 4.59176 52.3037 4.71166 52.3139C4.83157 52.324 4.93681 52.2334 4.94658 52.1117C4.95636 51.9902 4.86728 51.8834 4.74737 51.8733Z" fill="white"/>
<path d="M5.64168 54.8183C5.60484 54.8153 5.57082 54.8243 5.53906 54.8382L5.82266 54.9549C5.79221 54.8811 5.7255 54.8254 5.64168 54.8183Z" fill="white"/>
<path d="M4.56282 54.1542C4.44818 54.1446 4.34951 54.228 4.33203 54.3415L4.4089 54.3731L4.54064 54.4273L4.71899 54.5007C4.74136 54.4692 4.75865 54.434 4.76203 54.3924C4.7718 54.2709 4.68272 54.1641 4.56282 54.1542Z" fill="white"/>
<path d="M5.7312 39.7693C5.8511 39.7794 5.95634 39.6888 5.96612 39.5671C5.97589 39.4455 5.88681 39.3387 5.7669 39.3287C5.647 39.3188 5.54176 39.4092 5.53198 39.5309C5.52221 39.6526 5.61129 39.7592 5.7312 39.7693Z" fill="white"/>
<path d="M5.5437 42.0498C5.6636 42.0599 5.76884 41.9693 5.77862 41.8477C5.78858 41.726 5.69931 41.6192 5.5794 41.6093C5.4595 41.5993 5.35444 41.6897 5.34448 41.8114C5.33471 41.9331 5.42379 42.0399 5.5437 42.0498Z" fill="white"/>
<path d="M5.63745 40.9097C5.75735 40.9198 5.86259 40.8292 5.87237 40.7075C5.88214 40.5858 5.79306 40.479 5.67315 40.4691C5.55325 40.4592 5.44801 40.5496 5.43823 40.6713C5.42846 40.793 5.51754 40.8996 5.63745 40.9097Z" fill="white"/>
<path d="M5.3601 44.3311C5.48001 44.3412 5.58525 44.2506 5.59502 44.1289C5.6048 44.0072 5.51571 43.9004 5.39581 43.8905C5.27591 43.8806 5.17066 43.971 5.16089 44.0927C5.15112 44.2143 5.2402 44.321 5.3601 44.3311Z" fill="white"/>
<path d="M5.44994 43.1904C5.56985 43.2005 5.67509 43.11 5.68486 42.9883C5.69464 42.8666 5.60556 42.7598 5.48565 42.7499C5.36575 42.74 5.2605 42.8304 5.25073 42.952C5.24096 43.0737 5.33023 43.1803 5.44994 43.1904Z" fill="white"/>
<path d="M4.282 43.667C4.40191 43.6771 4.50715 43.5865 4.51692 43.4648C4.5267 43.3432 4.43761 43.2364 4.31771 43.2265C4.19781 43.2165 4.09256 43.3069 4.08279 43.4286C4.07283 43.5503 4.1621 43.6569 4.282 43.667Z" fill="white"/>
<path d="M4.60729 42.3244C4.615 42.2296 4.56181 42.1455 4.48175 42.1075L4.40188 42.3072L4.32031 42.5113C4.33723 42.5172 4.35358 42.525 4.37237 42.5265C4.49227 42.5365 4.59752 42.4461 4.60729 42.3244Z" fill="white"/>
<path d="M4.04034 46.6474C3.92044 46.6373 3.81519 46.7279 3.80542 46.8495C3.79565 46.9712 3.88473 47.078 4.00463 47.0879C4.12454 47.098 4.22978 47.0074 4.23955 46.8858C4.24933 46.7641 4.16024 46.6575 4.04034 46.6474Z" fill="white"/>
<path d="M2.96163 45.9837C2.9511 45.9827 2.94171 45.9867 2.93137 45.9873L2.78516 46.3529C2.82086 46.392 2.86935 46.4195 2.92592 46.4242C3.04582 46.4343 3.15107 46.3437 3.16084 46.2221C3.17061 46.1004 3.08153 45.9936 2.96163 45.9837Z" fill="white"/>
<path d="M4.13409 45.5072C4.01419 45.4973 3.90894 45.5877 3.89917 45.7094C3.8894 45.831 3.97848 45.9378 4.09838 45.9478C4.21829 45.9577 4.32353 45.8673 4.3333 45.7456C4.34326 45.6239 4.25399 45.5173 4.13409 45.5072Z" fill="white"/>
<path d="M4.18823 44.8072C4.30813 44.8173 4.41337 44.7267 4.42315 44.605C4.43292 44.4833 4.34384 44.3765 4.22393 44.3666C4.10403 44.3565 3.99879 44.4471 3.98901 44.5688C3.97924 44.6904 4.06832 44.7972 4.18823 44.8072Z" fill="white"/>
<path d="M3.85284 48.9286C3.73294 48.9185 3.62769 49.0091 3.61792 49.1308C3.60815 49.2525 3.69723 49.3593 3.81713 49.3692C3.93704 49.3793 4.04228 49.2887 4.05205 49.167C4.06183 49.0453 3.97274 48.9385 3.85284 48.9286Z" fill="white"/>
<path d="M2.77472 48.264C2.65481 48.2541 2.54957 48.3445 2.5398 48.4662C2.53002 48.5879 2.6191 48.6945 2.73901 48.7046C2.85891 48.7147 2.96416 48.6241 2.97393 48.5024C2.98389 48.381 2.89462 48.2742 2.77472 48.264Z" fill="white"/>
<path d="M3.94662 47.788C3.82671 47.7781 3.72147 47.8685 3.7117 47.9901C3.70174 48.1118 3.79101 48.2186 3.91091 48.2285C4.03081 48.2384 4.13606 48.148 4.14583 48.0264C4.1556 47.9047 4.06652 47.7979 3.94662 47.788Z" fill="white"/>
<path d="M2.86847 47.1239C2.74856 47.114 2.64332 47.2044 2.63355 47.3261C2.62377 47.4477 2.71285 47.5544 2.83276 47.5645C2.95266 47.5744 3.05791 47.484 3.06768 47.3623C3.07745 47.2406 2.98837 47.1338 2.86847 47.1239Z" fill="white"/>
<path d="M3.66925 51.2094C3.54934 51.1994 3.4441 51.2898 3.43433 51.4115C3.42455 51.5332 3.51364 51.64 3.63354 51.6499C3.75344 51.66 3.85869 51.5694 3.86846 51.4478C3.87842 51.3261 3.78915 51.2195 3.66925 51.2094Z" fill="white"/>
<path d="M2.59503 50.5453C2.59484 50.5453 2.59484 50.5453 2.59503 50.5453C2.47513 50.5354 2.36988 50.6258 2.36011 50.7475C2.35034 50.8691 2.43942 50.9757 2.55932 50.9859C2.67922 50.9958 2.78447 50.9054 2.79424 50.7837C2.80401 50.662 2.71493 50.5552 2.59503 50.5453Z" fill="white"/>
<path d="M3.763 50.0688C3.64309 50.0587 3.53785 50.1492 3.52808 50.2709C3.5183 50.3926 3.60739 50.4994 3.72729 50.5093C3.84719 50.5192 3.95244 50.4288 3.96221 50.3072C3.97198 50.1855 3.88271 50.0789 3.763 50.0688Z" fill="white"/>
<path d="M2.68487 49.4047C2.56497 49.3948 2.45972 49.4852 2.44995 49.6068C2.44018 49.7285 2.52926 49.8351 2.64916 49.8452C2.76907 49.8553 2.87431 49.7647 2.88408 49.6431C2.89386 49.5214 2.80478 49.4148 2.68487 49.4047Z" fill="white"/>
<path d="M3.48568 53.4901C3.36578 53.4802 3.26053 53.5706 3.25076 53.6923C3.2408 53.814 3.33007 53.9206 3.44997 53.9307C3.56987 53.9408 3.67512 53.8502 3.68489 53.7285C3.69485 53.6068 3.60558 53.5 3.48568 53.4901Z" fill="white"/>
<path d="M2.40753 52.8261C2.28763 52.8161 2.18238 52.9065 2.17261 53.0282C2.16284 53.1499 2.25192 53.2565 2.37182 53.2666C2.49172 53.2765 2.59697 53.1861 2.60674 53.0645C2.61651 52.943 2.52743 52.8362 2.40753 52.8261Z" fill="white"/>
<path d="M3.5794 52.3495C3.4595 52.3394 3.35426 52.43 3.34448 52.5517C3.33471 52.6734 3.42379 52.7802 3.5437 52.7901C3.6636 52.8 3.76884 52.7096 3.77862 52.5879C3.78839 52.4662 3.69931 52.3594 3.5794 52.3495Z" fill="white"/>
<path d="M2.5013 51.6857C2.3814 51.6758 2.27616 51.7662 2.26638 51.8878C2.25642 52.0095 2.34569 52.1161 2.4656 52.1262C2.5855 52.1363 2.69074 52.0457 2.70052 51.9241C2.71029 51.8024 2.62121 51.6956 2.5013 51.6857Z" fill="white"/>
<path d="M1.42315 51.0214C1.30325 51.0115 1.19801 51.1019 1.18823 51.2235C1.17846 51.3452 1.26754 51.452 1.38745 51.4619C1.50735 51.472 1.61259 51.3814 1.62237 51.2598C1.63214 51.1383 1.54306 51.0315 1.42315 51.0214Z" fill="white"/>
<path d="M1.51298 49.8812C1.45096 49.8761 1.39364 49.8986 1.3506 49.9377L1.28125 50.111C1.28614 50.2205 1.36695 50.3126 1.47727 50.322C1.59717 50.3319 1.70242 50.2415 1.71219 50.1198C1.72196 49.9979 1.63288 49.8911 1.51298 49.8812Z" fill="white"/>
<path d="M1.3294 52.1619C1.2095 52.1518 1.10426 52.2424 1.09448 52.3641C1.08471 52.4857 1.17379 52.5925 1.2937 52.6025C1.4136 52.6124 1.51884 52.522 1.52862 52.4003C1.53839 52.2786 1.44931 52.172 1.3294 52.1619Z" fill="white"/>
<path d="M25.0344 63.1766L0.155235 52.9303L0 52.5576L20.938 0.203428L21.3052 0.0458984L46.1844 10.2922L46.3397 10.6648L25.4017 63.0192L25.0344 63.1766ZM0.628459 52.5078L24.9852 62.5388L45.7112 10.7146L21.3545 0.683645L0.628459 52.5078Z" fill="#231F20"/>
<path d="M57.7716 17.3831L52.4617 25.1053L47.1517 32.8275L41.8416 40.5501L36.5314 48.2725L31.2207 55.996L25.91 63.7193L22.2404 61.1209L18.5707 58.5224L14.9011 55.9239L11.2312 53.3254L7.56084 50.7266L3.89062 48.1275L9.20039 40.4055L14.5103 32.6831L19.8207 24.9606L25.1306 17.2382L30.4413 9.51484L35.7522 1.7915L39.4219 4.38979L43.0915 6.98826L46.7612 9.58674L50.431 12.1854L54.1012 14.7843L57.7716 17.3831Z" fill="#CAE062"/>
<path d="M25.7455 63.9541L3.72616 48.3625L3.65625 47.9641L35.5181 1.62789L35.9107 1.55695L57.93 17.1488L58 17.5472L26.1381 63.8832L25.7455 63.9541ZM4.28001 48.0568L25.8371 63.3211L57.376 17.4543L35.8189 2.18992L4.28001 48.0568Z" fill="#231F20"/>
<path d="M40.3467 7.82605L42.0547 9.03556L43.7632 10.2454L45.4725 11.4557L47.181 12.6656L48.8909 13.8763L50.6005 15.0869L50.0074 16.2455L49.7319 17.5206L49.7911 18.8247L50.1794 20.0693L50.8721 21.1693L51.8229 22.0489L47.8813 27.7814L43.9395 33.5139L39.9973 39.2467L36.0556 44.9794L32.1132 50.7128L28.1709 56.4463L27.029 55.844L25.7722 55.564L24.4868 55.6239L23.2601 56.0177L22.1759 56.7207L21.3089 57.6857L19.5929 56.4705L17.8763 55.2551L16.1591 54.0393L14.4425 52.8236L12.7248 51.6075L11.007 50.3911L11.0125 50.3831L11.0179 50.3753L11.0234 50.3672L11.0288 50.3592L11.0346 50.3508L11.0405 50.3425L11.6304 49.1934L11.9082 47.9288L11.8561 46.6342L11.4793 45.3963L10.8014 44.2984L9.86719 43.4152L13.8035 37.6907L17.7398 31.966L21.6765 26.241L25.6129 20.5163L29.55 14.7907L33.4869 9.06531L34.6284 9.66701L35.8847 9.94698L37.1697 9.8869L38.3959 9.49327L39.48 8.79068L40.3467 7.82605Z" fill="white"/>
<path d="M21.1482 57.9201L10.8465 50.6255L10.7766 50.2273L10.7876 50.2111L11.0295 50.3593L10.7985 50.1954L11.364 49.0944L11.6258 47.9031L11.5766 46.6831L11.2216 45.5165L10.583 44.482L9.67581 43.6244L9.63672 43.2514L33.2564 8.90132L33.6176 8.81111L34.726 9.39546L35.9097 9.65903L37.1205 9.60258L38.2764 9.23145L39.2976 8.56967L40.1392 7.63308L40.5089 7.59131L50.7628 14.8522L50.8517 15.2187L50.2759 16.3437L50.0162 17.545L50.0722 18.7742L50.4381 19.9471L51.0908 20.9836L52.0141 21.8376L52.0555 22.2128L28.4027 56.6097L28.0415 56.6999L26.9327 56.1152L25.7487 55.8512L24.5373 55.9077L23.3811 56.2788L22.3596 56.9412L21.5179 57.8782L21.1482 57.9201ZM11.3783 50.3045L21.2679 57.3073L21.9682 56.5279L22.0247 56.4795L23.1089 55.7765L23.1757 55.7448L24.4023 55.351L24.4745 55.338L25.7598 55.2781L25.8333 55.2844L27.09 55.5646L27.1595 55.5902L28.0817 56.0765L51.4507 22.0911L50.6828 21.3807L50.6352 21.3233L49.9425 20.2232L49.9113 20.1555L49.523 18.9109L49.5103 18.8379L49.4509 17.5338L49.4571 17.4592L49.7328 16.1841L49.758 16.1135L50.237 15.1777L40.3888 8.20426L39.6887 8.98333L39.6321 9.03177L38.5481 9.73436L38.4814 9.76602L37.2551 10.1597L37.1831 10.1726L35.8982 10.2325L35.8247 10.2262L34.5684 9.94643L34.4988 9.92088L33.5768 9.43475L10.2392 43.3749L10.9944 44.0888L11.0412 44.1462L11.7191 45.2441L11.7495 45.3116L12.1385 46.6222L12.1908 47.9168L12.1842 47.9908L11.9064 49.2554L11.8812 49.3254L11.3783 50.3045Z" fill="#231F20"/>
<path d="M37.0859 23.6564L34.9541 23.0234L32.7521 23.4686L30.7442 24.5047L28.9483 25.8881L27.3559 27.5092L25.9633 29.3109L24.7778 31.2587L23.8277 33.3346L23.1677 35.5232L22.9023 37.7933L23.2508 40.0441L24.5718 41.8559L26.7035 42.4888L28.9056 42.0437L30.9133 41.0076L32.7094 39.6241L34.3018 38.0029L35.6944 36.2014L36.8799 34.2536L37.8298 32.1777L38.49 29.9889L38.7553 27.719L38.4069 25.4682L37.0859 23.6564Z" fill="#CAE062"/>
<path d="M26.7574 42.7694L26.6232 42.7635L24.4914 42.1306L24.3439 42.026L23.0229 40.2143L22.971 40.0886L22.6226 37.8378L22.6211 37.7598L22.8968 35.4397L23.5707 33.2143L24.5365 31.1084L25.7401 29.1346L27.1547 27.3075L28.7764 25.6605L30.615 24.2498L32.6229 23.2137L32.6956 23.1881L34.8977 22.7432L35.0319 22.7491L37.1636 23.3821L37.3111 23.4866L38.6321 25.2983L38.684 25.424L39.0325 27.6748L39.034 27.7528L38.7583 30.0729L38.0843 32.2983L37.1185 34.4042L35.915 36.3781L34.5004 38.2051L32.8787 39.8521L31.0401 41.2628L29.0322 42.299L28.9594 42.3245L26.7574 42.7694ZM24.7406 41.6084L26.7149 42.1946L28.811 41.7711L30.7617 40.7643L32.5221 39.4083L34.089 37.8132L35.4615 36.0376L36.6301 34.1181L37.5647 32.0754L38.2115 29.93L38.4694 27.7246L38.1379 25.5821L36.9144 23.904L34.9401 23.3178L32.8441 23.7414L30.8933 24.7481L29.1329 26.1041L27.5661 27.6994L26.1936 29.475L25.025 31.3947L24.0904 33.4374L23.4435 35.5828L23.1857 37.7882L23.5172 39.9307L24.7406 41.6084Z" fill="#231F20"/>
</g>
<defs>
<clipPath id="clip0_1_44777">
<rect width="58" height="64" fill="white"/>
</clipPath>
</defs>
</svg>
