<svg width="133" height="61" viewBox="0 0 133 61" fill="none" xmlns="http://www.w3.org/2000/svg">
<path d="M25.077 0.0884666C18.5218 0.894863 12.2787 4.04242 7.64845 8.88079C-0.181404 17.0748 -2.22341 29.0407 2.56295 38.7825C3.78555 41.2537 4.73501 42.5804 6.72499 44.5834C9.19621 47.0416 11.7715 48.7194 15.1922 50.0981C21.3052 52.5563 28.5107 53.1416 33.8043 51.5808C39.306 49.968 46.4725 51.1646 51.48 54.5202C53.7691 56.068 56.0973 58.3311 56.9297 59.8659C57.658 61.1665 58.0222 60.2431 57.3589 58.8254C56.1233 56.1981 53.9382 53.8179 50.8557 51.7369C48.0073 49.8249 45.6922 49.0445 40.5026 48.2772C37.7583 47.874 36.3926 47.4968 34.9229 46.7684C32.4516 45.5328 31.151 44.4273 29.7593 42.3983L29.135 41.4748L29.057 42.1381C29.0049 42.5153 29.031 43.2567 29.109 43.79C29.2391 44.7524 29.2651 44.8695 29.4342 45.4678L29.5252 45.7669L28.5757 45.6759C24.973 45.3377 20.7459 43.881 17.6894 41.917C15.5433 40.5384 13.3583 38.5094 11.9926 36.6104C10.3408 34.3213 8.78 30.5755 8.14269 27.4019C7.89557 26.1273 7.84354 25.516 7.85655 23.2399C7.85655 20.9767 7.90857 20.3654 8.15569 19.2079C8.94909 15.475 10.3798 12.6526 12.7079 10.2074C14.1386 8.6987 15.2052 7.90531 16.948 7.04689C21.5263 4.78378 26.8719 4.99188 32.2956 7.63218C35.0139 8.94583 36.9258 10.3635 39.215 12.7567C44.8727 18.6356 47.344 26.9597 45.5621 34.0612L45.341 34.9196L44.4175 34.4254C43.8973 34.1522 43.1169 33.8271 42.6877 33.723C41.7382 33.4759 39.8003 33.4499 39.0589 33.671L38.5386 33.8271L39.6442 33.9181C40.2555 33.9701 41.1009 34.1392 41.5301 34.2953C43.338 34.9196 45.354 36.5194 46.4725 38.1972C47.0578 39.0686 47.8382 40.8375 47.8382 41.2797C47.8382 41.4098 47.9032 41.6049 47.9683 41.7089C48.1113 41.9431 48.1374 41.917 49.399 40.0441C52.7416 35.0497 54.3024 29.3138 53.9382 23.2789C53.444 15.2149 48.9307 7.81427 41.9593 3.62621C39.254 2.00041 36.2365 0.894863 32.8158 0.283562C31.4371 0.0234337 26.5728 -0.0936241 25.077 0.0884666Z" fill="#EC9615"/>
<path d="M89.9528 38.4966C88.7562 38.8348 87.9238 39.6542 87.5596 40.8768C87.0003 42.7237 87.7417 44.7267 89.2504 45.5071C90.0048 45.8973 91.4225 45.9753 92.3329 45.6762C93.2564 45.364 94.1538 44.4666 94.466 43.5431C94.7651 42.6197 94.6871 40.9549 94.3099 40.2135C93.9587 39.5372 93.2954 38.9129 92.6711 38.6527C91.9818 38.3666 90.6941 38.2885 89.9528 38.4966ZM91.8907 40.0834C92.541 40.5126 92.8792 41.9173 92.5801 42.9969C92.372 43.7772 91.7086 44.4406 91.1363 44.4406C90.525 44.4406 89.9398 44.0504 89.6406 43.4521C89.3415 42.8148 89.3154 41.4231 89.6146 40.8638C89.8357 40.4476 90.3169 39.9664 90.6291 39.8493C90.9022 39.7323 91.5395 39.8623 91.8907 40.0834Z" fill="#EC9615"/>
<path d="M107.798 38.5227C106.484 38.9519 105.6 40.2005 105.483 41.8263C105.313 44.2195 106.51 45.6762 108.76 45.8453C109.606 45.9103 111.205 45.7022 111.544 45.4941C111.791 45.3381 111.492 43.9984 111.218 44.1024C111.114 44.1415 110.659 44.2325 110.191 44.3105C108.864 44.5317 107.876 44.1675 107.486 43.3351C107.368 43.101 107.277 42.8668 107.277 42.8278C107.277 42.7888 108.344 42.7368 109.658 42.7238L112.025 42.6847L112.064 42.0995C112.168 40.7208 111.492 39.199 110.529 38.7178C109.84 38.3666 108.565 38.2756 107.798 38.5227ZM109.606 39.9664C109.879 40.1615 110.269 40.8769 110.269 41.189C110.269 41.267 109.71 41.3191 108.773 41.3191C107.954 41.3191 107.277 41.2931 107.277 41.254C107.277 40.9809 107.694 40.2786 107.993 40.0444C108.422 39.7063 109.176 39.6673 109.606 39.9664Z" fill="#EC9615"/>
<path d="M121.623 38.5094C120.258 38.9516 119.373 40.2132 119.269 41.878C119.087 44.8045 121.077 46.3262 124.303 45.7539C125.538 45.5328 125.551 45.5198 125.356 44.7004C125.226 44.1671 125.148 44.0501 124.979 44.1151C124.459 44.3232 123.197 44.4143 122.599 44.2972C121.897 44.1411 121.259 43.6079 121.168 43.0746L121.103 42.7494H123.509H125.916L125.851 41.6699C125.773 40.5904 125.486 39.771 124.979 39.1857C124.368 38.4964 122.703 38.1582 121.623 38.5094ZM123.535 40.1091C123.744 40.3173 123.965 40.6684 124.004 40.8895L124.095 41.3187H122.573H121.064L121.259 40.8245C121.702 39.732 122.755 39.4068 123.535 40.1091Z" fill="#EC9615"/>
<path d="M81.2646 42.0994V45.7412H82.2401H83.2156V44.2325V42.7107L83.6448 42.8018C84.4772 42.9578 84.7764 43.335 85.4917 44.9868L85.8039 45.7412H86.7794C87.3256 45.7412 87.7678 45.6892 87.7678 45.6242C87.7678 45.403 86.6233 42.9058 86.3371 42.4896C86.1681 42.2555 85.8169 41.9694 85.5568 41.8523L85.0755 41.6312L86.4152 40.1485C87.1565 39.3291 87.7678 38.6137 87.7678 38.5617C87.7678 38.4966 87.2736 38.4576 86.6753 38.4576H85.5828L84.4382 39.9794L83.2806 41.5141L83.2416 39.9794L83.2026 38.4576H82.2401H81.2646V42.0994Z" fill="#EC9615"/>
<path d="M95.3115 42.0994V45.7412H100.059H104.806V42.0994V38.4576H103.896H102.985V41.319V44.1804H102.01H101.034V41.319V38.4576H100.059H99.0834V41.319V44.1804H98.1079H97.1324V41.319V38.4576H96.222H95.3115V42.0994Z" fill="#EC9615"/>
<path d="M113.104 40.8245C113.065 43.4778 112.961 43.881 112.207 44.1801C111.817 44.3492 111.804 44.3752 111.882 44.9345C111.921 45.2596 111.96 45.6108 111.96 45.7149C111.96 45.8709 112.077 45.8839 112.545 45.8319C113.325 45.7149 113.833 45.4417 114.21 44.9345C114.717 44.2451 114.847 43.6989 114.912 41.7999L114.99 40.0181H115.875H116.772V42.8795V45.7409H117.683H118.593V42.0991V38.4573H115.875H113.156L113.104 40.8245Z" fill="#EC9615"/>
<path d="M126.397 42.0994V45.7412H127.372H128.348V44.2325V42.7107L128.777 42.8018C129.597 42.9578 130.078 43.5431 130.715 45.1819L130.923 45.7412H131.912C132.458 45.7412 132.9 45.7022 132.9 45.6372C132.9 45.4291 131.99 43.231 131.717 42.8018C131.391 42.2815 130.702 41.7092 130.377 41.7092C130.221 41.7092 130.624 41.189 131.521 40.2005C132.276 39.3811 132.9 38.6397 132.9 38.5747C132.9 38.5097 132.406 38.4576 131.808 38.4576H130.715L129.623 39.9534C129.037 40.7728 128.504 41.4491 128.452 41.4491C128.387 41.4491 128.348 40.7728 128.348 39.9534V38.4576H127.372H126.397V42.0994Z" fill="#EC9615"/>
<path d="M45.198 40.4992C44.8858 40.7984 45.4191 42.5152 46.0304 43.1915C46.3815 43.5817 46.4076 43.5817 46.6287 43.3606C47.0579 42.9314 46.7717 41.3967 46.1214 40.7073C45.8483 40.4212 45.3801 40.3171 45.198 40.4992Z" fill="#EC9615"/>
<path d="M39.8655 42.4897C38.9941 43.179 39.2542 44.8308 40.3337 45.4811C41.5173 46.2095 42.792 45.3641 42.5838 44.0114C42.3627 42.6327 40.802 41.7613 39.8655 42.4897Z" fill="#EC9615"/>
<path d="M65.813 16.9971C62.7175 17.8296 60.7275 20.1447 59.9862 23.7605C59.687 25.2692 59.7911 28.3647 60.1943 29.7434C60.6365 31.2912 61.2998 32.4227 62.4053 33.5283C63.4849 34.6208 64.4474 35.1671 65.8911 35.5443C66.7625 35.7654 66.7885 35.7914 67.1397 36.4417C67.9071 37.9114 69.819 39.5242 71.7309 40.3306C72.9796 40.8509 74.7224 41.3191 75.7369 41.4102C76.8555 41.5012 77.1416 41.3191 77.0766 40.5517L77.0375 40.0835L75.6719 39.6283C73.1877 38.7959 71.6789 37.7293 70.9375 36.2726C70.7555 35.9084 70.5994 35.5833 70.5994 35.5443C70.5994 35.5052 70.9766 35.2971 71.4188 35.076C73.916 33.8534 75.5548 31.4473 76.0621 28.2607C76.2702 27.0251 76.1661 24.1116 75.88 23.0451C75.7629 22.6159 75.3987 21.7185 75.0736 21.0551C74.1241 19.1172 72.7845 17.9076 70.7424 17.1532C69.5198 16.698 67.1787 16.62 65.813 16.9971ZM69.4548 19.3643C70.7164 19.8976 71.809 21.5234 72.2382 23.5003C72.5113 24.814 72.5243 27.7794 72.2382 29.0801C71.6789 31.6944 70.1832 33.3462 68.2322 33.4893C66.8535 33.5933 65.6309 32.93 64.7595 31.6033C63.2638 29.3532 63.0817 24.0596 64.4083 21.4453C64.7855 20.691 65.6569 19.8065 66.3463 19.4554C67.3608 18.9221 68.3493 18.9091 69.4548 19.3643Z" fill="#156BC1"/>
<path d="M80.9394 17.2832C80.9004 17.3743 80.8874 21.4583 80.9004 26.3617L80.9394 35.2711L82.6432 35.3101C84.3211 35.3491 84.3601 35.3361 84.4381 35.05C84.5812 34.5167 84.5292 17.6474 84.3861 17.3743C84.256 17.1532 84.1 17.1272 82.6172 17.1272C81.4467 17.1272 80.9784 17.1662 80.9394 17.2832Z" fill="#156BC1"/>
<path d="M88.7693 17.2187C88.7172 17.2577 88.6782 17.4528 88.6782 17.6479C88.6782 17.921 92.0599 30.017 93.3735 34.4522L93.6337 35.3366H94.6482C95.3115 35.3366 95.7147 35.2846 95.7927 35.1675C95.8708 35.0895 96.6772 32.6053 97.5876 29.6528C98.5111 26.7004 99.2914 24.3202 99.3435 24.3592C99.3825 24.3982 100.228 26.8694 101.229 29.8479L103.05 35.2716L104.117 35.3106L105.17 35.3496L105.378 34.7253C106.029 32.6963 110.152 17.7129 110.113 17.4788C110.074 17.2057 109.996 17.1927 108.747 17.1537C107.577 17.1276 107.407 17.1407 107.29 17.3618C107.225 17.4918 106.549 20.0671 105.782 23.0976C105.014 26.1281 104.351 28.7163 104.299 28.8594C104.247 29.0285 103.649 27.3117 102.478 23.5398C101.529 20.4833 100.67 17.778 100.579 17.5439C100.41 17.1407 100.371 17.1276 99.6686 17.1276C99.0313 17.1276 98.9273 17.1667 98.8362 17.4138C98.7712 17.5829 97.9388 20.2752 96.9893 23.4097C95.8317 27.2076 95.2204 29.0285 95.1554 28.8724C95.1034 28.7424 94.4401 26.1541 93.6857 23.1236C92.9313 20.0931 92.255 17.5048 92.1769 17.3748C92.0599 17.1537 91.8778 17.1276 90.4471 17.1276C89.5757 17.1276 88.8083 17.1667 88.7693 17.2187Z" fill="#156BC1"/>
<path d="M114.457 17.2828C114.34 17.3999 114.301 19.4549 114.301 26.2182C114.301 31.0566 114.353 35.0886 114.405 35.1796C114.496 35.2967 114.938 35.3357 116.2 35.3097L117.878 35.2707V26.2312V17.1918L116.252 17.1528C115.094 17.1267 114.574 17.1658 114.457 17.2828Z" fill="#156BC1"/>
</svg>
