<svg width="149" height="159" viewBox="0 0 149 159" fill="none" xmlns="http://www.w3.org/2000/svg">
<path d="M117.672 141.94C117.672 140.581 97.0603 139.487 71.6336 139.487C46.2068 139.487 25.5952 140.59 25.5952 141.94C25.5952 143.298 46.2068 144.393 71.6336 144.393C97.0603 144.393 117.672 143.29 117.672 141.94Z" fill="#231F20"/>
<path d="M71.632 144.879C59.3269 144.879 47.7529 144.623 39.0513 144.163C34.8119 143.94 31.4757 143.668 29.1453 143.381C27.9505 143.232 27.0219 143.068 26.3934 142.903C25.7141 142.722 25.0781 142.483 25.0781 141.94C25.0781 141.389 25.7056 141.15 26.3934 140.977C27.0219 140.813 27.9505 140.656 29.1453 140.5C31.4757 140.204 34.8119 139.939 39.0513 139.718C47.7529 139.256 59.3269 139.001 71.632 139.001C83.9371 139.001 95.5111 139.256 104.213 139.718C108.452 139.939 111.788 140.204 114.119 140.5C115.315 140.647 116.243 140.813 116.871 140.977C117.55 141.158 118.186 141.396 118.186 141.94C118.186 142.491 117.558 142.73 116.871 142.903C116.243 143.068 115.315 143.224 114.119 143.381C111.788 143.677 108.452 143.94 104.213 144.163C95.5111 144.623 83.9371 144.879 71.632 144.879ZM26.5486 141.94C27.623 142.237 30.7954 142.772 40.1087 143.241C48.673 143.668 59.8689 143.907 71.632 143.907C83.3951 143.907 94.591 143.668 103.155 143.241C112.468 142.772 115.633 142.237 116.715 141.94C115.641 141.644 112.468 141.109 103.155 140.64C94.591 140.211 83.3951 139.972 71.632 139.972C59.8689 139.972 48.673 140.211 40.1087 140.64C30.7965 141.109 27.623 141.635 26.5486 141.94Z" fill="#231F20"/>
<path d="M91.4883 23.1523H50.2482C43.6097 23.1523 38.2178 28.3062 38.2178 34.6686V130.16C38.2178 136.515 43.6012 141.676 50.2482 141.676H91.4883C98.1257 141.676 103.518 136.524 103.518 130.16V34.6601C103.509 28.3051 98.1257 23.1523 91.4883 23.1523Z" fill="#231F20"/>
<path d="M91.4894 141.998H50.2492C43.4311 141.998 37.8755 136.688 37.8755 130.153V34.66C37.8755 28.1331 43.4216 22.8159 50.2492 22.8159H91.4894C98.3085 22.8159 103.863 28.1247 103.863 34.66V130.153C103.863 136.688 98.3085 141.998 91.4894 141.998ZM50.2492 23.4823C43.8093 23.4823 38.5727 28.495 38.5727 34.66V130.153C38.5727 136.318 43.8093 141.33 50.2492 141.33H91.4894C97.9303 141.33 103.167 136.318 103.167 130.153V34.66C103.167 28.495 97.9303 23.4823 91.4894 23.4823H50.2492Z" fill="#231F20"/>
<path d="M101.23 34.9317V129.881C101.23 135.182 96.741 139.479 91.2033 139.479H50.5315C44.9938 139.479 40.4956 135.182 40.4956 129.881V34.9328C40.4956 29.6315 44.9938 25.334 50.5315 25.334H91.2033C96.741 25.334 101.23 29.6315 101.23 34.9317Z" fill="white"/>
<path d="M91.2948 140.216H50.6219C44.9036 140.216 40.2427 135.763 40.2427 130.289V35.332C40.2427 29.8588 44.8951 25.4053 50.6219 25.4053H91.2948C97.012 25.4053 101.664 29.8588 101.664 35.332V130.281C101.673 135.763 97.012 140.216 91.2948 140.216ZM50.6219 26.0632C45.2817 26.0632 40.9399 30.2206 40.9399 35.332V130.281C40.9399 135.393 45.2817 139.549 50.6219 139.549H91.2948C96.6338 139.549 100.977 135.393 100.977 130.281V35.333C100.977 30.2206 96.6338 26.0632 91.2948 26.0632H50.6219Z" fill="#231F20"/>
<path d="M71.6598 29.1783C71.6598 28.7581 71.307 28.4292 70.877 28.4292C70.4386 28.4292 70.0942 28.7666 70.0942 29.1783C70.0942 29.5901 70.4471 29.9275 70.877 29.9275C71.307 29.9275 71.6598 29.5901 71.6598 29.1783Z" fill="#231F20"/>
<path d="M70.867 30.265C70.2395 30.265 69.7324 29.779 69.7324 29.1784C69.7324 28.5778 70.2395 28.0918 70.867 28.0918C71.4945 28.0918 72.0016 28.5778 72.0016 29.1784C72.0016 29.779 71.4945 30.265 70.867 30.265ZM70.867 28.7582C70.7535 28.7559 70.6437 28.7988 70.5616 28.8775C70.4794 28.9562 70.4316 29.0644 70.4286 29.1784C70.4286 29.4086 70.6262 29.5986 70.867 29.5986C70.9805 29.6009 71.0903 29.558 71.1724 29.4792C71.2546 29.4005 71.3024 29.2924 71.3054 29.1784C71.3024 29.0644 71.2546 28.9562 71.1724 28.8775C71.0903 28.7988 70.9805 28.7559 70.867 28.7582Z" fill="#231F20"/>
<path d="M51.5654 128.177L56.0192 130.638C56.7502 131.041 57.6704 130.539 57.6704 129.724V124.802C57.6704 123.987 56.7513 123.485 56.0192 123.888L51.5654 126.35C50.8259 126.761 50.8259 127.774 51.5654 128.177Z" fill="white"/>
<path d="M56.5669 131.116C56.3176 131.116 56.0683 131.05 55.8454 130.926L51.3905 128.466C51.1723 128.351 50.9897 128.178 50.8625 127.966C50.7353 127.754 50.6683 127.511 50.6689 127.263C50.6689 126.761 50.9352 126.308 51.3905 126.062L55.8454 123.6C56.3007 123.346 56.8426 123.346 57.2979 123.6C57.7543 123.848 58.0205 124.301 58.0205 124.803V129.725C58.0205 130.227 57.7458 130.672 57.2979 130.926C57.0655 131.05 56.8162 131.116 56.5669 131.116ZM56.5669 124.078C56.4346 124.078 56.3045 124.112 56.1887 124.177L51.7349 126.638C51.6206 126.697 51.5248 126.787 51.4581 126.897C51.3914 127.008 51.3563 127.134 51.3567 127.263C51.3567 127.527 51.494 127.758 51.7349 127.889L56.1887 130.35C56.3045 130.415 56.4348 130.449 56.5674 130.449C56.7 130.449 56.8304 130.415 56.9461 130.35C57.0604 130.291 57.1562 130.201 57.2229 130.091C57.2897 129.981 57.3248 129.854 57.3243 129.725V124.803C57.3248 124.673 57.2898 124.547 57.223 124.436C57.1563 124.326 57.0605 124.236 56.9461 124.177C56.83 124.112 56.6996 124.078 56.5669 124.078Z" fill="#231F20"/>
<path d="M90.1743 126.35L85.7205 123.888C84.9895 123.485 84.0693 123.988 84.0693 124.803V129.724C84.0693 130.539 84.9895 131.042 85.7205 130.638L90.1743 128.177C90.9138 127.774 90.9138 126.762 90.1743 126.35Z" fill="white"/>
<path d="M85.1712 131.115C84.9184 131.114 84.6699 131.049 84.4486 130.926C84.2304 130.811 84.0478 130.638 83.9206 130.427C83.7934 130.215 83.7264 129.972 83.7271 129.724V124.802C83.7271 124.3 84.0017 123.847 84.4486 123.6C84.6702 123.479 84.9186 123.415 85.1712 123.415C85.4237 123.415 85.6722 123.479 85.8938 123.6L90.3476 126.061C90.8039 126.317 91.0702 126.762 91.0702 127.263C91.0702 127.765 90.7944 128.21 90.3476 128.465L85.8938 130.926C85.6724 131.049 85.424 131.114 85.1712 131.115ZM85.1712 124.078C85.0389 124.079 84.9088 124.112 84.793 124.177C84.6787 124.236 84.5829 124.325 84.5162 124.436C84.4495 124.546 84.4144 124.673 84.4148 124.802V129.724C84.4148 129.987 84.5521 130.219 84.793 130.35C85.0254 130.482 85.3085 130.482 85.5494 130.35L90.0042 127.888C90.1187 127.829 90.2146 127.74 90.2817 127.629C90.3487 127.519 90.3841 127.392 90.3841 127.263C90.3841 127.134 90.3487 127.007 90.2817 126.897C90.2146 126.786 90.1187 126.697 90.0042 126.637L85.5494 124.177C85.4339 124.111 85.3036 124.077 85.1712 124.078Z" fill="#231F20"/>
<path d="M101.23 102.388V129.889C101.23 135.19 96.741 139.486 91.2033 139.486H50.5315C44.9938 139.486 40.4956 135.19 40.4956 129.889V79.455C40.9313 79.2981 41.3926 79.2258 41.8552 79.2418C52.9126 79.5208 49.7318 112.307 61.0819 112.307C71.6322 112.307 70.7639 79.1675 81.0311 79.1675C91.0913 79.1675 91.2899 101.507 101.23 102.388Z" fill="#B8B8B8"/>
<path d="M91.2045 139.898H50.5327C44.7626 139.898 40.0679 135.404 40.0679 129.881V79.16L40.351 79.0602C40.8496 78.8872 41.3567 78.8055 41.8722 78.8215C44.5132 78.8872 46.6197 80.6742 48.2962 84.2788C49.7414 87.3899 50.7556 91.5559 51.7359 95.5891C53.6882 103.606 55.708 111.895 61.083 111.895C66.0619 111.895 68.4695 103.54 70.7904 95.465C71.9598 91.4073 73.1641 87.218 74.7033 84.1143C76.4834 80.5171 78.5561 78.7642 81.0238 78.7642C86.4062 78.7642 89.0811 84.7403 91.6693 90.5181C94.1022 95.951 96.6217 101.573 101.265 101.984L101.661 102.017V129.897C101.669 135.404 96.9746 139.898 91.2045 139.898ZM40.9362 79.7521V129.881C40.9362 134.944 45.2443 139.067 50.5327 139.067H91.2045C96.4929 139.067 100.801 134.951 100.801 129.881V102.751C95.8991 102.043 93.3458 96.3457 90.878 90.8311C89.622 88.016 88.3152 85.1107 86.7422 82.9948C85.0128 80.6657 83.199 79.5876 81.0323 79.5876C76.2679 79.5876 73.9121 87.7688 71.6334 95.6793C70.4471 99.8039 69.2174 104.067 67.6349 107.244C65.7946 110.932 63.6543 112.719 61.0915 112.719C58.3395 112.719 56.1559 110.94 54.4277 107.269C52.9307 104.116 51.8997 99.8697 50.9014 95.7695C48.984 87.9088 47.0064 79.7765 41.8553 79.6534C41.5459 79.6445 41.2368 79.6777 40.9362 79.7521Z" fill="#131111"/>
<path d="M74.6185 127.263C74.6185 125.28 72.9409 123.675 70.8693 123.675C68.7966 123.675 67.1201 125.28 67.1201 127.263C67.1201 129.248 68.7966 130.852 70.8693 130.852C72.9409 130.852 74.6185 129.248 74.6185 127.263Z" fill="white"/>
<path d="M70.8669 131.182C68.6052 131.182 66.7744 129.428 66.7744 127.263C66.7744 125.099 68.6147 123.346 70.8669 123.346C73.1203 123.346 74.9605 125.107 74.9605 127.263C74.9605 129.428 73.1287 131.182 70.8669 131.182ZM70.8669 124.012C68.9929 124.012 67.4706 125.469 67.4706 127.263C67.4706 129.058 68.9929 130.515 70.8669 130.515C72.7421 130.515 74.2633 129.058 74.2633 127.263C74.2633 125.469 72.7421 124.012 70.8669 124.012Z" fill="#231F20"/>
<path d="M51.5654 128.177L56.0192 130.638C56.7502 131.041 57.6704 130.539 57.6704 129.724V124.802C57.6704 123.987 56.7513 123.485 56.0192 123.888L51.5654 126.35C50.8259 126.761 50.8259 127.774 51.5654 128.177Z" fill="white"/>
<path d="M56.5669 131.116C56.3176 131.116 56.0683 131.05 55.8454 130.926L51.3905 128.466C51.1723 128.351 50.9897 128.178 50.8625 127.966C50.7353 127.754 50.6683 127.511 50.6689 127.263C50.6689 126.761 50.9352 126.308 51.3905 126.062L55.8454 123.6C56.3007 123.346 56.8426 123.346 57.2979 123.6C57.7543 123.848 58.0205 124.301 58.0205 124.803V129.725C58.0205 130.227 57.7458 130.672 57.2979 130.926C57.0655 131.05 56.8162 131.116 56.5669 131.116ZM56.5669 124.078C56.4346 124.078 56.3045 124.112 56.1887 124.177L51.7349 126.638C51.6206 126.697 51.5248 126.787 51.4581 126.897C51.3914 127.008 51.3563 127.134 51.3567 127.263C51.3567 127.527 51.494 127.758 51.7349 127.889L56.1887 130.35C56.3045 130.415 56.4348 130.449 56.5674 130.449C56.7 130.449 56.8304 130.415 56.9461 130.35C57.0604 130.291 57.1562 130.201 57.2229 130.091C57.2897 129.981 57.3248 129.854 57.3243 129.725V124.803C57.3248 124.673 57.2898 124.547 57.223 124.436C57.1563 124.326 57.0605 124.236 56.9461 124.177C56.83 124.112 56.6996 124.078 56.5669 124.078Z" fill="#231F20"/>
<path d="M90.1743 126.35L85.7205 123.888C84.9895 123.485 84.0693 123.988 84.0693 124.803V129.724C84.0693 130.539 84.9895 131.042 85.7205 130.638L90.1743 128.177C90.9138 127.774 90.9138 126.762 90.1743 126.35Z" fill="white"/>
<path d="M85.1712 131.115C84.9184 131.114 84.6699 131.049 84.4486 130.926C84.2304 130.811 84.0478 130.638 83.9206 130.427C83.7934 130.215 83.7264 129.972 83.7271 129.724V124.802C83.7271 124.3 84.0017 123.847 84.4486 123.6C84.6702 123.479 84.9186 123.415 85.1712 123.415C85.4237 123.415 85.6722 123.479 85.8938 123.6L90.3476 126.061C90.8039 126.317 91.0702 126.762 91.0702 127.263C91.0702 127.765 90.7944 128.21 90.3476 128.465L85.8938 130.926C85.6724 131.049 85.424 131.114 85.1712 131.115ZM85.1712 124.078C85.0389 124.079 84.9088 124.112 84.793 124.177C84.6787 124.236 84.5829 124.325 84.5162 124.436C84.4495 124.546 84.4144 124.673 84.4148 124.802V129.724C84.4148 129.987 84.5521 130.219 84.793 130.35C85.0254 130.482 85.3085 130.482 85.5494 130.35L90.0042 127.888C90.1187 127.829 90.2146 127.74 90.2817 127.629C90.3487 127.519 90.3841 127.392 90.3841 127.263C90.3841 127.134 90.3487 127.007 90.2817 126.897C90.2146 126.786 90.1187 126.697 90.0042 126.637L85.5494 124.177C85.4339 124.111 85.3036 124.077 85.1712 124.078Z" fill="#231F20"/>
<path d="M88.083 51.4937H51.3062V43.0728H88.083V51.4937Z" fill="#5F005F"/>
<path d="M88.0813 51.9869H51.3044C51.1731 51.9898 51.046 51.9403 50.951 51.8492C50.8559 51.7581 50.8007 51.6329 50.7974 51.501V43.0726C50.8007 42.9406 50.8559 42.8154 50.951 42.7243C51.046 42.6333 51.1731 42.5837 51.3044 42.5866H88.0813C88.2128 42.5834 88.3401 42.6329 88.4354 42.724C88.5307 42.8151 88.5861 42.9405 88.5894 43.0726V51.4935C88.5978 51.7652 88.3654 51.9869 88.0813 51.9869ZM51.8115 51.0075H87.5742V43.5585H51.8115V51.0075Z" fill="#231F20"/>
<path d="M81.9037 59.9221H51.3101V51.4937H81.9037V59.9221Z" fill="#5F005F"/>
<path d="M81.8991 60.4081H51.3044C51.1731 60.4109 51.046 60.3614 50.951 60.2703C50.8559 60.1792 50.8007 60.054 50.7974 59.9221V51.4937C50.8007 51.3618 50.8559 51.2366 50.951 51.1455C51.046 51.0544 51.1731 51.0048 51.3044 51.0077H81.8991C82.1823 51.0077 82.4062 51.2305 82.4062 51.4937V59.9221C82.4053 59.9876 82.3913 60.0523 82.3652 60.1124C82.3391 60.1724 82.3014 60.2267 82.2541 60.2719C82.2069 60.3171 82.1512 60.3525 82.0903 60.3759C82.0293 60.3992 81.9644 60.4102 81.8991 60.4081ZM51.8126 59.4372H81.3836V51.9882H51.8115L51.8126 59.4372Z" fill="#231F20"/>
<path d="M86.5955 68.3431H51.3062V59.9221H86.5955V68.3431Z" fill="#480048"/>
<path d="M86.5938 68.8375H51.3044C51.1731 68.8404 51.046 68.7908 50.951 68.6997C50.8559 68.6086 50.8007 68.4834 50.7974 68.3515V59.9221C50.801 59.7903 50.8563 59.6654 50.9513 59.5745C51.0463 59.4837 51.1733 59.4343 51.3044 59.4371H86.5938C86.878 59.4371 87.1009 59.66 87.1009 59.9221V68.343C87.1104 68.6147 86.878 68.8375 86.5938 68.8375ZM51.8115 67.857H86.0867V60.408H51.8115V67.857Z" fill="#231F20"/>
<path d="M51.3044 73.6188C51.1733 73.6216 51.0463 73.5722 50.9513 73.4814C50.8563 73.3905 50.801 73.2656 50.7974 73.1339V38.1745C50.801 38.0428 50.8563 37.9178 50.9513 37.827C51.0463 37.7361 51.1733 37.6867 51.3044 37.6896C51.5791 37.6896 51.8115 37.9124 51.8115 38.1745V73.1254C51.8107 73.1913 51.7969 73.2564 51.7709 73.3169C51.745 73.3774 51.7073 73.4322 51.6602 73.4781C51.6131 73.5239 51.5574 73.56 51.4963 73.5841C51.4353 73.6083 51.37 73.6201 51.3044 73.6188Z" fill="#231F20"/>
<path d="M132.135 41.5998L133.976 44.6123L138.266 42.2163L107.697 83.7928L97.3785 68.4746L75.5118 101.244L66.2513 87.6701L52.3638 109.632L55.4855 111.442L66.3718 94.2309L75.5467 107.681L97.3964 74.9368L107.569 90.0406L141.439 43.9778L140.571 48.9257L144.165 49.5019L147.019 33.2935L132.135 41.5998Z" fill="#5F005F"/>
<path d="M55.4853 111.781C55.4222 111.78 55.3604 111.762 55.3057 111.731L52.184 109.921C52.1453 109.899 52.1114 109.87 52.0847 109.834C52.058 109.799 52.0389 109.758 52.0287 109.715C52.0168 109.672 52.0144 109.626 52.0217 109.582C52.029 109.538 52.0458 109.496 52.071 109.459L65.9585 87.4983C65.9899 87.4492 66.0333 87.409 66.0845 87.3815C66.1357 87.3541 66.1931 87.3402 66.2511 87.3413H66.2596C66.38 87.3413 66.4836 87.3996 66.5522 87.4898L75.5127 100.635L97.0952 68.3028C97.1265 68.2537 97.1699 68.2135 97.2211 68.186C97.2723 68.1586 97.3297 68.1447 97.3878 68.1458C97.5082 68.1458 97.6117 68.2042 97.6804 68.2943L107.706 83.2008L137.071 43.2786L134.156 44.9085C134.077 44.9536 133.983 44.966 133.895 44.943C133.806 44.9201 133.73 44.8636 133.683 44.7854L131.844 41.7719C131.821 41.734 131.806 41.6919 131.8 41.6481C131.794 41.6044 131.797 41.5598 131.809 41.5172C131.835 41.4298 131.893 41.3559 131.973 41.3113L146.839 33.0145C146.897 32.9828 146.961 32.9676 147.027 32.9706C147.092 32.9736 147.155 32.9947 147.209 33.0315C147.321 33.1058 147.373 33.2289 147.355 33.3604L144.501 49.5679C144.483 49.6559 144.432 49.7335 144.358 49.7843C144.284 49.835 144.194 49.8548 144.105 49.8395L140.51 49.2633C140.422 49.2489 140.343 49.2019 140.288 49.1317C140.261 49.0968 140.242 49.0569 140.232 49.0144C140.222 48.9719 140.22 48.9277 140.227 48.8845L140.846 45.3775L107.853 90.2477C107.819 90.293 107.774 90.3294 107.723 90.3536C107.672 90.3778 107.616 90.3892 107.56 90.3867C107.504 90.3866 107.45 90.3731 107.4 90.3472C107.351 90.3214 107.309 90.2839 107.277 90.2381L97.3962 75.5704L75.8307 107.862C75.7993 107.911 75.7559 107.951 75.7047 107.979C75.6535 108.006 75.5961 108.02 75.5381 108.019C75.4811 108.019 75.425 108.005 75.3742 107.98C75.3234 107.954 75.2793 107.917 75.2454 107.871L66.3716 94.8646L55.7779 111.625C55.7465 111.674 55.7032 111.714 55.6519 111.742C55.6007 111.769 55.5433 111.782 55.4853 111.781ZM52.8453 109.525L55.3733 110.99L66.079 94.0581C66.1104 94.0092 66.1539 93.9692 66.2051 93.9419C66.2563 93.9146 66.3136 93.9009 66.3716 93.9021C66.429 93.8994 66.4861 93.9117 66.5374 93.9377C66.5887 93.9637 66.6323 94.0027 66.6642 94.0507L75.5381 107.073L97.0952 74.7639C97.1267 74.715 97.1701 74.675 97.2213 74.6477C97.2725 74.6204 97.3298 74.6067 97.3878 74.608C97.5082 74.608 97.6117 74.6653 97.6804 74.7565L107.577 89.4476L141.147 43.788C141.195 43.7271 141.26 43.683 141.335 43.6624C141.409 43.6418 141.488 43.6456 141.559 43.6734C141.631 43.6989 141.692 43.7494 141.73 43.8158C141.768 43.8822 141.781 43.96 141.767 44.0352L140.949 48.6532L143.865 49.1222L146.538 33.9441L132.608 41.7135L134.096 44.1583L138.086 41.9363C138.155 41.8979 138.234 41.8834 138.312 41.8953C138.39 41.9073 138.462 41.9448 138.516 42.0021C138.57 42.0558 138.602 42.1273 138.606 42.2032C138.611 42.279 138.588 42.354 138.541 42.4138L107.973 83.9903C107.939 84.0358 107.895 84.0724 107.844 84.0968C107.793 84.1212 107.737 84.1327 107.68 84.1304C107.625 84.1302 107.57 84.1167 107.52 84.0908C107.471 84.065 107.428 84.0276 107.396 83.9818L97.3709 69.0912L75.7958 101.424C75.7644 101.473 75.721 101.513 75.6698 101.541C75.6185 101.568 75.5612 101.582 75.5032 101.58C75.4465 101.58 75.3907 101.567 75.34 101.541C75.2894 101.516 75.2455 101.478 75.2116 101.433L66.2596 88.3037L52.8453 109.525Z" fill="#300030"/>
<path d="M58.5308 110.52C58.5224 107.779 56.1919 105.565 53.328 105.582C50.4651 105.598 48.1516 107.821 48.1695 110.561C48.178 113.302 50.5084 115.517 53.3713 115.5C56.2342 115.492 58.5477 113.261 58.5308 110.52Z" fill="#F7B3C7"/>
<path d="M53.3437 115.838C51.8982 115.847 50.5044 115.299 49.4487 114.307C48.9369 113.829 48.528 113.251 48.2471 112.608C47.9662 111.966 47.8193 111.272 47.8155 110.57C47.8059 107.656 50.2737 105.27 53.3183 105.253H53.3437C56.3798 105.253 58.856 107.616 58.8729 110.521C58.8813 111.937 58.3056 113.262 57.2735 114.267C56.2329 115.271 54.849 115.822 53.3701 115.83C53.3616 115.838 53.3521 115.838 53.3437 115.838ZM53.3521 105.912H53.3352C50.6699 105.92 48.5116 108.011 48.5201 110.562C48.5255 111.176 48.6547 111.782 48.9001 112.343C49.1454 112.905 49.5016 113.41 49.9473 113.83C50.8693 114.698 52.0879 115.179 53.3521 115.172H53.3701C54.6398 115.171 55.8611 114.682 56.7833 113.805C57.695 112.925 58.1936 111.764 58.1852 110.53C58.1767 107.978 56.009 105.912 53.3521 105.912Z" fill="#231F20"/>
<path d="M79.1403 155.041L79.4234 154.521L79.5639 153.959L79.5502 153.39L79.3864 152.855L79.0811 152.389L78.6554 152.027L78.1398 151.789L77.5683 151.693L76.9799 151.749L76.4147 151.947L75.9119 152.278L75.5052 152.718L75.222 153.237L75.0815 153.8L75.0953 154.368L75.259 154.903L75.5643 155.369L75.9901 155.732L76.5056 155.971L77.0771 156.065L77.6655 156.011L78.2307 155.812L78.7336 155.482L79.1403 155.041Z" fill="#CAE062"/>
<path d="M75.7903 156.095L75.7047 156.041L75.279 155.677L75.2114 155.6L74.9061 155.134L74.8628 155.043L74.699 154.507L74.6832 154.407L74.6694 153.838L74.6811 153.734L74.8216 153.171L74.8606 153.071L75.1438 152.552L75.2071 152.465L75.6139 152.024L75.6973 151.952L76.2012 151.622L76.2995 151.573L76.8646 151.374L76.9703 151.352L77.5587 151.296L77.6654 151.301L78.2369 151.395L78.3383 151.426L78.8539 151.665L78.9394 151.719L79.3652 152.083L79.4328 152.159L79.737 152.625L79.7803 152.716L79.9451 153.252L79.961 153.353L79.9747 153.921L79.962 154.026L79.8226 154.588L79.7835 154.689L79.5004 155.208L79.437 155.295L79.0303 155.736L78.9458 155.807L78.4429 156.137L78.3447 156.186L77.7795 156.385L77.6739 156.409L77.0854 156.463L76.9787 156.459L76.4072 156.364L76.3069 156.333L75.7913 156.096L75.7903 156.095ZM75.8875 155.094L76.234 155.391L76.6555 155.585L77.1214 155.663L77.601 155.618L78.0626 155.456L78.4725 155.186L78.8042 154.827L79.0356 154.403L79.1497 153.944L79.1391 153.48L79.0049 153.044L78.7567 152.664L78.4091 152.368L77.9887 152.173L77.5217 152.096L77.0421 152.14L76.5805 152.302L76.1706 152.572L75.8389 152.932L75.6065 153.355L75.4934 153.814L75.504 154.278L75.6371 154.714L75.8875 155.094Z" fill="#231F20"/>
<path d="M47.4464 3.74478L47.7306 3.22483L47.87 2.66245L47.8563 2.09369L47.6926 1.55889L47.3873 1.09306L46.9626 0.730162L46.446 0.492473L45.8755 0.396973L45.2861 0.45215L44.7209 0.650579L44.218 0.981644L43.8113 1.42201L43.5282 1.94089L43.3877 2.50328L43.4014 3.07203L43.5652 3.60789L43.8705 4.07266L44.2962 4.43556L44.8117 4.67431L45.3822 4.76875L45.9717 4.71463L46.5369 4.51514L47.0397 4.18514L47.4464 3.74478Z" fill="#7248EE"/>
<path d="M44.0964 4.79834L44.0109 4.74317L43.5851 4.38027L43.5175 4.30387L43.2122 3.83804L43.17 3.74572L43.0052 3.21092L42.9883 3.11012L42.9756 2.54136L42.9872 2.43737L43.1267 1.87498L43.1657 1.77418L43.4499 1.25529L43.5133 1.16722L43.92 0.726861L44.0045 0.655766L44.5074 0.32576L44.6056 0.27695L45.1708 0.0774611L45.2764 0.0541163L45.8638 0L45.9716 0.00424414L46.542 0.0997443L46.6434 0.129455L47.159 0.367144L47.2456 0.422322L47.6703 0.785222L47.7379 0.862683L48.0442 1.32745L48.0865 1.41977L48.2513 1.95457L48.2671 2.05537L48.2798 2.62413L48.2693 2.72812L48.1288 3.29051L48.0897 3.39131L47.8055 3.91126L47.7421 3.99827L47.3364 4.43863L47.2519 4.50972L46.7491 4.84079L46.6498 4.8896L46.0857 5.08803L45.98 5.11137L45.3916 5.16549L45.2849 5.16231L44.7134 5.06681L44.612 5.03603L44.0964 4.79834ZM44.1936 3.79772L44.5401 4.09483L44.9606 4.28795L45.4265 4.36647L45.9071 4.32191L46.3688 4.15955L46.7787 3.88897L47.1104 3.53032L47.3428 3.10693L47.4558 2.64747L47.4453 2.18377L47.3111 1.74659L47.0618 1.36777L46.7153 1.07066L46.2948 0.877539L45.8289 0.800077L45.3483 0.843582L44.8866 1.00593L44.4767 1.27546L44.145 1.63623L43.9126 2.05856L43.7996 2.51802L43.8102 2.98172L43.9443 3.4189L44.1936 3.79772Z" fill="#231F20"/>
<path d="M93.8659 145.785C93.8514 145.776 93.8376 145.766 93.8247 145.754L93.6662 145.62C93.6408 145.597 93.6184 145.572 93.5997 145.543L93.4866 145.37C93.4677 145.342 93.4527 145.311 93.4423 145.278L93.382 145.078C93.3716 145.046 93.366 145.012 93.3652 144.978L93.3599 144.766C93.3599 144.731 93.363 144.696 93.3725 144.661L93.4243 144.451C93.4333 144.417 93.4464 144.384 93.4634 144.353L93.569 144.16C93.5866 144.127 93.6079 144.098 93.6324 144.07L93.7835 143.907C93.8086 143.88 93.8365 143.856 93.8669 143.836L94.055 143.713C94.0857 143.693 94.1187 143.676 94.1532 143.664L94.3645 143.59L94.4163 143.575L113.762 139.328C113.78 139.325 113.797 139.322 113.815 139.32L114.035 139.3C114.07 139.296 114.106 139.298 114.142 139.304L114.355 139.339C114.389 139.345 114.423 139.355 114.454 139.37L114.647 139.459C114.678 139.473 114.707 139.491 114.732 139.513L114.891 139.649C114.917 139.671 114.939 139.697 114.958 139.725L115.072 139.899C115.091 139.927 115.105 139.958 115.115 139.99L115.176 140.19C115.186 140.223 115.192 140.257 115.193 140.291L115.198 140.503C115.198 140.538 115.194 140.573 115.185 140.607L115.134 140.816C115.125 140.851 115.111 140.885 115.094 140.917L114.989 141.11C114.972 141.142 114.95 141.171 114.925 141.197L114.774 141.361C114.749 141.389 114.721 141.413 114.69 141.432L114.503 141.556C114.472 141.576 114.439 141.592 114.405 141.604L114.194 141.679C114.177 141.685 114.159 141.69 114.142 141.693L94.7955 145.939C94.7782 145.943 94.7605 145.946 94.7427 145.947L94.524 145.968C94.4881 145.971 94.4519 145.97 94.4163 145.964L94.2039 145.928C94.1693 145.923 94.1355 145.913 94.1036 145.899L93.9113 145.81C93.8956 145.802 93.8805 145.794 93.8659 145.785Z" fill="#EE4878"/>
<path d="M114.445 139.822L114.603 139.957L114.717 140.13L114.777 140.33L114.783 140.541L114.731 140.751L114.625 140.944L114.473 141.108L114.286 141.231L114.076 141.305L110.853 142.013L107.63 142.721L104.404 143.428L101.181 144.135L97.955 144.844L94.7288 145.552L94.5101 145.572L94.2978 145.536L94.1055 145.448L93.947 145.312L93.8329 145.139L93.7717 144.94L93.7674 144.728L93.8192 144.519L93.9248 144.325L94.077 144.162L94.264 144.039L94.4742 143.964L97.6973 143.256L100.92 142.55L104.146 141.842L107.369 141.134L110.595 140.427L113.821 139.718L114.04 139.698L114.252 139.734L114.445 139.822ZM114.932 139.146C114.903 139.127 114.873 139.11 114.842 139.096L114.649 139.008C114.586 138.978 114.518 138.958 114.449 138.946L114.236 138.91C114.166 138.899 114.094 138.896 114.022 138.903L113.802 138.923C113.766 138.927 113.731 138.932 113.696 138.94L110.47 139.648L107.244 140.356L104.021 141.063L100.796 141.771L97.5726 142.479L94.3495 143.186C94.3139 143.194 94.279 143.204 94.2449 143.216L94.0347 143.289C93.9649 143.314 93.8985 143.347 93.8372 143.388L93.6502 143.511C93.5884 143.551 93.5319 143.599 93.4822 143.653L93.3301 143.817C93.281 143.87 93.2387 143.929 93.2044 143.993L93.0987 144.186C93.0641 144.249 93.0378 144.316 93.0206 144.386L92.9688 144.595C92.9513 144.663 92.9431 144.733 92.9445 144.804L92.9498 145.016C92.9516 145.084 92.9626 145.152 92.9825 145.217L93.0427 145.417C93.0628 145.483 93.0924 145.544 93.1294 145.602L93.2435 145.774C93.2806 145.832 93.3258 145.883 93.3776 145.927L93.5361 146.063C93.5883 146.107 93.6463 146.145 93.7083 146.173L93.9005 146.262C93.9639 146.29 94.0315 146.311 94.1013 146.323L94.3136 146.358C94.3844 146.37 94.4565 146.373 94.5281 146.367L94.7478 146.345C94.7836 146.342 94.8192 146.337 94.8545 146.329L98.0797 145.622L101.306 144.913L104.529 144.206L107.754 143.498L110.977 142.791L114.201 142.083C114.236 142.075 114.271 142.065 114.305 142.053L114.515 141.979C114.585 141.955 114.651 141.922 114.713 141.881L114.9 141.758C114.961 141.718 115.018 141.67 115.068 141.616L115.219 141.453C115.268 141.4 115.311 141.34 115.346 141.276L115.451 141.083C115.486 141.021 115.512 140.953 115.529 140.884L115.581 140.675C115.599 140.607 115.607 140.536 115.606 140.466L115.6 140.254C115.598 140.185 115.587 140.117 115.568 140.052L115.507 139.852C115.487 139.787 115.458 139.725 115.421 139.668L115.307 139.495C115.269 139.438 115.224 139.387 115.172 139.342L115.014 139.206C114.988 139.184 114.96 139.164 114.932 139.146Z" fill="#231F20"/>
<path d="M53.5608 135.957L52.9893 137.208L52.4273 138.461L51.8705 139.718L51.3106 140.974L50.7465 142.227L50.1697 143.476L51.0941 144.394L52.01 145.322L52.9196 146.255L53.8302 147.19L54.7429 148.121L55.6631 149.044L54.4133 148.58L53.1583 148.125L51.9012 147.675L50.643 147.223L49.389 146.764L48.1404 146.294L47.1241 147.262L46.0983 148.219L45.0673 149.174L44.0341 150.127L43.0052 151.083L41.9836 152.046L42.572 150.772L43.1509 149.495L43.7256 148.215L44.3014 146.935L44.8824 145.659L45.4771 144.386L44.5348 143.492L43.6031 142.588L42.6755 141.677L41.748 140.766L40.8184 139.859L39.8813 138.96L41.149 139.4L42.421 139.831L43.695 140.258L44.9701 140.686L46.2399 141.121L47.5055 141.567L48.5059 140.624L49.5148 139.689L50.5289 138.759L51.5441 137.829L52.5562 136.896L53.5608 135.957Z" fill="white"/>
<path d="M42.2668 152.322L41.6181 151.905L42.7844 149.357L44.5169 145.52L44.9934 144.499L43.3095 142.88L40.5248 140.15L39.5898 139.253L40.0526 138.582L42.5879 139.453L46.41 140.743L47.4347 141.104L49.2497 139.41L53.2957 135.679L53.9433 136.096L52.8108 138.597L51.129 142.364L50.6642 143.368L52.3238 145.035L55.9769 148.755L55.5004 149.418L52.9967 148.5L49.2275 147.139L48.2239 146.761L46.3794 148.497L42.2668 152.322ZM41.5305 139.958L44.8444 143.199L45.7846 144.091L45.8586 144.529L44.6839 147.073L43.1933 150.384L46.8579 146.984L47.8721 146.019L48.3211 145.921L50.8195 146.847L54.0542 148.011L50.7952 144.68L49.8729 143.765L49.8032 143.335L50.9441 140.837L52.3914 137.586L48.7859 140.903L47.7886 141.843L47.3481 141.944L44.8159 141.064L41.5305 139.958Z" fill="#231F20"/>
<path d="M139.215 69.6715L139.499 69.1516L139.639 68.5892L139.626 68.0204L139.461 67.4856L139.156 67.0209L138.731 66.6569L138.216 66.4192L137.643 66.3237L137.056 66.3789L136.49 66.5773L135.986 66.9084L135.58 67.3488L135.297 67.8676L135.157 68.43L135.17 68.9988L135.335 69.5347L135.639 69.9994L136.065 70.3634L136.58 70.6011L137.152 70.6955L137.74 70.6414L138.305 70.4419L138.808 70.1119L139.215 69.6715Z" fill="#C3ACF1"/>
<path d="M135.874 70.7253L135.788 70.6701L135.362 70.3072L135.295 70.2308L134.99 69.765L134.946 69.6726L134.783 69.1378L134.767 69.037L134.753 68.4683L134.765 68.3643L134.904 67.8019L134.943 67.7011L135.227 67.1822L135.291 67.0941L135.697 66.6538L135.781 66.5827L136.285 66.2527L136.383 66.2028L136.948 66.0044L137.054 65.981L137.642 65.928L137.749 65.9312L138.32 66.0256L138.421 66.0564L138.936 66.2941L139.023 66.3492L139.448 66.7132L139.515 66.7896L139.821 67.2544L139.864 67.3467L140.029 67.8825L140.044 67.9834L140.057 68.551L140.046 68.6561L139.906 69.2185L139.867 69.3182L139.583 69.8382L139.521 69.9252L139.114 70.3655L139.029 70.4377L138.526 70.7666L138.427 70.8165L137.863 71.0149L137.757 71.0383L137.169 71.0924L137.062 71.0892L136.49 70.9937L136.389 70.964L135.874 70.7253ZM135.97 69.7246L136.317 70.0217L136.738 70.2159L137.205 70.2923L137.684 70.2488L138.146 70.0865L138.556 69.817L138.888 69.4572L139.119 69.0328L139.233 68.5744L139.223 68.1107L139.088 67.6735L138.84 67.2947L138.493 66.9976L138.072 66.8045L137.606 66.727L137.126 66.7705L136.665 66.9328L136.254 67.2034L135.922 67.5621L135.691 67.9865L135.577 68.4449L135.588 68.9086L135.722 69.3458L135.97 69.7246Z" fill="#231F20"/>
<path d="M15.5416 19.5171L15.7032 19.22L15.7835 18.8995L15.7761 18.5738L15.681 18.2692L15.5077 18.0029L15.2648 17.7949L14.969 17.6591L14.6425 17.605L14.3066 17.6368L13.9844 17.7493L13.696 17.9382L13.4636 18.1897L13.302 18.4868L13.2217 18.8083L13.2291 19.133L13.3242 19.4386L13.4974 19.7049L13.7404 19.9129L14.0362 20.0487L14.3626 20.1028L14.6985 20.071L15.0207 19.9575L15.3091 19.7696L15.5416 19.5171Z" fill="#CAE062"/>
<path d="M13.5456 20.2758L13.4589 20.2206L13.216 20.0126L13.1484 19.9362L12.9741 19.6709L12.9318 19.5786L12.8367 19.272L12.8209 19.1711L12.8135 18.8464L12.8251 18.7425L12.9054 18.4209L12.9445 18.3201L13.1061 18.023L13.1695 17.936L13.4019 17.6845L13.4864 17.6134L13.7738 17.4246L13.872 17.3747L14.1953 17.2611L14.3009 17.2389L14.6368 17.207L14.7425 17.2113L15.07 17.2643L15.1703 17.2962L15.4651 17.432L15.5506 17.4872L15.7936 17.6941L15.8612 17.7715L16.0355 18.0368L16.0788 18.1291L16.1739 18.4347L16.1898 18.5355L16.1972 18.8602L16.1855 18.9653L16.1053 19.2868L16.0662 19.3866L15.9035 19.6837L15.8401 19.7717L15.6077 20.0232L15.5232 20.0943L15.2369 20.2832L15.1386 20.332L14.8154 20.4455L14.7097 20.4689L14.3738 20.5007L14.2671 20.4965L13.9396 20.4434L13.8393 20.4116L13.5456 20.2758ZM13.8245 19.4311L13.9893 19.5722L14.1889 19.6635L14.4108 19.7006L14.6379 19.6794L14.8566 19.603L15.052 19.4757L15.2094 19.3038L15.3193 19.1022L15.3732 18.8846L15.3679 18.665L15.3045 18.457L15.1862 18.2766L15.0214 18.1366L14.8217 18.0442L14.6009 18.0071L14.3727 18.0283L14.1541 18.1058L13.9597 18.2331L13.8012 18.405L13.6914 18.6066L13.6385 18.8242L13.6428 19.0438L13.7061 19.2507L13.8245 19.4311Z" fill="#231F20"/>
<path d="M17.9927 86.8753C17.9805 86.8676 17.9688 86.8591 17.9578 86.8498L17.7972 86.7172C17.7706 86.6958 17.7471 86.6708 17.7275 86.6429L17.6113 86.472C17.5916 86.4436 17.5759 86.4125 17.5648 86.3797L17.5014 86.1813C17.4956 86.1654 17.491 86.1491 17.4877 86.1325L15.3358 74.2088C15.3328 74.192 15.3311 74.1749 15.3305 74.1579L15.321 73.9456C15.3199 73.9106 15.3234 73.8757 15.3316 73.8416L15.3791 73.6315C15.3875 73.5965 15.4003 73.5626 15.4171 73.5307L15.5185 73.3355C15.5355 73.3036 15.5565 73.274 15.5809 73.2474L15.7288 73.0808C15.7534 73.053 15.7815 73.0284 15.8122 73.0076L15.9971 72.8813C16.0277 72.8608 16.0607 72.844 16.0953 72.8315L16.3045 72.7529C16.3386 72.7405 16.3741 72.7323 16.4102 72.7285L16.6288 72.7041C16.6647 72.7002 16.7009 72.7009 16.7366 72.7062L16.95 72.7381C16.9846 72.7431 17.0183 72.7527 17.0503 72.7667L17.2447 72.8516C17.2764 72.8665 17.306 72.8835 17.3313 72.9047L17.493 73.0373C17.5193 73.059 17.5424 73.0844 17.5616 73.1127L17.6789 73.2835C17.6985 73.3119 17.7138 73.343 17.7243 73.3758L17.7888 73.5732C17.7942 73.5895 17.7985 73.6061 17.8015 73.623L19.9534 85.5468C19.9566 85.5636 19.9588 85.5806 19.9597 85.5977L19.9681 85.8099C19.9692 85.8449 19.9657 85.8799 19.9576 85.9139L19.91 86.124C19.9021 86.1591 19.8897 86.1929 19.8731 86.2248L19.7706 86.419C19.7541 86.4512 19.7335 86.4812 19.7093 86.5081L19.5614 86.6747C19.5364 86.7022 19.508 86.7264 19.4769 86.7469L19.292 86.8742C19.2617 86.8946 19.2291 86.9113 19.1949 86.9241L18.9857 87.0015C18.9516 87.0143 18.9162 87.0229 18.88 87.027L18.6614 87.0514C18.6255 87.0552 18.5893 87.0544 18.5536 87.0493L18.3402 87.0175C18.3053 87.0125 18.2712 87.0028 18.2388 86.9888L18.0455 86.9039C18.0271 86.8958 18.0095 86.8862 17.9927 86.8753Z" fill="#CAE062"/>
<path d="M17.0557 73.2177L17.2163 73.3503L17.3336 73.5201L17.3991 73.7196L17.7572 75.7049L18.1164 77.6913L18.4745 79.6777L18.8337 81.6652L19.1918 83.6537L19.551 85.6422L19.5594 85.8544L19.5108 86.0645L19.4094 86.2587L19.2605 86.4253L19.0756 86.5516L18.8654 86.629L18.6467 86.6534L18.4333 86.6216L18.2389 86.5367L18.0783 86.4041L17.9611 86.2343L17.8956 86.0359L17.5374 84.0495L17.1783 82.0631L16.8201 80.0767L16.462 78.0892L16.1028 76.1007L15.7437 74.1122L15.7352 73.8999L15.7838 73.6909L15.8863 73.4957L16.0342 73.3291L16.2191 73.2028L16.4293 73.1253L16.648 73.1009L16.8613 73.1328L17.0557 73.2177ZM17.5417 72.5407C17.509 72.5197 17.4747 72.5012 17.4392 72.4855L17.2448 72.4006C17.1807 72.3727 17.1132 72.3534 17.0441 72.3433L16.8297 72.3115C16.7583 72.3008 16.6859 72.2994 16.6142 72.3072L16.3955 72.3316C16.3233 72.3395 16.2523 72.3563 16.1842 72.3815L15.9761 72.459C15.9067 72.4847 15.8407 72.5189 15.7796 72.5608L15.5947 72.6871C15.5339 72.7283 15.4782 72.7768 15.4289 72.8314L15.281 72.998C15.2327 73.0521 15.1912 73.112 15.1574 73.1763L15.0549 73.3704C15.0218 73.4342 14.9969 73.502 14.9809 73.5721L14.9323 73.7822C14.9167 73.8507 14.9103 73.921 14.9133 73.9912L14.9218 74.2034C14.9231 74.2372 14.9266 74.2709 14.9323 74.3042L15.2915 76.2938L15.6507 78.2823L16.0099 80.2698L16.368 82.2551L16.7272 84.2415L17.0843 86.2279C17.0906 86.2613 17.0991 86.2943 17.1096 86.3266L17.174 86.525C17.1952 86.5898 17.2269 86.6524 17.2649 86.7076L17.3811 86.8795C17.4202 86.9346 17.4667 86.9856 17.5195 87.0291L17.6801 87.1617C17.7329 87.2042 17.792 87.2413 17.8554 87.2678L18.0498 87.3527C18.1132 87.3814 18.1808 87.4015 18.2505 87.4111L18.465 87.4429C18.5358 87.4535 18.6076 87.4546 18.6805 87.4471L18.8992 87.4227C18.9713 87.4148 19.0423 87.398 19.1104 87.3729L19.3186 87.2954C19.3879 87.2696 19.4539 87.2354 19.5151 87.1935L19.6999 87.0673C19.7608 87.026 19.8165 86.9776 19.8658 86.923L20.0137 86.7564C20.062 86.7022 20.1035 86.6424 20.1373 86.5781L20.2387 86.3839C20.2722 86.3202 20.2974 86.2524 20.3137 86.1823L20.3623 85.9722C20.3779 85.9037 20.3843 85.8334 20.3813 85.7632L20.3729 85.5509C20.3716 85.5171 20.368 85.4835 20.3623 85.4501L20.0031 83.4606L19.6439 81.472L19.2848 79.4846L18.9266 77.4992L18.5675 75.5128L18.2104 73.5264C18.204 73.493 18.1956 73.4601 18.185 73.4278L18.1206 73.2293C18.0991 73.1645 18.0685 73.103 18.0297 73.0468L17.9135 72.8749C17.8747 72.8187 17.8281 72.7684 17.7751 72.7253L17.6135 72.5927C17.591 72.5739 17.5663 72.5565 17.5417 72.5407Z" fill="#231F20"/>
<path d="M3.59079 71.8574L3.75348 71.5603L3.83271 71.2399L3.82532 70.9152L3.73235 70.6085L3.55699 70.3432L3.31401 70.1353L3.01927 69.9994L2.69284 69.9453L2.35691 69.9771L2.03365 70.0896L1.7463 70.2785L1.51389 70.531L1.35226 70.8282L1.27197 71.1486L1.27937 71.4733L1.37444 71.78L1.5477 72.0452L1.79067 72.2532L2.08646 72.3891L2.41184 72.4432L2.74778 72.4113L3.07104 72.2989L3.35838 72.1089L3.59079 71.8574Z" fill="#EE4878"/>
<path d="M1.59196 72.6151L1.50639 72.5599L1.26341 72.353L1.1958 72.2766L1.02149 72.0113L0.978181 71.918L0.883104 71.6124L0.867258 71.5116L0.859863 71.1869L0.872541 71.0829L0.951771 70.7603L0.990859 70.6605L1.15355 70.3634L1.21693 70.2764L1.44934 70.0239L1.5328 69.9528L1.82014 69.7639L1.91839 69.7151L2.24165 69.6016L2.34729 69.5782L2.68323 69.5464L2.78992 69.5506L3.11741 69.6047L3.21777 69.6366L3.51251 69.7713L3.59808 69.8265L3.84105 70.0345L3.90866 70.1109L4.08297 70.3762L4.12523 70.4695L4.2203 70.7752L4.23615 70.876L4.24355 71.2007L4.23298 71.3046L4.15269 71.6262L4.11361 71.727L3.95092 72.0241L3.88753 72.1111L3.65512 72.3626L3.57061 72.4337L3.28433 72.6236L3.18502 72.6724L2.86282 72.786L2.75718 72.8093L2.42124 72.8401L2.31348 72.8358L1.98705 72.7828L1.88669 72.7509L1.59196 72.6151ZM1.87085 71.7705L2.03565 71.9116L2.23637 72.0039L2.4561 72.0411L2.68428 72.0198L2.90402 71.9424L3.0984 71.815L3.25686 71.6442L3.36567 71.4426L3.4206 71.2251L3.41532 71.0044L3.35193 70.7974L3.23362 70.617L3.06882 70.477L2.8681 70.3847L2.64731 70.3475L2.42018 70.3687L2.20045 70.4462L2.00607 70.5735L1.84761 70.7444L1.73774 70.946L1.68492 71.1635L1.68915 71.3842L1.75253 71.5911L1.87085 71.7705Z" fill="#231F20"/>
<path d="M8.81931 98.2334L8.982 97.9363L9.06123 97.6148L9.05383 97.2901L8.96087 96.9845L8.7855 96.7192L8.54253 96.5112L8.24779 96.3743L7.92136 96.3213L7.58542 96.3521L7.26216 96.4656L6.97482 96.6545L6.74241 96.906L6.58078 97.2031L6.50049 97.5246L6.50788 97.8493L6.60296 98.1549L6.77621 98.4202L7.01919 98.6281L7.31498 98.764L7.64036 98.8181L7.97735 98.7873L8.29956 98.6738L8.58795 98.4849L8.81931 98.2334Z" fill="#7248EE"/>
<path d="M6.81941 98.9911L6.73385 98.9359L6.49087 98.7279L6.42326 98.6515L6.24895 98.3852L6.2067 98.2939L6.11162 97.9884L6.09577 97.8865L6.08838 97.5618L6.09894 97.4578L6.17923 97.1363L6.21832 97.0355L6.381 96.7384L6.44439 96.6514L6.6768 96.3999L6.76131 96.3277L7.04865 96.1388L7.1469 96.09L7.46911 95.9765L7.57475 95.9531L7.91068 95.9224L8.01738 95.9266L8.34487 95.9797L8.44523 96.0115L8.73997 96.1473L8.82554 96.2025L9.06851 96.4094L9.13612 96.4858L9.31043 96.7511L9.35374 96.8445L9.44776 97.1501L9.46361 97.2509L9.471 97.5756L9.46044 97.6796L9.38015 98.0021L9.34106 98.1019L9.17838 98.399L9.11499 98.486L8.88258 98.7386L8.79807 98.8096L8.51178 98.9985L8.41248 99.0473L8.09027 99.1609L7.98464 99.1842L7.6487 99.215L7.542 99.2118L7.21451 99.1577L7.11415 99.1269L6.81941 98.9911ZM7.09831 98.1465L7.26311 98.2865L7.46383 98.3788L7.68461 98.416L7.91174 98.3948L8.13042 98.3173L8.32586 98.19L8.48432 98.0191L8.59313 97.8175L8.64806 97.6L8.64172 97.3793L8.57834 97.1724L8.46108 96.993L8.29522 96.8519L8.09556 96.7596L7.87477 96.7224L7.64658 96.7437L7.42791 96.8211L7.23247 96.9485L7.07507 97.1193L6.9652 97.3209L6.91132 97.5384L6.9166 97.7581L6.97999 97.9661L7.09831 98.1465Z" fill="#231F20"/>
<path d="M103.229 157.497L103.391 157.201L103.471 156.878L103.464 156.554L103.37 156.248L103.195 155.982L102.952 155.774L102.656 155.639L102.33 155.584L101.994 155.615L101.672 155.729L101.384 155.918L101.151 156.169L100.989 156.466L100.909 156.788L100.918 157.112L101.011 157.419L101.185 157.684L101.428 157.892L101.723 158.028L102.05 158.082L102.386 158.052L102.709 157.938L102.997 157.749L103.229 157.497Z" fill="#C3ACF1"/>
<path d="M101.228 158.255L101.143 158.2L100.9 157.992L100.832 157.916L100.658 157.649L100.614 157.558L100.52 157.251L100.504 157.151L100.497 156.826L100.509 156.722L100.588 156.4L100.627 156.3L100.79 156.004L100.853 155.916L101.085 155.664L101.169 155.593L101.456 155.403L101.556 155.354L101.878 155.241L101.983 155.217L102.319 155.187L102.426 155.191L102.754 155.244L102.854 155.275L103.149 155.411L103.235 155.467L103.478 155.674L103.546 155.751L103.719 156.016L103.762 156.109L103.856 156.414L103.873 156.515L103.881 156.84L103.869 156.945L103.789 157.266L103.75 157.366L103.587 157.663L103.525 157.75L103.292 158.003L103.208 158.074L102.92 158.263L102.821 158.311L102.499 158.425L102.393 158.448L102.057 158.479L101.951 158.476L101.623 158.422L101.523 158.391L101.228 158.255ZM101.507 157.41L101.672 157.551L101.871 157.643L102.092 157.68L102.32 157.659L102.54 157.581L102.735 157.453L102.892 157.283L103.002 157.082L103.056 156.864L103.05 156.643L102.987 156.437L102.869 156.256L102.704 156.116L102.504 156.024L102.283 155.987L102.055 156.008L101.837 156.085L101.642 156.213L101.484 156.383L101.374 156.585L101.32 156.803L101.325 157.023L101.389 157.23L101.507 157.41Z" fill="#231F20"/>
<path d="M148.07 85.1521L148.232 84.855L148.312 84.5335L148.305 84.2088L148.211 83.9032L148.037 83.6379L147.794 83.4299L147.499 83.2941L147.171 83.24L146.835 83.2718L146.513 83.3843L146.226 83.5732L145.993 83.8247L145.831 84.1218L145.75 84.4433L145.759 84.768L145.853 85.0736L146.026 85.3399L146.27 85.5479L146.565 85.6837L146.891 85.7378L147.227 85.706L147.551 85.5935L147.838 85.4047L148.07 85.1521Z" fill="#F7B3C7"/>
<path d="M146.07 85.9098L145.984 85.8546L145.741 85.6477L145.673 85.5702L145.499 85.305L145.456 85.2126L145.362 84.907L145.346 84.8062L145.338 84.4805L145.35 84.3765L145.43 84.055L145.469 83.9552L145.631 83.6581L145.694 83.57L145.927 83.3186L146.011 83.2475L146.299 83.0586L146.397 83.0098L146.72 82.8962L146.826 82.8729L147.162 82.8411L147.268 82.8453L147.595 82.8994L147.695 82.9313L147.99 83.066L148.077 83.1212L148.32 83.3292L148.387 83.4056L148.561 83.6709L148.605 83.7632L148.699 84.0688L148.715 84.1706L148.722 84.4953L148.71 84.5993L148.63 84.9208L148.591 85.0216L148.429 85.3188L148.366 85.4058L148.134 85.6573L148.049 85.7283L147.762 85.9172L147.664 85.9671L147.34 86.0806L147.235 86.104L146.899 86.1347L146.792 86.1305L146.466 86.0774L146.365 86.0456L146.07 85.9098ZM146.348 85.0652L146.513 85.2063L146.714 85.2986L146.935 85.3347L147.163 85.3134L147.381 85.237L147.576 85.1087L147.733 84.9389L147.843 84.7373L147.898 84.5187L147.893 84.298L147.828 84.0911L147.711 83.9107L147.546 83.7706L147.346 83.6783L147.125 83.6411L146.897 83.6624L146.678 83.7398L146.484 83.8672L146.326 84.038L146.216 84.2396L146.161 84.4571L146.167 84.6778L146.23 84.8848L146.348 85.0652Z" fill="#231F20"/>
<path d="M25.4892 56.5604L26.29 54.799L26.5499 52.9176L26.4231 51.0501L25.9614 49.2536L25.1353 47.611L23.8423 46.309L25.6044 46.9584L27.5292 47.0741L29.4698 46.8152L31.3586 46.2337L33.1176 45.3105L34.5585 43.9565L33.7577 45.718L33.4979 47.5993L33.6246 49.468L34.0863 51.2634L34.9124 52.907L36.2055 54.209L34.4434 53.5585L32.5175 53.4429L30.578 53.7028L28.6891 54.2833L26.9291 55.2075L25.4892 56.5604Z" fill="white"/>
<path d="M25.1208 56.4226L25.8962 54.7163L26.1434 52.9336L26.0219 51.1382L25.5782 49.415L24.7943 47.8573L23.5425 46.5956L24.0179 45.9345L25.725 46.5638L27.5494 46.6731L29.413 46.4237L31.2268 45.8666L32.8938 44.9902L34.2883 43.6797L34.939 44.0946L34.1626 45.8019L33.9164 47.5846L34.0379 49.3779L34.4816 51.1022L35.2644 52.6599L36.5173 53.9205L36.0419 54.5826L34.3337 53.9534L32.5093 53.8441L30.6458 54.0934L28.8319 54.6516L27.166 55.527L25.7705 56.8375L25.1208 56.4226ZM25.4567 47.3363L25.5137 47.4148L26.3673 49.1306L26.8406 50.9939L26.9642 52.9421L26.7043 54.8235L26.6758 54.9211L26.7603 54.8596L28.5964 53.9046L30.557 53.3072L32.579 53.0451L34.5038 53.1597L34.602 53.1809L34.5461 53.1024L33.6925 51.3855L33.2192 49.5232L33.0956 47.575L33.3555 45.6937L33.384 45.5961L33.2995 45.6576L31.4624 46.6126L29.5027 47.21L27.4808 47.4721L25.556 47.3575L25.4567 47.3363Z" fill="#231F20"/>
</svg>
