<svg width="66" height="66" viewBox="0 0 66 66" fill="none" xmlns="http://www.w3.org/2000/svg">
<path d="M33 27.5C43.934 27.5 55 23.7215 55 16.5C55 9.2785 43.934 5.5 33 5.5C22.066 5.5 11 9.2785 11 16.5C11 23.7215 22.066 27.5 33 27.5Z" fill="white"/>
<path d="M11 27.5C11 34.7215 22.066 38.5 33 38.5C43.934 38.5 55 34.7215 55 27.5V22C55 29.2215 43.934 33 33 33C22.066 33 11 29.2215 11 22V27.5Z" fill="white"/>
<path d="M11 38.5C11 45.7215 22.066 49.5 33 49.5C43.934 49.5 55 45.7215 55 38.5V33C55 40.2215 43.934 44 33 44C22.066 44 11 40.2215 11 33V38.5Z" fill="white"/>
<path d="M11 49.5C11 56.7215 22.066 60.5 33 60.5C43.934 60.5 55 56.7215 55 49.5V44C55 51.2215 43.934 55 33 55C22.066 55 11 51.2215 11 44V49.5Z" fill="white"/>
</svg>
