<svg width="42" height="41" viewBox="0 0 42 41" fill="none" xmlns="http://www.w3.org/2000/svg">
<g clip-path="url(#clip0_1_44672)">
<path d="M27.3491 0.35302L27.3346 0.663951L27.3201 0.974883L27.3056 1.28581L27.2911 1.59683L27.2766 1.90835L27.262 2.21988L27.2475 2.53089L27.233 2.84174L27.2186 3.15267L27.2041 3.46369L27.1896 3.77521L27.175 4.08673L27.1605 4.39775L27.146 4.70868L27.1315 5.01961L27.117 5.33063L27.1025 5.64215L27.088 5.95359L27.0734 6.26461L27.0589 6.57554L27.0444 6.88647L27.0299 7.19748L27.0154 7.50909L27.0009 7.82061L26.9864 8.13163L26.9718 8.44256L26.9573 8.75358L26.9428 9.06468L26.9283 9.3762L26.9138 9.68781L26.8993 9.99883L26.8848 10.3098L26.8702 10.6208L26.8557 10.9319L26.8412 11.2435L26.8267 11.555L27.1145 11.4268L27.4026 11.2985L27.6908 11.1702L27.9791 11.0419L28.2677 10.9133L28.5565 10.7847L28.8443 10.6565L29.1324 10.5282L29.4206 10.3999L29.7089 10.2715L29.9975 10.1429L30.2863 10.0143L30.5741 9.88614L30.8622 9.75781L31.1503 9.62948L31.4386 9.50115L31.7273 9.37257L32.016 9.24398L32.3038 9.11582L32.592 8.9875L32.8802 8.85908L33.1684 8.73075L33.4572 8.60217L33.7459 8.47359L34.0338 8.34543L34.3219 8.21701L34.6101 8.08869L34.8985 7.96027L35.1872 7.83169L35.4759 7.70311L35.7638 7.57486L36.052 7.44653L36.3403 7.3182L36.6286 7.18979L36.9173 7.06121L37.2061 6.93263L37.0233 7.18624L36.8403 7.44011L36.6573 7.69398L36.4742 7.94801L36.2908 8.20239L36.1074 8.45676L35.9247 8.71029L35.7417 8.96416L35.5588 9.21795L35.3758 9.4719L35.1924 9.72619L35.0092 9.98056L34.8263 10.2342L34.6434 10.488L34.4603 10.742L34.2773 10.996L34.0938 11.2504L33.9105 11.5048L33.7277 11.7585L33.5447 12.0124L33.3616 12.2663L33.1785 12.5203L32.9951 12.7747L32.8117 13.0292L32.6289 13.2829L32.4459 13.5368L32.2628 13.7908L32.0797 14.0448L31.8962 14.2993L31.7129 14.5537L31.53 14.8074L31.3469 15.0614L31.1639 15.3153L30.9808 15.5694L30.7974 15.8238L30.6139 16.0783L30.9269 16.1237L31.2397 16.1691L31.5524 16.2145L31.8654 16.2599L32.1788 16.3053L32.4923 16.3508L32.8051 16.3962L33.1179 16.4416L33.4308 16.487L33.7437 16.5324L34.0571 16.5778L34.3705 16.6232L34.6834 16.6686L34.9962 16.714L35.3091 16.7594L35.6219 16.8048L35.9354 16.8503L36.2488 16.8958L36.5617 16.9412L36.8745 16.9865L37.1874 17.0319L37.5003 17.0773L37.8138 17.1228L38.1272 17.1683L38.4401 17.2136L38.753 17.259L39.0659 17.3044L39.3788 17.3498L39.6923 17.3953L40.0059 17.4408L40.3187 17.4862L40.6316 17.5316L40.9445 17.5769L41.2575 17.6224L41.571 17.6678L41.8845 17.7133L41.5914 17.8293L41.298 17.9456L41.0046 18.0617L40.711 18.178L40.4171 18.2945L40.1231 18.4109L39.8301 18.527L39.5367 18.6431L39.2432 18.7593L38.9497 18.8756L38.6557 18.992L38.3617 19.1085L38.0687 19.2245L37.7753 19.3407L37.4818 19.457L37.1884 19.5732L36.8944 19.6896L36.6004 19.806L36.3073 19.9221L36.0139 20.0383L35.7204 20.1545L35.4269 20.2707L35.1329 20.3872L34.8389 20.5036L34.5458 20.6197L34.2524 20.7359L33.9589 20.8522L33.6653 20.9684L33.3713 21.0849L33.0773 21.2013L32.7842 21.3174L32.4907 21.4336L32.1973 21.5499L31.9036 21.6661L31.6096 21.7826L31.3156 21.899L31.5536 22.1035L31.7919 22.3082L32.0302 22.5128L32.2685 22.7176L32.5073 22.9227L32.746 23.1278L32.9839 23.3322L33.2222 23.5368L33.4604 23.7415L33.6987 23.9462L33.9374 24.1512L34.1761 24.3563L34.4141 24.5607L34.6524 24.7654L34.8907 24.9702L35.1291 25.1749L35.3679 25.38L35.6067 25.5851L35.8447 25.7896L36.083 25.9944L36.3213 26.199L36.5597 26.4039L36.7985 26.609L37.0373 26.8141L37.2754 27.0186L37.5137 27.2233L37.752 27.4281L37.9905 27.6329L38.2293 27.8381L38.4681 28.0432L38.7062 28.2477L38.9445 28.4524L39.1828 28.6572L39.4213 28.862L39.6601 29.0672L39.8989 29.2723L39.5883 29.2139L39.2777 29.1556L38.9671 29.0972L38.6565 29.0388L38.3452 28.9803L38.0341 28.9218L37.7234 28.8634L37.4129 28.805L37.1022 28.7467L36.7915 28.6883L36.4803 28.6298L36.1692 28.5713L35.8585 28.5129L35.5479 28.4545L35.2374 28.3962L34.9266 28.3378L34.6155 28.2793L34.3042 28.2208L33.9936 28.1624L33.683 28.104L33.3724 28.0456L33.0617 27.9873L32.7505 27.9288L32.4393 27.8703L32.1286 27.8119L31.818 27.7534L31.5073 27.6951L31.1965 27.6367L30.8853 27.5782L30.5741 27.5197L30.2633 27.4613L29.9528 27.4029L29.642 27.3445L29.3313 27.2861L29.0201 27.2276L28.7088 27.1691L28.7968 27.4678L28.8848 27.7667L28.9728 28.0658L29.0609 28.3649L29.1491 28.6645L29.2373 28.9641L29.3252 29.2627L29.4133 29.5617L29.5013 29.8607L29.5894 30.1599L29.6776 30.4595L29.7658 30.7591L29.8538 31.0577L29.9418 31.3567L30.0298 31.6557L30.1178 31.9549L30.206 32.2544L30.2942 32.554L30.3822 32.8527L30.4702 33.1517L30.5583 33.4508L30.6464 33.7499L30.7346 34.0495L30.8228 34.3491L30.9107 34.6478L30.9987 34.9469L31.0868 35.246L31.1749 35.5452L31.2631 35.8448L31.3513 36.1445L31.4392 36.4431L31.5273 36.7422L31.6154 37.0412L31.7034 37.3404L31.7916 37.6401L31.8799 37.9397L31.6509 37.7256L31.4216 37.5111L31.1923 37.2966L30.963 37.0821L30.7333 36.8673L30.5035 36.6524L30.2747 36.4383L30.0454 36.2239L29.8162 36.0095L29.5869 35.7951L29.3573 35.5802L29.1276 35.3655L28.8986 35.1513L28.6693 34.9368L28.44 34.7223L28.2106 34.5078L27.9809 34.293L27.7512 34.0781L27.5222 33.8639L27.2929 33.6494L27.0636 33.4349L26.8342 33.2204L26.6044 33.0056L26.3747 32.7907L26.1456 32.5763L25.9163 32.3619L25.687 32.1474L25.4576 31.9328L25.2278 31.7179L24.9981 31.503L24.769 31.2887L24.5396 31.0743L24.3103 30.8597L24.0809 30.6452L23.8511 30.4303L23.6214 30.2154L23.5313 30.5134L23.4411 30.8118L23.3509 31.1102L23.2607 31.4086L23.1704 31.7076L23.08 32.0066L22.99 32.3046L22.8999 32.6031L22.8097 32.9015L22.7194 33.2L22.6291 33.4989L22.5387 33.7979L22.4487 34.0959L22.3585 34.3943L22.2684 34.6928L22.1782 34.9912L22.0878 35.2902L21.9975 35.5892L21.9074 35.8872L21.8172 36.1856L21.727 36.484L21.6369 36.7825L21.5464 37.0816L21.4561 37.3805L21.3661 37.6786L21.2759 37.9771L21.1856 38.2755L21.0954 38.5741L21.0051 38.8731L20.9147 39.1721L20.8247 39.4702L20.7345 39.7686L20.6442 40.0671L20.554 40.3657L20.4637 40.6647L20.3733 40.9637L20.2982 40.6613L20.2231 40.359L20.1481 40.0566L20.0729 39.7541L19.9978 39.4512L19.9225 39.1483L19.8474 38.846L19.7723 38.5436L19.6973 38.2412L19.6222 37.9388L19.547 37.6359L19.4717 37.3329L19.3966 37.0305L19.3215 36.7282L19.2465 36.4258L19.1714 36.1234L19.0962 35.8204L19.0209 35.5175L18.9459 35.2151L18.8707 34.9127L18.7957 34.6104L18.7206 34.3079L18.6454 34.005L18.5701 33.7021L18.495 33.3996L18.4199 33.0972L18.3449 32.7948L18.2697 32.4923L18.1945 32.1893L18.1192 31.8863L18.0441 31.5839L17.969 31.2815L17.894 30.9791L17.8188 30.6765L17.7436 30.3735L17.6684 30.0706L17.4289 30.2734L17.1892 30.4764L16.9494 30.6795L16.7095 30.8825L16.4693 31.086L16.2291 31.2894L15.9898 31.4921L15.7501 31.6951L15.5104 31.8981L15.2707 32.1012L15.0304 32.3046L14.7903 32.508L14.5509 32.7108L14.3111 32.9137L14.0713 33.1169L13.8315 33.3199L13.5912 33.5234L13.351 33.7268L13.1115 33.9297L12.8718 34.1327L12.632 34.3358L12.3921 34.5389L12.1519 34.7424L11.9116 34.9459L11.6721 35.1487L11.4323 35.3517L11.1925 35.5549L10.9526 35.758L10.7123 35.9615L10.472 36.165L10.2325 36.3679L9.99269 36.5709L9.7529 36.774L9.51303 36.9772L9.27273 37.1806L9.03243 37.3841L9.13523 37.0902L9.2382 36.7958L9.34109 36.5014L9.44407 36.2069L9.54721 35.912L9.65027 35.6171L9.75307 35.3231L9.85605 35.0287L9.95894 34.7343L10.0619 34.4398L10.1651 34.1449L10.2682 33.8499L10.371 33.5559L10.4739 33.2615L10.5769 32.9672L10.6798 32.6727L10.7829 32.3778L10.886 32.0828L10.9889 31.7888L11.0917 31.4944L11.1947 31.2001L11.2977 30.9055L11.4008 30.6106L11.5039 30.3156L11.6068 30.0216L11.7097 29.7272L11.8126 29.4327L11.9156 29.1382L12.0188 28.8432L12.1219 28.5482L12.2247 28.2542L12.3277 27.9597L12.4307 27.6653L12.5336 27.3707L12.6368 27.0758L12.7399 26.7808L12.4267 26.824L12.1136 26.8672L11.8004 26.9104L11.4871 26.9536L11.1734 26.9969L10.8597 27.0402L10.5465 27.0835L10.2334 27.1267L9.9202 27.1699L9.60699 27.2131L9.29325 27.2564L8.97952 27.2996L8.66631 27.3429L8.35318 27.3861L8.04004 27.4293L7.72683 27.4725L7.41301 27.5158L7.09928 27.5591L6.78606 27.6024L6.47293 27.6456L6.1598 27.6888L5.84658 27.732L5.53276 27.7753L5.21903 27.8185L4.90573 27.8618L4.5926 27.905L4.27938 27.9482L3.96608 27.9915L3.65226 28.0348L3.33853 28.0781L3.02522 28.1213L2.71209 28.1645L2.39888 28.2078L2.08557 28.251L1.77176 28.2942L1.45794 28.3375L1.70588 28.1449L1.95417 27.9521L2.20246 27.7592L2.45084 27.5663L2.69955 27.373L2.94827 27.1798L3.19622 26.9872L3.44442 26.7944L3.69262 26.6016L3.94091 26.4087L4.18955 26.2155L4.43826 26.0224L4.68621 25.8297L4.9345 25.6369L5.18279 25.4439L5.43116 25.251L5.67997 25.0578L5.92869 24.8645L6.17672 24.6719L6.42501 24.4789L6.6733 24.286L6.92167 24.0931L7.17047 23.8999L7.41919 23.7066L7.66722 23.5139L7.9156 23.321L8.16389 23.128L8.41235 22.9351L8.66115 22.7418L8.90996 22.5485L9.15799 22.3559L9.40628 22.1629L9.65465 21.97L9.90311 21.777L10.1519 21.5838L10.4007 21.3904L10.1138 21.2602L9.82659 21.13L9.5394 20.9996L9.25203 20.8693L8.96424 20.7387L8.67653 20.6081L8.38959 20.4779L8.1024 20.3476L7.81511 20.2173L7.52783 20.0869L7.24004 19.9563L6.95224 19.8258L6.66539 19.6956L6.3782 19.5653L6.09092 19.435L5.80364 19.3046L5.51584 19.174L5.22805 19.0435L4.94111 18.9133L4.65392 18.7829L4.36664 18.6527L4.07936 18.5222L3.79156 18.3917L3.50377 18.2611L3.21683 18.1309L2.92955 18.0005L2.64227 17.8702L2.3549 17.7398L2.06702 17.6092L1.77923 17.4786L1.49229 17.3484L1.20501 17.2181L0.91773 17.0878L0.630364 16.9573L0.342483 16.8267L0.0546875 16.6961L0.36945 16.666L0.684127 16.6359L0.99889 16.6058L1.31374 16.5756L1.62902 16.5455L1.94429 16.5153L2.25914 16.4852L2.57382 16.455L2.88858 16.4249L3.20335 16.3948L3.51871 16.3646L3.83399 16.3345L4.14884 16.3043L4.46351 16.2742L4.77819 16.2441L5.09304 16.2139L5.4084 16.1837L5.72368 16.1535L6.03844 16.1234L6.35321 16.0934L6.66797 16.0632L6.98273 16.0331L7.2981 16.0029L7.61346 15.9727L7.92831 15.9426L8.24299 15.9124L8.55784 15.8823L8.87268 15.8522L9.18805 15.822L9.50341 15.7918L9.81826 15.7617L10.133 15.7316L10.4478 15.7014L10.7627 15.6713L11.0781 15.6412L11.3934 15.611L11.2236 15.3487L11.0536 15.0863L10.8835 14.8238L10.7134 14.5612L10.543 14.2982L10.3726 14.0353L10.2028 13.7731L10.0329 13.5107L9.86283 13.2483L9.69278 12.9858L9.52248 12.7229L9.35209 12.46L9.18229 12.1977L9.01224 11.9353L8.84211 11.6728L8.67206 11.4102L8.50167 11.1471L8.33127 10.8841L8.1614 10.622L7.99135 10.3594L7.82121 10.0969L7.65108 9.83431L7.48069 9.57123L7.31029 9.30823L7.14042 9.04599L6.97037 8.78342L6.80023 8.52084L6.6301 8.25827L6.45962 7.99519L6.28922 7.7321L6.11935 7.46987L5.94921 7.20729L5.77916 6.94471L5.60903 6.68214L5.43855 6.41906L5.26816 6.15597L5.54917 6.298L5.83052 6.44019L6.11187 6.5823L6.39331 6.72458L6.67527 6.86702L6.95714 7.00947L7.23824 7.15149L7.5195 7.2936L7.80094 7.4358L8.08238 7.57807L8.36425 7.72052L8.64621 7.86297L8.92722 8.00499L9.20857 8.1471L9.48993 8.28929L9.77137 8.43157L10.0533 8.57402L10.3352 8.71647L10.6163 8.85841L10.8976 9.0006L11.179 9.14279L11.4604 9.28507L11.7424 9.42752L12.0243 9.56996L12.3054 9.71199L12.5868 9.85418L12.8682 9.99637L13.1498 10.1387L13.4317 10.2811L13.7137 10.4236L13.9948 10.5657L14.2761 10.7078L14.5576 10.85L14.8391 10.9922L15.121 11.1348L15.403 11.2772L15.4041 10.9659L15.4052 10.6547L15.4064 10.3434L15.4075 10.0321L15.4086 9.72027L15.4097 9.40841L15.4108 9.09714L15.4119 8.78587L15.413 8.4746L15.4142 8.16325L15.4153 7.85139L15.4164 7.53953L15.4175 7.22826L15.4186 6.91707L15.4197 6.6058L15.4208 6.29445L15.4219 5.98259L15.423 5.67072L15.4241 5.35945L15.4252 5.04819L15.4264 4.73692L15.4275 4.42556L15.4286 4.1137L15.4297 3.80184L15.4308 3.49048L15.4319 3.17922L15.4331 2.86786L15.4342 2.55651L15.4353 2.24456L15.4364 1.9327L15.4375 1.62126L15.4386 1.30999L15.4398 0.998722L15.4409 0.687284L15.442 0.375422L15.4431 0.0634766L15.6016 0.332477L15.7601 0.601816L15.9187 0.871154L16.0774 1.14058L16.2363 1.41051L16.3952 1.68035L16.5536 1.94927L16.7122 2.21852L16.8708 2.48778L17.0294 2.75712L17.1883 3.02696L17.3471 3.29672L17.5055 3.56572L17.6641 3.83515L17.8228 4.10449L17.9815 4.37391L18.1404 4.64384L18.2993 4.91368L18.4577 5.18277L18.6163 5.45211L18.775 5.72145L18.9337 5.99095L19.0926 6.2608L19.2515 6.53073L19.41 6.79982L19.5686 7.06924L19.7273 7.33866L19.886 7.60809L20.0449 7.87802L20.2039 8.14795L20.3623 8.41703L20.521 8.68645L20.6797 8.95588L20.8384 9.22538L20.9973 9.49532L21.1562 9.76525L21.328 9.50428L21.4999 9.24297L21.6718 8.98166L21.8438 8.72027L22.0161 8.45846L22.1883 8.19664L22.36 7.93576L22.5318 7.67453L22.7038 7.41331L22.8757 7.152L23.0479 6.89019L23.2201 6.62846L23.3919 6.36749L23.5638 6.10618L23.7358 5.84487L23.9077 5.58348L24.08 5.32158L24.2523 5.05977L24.424 4.7988L24.596 4.53749L24.7679 4.2761L24.9399 4.01471L25.1122 3.75281L25.2845 3.49099L25.4562 3.22994L25.6282 2.96863L25.8001 2.70724L25.9722 2.44576L26.1444 2.18386L26.3168 1.92205L26.4886 1.66091L26.6605 1.3996L26.8325 1.13821L27.0045 0.876734L27.1768 0.614919L27.3491 0.35302Z" fill="#C3ACF1"/>
<path d="M27.3491 0.35302L27.3346 0.663951L27.3201 0.974883L27.3056 1.28581L27.2911 1.59683L27.2766 1.90835L27.262 2.21988L27.2475 2.53089L27.233 2.84174L27.2186 3.15267L27.2041 3.46369L27.1896 3.77521L27.175 4.08673L27.1605 4.39775L27.146 4.70868L27.1315 5.01961L27.117 5.33063L27.1025 5.64215L27.088 5.95359L27.0734 6.26461L27.0589 6.57554L27.0444 6.88647L27.0299 7.19748L27.0154 7.50909L27.0009 7.82061L26.9864 8.13163L26.9718 8.44256L26.9573 8.75358L26.9428 9.06468L26.9283 9.3762L26.9138 9.68781L26.8993 9.99883L26.8848 10.3098L26.8702 10.6208L26.8557 10.9319L26.8412 11.2435L26.8267 11.555L27.1145 11.4268L27.4026 11.2985L27.6908 11.1702L27.9791 11.0419L28.2677 10.9133L28.5565 10.7847L28.8443 10.6565L29.1324 10.5282L29.4206 10.3999L29.7089 10.2715L29.9975 10.1429L30.2863 10.0143L30.5741 9.88614L30.8622 9.75781L31.1503 9.62948L31.4386 9.50115L31.7273 9.37257L32.016 9.24398L32.3038 9.11582L32.592 8.98749L32.8802 8.85908L33.1684 8.73075L33.4572 8.60217L33.7459 8.47359L34.0338 8.34543L34.3219 8.21701L34.6101 8.08868L34.8985 7.96027L35.1872 7.83169L35.4759 7.70311L35.7638 7.57486L36.052 7.44653L36.3403 7.3182L36.6286 7.18979L36.9173 7.06121L37.2061 6.93263L37.0233 7.18624L36.8403 7.44011L36.6573 7.69398L36.4742 7.94801L36.2908 8.20239L36.1074 8.45676L35.9247 8.71029L35.7417 8.96416L35.5588 9.21795L35.3758 9.4719L35.1924 9.72619L35.0092 9.98056L34.8263 10.2342L34.6434 10.488L34.4603 10.742L34.2773 10.996L34.0938 11.2504L33.9105 11.5048L33.7277 11.7585L33.5447 12.0124L33.3616 12.2663L33.1785 12.5203L32.9951 12.7747L32.8117 13.0292L32.6289 13.2829L32.4459 13.5368L32.2628 13.7908L32.0797 14.0448L31.8962 14.2993L31.7129 14.5537L31.53 14.8074L31.3469 15.0614L31.1639 15.3153L30.9808 15.5694L30.7974 15.8238L30.6139 16.0783L30.9269 16.1237L31.2397 16.1691L31.5524 16.2145L31.8654 16.2599L32.1788 16.3053L32.4923 16.3508L32.8051 16.3962L33.1179 16.4416L33.4308 16.487L33.7437 16.5324L34.0571 16.5778L34.3705 16.6232L34.6834 16.6686L34.9962 16.714L35.3091 16.7594L35.6219 16.8048L35.9354 16.8503L36.2488 16.8958L36.5617 16.9412L36.8745 16.9865L37.1874 17.0319L37.5003 17.0773L37.8138 17.1228L38.1272 17.1683L38.4401 17.2137L38.753 17.259L39.0659 17.3044L39.3788 17.3498L39.6923 17.3953L40.0059 17.4408L40.3187 17.4862L40.6316 17.5316L40.9445 17.5769L41.2575 17.6224L41.571 17.6678L41.8845 17.7133L41.5914 17.8293L41.298 17.9456L41.0046 18.0617L40.711 18.178L40.4171 18.2945L40.1231 18.4109L39.8301 18.527L39.5367 18.6431L39.2432 18.7593L38.9497 18.8756L38.6557 18.992L38.3617 19.1085L38.0687 19.2245L37.7753 19.3407L37.4818 19.457L37.1884 19.5732L36.8944 19.6896L36.6004 19.806L36.3073 19.9221L36.0139 20.0383L35.7204 20.1545L35.4269 20.2707L35.1329 20.3872L34.8389 20.5036L34.5458 20.6197L34.2524 20.7359L33.9589 20.8522L33.6653 20.9684L33.3713 21.0849L33.0773 21.2013L32.7842 21.3174L32.4907 21.4336L32.1973 21.5499L31.9036 21.6661L31.6096 21.7826L31.3156 21.899L31.5536 22.1035L31.7919 22.3082L32.0302 22.5128L32.2685 22.7176L32.5073 22.9227L32.746 23.1278L32.9839 23.3322L33.2222 23.5369L33.4604 23.7415L33.6988 23.9462L33.9374 24.1512L34.1761 24.3563L34.4141 24.5607L34.6524 24.7654L34.8907 24.9702L35.1291 25.1749L35.3679 25.38L35.6067 25.5851L35.8447 25.7896L36.083 25.9944L36.3213 26.199L36.5597 26.4039L36.7985 26.609L37.0373 26.8141L37.2754 27.0186L37.5137 27.2233L37.752 27.4281L37.9905 27.6329L38.2293 27.8381L38.4681 28.0432L38.7062 28.2477L38.9445 28.4524L39.1828 28.6572L39.4213 28.862L39.6601 29.0672L39.8989 29.2723L39.5883 29.2139L39.2777 29.1556L38.9671 29.0972L38.6565 29.0388L38.3452 28.9803L38.0341 28.9218L37.7234 28.8634L37.4129 28.805L37.1022 28.7467L36.7915 28.6883L36.4803 28.6298L36.1692 28.5713L35.8585 28.5129L35.5479 28.4545L35.2374 28.3962L34.9266 28.3378L34.6155 28.2793L34.3042 28.2208L33.9936 28.1624L33.683 28.104L33.3724 28.0456L33.0617 27.9873L32.7505 27.9288L32.4393 27.8703L32.1286 27.8119L31.818 27.7534L31.5073 27.6951L31.1965 27.6367L30.8853 27.5782L30.5741 27.5197L30.2633 27.4613L29.9528 27.4029L29.642 27.3445L29.3313 27.2861L29.0201 27.2276L28.7088 27.1691L28.7968 27.4678L28.8848 27.7667L28.9728 28.0658L29.0609 28.3649L29.1491 28.6645L29.2373 28.9641L29.3252 29.2627L29.4133 29.5617L29.5013 29.8607L29.5894 30.1599L29.6776 30.4595L29.7658 30.7591L29.8538 31.0577L29.9418 31.3567L30.0298 31.6557L30.1178 31.9549L30.206 32.2544L30.2942 32.554L30.3822 32.8527L30.4702 33.1517L30.5583 33.4508L30.6464 33.7499L30.7346 34.0495L30.8228 34.3491L30.9107 34.6478L30.9987 34.9469L31.0868 35.246L31.1749 35.5452L31.2631 35.8448L31.3513 36.1445L31.4392 36.4431L31.5273 36.7422L31.6154 37.0412L31.7034 37.3404L31.7916 37.6401L31.8799 37.9397L31.6509 37.7256L31.4216 37.5111L31.1923 37.2966L30.963 37.0821L30.7333 36.8673L30.5035 36.6524L30.2747 36.4383L30.0454 36.2239L29.8162 36.0095L29.5869 35.7951L29.3573 35.5802L29.1276 35.3655L28.8986 35.1513L28.6693 34.9368L28.44 34.7223L28.2106 34.5078L27.9809 34.293L27.7512 34.0781L27.5222 33.8639L27.2929 33.6494L27.0636 33.4349L26.8342 33.2204L26.6044 33.0055L26.3747 32.7907L26.1456 32.5763L25.9163 32.3619L25.687 32.1474L25.4576 31.9328L25.2278 31.7179L24.9981 31.503L24.769 31.2887L24.5396 31.0743L24.3103 30.8597L24.0809 30.6452L23.8511 30.4303L23.6214 30.2154L23.5313 30.5134L23.4411 30.8118L23.3509 31.1102L23.2607 31.4086L23.1704 31.7076L23.08 32.0066L22.99 32.3046L22.8999 32.6031L22.8097 32.9015L22.7194 33.2L22.6291 33.4989L22.5387 33.7979L22.4487 34.0959L22.3585 34.3943L22.2684 34.6928L22.1782 34.9912L22.0878 35.2902L21.9975 35.5892L21.9074 35.8872L21.8172 36.1856L21.727 36.484L21.6369 36.7825L21.5464 37.0816L21.4561 37.3805L21.3661 37.6786L21.2759 37.9771L21.1856 38.2755L21.0954 38.5741L21.0051 38.8731L20.9147 39.1721L20.8247 39.4702L20.7345 39.7686L20.6442 40.0671L20.554 40.3657L20.4637 40.6647L20.3733 40.9637L20.2982 40.6613L20.2231 40.359L20.1481 40.0566L20.0729 39.7541L19.9978 39.4512L19.9225 39.1483L19.8474 38.846L19.7723 38.5436L19.6973 38.2413L19.6222 37.9388L19.547 37.6359L19.4717 37.3329L19.3966 37.0305L19.3215 36.7282L19.2465 36.4258L19.1714 36.1234L19.0962 35.8204L19.0209 35.5175L18.9459 35.2151L18.8707 34.9127L18.7957 34.6104L18.7206 34.3079L18.6454 34.005L18.5701 33.7021L18.495 33.3996L18.4199 33.0972L18.3449 32.7948L18.2697 32.4923L18.1945 32.1893L18.1192 31.8863L18.0441 31.5839L17.969 31.2815L17.894 30.9791L17.8188 30.6765L17.7436 30.3735L17.6684 30.0706L17.4289 30.2734L17.1892 30.4764L16.9494 30.6795L16.7095 30.8825L16.4693 31.086L16.2291 31.2894L15.9898 31.4921L15.7501 31.6951L15.5104 31.8981L15.2707 32.1012L15.0304 32.3046L14.7903 32.508L14.5509 32.7108L14.3111 32.9137L14.0713 33.1169L13.8315 33.3199L13.5912 33.5234L13.351 33.7268L13.1115 33.9297L12.8718 34.1327L12.632 34.3358L12.3921 34.5389L12.1519 34.7424L11.9116 34.9459L11.6721 35.1487L11.4323 35.3517L11.1925 35.5549L10.9526 35.758L10.7123 35.9615L10.472 36.165L10.2325 36.3679L9.99269 36.5709L9.7529 36.774L9.51303 36.9772L9.27273 37.1806L9.03243 37.3841L9.13523 37.0902L9.2382 36.7958L9.34109 36.5014L9.44407 36.2069L9.54721 35.912L9.65027 35.6171L9.75308 35.3231L9.85605 35.0287L9.95894 34.7343L10.0619 34.4398L10.1651 34.1449L10.2682 33.8499L10.371 33.5559L10.4739 33.2615L10.5769 32.9672L10.6798 32.6727L10.7829 32.3778L10.886 32.0828L10.9889 31.7888L11.0917 31.4944L11.1947 31.2001L11.2977 30.9055L11.4008 30.6106L11.5039 30.3156L11.6068 30.0216L11.7097 29.7272L11.8126 29.4327L11.9156 29.1382L12.0188 28.8432L12.1219 28.5482L12.2247 28.2542L12.3277 27.9597L12.4307 27.6653L12.5336 27.3707L12.6368 27.0758L12.7399 26.7808L12.4267 26.824L12.1136 26.8672L11.8004 26.9104L11.4871 26.9536L11.1734 26.9969L10.8597 27.0402L10.5465 27.0835L10.2334 27.1267L9.9202 27.1699L9.60699 27.2131L9.29326 27.2564L8.97952 27.2996L8.66631 27.3429L8.35318 27.3861L8.04004 27.4293L7.72683 27.4725L7.41301 27.5158L7.09928 27.5591L6.78606 27.6024L6.47293 27.6456L6.1598 27.6888L5.84658 27.732L5.53276 27.7753L5.21903 27.8185L4.90573 27.8618L4.5926 27.905L4.27938 27.9482L3.96608 27.9915L3.65226 28.0348L3.33853 28.0781L3.02522 28.1213L2.71209 28.1645L2.39888 28.2078L2.08557 28.251L1.77176 28.2942L1.45794 28.3375L1.70588 28.1449L1.95417 27.9521L2.20246 27.7592L2.45084 27.5663L2.69955 27.373L2.94827 27.1798L3.19622 26.9872L3.44442 26.7944L3.69262 26.6016L3.94091 26.4087L4.18955 26.2155L4.43826 26.0224L4.68621 25.8297L4.9345 25.6369L5.18279 25.4439L5.43116 25.251L5.67997 25.0578L5.92869 24.8645L6.17672 24.6719L6.42501 24.4789L6.67329 24.286L6.92167 24.0931L7.17047 23.8999L7.41919 23.7066L7.66722 23.5139L7.9156 23.321L8.16389 23.128L8.41235 22.9351L8.66115 22.7418L8.90996 22.5485L9.15799 22.3559L9.40628 22.1629L9.65465 21.97L9.90311 21.777L10.1519 21.5838L10.4007 21.3904L10.1138 21.2602L9.82659 21.13L9.5394 20.9996L9.25203 20.8693L8.96424 20.7387L8.67653 20.6081L8.38959 20.4779L8.1024 20.3476L7.81512 20.2173L7.52784 20.0869L7.24004 19.9563L6.95224 19.8258L6.66539 19.6956L6.3782 19.5653L6.09092 19.435L5.80364 19.3046L5.51584 19.174L5.22805 19.0435L4.94111 18.9133L4.65392 18.7829L4.36664 18.6527L4.07936 18.5222L3.79156 18.3917L3.50377 18.2611L3.21683 18.1309L2.92955 18.0005L2.64227 17.8702L2.3549 17.7398L2.06702 17.6092L1.77923 17.4786L1.49229 17.3484L1.20501 17.2181L0.91773 17.0878L0.630364 16.9573L0.342483 16.8267L0.0546875 16.6961L0.36945 16.666L0.684127 16.6359L0.99889 16.6058L1.31374 16.5756L1.62902 16.5455L1.94429 16.5153L2.25914 16.4852L2.57382 16.455L2.88858 16.4249L3.20335 16.3948L3.51871 16.3646L3.83399 16.3345L4.14884 16.3043L4.46351 16.2742L4.77819 16.2441L5.09304 16.2139L5.4084 16.1837L5.72368 16.1535L6.03844 16.1234L6.35321 16.0934L6.66797 16.0632L6.98273 16.0331L7.2981 16.0029L7.61346 15.9727L7.92831 15.9426L8.24299 15.9124L8.55784 15.8823L8.87268 15.8522L9.18805 15.822L9.50341 15.7918L9.81826 15.7617L10.133 15.7316L10.4478 15.7014L10.7627 15.6713L11.0781 15.6412L11.3934 15.611L11.2236 15.3487L11.0536 15.0863L10.8835 14.8238L10.7134 14.5612L10.543 14.2982L10.3726 14.0353L10.2028 13.7731L10.0329 13.5107L9.86283 13.2483L9.69278 12.9858L9.52248 12.7229L9.35209 12.46L9.18229 12.1977L9.01224 11.9353L8.84211 11.6728L8.67206 11.4102L8.50167 11.1471L8.33128 10.8841L8.1614 10.622L7.99135 10.3594L7.82121 10.0969L7.65108 9.83431L7.48069 9.57123L7.31029 9.30823L7.14042 9.04599L6.97037 8.78342L6.80023 8.52084L6.6301 8.25827L6.45962 7.99519L6.28922 7.7321L6.11935 7.46987L5.94921 7.20729L5.77916 6.94471L5.60903 6.68214L5.43855 6.41906L5.26816 6.15597L5.54917 6.298L5.83052 6.44019L6.11187 6.5823L6.39331 6.72458L6.67527 6.86702L6.95714 7.00947L7.23824 7.15149L7.5195 7.2936L7.80094 7.4358L8.08238 7.57807L8.36425 7.72052L8.64621 7.86297L8.92722 8.00499L9.20857 8.1471L9.48993 8.28929L9.77137 8.43157L10.0533 8.57402L10.3352 8.71647L10.6163 8.85841L10.8976 9.0006L11.179 9.14279L11.4604 9.28507L11.7424 9.42752L12.0243 9.56996L12.3054 9.71199L12.5868 9.85418L12.8682 9.99637L13.1498 10.1387L13.4317 10.2811L13.7137 10.4236L13.9948 10.5657L14.2761 10.7078L14.5576 10.85L14.8391 10.9922L15.121 11.1348L15.403 11.2772L15.4041 10.9659L15.4052 10.6547L15.4064 10.3434L15.4075 10.0321L15.4086 9.72027L15.4097 9.40841L15.4108 9.09714L15.4119 8.78587L15.4131 8.4746L15.4142 8.16325L15.4153 7.85139L15.4164 7.53953L15.4175 7.22826L15.4186 6.91707L15.4197 6.6058L15.4208 6.29445L15.4219 5.98259L15.423 5.67072L15.4241 5.35945L15.4252 5.04819L15.4264 4.73692L15.4275 4.42556L15.4286 4.1137L15.4297 3.80184L15.4308 3.49049L15.4319 3.17922L15.4331 2.86786L15.4342 2.55651L15.4353 2.24456L15.4364 1.9327L15.4375 1.62126L15.4386 1.30999L15.4398 0.998722L15.4409 0.687284L15.442 0.375422L15.4431 0.0634766L15.6016 0.332477L15.7601 0.601816L15.9187 0.871154L16.0774 1.14058L16.2363 1.41051L16.3952 1.68035L16.5536 1.94927L16.7122 2.21852L16.8708 2.48778L17.0294 2.75712L17.1883 3.02696L17.3471 3.29672L17.5055 3.56572L17.6641 3.83515L17.8228 4.10449L17.9815 4.37391L18.1404 4.64384L18.2993 4.91368L18.4577 5.18277L18.6163 5.45211L18.775 5.72145L18.9337 5.99095L19.0926 6.2608L19.2515 6.53073L19.41 6.79982L19.5686 7.06924L19.7273 7.33866L19.886 7.60809L20.0449 7.87802L20.2039 8.14795L20.3623 8.41703L20.521 8.68645L20.6797 8.95588L20.8384 9.22539L20.9973 9.49532L21.1562 9.76525L21.328 9.50428L21.4999 9.24297L21.6718 8.98166L21.8438 8.72027L22.0161 8.45846L22.1883 8.19664L22.36 7.93576L22.5318 7.67453L22.7038 7.41331L22.8757 7.152L23.0479 6.89019L23.2201 6.62846L23.3919 6.36749L23.5638 6.10618L23.7358 5.84487L23.9077 5.58348L24.08 5.32158L24.2523 5.05977L24.424 4.7988L24.596 4.53749L24.7679 4.2761L24.9399 4.01471L25.1122 3.75281L25.2845 3.49099L25.4562 3.22994L25.6282 2.96863L25.8001 2.70724L25.9722 2.44576L26.1444 2.18386L26.3168 1.92205L26.4886 1.66091L26.6605 1.3996L26.8325 1.13821L27.0045 0.876734L27.1768 0.614919L27.3491 0.35302Z" stroke="#231F20" stroke-linecap="square" stroke-linejoin="bevel"/>
</g>
<defs>
<clipPath id="clip0_1_44672">
<rect width="41.9318" height="41" fill="white"/>
</clipPath>
</defs>
</svg>
