<svg width="69" height="69" viewBox="0 0 69 69" fill="none" xmlns="http://www.w3.org/2000/svg">
<g clip-path="url(#clip0_1_45173)">
<path d="M66.8518 19.5657L48.3513 33.0135L68.7256 43.4055L45.9092 41.8152L54.8371 62.8723L38.3812 46.988L31.6849 68.8576L29.2893 46.1116L10.1021 58.5606L22.8875 39.596L0.1875 36.7994L22.1719 30.49L6.58021 13.7562L27.4768 23.0545L26.2893 0.21344L36.3203 20.7681L50.0924 2.5076L44.5641 24.7013L66.8518 19.5657Z" fill="#FFB800"/>
<path d="M64.1628 20.5741C64.1628 20.7817 63.9945 20.95 63.7869 20.95C63.5793 20.95 63.411 20.7817 63.411 20.5741C63.411 20.4833 63.4473 20.4032 63.5008 20.3383L63.7869 20.2725L63.9452 20.2358C64.073 20.2961 64.1628 20.4236 64.1628 20.5741ZM66.0801 19.7441L65.4875 19.8806C65.5536 19.9387 65.638 19.977 65.733 19.977C65.8897 19.977 66.0236 19.8806 66.0801 19.7441ZM65.733 42.5787C65.5254 42.5787 65.3571 42.747 65.3571 42.9546C65.3571 43.0392 65.3902 43.1132 65.4372 43.1761L66.0022 43.2154C66.0677 43.1476 66.1089 43.0561 66.1089 42.9546C66.1089 42.747 65.9406 42.5787 65.733 42.5787ZM63.7869 41.6056C63.5793 41.6056 63.411 41.7739 63.411 41.9815C63.411 42.1891 63.5793 42.3575 63.7869 42.3575C63.9945 42.3575 64.1628 42.1891 64.1628 41.9815C64.1628 41.7739 63.9945 41.6056 63.7869 41.6056ZM61.8408 21.1713C61.6332 21.1713 61.4648 21.3396 61.4648 21.5472C61.4648 21.7548 61.6332 21.9231 61.8408 21.9231C62.0483 21.9231 62.2167 21.7548 62.2167 21.5472C62.2167 21.3396 62.0483 21.1713 61.8408 21.1713ZM61.8408 23.1174C61.6374 23.1174 61.4739 23.2796 61.4671 23.4813L61.9403 23.1375C61.9079 23.1284 61.8761 23.1174 61.8408 23.1174ZM59.8946 22.1443C59.687 22.1443 59.5187 22.3127 59.5187 22.5202C59.5187 22.7278 59.687 22.8962 59.8946 22.8962C60.1022 22.8962 60.2706 22.7278 60.2706 22.5202C60.2706 22.3127 60.1022 22.1443 59.8946 22.1443ZM61.8408 40.6325C61.6332 40.6325 61.4648 40.8009 61.4648 41.0085C61.4648 41.2161 61.6332 41.3844 61.8408 41.3844C62.0483 41.3844 62.2167 41.2161 62.2167 41.0085C62.2167 40.8009 62.0483 40.6325 61.8408 40.6325ZM59.8946 39.6595C59.687 39.6595 59.5187 39.8278 59.5187 40.0354C59.5187 40.243 59.687 40.4113 59.8946 40.4113C60.1022 40.4113 60.2706 40.243 60.2706 40.0354C60.2706 39.8278 60.1022 39.6595 59.8946 39.6595ZM61.8408 42.5787C61.6526 42.5787 61.5034 42.7194 61.4759 42.8998L62.216 42.9514C62.2141 42.7454 62.0471 42.5787 61.8408 42.5787ZM59.8946 41.6056C59.687 41.6056 59.5187 41.7739 59.5187 41.9815C59.5187 42.1891 59.687 42.3575 59.8946 42.3575C60.1022 42.3575 60.2706 42.1891 60.2706 41.9815C60.2706 41.7739 60.1022 41.6056 59.8946 41.6056ZM58.2547 21.5472L57.6044 21.697C57.6624 21.83 57.7941 21.9231 57.9485 21.9231C58.1561 21.9231 58.3244 21.7548 58.3244 21.5472C58.3244 21.5417 58.3215 21.5371 58.3212 21.5319L58.2547 21.5472ZM59.8946 24.6247L60.2501 24.3661C60.2054 24.2085 60.0665 24.0908 59.8946 24.0908C59.687 24.0908 59.5187 24.2591 59.5187 24.4667C59.5187 24.5971 59.5891 24.7064 59.69 24.7739L59.8946 24.6247ZM57.9485 25.0635C57.7409 25.0635 57.5726 25.2318 57.5726 25.4394C57.5726 25.647 57.7409 25.8154 57.9485 25.8154C58.1561 25.8154 58.3244 25.647 58.3244 25.4394C58.3244 25.2318 58.1561 25.0635 57.9485 25.0635ZM56.0024 24.0904C55.7948 24.0904 55.6264 24.2588 55.6264 24.4664C55.6264 24.674 55.7948 24.8423 56.0024 24.8423C56.21 24.8423 56.3783 24.674 56.3783 24.4664C56.3783 24.2588 56.21 24.0904 56.0024 24.0904ZM57.9485 23.1174C57.7409 23.1174 57.5726 23.2857 57.5726 23.4933C57.5726 23.7009 57.7409 23.8692 57.9485 23.8692C58.1561 23.8692 58.3244 23.7009 58.3244 23.4933C58.3244 23.2857 58.1561 23.1174 57.9485 23.1174ZM56.0024 22.1443C55.7948 22.1443 55.6264 22.3127 55.6264 22.5202C55.6264 22.7278 55.7948 22.8962 56.0024 22.8962C56.21 22.8962 56.3783 22.7278 56.3783 22.5202C56.3783 22.3127 56.21 22.1443 56.0024 22.1443ZM56.0024 26.0366C55.7948 26.0366 55.6264 26.2049 55.6264 26.4125C55.6264 26.6201 55.7948 26.7884 56.0024 26.7884C56.21 26.7884 56.3783 26.6201 56.3783 26.4125C56.3783 26.2049 56.21 26.0366 56.0024 26.0366ZM57.9485 40.6325C57.7409 40.6325 57.5726 40.8009 57.5726 41.0085C57.5726 41.2161 57.7409 41.3844 57.9485 41.3844C58.1561 41.3844 58.3244 41.2161 58.3244 41.0085C58.3244 40.8009 58.1561 40.6325 57.9485 40.6325ZM56.0024 39.6595C55.7948 39.6595 55.6264 39.8278 55.6264 40.0354C55.6264 40.243 55.7948 40.4113 56.0024 40.4113C56.21 40.4113 56.3783 40.243 56.3783 40.0354C56.3783 39.8278 56.21 39.6595 56.0024 39.6595ZM57.9485 38.6864C57.7409 38.6864 57.5726 38.8547 57.5726 39.0623C57.5726 39.2699 57.7409 39.4383 57.9485 39.4383C58.1561 39.4383 58.3244 39.2699 58.3244 39.0623C58.3244 38.8547 58.1561 38.6864 57.9485 38.6864ZM56.0024 37.7133C55.7948 37.7133 55.6264 37.8817 55.6264 38.0893C55.6264 38.2969 55.7948 38.4652 56.0024 38.4652C56.21 38.4652 56.3783 38.2969 56.3783 38.0893C56.3783 37.8817 56.21 37.7133 56.0024 37.7133ZM57.7542 42.6406L58.1872 42.6708C58.1217 42.6156 58.0403 42.5787 57.9482 42.5787C57.8758 42.5787 57.8116 42.6046 57.7542 42.6406ZM56.0024 41.6056C55.7948 41.6056 55.6264 41.7739 55.6264 41.9815C55.6264 42.1891 55.7948 42.3575 56.0024 42.3575C56.21 42.3575 56.3783 42.1891 56.3783 41.9815C56.3783 41.7739 56.21 41.6056 56.0024 41.6056ZM54.0562 25.0635C53.8487 25.0635 53.6803 25.2318 53.6803 25.4394C53.6803 25.647 53.8487 25.8154 54.0562 25.8154C54.2638 25.8154 54.4322 25.647 54.4322 25.4394C54.4322 25.2318 54.2638 25.0635 54.0562 25.0635ZM52.1101 24.0904C51.9025 24.0904 51.7342 24.2588 51.7342 24.4664C51.7342 24.674 51.9025 24.8423 52.1101 24.8423C52.3177 24.8423 52.486 24.674 52.486 24.4664C52.486 24.2588 52.3177 24.0904 52.1101 24.0904ZM54.0562 23.1174C53.8487 23.1174 53.6803 23.2857 53.6803 23.4933C53.6803 23.7009 53.8487 23.8692 54.0562 23.8692C54.2638 23.8692 54.4322 23.7009 54.4322 23.4933C54.4322 23.2857 54.2638 23.1174 54.0562 23.1174ZM52.1101 27.9827C51.9025 27.9827 51.7342 28.151 51.7342 28.3586C51.7342 28.5662 51.9025 28.7346 52.1101 28.7346C52.3177 28.7346 52.486 28.5662 52.486 28.3586C52.486 28.151 52.3177 27.9827 52.1101 27.9827ZM54.0562 27.0096C53.8487 27.0096 53.6803 27.178 53.6803 27.3856C53.6803 27.5931 53.8487 27.7615 54.0562 27.7615C54.2638 27.7615 54.4322 27.5931 54.4322 27.3856C54.4322 27.178 54.2638 27.0096 54.0562 27.0096ZM52.1101 26.0366C51.9025 26.0366 51.7342 26.2049 51.7342 26.4125C51.7342 26.6201 51.9025 26.7884 52.1101 26.7884C52.3177 26.7884 52.486 26.6201 52.486 26.4125C52.486 26.2049 52.3177 26.0366 52.1101 26.0366ZM52.3988 30.0732C52.33 29.9872 52.2285 29.9292 52.1101 29.9292C51.9025 29.9292 51.7342 30.0975 51.7342 30.3051C51.7342 30.3813 51.7624 30.4481 51.8017 30.5075L52.1101 30.283L52.3988 30.0732ZM54.0562 36.7403C53.8487 36.7403 53.6803 36.9086 53.6803 37.1162C53.6803 37.3238 53.8487 37.4921 54.0562 37.4921C54.2638 37.4921 54.4322 37.3238 54.4322 37.1162C54.4322 36.9086 54.2638 36.7403 54.0562 36.7403ZM52.1101 35.7672C51.9025 35.7672 51.7342 35.9356 51.7342 36.1431C51.7342 36.3507 51.9025 36.5191 52.1101 36.5191C52.3177 36.5191 52.486 36.3507 52.486 36.1431C52.486 35.9356 52.3177 35.7672 52.1101 35.7672ZM54.0562 40.6325C53.8487 40.6325 53.6803 40.8009 53.6803 41.0085C53.6803 41.2161 53.8487 41.3844 54.0562 41.3844C54.2638 41.3844 54.4322 41.2161 54.4322 41.0085C54.4322 40.8009 54.2638 40.6325 54.0562 40.6325ZM52.1101 39.6595C51.9025 39.6595 51.7342 39.8278 51.7342 40.0354C51.7342 40.243 51.9025 40.4113 52.1101 40.4113C52.3177 40.4113 52.486 40.243 52.486 40.0354C52.486 39.8278 52.3177 39.6595 52.1101 39.6595ZM54.0562 38.6864C53.8487 38.6864 53.6803 38.8547 53.6803 39.0623C53.6803 39.2699 53.8487 39.4383 54.0562 39.4383C54.2638 39.4383 54.4322 39.2699 54.4322 39.0623C54.4322 38.8547 54.2638 38.6864 54.0562 38.6864ZM52.1101 37.7133C51.9025 37.7133 51.7342 37.8817 51.7342 38.0893C51.7342 38.2969 51.9025 38.4652 52.1101 38.4652C52.3177 38.4652 52.486 38.2969 52.486 38.0893C52.486 37.8817 52.3177 37.7133 52.1101 37.7133ZM52.1101 41.6056C51.9025 41.6056 51.7342 41.7739 51.7342 41.9815C51.7342 42.0769 51.7725 42.1612 51.8308 42.2277L52.1101 42.2472L52.3514 42.264C52.4322 42.195 52.486 42.0964 52.486 41.9819C52.486 41.7739 52.3177 41.6056 52.1101 41.6056ZM53.74 60.2787C53.7053 60.3355 53.6803 60.3984 53.6803 60.4698C53.6803 60.6482 53.8068 60.7902 53.9735 60.8291L53.8211 60.4698L53.74 60.2787ZM52.1101 59.1208C51.9025 59.1208 51.7342 59.2891 51.7342 59.4967C51.7342 59.7043 51.9025 59.8726 52.1101 59.8726C52.3177 59.8726 52.486 59.7043 52.486 59.4967C52.486 59.2891 52.3177 59.1208 52.1101 59.1208ZM52.1101 57.1746C51.9025 57.1746 51.7342 57.343 51.7342 57.5506C51.7342 57.7582 51.9025 57.9265 52.1101 57.9265C52.3177 57.9265 52.486 57.7582 52.486 57.5506C52.486 57.343 52.3177 57.1746 52.1101 57.1746ZM54.0562 62.04C54.0332 62.04 54.0131 62.049 53.9911 62.0533L54.4215 62.4688C54.4241 62.4509 54.4322 62.4347 54.4322 62.4159C54.4322 62.2083 54.2638 62.04 54.0562 62.04ZM48.4358 4.70732L48.2175 4.99665L47.9908 5.29733C48.0544 5.34695 48.1306 5.38101 48.2175 5.38101C48.4251 5.38101 48.5935 5.21267 48.5935 5.00508C48.5938 4.88053 48.5292 4.77576 48.4358 4.70732ZM48.2179 6.57528C48.0103 6.57528 47.8419 6.74362 47.8419 6.95121C47.8419 7.1588 48.0103 7.32714 48.2179 7.32714C48.4254 7.32714 48.5938 7.1588 48.5938 6.95121C48.5938 6.74362 48.4254 6.57528 48.2179 6.57528ZM50.164 25.0635C49.9564 25.0635 49.7881 25.2318 49.7881 25.4394C49.7881 25.647 49.9564 25.8154 50.164 25.8154C50.3716 25.8154 50.5399 25.647 50.5399 25.4394C50.5399 25.2318 50.3716 25.0635 50.164 25.0635ZM48.2179 24.0904C48.0103 24.0904 47.8419 24.2588 47.8419 24.4664C47.8419 24.674 48.0103 24.8423 48.2179 24.8423C48.4254 24.8423 48.5938 24.674 48.5938 24.4664C48.5938 24.2588 48.4254 24.0904 48.2179 24.0904ZM49.789 23.4978C49.7916 23.7032 49.958 23.8692 50.164 23.8692C50.3716 23.8692 50.5399 23.7009 50.5399 23.4933C50.5399 23.4356 50.5247 23.3827 50.5013 23.3337L49.789 23.4978ZM50.164 28.9558C49.9564 28.9558 49.7881 29.1241 49.7881 29.3317C49.7881 29.5393 49.9564 29.7076 50.164 29.7076C50.3716 29.7076 50.5399 29.5393 50.5399 29.3317C50.5399 29.1241 50.3716 28.9558 50.164 28.9558ZM48.2179 27.9827C48.0103 27.9827 47.8419 28.151 47.8419 28.3586C47.8419 28.5662 48.0103 28.7346 48.2179 28.7346C48.4254 28.7346 48.5938 28.5662 48.5938 28.3586C48.5938 28.151 48.4254 27.9827 48.2179 27.9827ZM50.164 27.0096C49.9564 27.0096 49.7881 27.178 49.7881 27.3856C49.7881 27.5931 49.9564 27.7615 50.164 27.7615C50.3716 27.7615 50.5399 27.5931 50.5399 27.3856C50.5399 27.178 50.3716 27.0096 50.164 27.0096ZM48.2179 26.0366C48.0103 26.0366 47.8419 26.2049 47.8419 26.4125C47.8419 26.6201 48.0103 26.7884 48.2179 26.7884C48.4254 26.7884 48.5938 26.6201 48.5938 26.4125C48.5938 26.2049 48.4254 26.0366 48.2179 26.0366ZM48.2179 31.875C48.0103 31.875 47.8419 32.0433 47.8419 32.2509C47.8419 32.4585 48.0103 32.6268 48.2179 32.6268C48.4254 32.6268 48.5938 32.4585 48.5938 32.2509C48.5938 32.0433 48.4254 31.875 48.2179 31.875ZM50.164 30.9019C49.9564 30.9019 49.7881 31.0702 49.7881 31.2778C49.7881 31.4854 49.9564 31.6537 50.164 31.6537C50.1935 31.6537 50.2198 31.6434 50.2473 31.6369L50.4819 31.4663C50.5153 31.4102 50.5399 31.3479 50.5399 31.2775C50.5399 31.0702 50.3716 30.9019 50.164 30.9019ZM48.2179 29.9288C48.0103 29.9288 47.8419 30.0972 47.8419 30.3048C47.8419 30.5123 48.0103 30.6807 48.2179 30.6807C48.4254 30.6807 48.5938 30.5123 48.5938 30.3048C48.5938 30.0972 48.4254 29.9288 48.2179 29.9288ZM50.164 36.7403C49.9564 36.7403 49.7881 36.9086 49.7881 37.1162C49.7881 37.3238 49.9564 37.4921 50.164 37.4921C50.3716 37.4921 50.5399 37.3238 50.5399 37.1162C50.5399 36.9086 50.3716 36.7403 50.164 36.7403ZM48.2179 35.7672C48.0103 35.7672 47.8419 35.9356 47.8419 36.1431C47.8419 36.3507 48.0103 36.5191 48.2179 36.5191C48.4254 36.5191 48.5938 36.3507 48.5938 36.1431C48.5938 35.9356 48.4254 35.7672 48.2179 35.7672ZM50.164 34.7942C49.9564 34.7942 49.7881 34.9625 49.7881 35.1701C49.7881 35.3777 49.9564 35.546 50.164 35.546C50.3716 35.546 50.5399 35.3777 50.5399 35.1701C50.5399 34.9625 50.3716 34.7942 50.164 34.7942ZM48.2179 33.8211C48.0103 33.8211 47.8419 33.9894 47.8419 34.197C47.8419 34.4046 48.0103 34.5729 48.2179 34.5729C48.4254 34.5729 48.5938 34.4046 48.5938 34.197C48.5938 33.9894 48.4254 33.8211 48.2179 33.8211ZM50.164 40.6325C49.9564 40.6325 49.7881 40.8009 49.7881 41.0085C49.7881 41.2161 49.9564 41.3844 50.164 41.3844C50.3716 41.3844 50.5399 41.2161 50.5399 41.0085C50.5399 40.8009 50.3716 40.6325 50.164 40.6325ZM48.2179 39.6595C48.0103 39.6595 47.8419 39.8278 47.8419 40.0354C47.8419 40.243 48.0103 40.4113 48.2179 40.4113C48.4254 40.4113 48.5938 40.243 48.5938 40.0354C48.5938 39.8278 48.4254 39.6595 48.2179 39.6595ZM50.164 38.6864C49.9564 38.6864 49.7881 38.8547 49.7881 39.0623C49.7881 39.2699 49.9564 39.4383 50.164 39.4383C50.3716 39.4383 50.5399 39.2699 50.5399 39.0623C50.5399 38.8547 50.3716 38.6864 50.164 38.6864ZM48.2179 37.7133C48.0103 37.7133 47.8419 37.8817 47.8419 38.0893C47.8419 38.2969 48.0103 38.4652 48.2179 38.4652C48.4254 38.4652 48.5938 38.2969 48.5938 38.0893C48.5938 37.8817 48.4254 37.7133 48.2179 37.7133ZM48.2179 41.6056C48.0213 41.6056 47.865 41.7581 47.8484 41.9501L48.2179 41.9757L48.5896 42.0016C48.5899 41.9945 48.5938 41.9887 48.5938 41.9815C48.5938 41.7739 48.4254 41.6056 48.2179 41.6056ZM48.2179 51.3363C48.0103 51.3363 47.8419 51.5046 47.8419 51.7122C47.8419 51.9198 48.0103 52.0881 48.2179 52.0881C48.4254 52.0881 48.5938 51.9198 48.5938 51.7122C48.5938 51.5046 48.4254 51.3363 48.2179 51.3363ZM48.2179 49.3901C48.0103 49.3901 47.8419 49.5585 47.8419 49.766C47.8419 49.9736 48.0103 50.142 48.2179 50.142C48.4254 50.142 48.5938 49.9736 48.5938 49.766C48.5938 49.5585 48.4254 49.3901 48.2179 49.3901ZM51.742 55.5658C51.7407 55.5791 51.7342 55.5908 51.7342 55.6044C51.7342 55.7244 51.7942 55.8266 51.8818 55.8954L51.742 55.5658ZM50.164 56.2016C49.9564 56.2016 49.7881 56.3699 49.7881 56.5775C49.7881 56.7851 49.9564 56.9534 50.164 56.9534C50.3716 56.9534 50.5399 56.7851 50.5399 56.5775C50.5399 56.3699 50.3716 56.2016 50.164 56.2016ZM48.2179 55.2285C48.0103 55.2285 47.8419 55.3968 47.8419 55.6044C47.8419 55.812 48.0103 55.9804 48.2179 55.9804C48.4254 55.9804 48.5938 55.812 48.5938 55.6044C48.5938 55.3968 48.4254 55.2285 48.2179 55.2285ZM50.164 54.2554C49.9564 54.2554 49.7881 54.4238 49.7881 54.6314C49.7881 54.839 49.9564 55.0073 50.164 55.0073C50.3716 55.0073 50.5399 54.839 50.5399 54.6314C50.5399 54.4238 50.3716 54.2554 50.164 54.2554ZM48.2179 53.2824C48.0103 53.2824 47.8419 53.4507 47.8419 53.6583C47.8419 53.8659 48.0103 54.0342 48.2179 54.0342C48.4254 54.0342 48.5938 53.8659 48.5938 53.6583C48.5938 53.4507 48.4254 53.2824 48.2179 53.2824ZM50.164 53.0612C50.3605 53.0612 50.5172 52.9084 50.5338 52.7161L50.5208 52.6852L50.3995 52.3988C50.3346 52.3456 50.2548 52.3093 50.1643 52.3093C49.9567 52.3093 49.7884 52.4777 49.7884 52.6852C49.7881 52.8928 49.9564 53.0612 50.164 53.0612ZM50.164 58.1477C50.1014 58.1477 50.0449 58.1668 49.9931 58.1938L50.501 58.6839C50.5243 58.6349 50.5399 58.5814 50.5399 58.5233C50.5399 58.316 50.3716 58.1477 50.164 58.1477ZM48.2179 9.27327C48.2973 9.27327 48.3671 9.2431 48.4277 9.20094L48.5464 8.72446C48.4835 8.60542 48.3622 8.52141 48.2179 8.52141C48.0103 8.52141 47.8419 8.68975 47.8419 8.89734C47.8419 9.10493 48.0103 9.27327 48.2179 9.27327ZM46.2717 9.49448C46.0641 9.49448 45.8958 9.66282 45.8958 9.8704C45.8958 10.078 46.0641 10.2463 46.2717 10.2463C46.4793 10.2463 46.6477 10.078 46.6477 9.8704C46.6477 9.66282 46.4793 9.49448 46.2717 9.49448ZM46.2902 7.55224L45.9198 8.04364C45.9701 8.19187 46.1063 8.30053 46.2717 8.30053C46.4793 8.30053 46.6477 8.13219 46.6477 7.9246C46.6477 7.72318 46.4887 7.5623 46.2902 7.55224ZM46.2717 13.3867C46.0641 13.3867 45.8958 13.5551 45.8958 13.7627C45.8958 13.9702 46.0641 14.1386 46.2717 14.1386C46.4793 14.1386 46.6477 13.9702 46.6477 13.7627C46.6477 13.5551 46.4793 13.3867 46.2717 13.3867ZM44.3256 12.4137C44.118 12.4137 43.9497 12.582 43.9497 12.7896C43.9497 12.9972 44.118 13.1655 44.3256 13.1655C44.5332 13.1655 44.7015 12.9972 44.7015 12.7896C44.7015 12.582 44.5332 12.4137 44.3256 12.4137ZM48.1066 10.4899C47.9542 10.5379 47.8419 10.6751 47.8419 10.8435C47.8419 10.9476 47.8841 11.0413 47.9522 11.1094L48.1066 10.4899ZM46.2717 11.4406C46.0641 11.4406 45.8958 11.6089 45.8958 11.8165C45.8958 12.0241 46.0641 12.1925 46.2717 12.1925C46.4793 12.1925 46.6477 12.0241 46.6477 11.8165C46.6477 11.6089 46.4793 11.4406 46.2717 11.4406ZM44.3256 10.4675C44.118 10.4675 43.9497 10.6359 43.9497 10.8435C43.9497 11.0511 44.118 11.2194 44.3256 11.2194C44.5332 11.2194 44.7015 11.0511 44.7015 10.8435C44.7015 10.6359 44.5332 10.4675 44.3256 10.4675ZM44.3256 16.3059C44.118 16.3059 43.9497 16.4743 43.9497 16.6819C43.9497 16.8894 44.118 17.0578 44.3256 17.0578C44.5332 17.0578 44.7015 16.8894 44.7015 16.6819C44.7015 16.4743 44.5332 16.3059 44.3256 16.3059ZM46.2717 15.3329C46.0641 15.3329 45.8958 15.5012 45.8958 15.7088C45.8958 15.9164 46.0641 16.0847 46.2717 16.0847C46.4793 16.0847 46.6477 15.9164 46.6477 15.7088C46.6477 15.5012 46.4793 15.3329 46.2717 15.3329ZM44.3256 14.3598C44.118 14.3598 43.9497 14.5281 43.9497 14.7357C43.9497 14.9433 44.118 15.1117 44.3256 15.1117C44.5332 15.1117 44.7015 14.9433 44.7015 14.7357C44.7015 14.5281 44.5332 14.3598 44.3256 14.3598ZM44.3256 20.1982C44.118 20.1982 43.9497 20.3665 43.9497 20.5741C43.9497 20.7817 44.118 20.95 44.3256 20.95C44.5332 20.95 44.7015 20.7817 44.7015 20.5741C44.7015 20.3665 44.5332 20.1982 44.3256 20.1982ZM44.3256 18.2521C44.118 18.2521 43.9497 18.4204 43.9497 18.628C43.9497 18.8356 44.118 19.0039 44.3256 19.0039C44.5332 19.0039 44.7015 18.8356 44.7015 18.628C44.7015 18.4204 44.5332 18.2521 44.3256 18.2521ZM46.3217 17.6549L46.4083 17.3066C46.3658 17.2897 46.3201 17.279 46.2714 17.279C46.0638 17.279 45.8955 17.4473 45.8955 17.6549C45.8955 17.8479 46.0427 18.001 46.2299 18.0224L46.3217 17.6549ZM46.2717 25.0635C46.0641 25.0635 45.8958 25.2318 45.8958 25.4394C45.8958 25.647 46.0641 25.8154 46.2717 25.8154C46.4793 25.8154 46.6477 25.647 46.6477 25.4394C46.6477 25.2318 46.4793 25.0635 46.2717 25.0635ZM44.3256 24.0904C44.118 24.0904 43.9497 24.2588 43.9497 24.4664C43.9497 24.674 44.118 24.8423 44.3256 24.8423C44.4482 24.8423 44.552 24.7797 44.6208 24.6889L44.5669 24.7012L44.6646 24.3087C44.6045 24.1806 44.4764 24.0904 44.3256 24.0904ZM44.3256 22.1443C44.118 22.1443 43.9497 22.3127 43.9497 22.5202C43.9497 22.7278 44.118 22.8962 44.3256 22.8962C44.5332 22.8962 44.7015 22.7278 44.7015 22.5202C44.7015 22.3127 44.5332 22.1443 44.3256 22.1443ZM46.2717 28.9558C46.0641 28.9558 45.8958 29.1241 45.8958 29.3317C45.8958 29.5393 46.0641 29.7076 46.2717 29.7076C46.4793 29.7076 46.6477 29.5393 46.6477 29.3317C46.6477 29.1241 46.4793 28.9558 46.2717 28.9558ZM44.3256 27.9827C44.118 27.9827 43.9497 28.151 43.9497 28.3586C43.9497 28.5662 44.118 28.7346 44.3256 28.7346C44.5332 28.7346 44.7015 28.5662 44.7015 28.3586C44.7015 28.151 44.5332 27.9827 44.3256 27.9827ZM46.2717 27.0096C46.0641 27.0096 45.8958 27.178 45.8958 27.3856C45.8958 27.5931 46.0641 27.7615 46.2717 27.7615C46.4793 27.7615 46.6477 27.5931 46.6477 27.3856C46.6477 27.178 46.4793 27.0096 46.2717 27.0096ZM44.3256 26.0366C44.118 26.0366 43.9497 26.2049 43.9497 26.4125C43.9497 26.6201 44.118 26.7884 44.3256 26.7884C44.5332 26.7884 44.7015 26.6201 44.7015 26.4125C44.7015 26.2049 44.5332 26.0366 44.3256 26.0366ZM46.2717 32.848C46.0641 32.848 45.8958 33.0164 45.8958 33.224C45.8958 33.4315 46.0641 33.5999 46.2717 33.5999C46.4793 33.5999 46.6477 33.4315 46.6477 33.224C46.6477 33.0164 46.4793 32.848 46.2717 32.848ZM44.3256 31.875C44.118 31.875 43.9497 32.0433 43.9497 32.2509C43.9497 32.4585 44.118 32.6268 44.3256 32.6268C44.5332 32.6268 44.7015 32.4585 44.7015 32.2509C44.7015 32.0433 44.5332 31.875 44.3256 31.875ZM46.2717 30.9019C46.0641 30.9019 45.8958 31.0702 45.8958 31.2778C45.8958 31.4854 46.0641 31.6537 46.2717 31.6537C46.4793 31.6537 46.6477 31.4854 46.6477 31.2778C46.6477 31.0702 46.4793 30.9019 46.2717 30.9019ZM44.3256 29.9288C44.118 29.9288 43.9497 30.0972 43.9497 30.3048C43.9497 30.5123 44.118 30.6807 44.3256 30.6807C44.5332 30.6807 44.7015 30.5123 44.7015 30.3048C44.7015 30.0972 44.5332 29.9288 44.3256 29.9288ZM46.2717 36.7403C46.0641 36.7403 45.8958 36.9086 45.8958 37.1162C45.8958 37.3238 46.0641 37.4921 46.2717 37.4921C46.4793 37.4921 46.6477 37.3238 46.6477 37.1162C46.6477 36.9086 46.4793 36.7403 46.2717 36.7403ZM44.3256 35.7672C44.118 35.7672 43.9497 35.9356 43.9497 36.1431C43.9497 36.3507 44.118 36.5191 44.3256 36.5191C44.5332 36.5191 44.7015 36.3507 44.7015 36.1431C44.7015 35.9356 44.5332 35.7672 44.3256 35.7672ZM46.2717 34.7942C46.0641 34.7942 45.8958 34.9625 45.8958 35.1701C45.8958 35.3777 46.0641 35.546 46.2717 35.546C46.4793 35.546 46.6477 35.3777 46.6477 35.1701C46.6477 34.9625 46.4793 34.7942 46.2717 34.7942ZM44.3256 33.8211C44.118 33.8211 43.9497 33.9894 43.9497 34.197C43.9497 34.4046 44.118 34.5729 44.3256 34.5729C44.5332 34.5729 44.7015 34.4046 44.7015 34.197C44.7015 33.9894 44.5332 33.8211 44.3256 33.8211ZM46.2717 40.6325C46.0641 40.6325 45.8958 40.8009 45.8958 41.0085C45.8958 41.2161 46.0641 41.3844 46.2717 41.3844C46.4793 41.3844 46.6477 41.2161 46.6477 41.0085C46.6477 40.8009 46.4793 40.6325 46.2717 40.6325ZM44.3256 39.6595C44.118 39.6595 43.9497 39.8278 43.9497 40.0354C43.9497 40.243 44.118 40.4113 44.3256 40.4113C44.5332 40.4113 44.7015 40.243 44.7015 40.0354C44.7015 39.8278 44.5332 39.6595 44.3256 39.6595ZM46.2717 38.6864C46.0641 38.6864 45.8958 38.8547 45.8958 39.0623C45.8958 39.2699 46.0641 39.4383 46.2717 39.4383C46.4793 39.4383 46.6477 39.2699 46.6477 39.0623C46.6477 38.8547 46.4793 38.6864 46.2717 38.6864ZM44.3256 37.7133C44.118 37.7133 43.9497 37.8817 43.9497 38.0893C43.9497 38.2969 44.118 38.4652 44.3256 38.4652C44.5332 38.4652 44.7015 38.2969 44.7015 38.0893C44.7015 37.8817 44.5332 37.7133 44.3256 37.7133ZM46.2717 44.5248C46.0641 44.5248 45.8958 44.6931 45.8958 44.9007C45.8958 45.1083 46.0641 45.2766 46.2717 45.2766C46.4793 45.2766 46.6477 45.1083 46.6477 44.9007C46.6477 44.6931 46.4793 44.5248 46.2717 44.5248ZM44.3256 43.5517C44.118 43.5517 43.9497 43.7201 43.9497 43.9277C43.9497 44.1352 44.118 44.3036 44.3256 44.3036C44.5332 44.3036 44.7015 44.1352 44.7015 43.9277C44.7015 43.7201 44.5332 43.5517 44.3256 43.5517ZM46.2717 43.3305C46.3655 43.3305 46.4485 43.2929 46.5143 43.2361L46.2383 42.5855C46.047 42.603 45.8955 42.7587 45.8955 42.9546C45.8958 43.1622 46.0641 43.3305 46.2717 43.3305ZM44.3256 41.6056C44.118 41.6056 43.9497 41.7739 43.9497 41.9815C43.9497 42.1891 44.118 42.3575 44.3256 42.3575C44.5332 42.3575 44.7015 42.1891 44.7015 41.9815C44.7015 41.7739 44.5332 41.6056 44.3256 41.6056ZM48.2179 48.1958C48.356 48.1958 48.4718 48.1177 48.537 48.0067L48.3061 47.4618C48.2769 47.4547 48.2493 47.444 48.2179 47.444C48.0103 47.444 47.8419 47.6123 47.8419 47.8199C47.8419 48.0275 48.0103 48.1958 48.2179 48.1958ZM46.2717 48.4171C46.0641 48.4171 45.8958 48.5854 45.8958 48.793C45.8958 49.0006 46.0641 49.1689 46.2717 49.1689C46.4793 49.1689 46.6477 49.0006 46.6477 48.793C46.6477 48.5854 46.4793 48.4171 46.2717 48.4171ZM44.3256 47.444C44.118 47.444 43.9497 47.6123 43.9497 47.8199C43.9497 48.0275 44.118 48.1958 44.3256 48.1958C44.5332 48.1958 44.7015 48.0275 44.7015 47.8199C44.7015 47.6123 44.5332 47.444 44.3256 47.444ZM46.2717 46.4709C46.0641 46.4709 45.8958 46.6393 45.8958 46.8469C45.8958 47.0544 46.0641 47.2228 46.2717 47.2228C46.4793 47.2228 46.6477 47.0544 46.6477 46.8469C46.6477 46.6393 46.4793 46.4709 46.2717 46.4709ZM44.3256 45.4979C44.118 45.4979 43.9497 45.6662 43.9497 45.8738C43.9497 46.0814 44.118 46.2497 44.3256 46.2497C44.5332 46.2497 44.7015 46.0814 44.7015 45.8738C44.7015 45.6662 44.5332 45.4979 44.3256 45.4979ZM46.2717 52.3093C46.0641 52.3093 45.8958 52.4777 45.8958 52.6852C45.8958 52.8928 46.0641 53.0612 46.2717 53.0612C46.4793 53.0612 46.6477 52.8928 46.6477 52.6852C46.6477 52.4777 46.4793 52.3093 46.2717 52.3093ZM44.3256 51.3363C44.118 51.3363 43.9497 51.5046 43.9497 51.7122C43.9497 51.9198 44.118 52.0881 44.3256 52.0881C44.5332 52.0881 44.7015 51.9198 44.7015 51.7122C44.7015 51.5046 44.5332 51.3363 44.3256 51.3363ZM46.2717 50.3632C46.0641 50.3632 45.8958 50.5315 45.8958 50.7391C45.8958 50.9467 46.0641 51.115 46.2717 51.115C46.4793 51.115 46.6477 50.9467 46.6477 50.7391C46.6477 50.5315 46.4793 50.3632 46.2717 50.3632ZM44.3256 49.3901C44.118 49.3901 43.9497 49.5585 43.9497 49.766C43.9497 49.9736 44.118 50.142 44.3256 50.142C44.5332 50.142 44.7015 49.9736 44.7015 49.766C44.7015 49.5585 44.5332 49.3901 44.3256 49.3901ZM46.2717 54.2554C46.1731 54.2554 46.0852 54.2953 46.0184 54.3573L46.5536 54.874C46.6104 54.8081 46.648 54.7251 46.648 54.6317C46.6477 54.4238 46.4793 54.2554 46.2717 54.2554ZM42.3795 13.3867C42.1719 13.3867 42.0035 13.5551 42.0035 13.7627C42.0035 13.9702 42.1719 14.1386 42.3795 14.1386C42.5871 14.1386 42.7554 13.9702 42.7554 13.7627C42.7554 13.5551 42.5871 13.3867 42.3795 13.3867ZM42.3795 17.279C42.1719 17.279 42.0035 17.4473 42.0035 17.6549C42.0035 17.8625 42.1719 18.0308 42.3795 18.0308C42.5871 18.0308 42.7554 17.8625 42.7554 17.6549C42.7554 17.4473 42.5871 17.279 42.3795 17.279ZM40.4333 16.3059C40.2258 16.3059 40.0574 16.4743 40.0574 16.6819C40.0574 16.8894 40.2258 17.0578 40.4333 17.0578C40.6409 17.0578 40.8093 16.8894 40.8093 16.6819C40.8093 16.4743 40.6409 16.3059 40.4333 16.3059ZM42.3795 15.3329C42.1719 15.3329 42.0035 15.5012 42.0035 15.7088C42.0035 15.9164 42.1719 16.0847 42.3795 16.0847C42.5871 16.0847 42.7554 15.9164 42.7554 15.7088C42.7554 15.5012 42.5871 15.3329 42.3795 15.3329ZM40.7859 14.8502L40.6435 15.039C40.7103 14.9926 40.7606 14.929 40.7859 14.8502ZM42.3795 21.1713C42.1719 21.1713 42.0035 21.3396 42.0035 21.5472C42.0035 21.7548 42.1719 21.9231 42.3795 21.9231C42.5871 21.9231 42.7554 21.7548 42.7554 21.5472C42.7554 21.3396 42.5871 21.1713 42.3795 21.1713ZM40.4333 20.1982C40.2258 20.1982 40.0574 20.3665 40.0574 20.5741C40.0574 20.7817 40.2258 20.95 40.4333 20.95C40.6409 20.95 40.8093 20.7817 40.8093 20.5741C40.8093 20.3665 40.6409 20.1982 40.4333 20.1982ZM42.3795 19.2251C42.1719 19.2251 42.0035 19.3935 42.0035 19.601C42.0035 19.8086 42.1719 19.977 42.3795 19.977C42.5871 19.977 42.7554 19.8086 42.7554 19.601C42.7554 19.3935 42.5871 19.2251 42.3795 19.2251ZM40.4333 18.2521C40.2258 18.2521 40.0574 18.4204 40.0574 18.628C40.0574 18.8356 40.2258 19.0039 40.4333 19.0039C40.6409 19.0039 40.8093 18.8356 40.8093 18.628C40.8093 18.4204 40.6409 18.2521 40.4333 18.2521ZM42.3795 25.0635C42.1719 25.0635 42.0035 25.2318 42.0035 25.4394C42.0035 25.647 42.1719 25.8154 42.3795 25.8154C42.5871 25.8154 42.7554 25.647 42.7554 25.4394C42.7554 25.2318 42.5871 25.0635 42.3795 25.0635ZM40.4333 24.0904C40.2258 24.0904 40.0574 24.2588 40.0574 24.4664C40.0574 24.674 40.2258 24.8423 40.4333 24.8423C40.6409 24.8423 40.8093 24.674 40.8093 24.4664C40.8093 24.2588 40.6409 24.0904 40.4333 24.0904ZM42.3795 23.1174C42.1719 23.1174 42.0035 23.2857 42.0035 23.4933C42.0035 23.7009 42.1719 23.8692 42.3795 23.8692C42.5871 23.8692 42.7554 23.7009 42.7554 23.4933C42.7554 23.2857 42.5871 23.1174 42.3795 23.1174ZM40.4333 22.1443C40.2258 22.1443 40.0574 22.3127 40.0574 22.5202C40.0574 22.7278 40.2258 22.8962 40.4333 22.8962C40.6409 22.8962 40.8093 22.7278 40.8093 22.5202C40.8093 22.3127 40.6409 22.1443 40.4333 22.1443ZM42.3795 28.9558C42.1719 28.9558 42.0035 29.1241 42.0035 29.3317C42.0035 29.5393 42.1719 29.7076 42.3795 29.7076C42.5871 29.7076 42.7554 29.5393 42.7554 29.3317C42.7554 29.1241 42.5871 28.9558 42.3795 28.9558ZM40.4333 27.9827C40.2258 27.9827 40.0574 28.151 40.0574 28.3586C40.0574 28.5662 40.2258 28.7346 40.4333 28.7346C40.6409 28.7346 40.8093 28.5662 40.8093 28.3586C40.8093 28.151 40.6409 27.9827 40.4333 27.9827ZM42.3795 27.0096C42.1719 27.0096 42.0035 27.178 42.0035 27.3856C42.0035 27.5931 42.1719 27.7615 42.3795 27.7615C42.5871 27.7615 42.7554 27.5931 42.7554 27.3856C42.7554 27.178 42.5871 27.0096 42.3795 27.0096ZM40.4333 26.0366C40.2258 26.0366 40.0574 26.2049 40.0574 26.4125C40.0574 26.6201 40.2258 26.7884 40.4333 26.7884C40.6409 26.7884 40.8093 26.6201 40.8093 26.4125C40.8093 26.2049 40.6409 26.0366 40.4333 26.0366ZM42.3795 32.848C42.1719 32.848 42.0035 33.0164 42.0035 33.224C42.0035 33.4315 42.1719 33.5999 42.3795 33.5999C42.5871 33.5999 42.7554 33.4315 42.7554 33.224C42.7554 33.0164 42.5871 32.848 42.3795 32.848ZM40.4333 31.875C40.2258 31.875 40.0574 32.0433 40.0574 32.2509C40.0574 32.4585 40.2258 32.6268 40.4333 32.6268C40.6409 32.6268 40.8093 32.4585 40.8093 32.2509C40.8093 32.0433 40.6409 31.875 40.4333 31.875ZM42.3795 30.9019C42.1719 30.9019 42.0035 31.0702 42.0035 31.2778C42.0035 31.4854 42.1719 31.6537 42.3795 31.6537C42.5871 31.6537 42.7554 31.4854 42.7554 31.2778C42.7554 31.0702 42.5871 30.9019 42.3795 30.9019ZM40.4333 29.9288C40.2258 29.9288 40.0574 30.0972 40.0574 30.3048C40.0574 30.5123 40.2258 30.6807 40.4333 30.6807C40.6409 30.6807 40.8093 30.5123 40.8093 30.3048C40.8093 30.0972 40.6409 29.9288 40.4333 29.9288ZM42.3795 36.7403C42.1719 36.7403 42.0035 36.9086 42.0035 37.1162C42.0035 37.3238 42.1719 37.4921 42.3795 37.4921C42.5871 37.4921 42.7554 37.3238 42.7554 37.1162C42.7554 36.9086 42.5871 36.7403 42.3795 36.7403ZM40.4333 35.7672C40.2258 35.7672 40.0574 35.9356 40.0574 36.1431C40.0574 36.3507 40.2258 36.5191 40.4333 36.5191C40.6409 36.5191 40.8093 36.3507 40.8093 36.1431C40.8093 35.9356 40.6409 35.7672 40.4333 35.7672ZM42.3795 34.7942C42.1719 34.7942 42.0035 34.9625 42.0035 35.1701C42.0035 35.3777 42.1719 35.546 42.3795 35.546C42.5871 35.546 42.7554 35.3777 42.7554 35.1701C42.7554 34.9625 42.5871 34.7942 42.3795 34.7942ZM40.4333 33.8211C40.2258 33.8211 40.0574 33.9894 40.0574 34.197C40.0574 34.4046 40.2258 34.5729 40.4333 34.5729C40.6409 34.5729 40.8093 34.4046 40.8093 34.197C40.8093 33.9894 40.6409 33.8211 40.4333 33.8211ZM42.3795 40.6325C42.1719 40.6325 42.0035 40.8009 42.0035 41.0085C42.0035 41.2161 42.1719 41.3844 42.3795 41.3844C42.5871 41.3844 42.7554 41.2161 42.7554 41.0085C42.7554 40.8009 42.5871 40.6325 42.3795 40.6325ZM40.4333 39.6595C40.2258 39.6595 40.0574 39.8278 40.0574 40.0354C40.0574 40.243 40.2258 40.4113 40.4333 40.4113C40.6409 40.4113 40.8093 40.243 40.8093 40.0354C40.8093 39.8278 40.6409 39.6595 40.4333 39.6595ZM42.3795 38.6864C42.1719 38.6864 42.0035 38.8547 42.0035 39.0623C42.0035 39.2699 42.1719 39.4383 42.3795 39.4383C42.5871 39.4383 42.7554 39.2699 42.7554 39.0623C42.7554 38.8547 42.5871 38.6864 42.3795 38.6864ZM40.4333 37.7133C40.2258 37.7133 40.0574 37.8817 40.0574 38.0893C40.0574 38.2969 40.2258 38.4652 40.4333 38.4652C40.6409 38.4652 40.8093 38.2969 40.8093 38.0893C40.8093 37.8817 40.6409 37.7133 40.4333 37.7133ZM42.3795 44.5248C42.1719 44.5248 42.0035 44.6931 42.0035 44.9007C42.0035 45.1083 42.1719 45.2766 42.3795 45.2766C42.5871 45.2766 42.7554 45.1083 42.7554 44.9007C42.7554 44.6931 42.5871 44.5248 42.3795 44.5248ZM40.4333 43.5517C40.2258 43.5517 40.0574 43.7201 40.0574 43.9277C40.0574 44.1352 40.2258 44.3036 40.4333 44.3036C40.6409 44.3036 40.8093 44.1352 40.8093 43.9277C40.8093 43.7201 40.6409 43.5517 40.4333 43.5517ZM42.3795 42.5787C42.1719 42.5787 42.0035 42.747 42.0035 42.9546C42.0035 43.1622 42.1719 43.3305 42.3795 43.3305C42.5871 43.3305 42.7554 43.1622 42.7554 42.9546C42.7554 42.747 42.5871 42.5787 42.3795 42.5787ZM40.4333 41.6056C40.2258 41.6056 40.0574 41.7739 40.0574 41.9815C40.0574 42.1891 40.2258 42.3575 40.4333 42.3575C40.6409 42.3575 40.8093 42.1891 40.8093 41.9815C40.8093 41.7739 40.6409 41.6056 40.4333 41.6056ZM42.3795 48.4171C42.1719 48.4171 42.0035 48.5854 42.0035 48.793C42.0035 49.0006 42.1719 49.1689 42.3795 49.1689C42.5871 49.1689 42.7554 49.0006 42.7554 48.793C42.7554 48.5854 42.5871 48.4171 42.3795 48.4171ZM40.4333 47.444C40.2258 47.444 40.0574 47.6123 40.0574 47.8199C40.0574 48.0275 40.2258 48.1958 40.4333 48.1958C40.6409 48.1958 40.8093 48.0275 40.8093 47.8199C40.8093 47.6123 40.6409 47.444 40.4333 47.444ZM42.3795 46.4709C42.1719 46.4709 42.0035 46.6393 42.0035 46.8469C42.0035 47.0544 42.1719 47.2228 42.3795 47.2228C42.5871 47.2228 42.7554 47.0544 42.7554 46.8469C42.7554 46.6393 42.5871 46.4709 42.3795 46.4709ZM40.4333 45.4979C40.2258 45.4979 40.0574 45.6662 40.0574 45.8738C40.0574 46.0814 40.2258 46.2497 40.4333 46.2497C40.6409 46.2497 40.8093 46.0814 40.8093 45.8738C40.8093 45.6662 40.6409 45.4979 40.4333 45.4979ZM42.3795 50.3632C42.2455 50.3632 42.1333 50.4375 42.0668 50.5429L42.5864 51.0447C42.686 50.9772 42.7554 50.8685 42.7554 50.7391C42.7554 50.5315 42.5871 50.3632 42.3795 50.3632ZM38.6708 17.6549L38.4006 18.0133C38.4292 18.0201 38.4567 18.0308 38.4875 18.0308C38.6951 18.0308 38.8635 17.8625 38.8635 17.6549C38.8635 17.5871 38.8408 17.5268 38.8093 17.472L38.6708 17.6549ZM38.4872 21.1713C38.2796 21.1713 38.1113 21.3396 38.1113 21.5472C38.1113 21.7548 38.2796 21.9231 38.4872 21.9231C38.6948 21.9231 38.8631 21.7548 38.8631 21.5472C38.8631 21.3396 38.6948 21.1713 38.4872 21.1713ZM36.7159 20.2468L36.5411 20.4788L36.3228 20.7681L36.1836 20.483C36.1759 20.5128 36.1652 20.542 36.1652 20.5741C36.1652 20.7817 36.3335 20.95 36.5411 20.95C36.7487 20.95 36.917 20.7817 36.917 20.5741C36.917 20.4307 36.8337 20.3104 36.7159 20.2468ZM38.4872 19.2251C38.2796 19.2251 38.1113 19.3935 38.1113 19.601C38.1113 19.8086 38.2796 19.977 38.4872 19.977C38.6948 19.977 38.8631 19.8086 38.8631 19.601C38.8631 19.3935 38.6948 19.2251 38.4872 19.2251ZM38.4872 25.0635C38.2796 25.0635 38.1113 25.2318 38.1113 25.4394C38.1113 25.647 38.2796 25.8154 38.4872 25.8154C38.6948 25.8154 38.8631 25.647 38.8631 25.4394C38.8631 25.2318 38.6948 25.0635 38.4872 25.0635ZM36.5411 24.0904C36.3335 24.0904 36.1652 24.2588 36.1652 24.4664C36.1652 24.674 36.3335 24.8423 36.5411 24.8423C36.7487 24.8423 36.917 24.674 36.917 24.4664C36.917 24.2588 36.7487 24.0904 36.5411 24.0904ZM38.4872 23.1174C38.2796 23.1174 38.1113 23.2857 38.1113 23.4933C38.1113 23.7009 38.2796 23.8692 38.4872 23.8692C38.6948 23.8692 38.8631 23.7009 38.8631 23.4933C38.8631 23.2857 38.6948 23.1174 38.4872 23.1174ZM36.5411 22.1443C36.3335 22.1443 36.1652 22.3127 36.1652 22.5202C36.1652 22.7278 36.3335 22.8962 36.5411 22.8962C36.7487 22.8962 36.917 22.7278 36.917 22.5202C36.917 22.3127 36.7487 22.1443 36.5411 22.1443ZM38.4872 28.9558C38.2796 28.9558 38.1113 29.1241 38.1113 29.3317C38.1113 29.5393 38.2796 29.7076 38.4872 29.7076C38.6948 29.7076 38.8631 29.5393 38.8631 29.3317C38.8631 29.1241 38.6948 28.9558 38.4872 28.9558ZM36.5411 27.9827C36.3335 27.9827 36.1652 28.151 36.1652 28.3586C36.1652 28.5662 36.3335 28.7346 36.5411 28.7346C36.7487 28.7346 36.917 28.5662 36.917 28.3586C36.917 28.151 36.7487 27.9827 36.5411 27.9827ZM38.4872 27.0096C38.2796 27.0096 38.1113 27.178 38.1113 27.3856C38.1113 27.5931 38.2796 27.7615 38.4872 27.7615C38.6948 27.7615 38.8631 27.5931 38.8631 27.3856C38.8631 27.178 38.6948 27.0096 38.4872 27.0096ZM36.5411 26.0366C36.3335 26.0366 36.1652 26.2049 36.1652 26.4125C36.1652 26.6201 36.3335 26.7884 36.5411 26.7884C36.7487 26.7884 36.917 26.6201 36.917 26.4125C36.917 26.2049 36.7487 26.0366 36.5411 26.0366ZM38.4872 32.848C38.2796 32.848 38.1113 33.0164 38.1113 33.224C38.1113 33.4315 38.2796 33.5999 38.4872 33.5999C38.6948 33.5999 38.8631 33.4315 38.8631 33.224C38.8631 33.0164 38.6948 32.848 38.4872 32.848ZM36.5411 31.875C36.3335 31.875 36.1652 32.0433 36.1652 32.2509C36.1652 32.4585 36.3335 32.6268 36.5411 32.6268C36.7487 32.6268 36.917 32.4585 36.917 32.2509C36.917 32.0433 36.7487 31.875 36.5411 31.875ZM38.4872 30.9019C38.2796 30.9019 38.1113 31.0702 38.1113 31.2778C38.1113 31.4854 38.2796 31.6537 38.4872 31.6537C38.6948 31.6537 38.8631 31.4854 38.8631 31.2778C38.8631 31.0702 38.6948 30.9019 38.4872 30.9019ZM36.5411 29.9288C36.3335 29.9288 36.1652 30.0972 36.1652 30.3048C36.1652 30.5123 36.3335 30.6807 36.5411 30.6807C36.7487 30.6807 36.917 30.5123 36.917 30.3048C36.917 30.0972 36.7487 29.9288 36.5411 29.9288ZM38.4872 36.7403C38.2796 36.7403 38.1113 36.9086 38.1113 37.1162C38.1113 37.3238 38.2796 37.4921 38.4872 37.4921C38.6948 37.4921 38.8631 37.3238 38.8631 37.1162C38.8631 36.9086 38.6948 36.7403 38.4872 36.7403ZM36.5411 35.7672C36.3335 35.7672 36.1652 35.9356 36.1652 36.1431C36.1652 36.3507 36.3335 36.5191 36.5411 36.5191C36.7487 36.5191 36.917 36.3507 36.917 36.1431C36.917 35.9356 36.7487 35.7672 36.5411 35.7672ZM38.4872 34.7942C38.2796 34.7942 38.1113 34.9625 38.1113 35.1701C38.1113 35.3777 38.2796 35.546 38.4872 35.546C38.6948 35.546 38.8631 35.3777 38.8631 35.1701C38.8631 34.9625 38.6948 34.7942 38.4872 34.7942ZM36.5411 33.8211C36.3335 33.8211 36.1652 33.9894 36.1652 34.197C36.1652 34.4046 36.3335 34.5729 36.5411 34.5729C36.7487 34.5729 36.917 34.4046 36.917 34.197C36.917 33.9894 36.7487 33.8211 36.5411 33.8211ZM38.4872 40.6325C38.2796 40.6325 38.1113 40.8009 38.1113 41.0085C38.1113 41.2161 38.2796 41.3844 38.4872 41.3844C38.6948 41.3844 38.8631 41.2161 38.8631 41.0085C38.8631 40.8009 38.6948 40.6325 38.4872 40.6325ZM36.5411 39.6595C36.3335 39.6595 36.1652 39.8278 36.1652 40.0354C36.1652 40.243 36.3335 40.4113 36.5411 40.4113C36.7487 40.4113 36.917 40.243 36.917 40.0354C36.917 39.8278 36.7487 39.6595 36.5411 39.6595ZM38.4872 38.6864C38.2796 38.6864 38.1113 38.8547 38.1113 39.0623C38.1113 39.2699 38.2796 39.4383 38.4872 39.4383C38.6948 39.4383 38.8631 39.2699 38.8631 39.0623C38.8631 38.8547 38.6948 38.6864 38.4872 38.6864ZM36.5411 37.7133C36.3335 37.7133 36.1652 37.8817 36.1652 38.0893C36.1652 38.2969 36.3335 38.4652 36.5411 38.4652C36.7487 38.4652 36.917 38.2969 36.917 38.0893C36.917 37.8817 36.7487 37.7133 36.5411 37.7133ZM38.4872 44.5248C38.2796 44.5248 38.1113 44.6931 38.1113 44.9007C38.1113 45.1083 38.2796 45.2766 38.4872 45.2766C38.6948 45.2766 38.8631 45.1083 38.8631 44.9007C38.8631 44.6931 38.6948 44.5248 38.4872 44.5248ZM36.5411 43.5517C36.3335 43.5517 36.1652 43.7201 36.1652 43.9277C36.1652 44.1352 36.3335 44.3036 36.5411 44.3036C36.7487 44.3036 36.917 44.1352 36.917 43.9277C36.917 43.7201 36.7487 43.5517 36.5411 43.5517ZM38.4872 42.5787C38.2796 42.5787 38.1113 42.747 38.1113 42.9546C38.1113 43.1622 38.2796 43.3305 38.4872 43.3305C38.6948 43.3305 38.8631 43.1622 38.8631 42.9546C38.8631 42.747 38.6948 42.5787 38.4872 42.5787ZM36.5411 41.6056C36.3335 41.6056 36.1652 41.7739 36.1652 41.9815C36.1652 42.1891 36.3335 42.3575 36.5411 42.3575C36.7487 42.3575 36.917 42.1891 36.917 41.9815C36.917 41.7739 36.7487 41.6056 36.5411 41.6056ZM36.5411 47.444C36.3335 47.444 36.1652 47.6123 36.1652 47.8199C36.1652 48.0275 36.3335 48.1958 36.5411 48.1958C36.7487 48.1958 36.917 48.0275 36.917 47.8199C36.917 47.6123 36.7487 47.444 36.5411 47.444ZM38.4872 46.4709C38.2796 46.4709 38.1113 46.6393 38.1113 46.8469C38.1113 46.9954 38.1992 47.1209 38.3244 47.1819L38.3837 46.9876L38.603 47.1991C38.7532 47.1498 38.8631 47.0132 38.8631 46.8465C38.8631 46.6393 38.6948 46.4709 38.4872 46.4709ZM36.5411 45.4979C36.3335 45.4979 36.1652 45.6662 36.1652 45.8738C36.1652 46.0814 36.3335 46.2497 36.5411 46.2497C36.7487 46.2497 36.917 46.0814 36.917 45.8738C36.917 45.6662 36.7487 45.4979 36.5411 45.4979ZM36.5411 51.3363C36.3335 51.3363 36.1652 51.5046 36.1652 51.7122C36.1652 51.9198 36.3335 52.0881 36.5411 52.0881C36.7487 52.0881 36.917 51.9198 36.917 51.7122C36.917 51.5046 36.7487 51.3363 36.5411 51.3363ZM36.5411 49.3901C36.3335 49.3901 36.1652 49.5585 36.1652 49.766C36.1652 49.9736 36.3335 50.142 36.5411 50.142C36.7487 50.142 36.917 49.9736 36.917 49.766C36.917 49.5585 36.7487 49.3901 36.5411 49.3901ZM32.6488 16.3059C32.4412 16.3059 32.2729 16.4743 32.2729 16.6819C32.2729 16.8894 32.4412 17.0578 32.6488 17.0578C32.8564 17.0578 33.0248 16.8894 33.0248 16.6819C33.0248 16.4743 32.8564 16.3059 32.6488 16.3059ZM32.6488 14.3598C32.4412 14.3598 32.2729 14.5281 32.2729 14.7357C32.2729 14.9433 32.4412 15.1117 32.6488 15.1117C32.8564 15.1117 33.0248 14.9433 33.0248 14.7357C33.0248 14.5281 32.8564 14.3598 32.6488 14.3598ZM34.595 21.1713C34.3874 21.1713 34.219 21.3396 34.219 21.5472C34.219 21.7548 34.3874 21.9231 34.595 21.9231C34.8025 21.9231 34.9709 21.7548 34.9709 21.5472C34.9709 21.3396 34.8025 21.1713 34.595 21.1713ZM32.6488 20.1982C32.4412 20.1982 32.2729 20.3665 32.2729 20.5741C32.2729 20.7817 32.4412 20.95 32.6488 20.95C32.8564 20.95 33.0248 20.7817 33.0248 20.5741C33.0248 20.3665 32.8564 20.1982 32.6488 20.1982ZM34.595 19.2251C34.3874 19.2251 34.219 19.3935 34.219 19.601C34.219 19.8086 34.3874 19.977 34.595 19.977C34.8025 19.977 34.9709 19.8086 34.9709 19.601C34.9709 19.3935 34.8025 19.2251 34.595 19.2251ZM32.6488 18.2521C32.4412 18.2521 32.2729 18.4204 32.2729 18.628C32.2729 18.8356 32.4412 19.0039 32.6488 19.0039C32.8564 19.0039 33.0248 18.8356 33.0248 18.628C33.0248 18.4204 32.8564 18.2521 32.6488 18.2521ZM34.595 18.0308C34.726 18.0308 34.8356 17.9598 34.9028 17.8583L34.8035 17.6549L34.6229 17.2845C34.6131 17.2839 34.605 17.279 34.595 17.279C34.3874 17.279 34.219 17.4473 34.219 17.6549C34.219 17.8625 34.3874 18.0308 34.595 18.0308ZM34.595 25.0635C34.3874 25.0635 34.219 25.2318 34.219 25.4394C34.219 25.647 34.3874 25.8154 34.595 25.8154C34.8025 25.8154 34.9709 25.647 34.9709 25.4394C34.9709 25.2318 34.8025 25.0635 34.595 25.0635ZM32.6488 24.0904C32.4412 24.0904 32.2729 24.2588 32.2729 24.4664C32.2729 24.674 32.4412 24.8423 32.6488 24.8423C32.8564 24.8423 33.0248 24.674 33.0248 24.4664C33.0248 24.2588 32.8564 24.0904 32.6488 24.0904ZM34.595 23.1174C34.3874 23.1174 34.219 23.2857 34.219 23.4933C34.219 23.7009 34.3874 23.8692 34.595 23.8692C34.8025 23.8692 34.9709 23.7009 34.9709 23.4933C34.9709 23.2857 34.8025 23.1174 34.595 23.1174ZM32.6488 22.1443C32.4412 22.1443 32.2729 22.3127 32.2729 22.5202C32.2729 22.7278 32.4412 22.8962 32.6488 22.8962C32.8564 22.8962 33.0248 22.7278 33.0248 22.5202C33.0248 22.3127 32.8564 22.1443 32.6488 22.1443ZM34.595 28.9558C34.3874 28.9558 34.219 29.1241 34.219 29.3317C34.219 29.5393 34.3874 29.7076 34.595 29.7076C34.8025 29.7076 34.9709 29.5393 34.9709 29.3317C34.9709 29.1241 34.8025 28.9558 34.595 28.9558ZM32.6488 27.9827C32.4412 27.9827 32.2729 28.151 32.2729 28.3586C32.2729 28.5662 32.4412 28.7346 32.6488 28.7346C32.8564 28.7346 33.0248 28.5662 33.0248 28.3586C33.0248 28.151 32.8564 27.9827 32.6488 27.9827ZM34.595 27.0096C34.3874 27.0096 34.219 27.178 34.219 27.3856C34.219 27.5931 34.3874 27.7615 34.595 27.7615C34.8025 27.7615 34.9709 27.5931 34.9709 27.3856C34.9709 27.178 34.8025 27.0096 34.595 27.0096ZM32.6488 26.0366C32.4412 26.0366 32.2729 26.2049 32.2729 26.4125C32.2729 26.6201 32.4412 26.7884 32.6488 26.7884C32.8564 26.7884 33.0248 26.6201 33.0248 26.4125C33.0248 26.2049 32.8564 26.0366 32.6488 26.0366ZM34.595 32.848C34.3874 32.848 34.219 33.0164 34.219 33.224C34.219 33.4315 34.3874 33.5999 34.595 33.5999C34.8025 33.5999 34.9709 33.4315 34.9709 33.224C34.9709 33.0164 34.8025 32.848 34.595 32.848ZM32.6488 31.875C32.4412 31.875 32.2729 32.0433 32.2729 32.2509C32.2729 32.4585 32.4412 32.6268 32.6488 32.6268C32.8564 32.6268 33.0248 32.4585 33.0248 32.2509C33.0248 32.0433 32.8564 31.875 32.6488 31.875ZM34.595 30.9019C34.3874 30.9019 34.219 31.0702 34.219 31.2778C34.219 31.4854 34.3874 31.6537 34.595 31.6537C34.8025 31.6537 34.9709 31.4854 34.9709 31.2778C34.9709 31.0702 34.8025 30.9019 34.595 30.9019ZM32.6488 29.9288C32.4412 29.9288 32.2729 30.0972 32.2729 30.3048C32.2729 30.5123 32.4412 30.6807 32.6488 30.6807C32.8564 30.6807 33.0248 30.5123 33.0248 30.3048C33.0248 30.0972 32.8564 29.9288 32.6488 29.9288ZM34.595 36.7403C34.3874 36.7403 34.219 36.9086 34.219 37.1162C34.219 37.3238 34.3874 37.4921 34.595 37.4921C34.8025 37.4921 34.9709 37.3238 34.9709 37.1162C34.9709 36.9086 34.8025 36.7403 34.595 36.7403ZM32.6488 35.7672C32.4412 35.7672 32.2729 35.9356 32.2729 36.1431C32.2729 36.3507 32.4412 36.5191 32.6488 36.5191C32.8564 36.5191 33.0248 36.3507 33.0248 36.1431C33.0248 35.9356 32.8564 35.7672 32.6488 35.7672ZM34.595 34.7942C34.3874 34.7942 34.219 34.9625 34.219 35.1701C34.219 35.3777 34.3874 35.546 34.595 35.546C34.8025 35.546 34.9709 35.3777 34.9709 35.1701C34.9709 34.9625 34.8025 34.7942 34.595 34.7942ZM32.6488 33.8211C32.4412 33.8211 32.2729 33.9894 32.2729 34.197C32.2729 34.4046 32.4412 34.5729 32.6488 34.5729C32.8564 34.5729 33.0248 34.4046 33.0248 34.197C33.0248 33.9894 32.8564 33.8211 32.6488 33.8211ZM34.595 40.6325C34.3874 40.6325 34.219 40.8009 34.219 41.0085C34.219 41.2161 34.3874 41.3844 34.595 41.3844C34.8025 41.3844 34.9709 41.2161 34.9709 41.0085C34.9709 40.8009 34.8025 40.6325 34.595 40.6325ZM32.6488 39.6595C32.4412 39.6595 32.2729 39.8278 32.2729 40.0354C32.2729 40.243 32.4412 40.4113 32.6488 40.4113C32.8564 40.4113 33.0248 40.243 33.0248 40.0354C33.0248 39.8278 32.8564 39.6595 32.6488 39.6595ZM34.595 38.6864C34.3874 38.6864 34.219 38.8547 34.219 39.0623C34.219 39.2699 34.3874 39.4383 34.595 39.4383C34.8025 39.4383 34.9709 39.2699 34.9709 39.0623C34.9709 38.8547 34.8025 38.6864 34.595 38.6864ZM32.6488 37.7133C32.4412 37.7133 32.2729 37.8817 32.2729 38.0893C32.2729 38.2969 32.4412 38.4652 32.6488 38.4652C32.8564 38.4652 33.0248 38.2969 33.0248 38.0893C33.0248 37.8817 32.8564 37.7133 32.6488 37.7133ZM34.595 44.5248C34.3874 44.5248 34.219 44.6931 34.219 44.9007C34.219 45.1083 34.3874 45.2766 34.595 45.2766C34.8025 45.2766 34.9709 45.1083 34.9709 44.9007C34.9709 44.6931 34.8025 44.5248 34.595 44.5248ZM32.6488 43.5517C32.4412 43.5517 32.2729 43.7201 32.2729 43.9277C32.2729 44.1352 32.4412 44.3036 32.6488 44.3036C32.8564 44.3036 33.0248 44.1352 33.0248 43.9277C33.0248 43.7201 32.8564 43.5517 32.6488 43.5517ZM34.595 42.5787C34.3874 42.5787 34.219 42.747 34.219 42.9546C34.219 43.1622 34.3874 43.3305 34.595 43.3305C34.8025 43.3305 34.9709 43.1622 34.9709 42.9546C34.9709 42.747 34.8025 42.5787 34.595 42.5787ZM32.6488 41.6056C32.4412 41.6056 32.2729 41.7739 32.2729 41.9815C32.2729 42.1891 32.4412 42.3575 32.6488 42.3575C32.8564 42.3575 33.0248 42.1891 33.0248 41.9815C33.0248 41.7739 32.8564 41.6056 32.6488 41.6056ZM34.595 48.4171C34.3874 48.4171 34.219 48.5854 34.219 48.793C34.219 49.0006 34.3874 49.1689 34.595 49.1689C34.8025 49.1689 34.9709 49.0006 34.9709 48.793C34.9709 48.5854 34.8025 48.4171 34.595 48.4171ZM32.6488 47.444C32.4412 47.444 32.2729 47.6123 32.2729 47.8199C32.2729 48.0275 32.4412 48.1958 32.6488 48.1958C32.8564 48.1958 33.0248 48.0275 33.0248 47.8199C33.0248 47.6123 32.8564 47.444 32.6488 47.444ZM34.595 46.4709C34.3874 46.4709 34.219 46.6393 34.219 46.8469C34.219 47.0544 34.3874 47.2228 34.595 47.2228C34.8025 47.2228 34.9709 47.0544 34.9709 46.8469C34.9709 46.6393 34.8025 46.4709 34.595 46.4709ZM32.6488 45.4979C32.4412 45.4979 32.2729 45.6662 32.2729 45.8738C32.2729 46.0814 32.4412 46.2497 32.6488 46.2497C32.8564 46.2497 33.0248 46.0814 33.0248 45.8738C33.0248 45.6662 32.8564 45.4979 32.6488 45.4979ZM34.595 52.3093C34.3874 52.3093 34.219 52.4777 34.219 52.6852C34.219 52.8928 34.3874 53.0612 34.595 53.0612C34.8025 53.0612 34.9709 52.8928 34.9709 52.6852C34.9709 52.4777 34.8025 52.3093 34.595 52.3093ZM32.6488 51.3363C32.4412 51.3363 32.2729 51.5046 32.2729 51.7122C32.2729 51.9198 32.4412 52.0881 32.6488 52.0881C32.8564 52.0881 33.0248 51.9198 33.0248 51.7122C33.0248 51.5046 32.8564 51.3363 32.6488 51.3363ZM34.595 50.3632C34.3874 50.3632 34.219 50.5315 34.219 50.7391C34.219 50.9467 34.3874 51.115 34.595 51.115C34.8025 51.115 34.9709 50.9467 34.9709 50.7391C34.9709 50.5315 34.8025 50.3632 34.595 50.3632ZM32.6488 49.3901C32.4412 49.3901 32.2729 49.5585 32.2729 49.766C32.2729 49.9736 32.4412 50.142 32.6488 50.142C32.8564 50.142 33.0248 49.9736 33.0248 49.766C33.0248 49.5585 32.8564 49.3901 32.6488 49.3901ZM34.595 56.2016C34.3874 56.2016 34.219 56.3699 34.219 56.5775C34.219 56.7851 34.3874 56.9534 34.595 56.9534C34.8025 56.9534 34.9709 56.7851 34.9709 56.5775C34.9709 56.3699 34.8025 56.2016 34.595 56.2016ZM32.6488 55.2285C32.4412 55.2285 32.2729 55.3968 32.2729 55.6044C32.2729 55.812 32.4412 55.9804 32.6488 55.9804C32.8564 55.9804 33.0248 55.812 33.0248 55.6044C33.0248 55.3968 32.8564 55.2285 32.6488 55.2285ZM36.1652 53.6583C36.1652 53.7553 36.2044 53.8419 36.2647 53.9084L36.4509 53.3005C36.2881 53.3421 36.1652 53.4828 36.1652 53.6583ZM34.595 54.2554C34.3874 54.2554 34.219 54.4238 34.219 54.6314C34.219 54.839 34.3874 55.0073 34.595 55.0073C34.8025 55.0073 34.9709 54.839 34.9709 54.6314C34.9709 54.4238 34.8025 54.2554 34.595 54.2554ZM32.6488 53.2824C32.4412 53.2824 32.2729 53.4507 32.2729 53.6583C32.2729 53.8659 32.4412 54.0342 32.6488 54.0342C32.8564 54.0342 33.0248 53.8659 33.0248 53.6583C33.0248 53.4507 32.8564 53.2824 32.6488 53.2824ZM32.6488 59.1208C32.4412 59.1208 32.2729 59.2891 32.2729 59.4967C32.2729 59.7043 32.4412 59.8726 32.6488 59.8726C32.8564 59.8726 33.0248 59.7043 33.0248 59.4967C33.0248 59.2891 32.8564 59.1208 32.6488 59.1208ZM34.595 58.1477C34.3874 58.1477 34.219 58.316 34.219 58.5236C34.219 58.7312 34.3874 58.8996 34.595 58.8996C34.6491 58.8996 34.7001 58.8872 34.7468 58.8665L34.9106 58.3316C34.8444 58.2236 34.7305 58.1477 34.595 58.1477ZM32.6488 57.1746C32.4412 57.1746 32.2729 57.343 32.2729 57.5506C32.2729 57.7582 32.4412 57.9265 32.6488 57.9265C32.8564 57.9265 33.0248 57.7582 33.0248 57.5506C33.0248 57.343 32.8564 57.1746 32.6488 57.1746ZM32.6488 63.013C32.4412 63.013 32.2729 63.1814 32.2729 63.389C32.2729 63.5965 32.4412 63.7649 32.6488 63.7649C32.8564 63.7649 33.0248 63.5965 33.0248 63.389C33.0248 63.1814 32.8564 63.013 32.6488 63.013ZM32.6488 61.0669C32.4412 61.0669 32.2729 61.2352 32.2729 61.4428C32.2729 61.6504 32.4412 61.8187 32.6488 61.8187C32.8564 61.8187 33.0248 61.6504 33.0248 61.4428C33.0248 61.2352 32.8564 61.0669 32.6488 61.0669ZM34.2336 60.5421L34.2557 60.4698L34.339 60.1973C34.2657 60.2657 34.2187 60.3617 34.2187 60.4698C34.219 60.4954 34.2288 60.5178 34.2336 60.5421ZM28.7566 8.52141C28.549 8.52141 28.3806 8.68975 28.3806 8.89734C28.3806 9.10493 28.549 9.27327 28.7566 9.27327C28.9642 9.27327 29.1325 9.10493 29.1325 8.89734C29.1325 8.68975 28.9642 8.52141 28.7566 8.52141ZM28.7566 6.57528C28.549 6.57528 28.3806 6.74362 28.3806 6.95121C28.3806 7.1588 28.549 7.32714 28.7566 7.32714C28.9642 7.32714 29.1325 7.1588 29.1325 6.95121C29.1325 6.74362 28.9642 6.57528 28.7566 6.57528ZM32.6086 13.1574L32.3345 12.5956C32.2988 12.653 32.2729 12.7169 32.2729 12.7896C32.2729 12.9829 32.4208 13.1367 32.6086 13.1574ZM30.7027 13.3867C30.4951 13.3867 30.3268 13.5551 30.3268 13.7627C30.3268 13.9702 30.4951 14.1386 30.7027 14.1386C30.9103 14.1386 31.0786 13.9702 31.0786 13.7627C31.0786 13.5551 30.9103 13.3867 30.7027 13.3867ZM28.7566 12.4137C28.549 12.4137 28.3806 12.582 28.3806 12.7896C28.3806 12.9972 28.549 13.1655 28.7566 13.1655C28.9642 13.1655 29.1325 12.9972 29.1325 12.7896C29.1325 12.582 28.9642 12.4137 28.7566 12.4137ZM30.7027 11.4406C30.4951 11.4406 30.3268 11.6089 30.3268 11.8165C30.3268 12.0241 30.4951 12.1925 30.7027 12.1925C30.9103 12.1925 31.0786 12.0241 31.0786 11.8165C31.0786 11.6089 30.9103 11.4406 30.7027 11.4406ZM28.7566 10.4675C28.549 10.4675 28.3806 10.6359 28.3806 10.8435C28.3806 11.0511 28.549 11.2194 28.7566 11.2194C28.9642 11.2194 29.1325 11.0511 29.1325 10.8435C29.1325 10.6359 28.9642 10.4675 28.7566 10.4675ZM30.7027 10.2463C30.8723 10.2463 31.0102 10.1318 31.0569 9.97777L31.0047 9.8704L30.8341 9.52107C30.7929 9.50551 30.7494 9.49448 30.7027 9.49448C30.4951 9.49448 30.3268 9.66282 30.3268 9.8704C30.3268 10.078 30.4951 10.2463 30.7027 10.2463ZM30.7027 17.279C30.4951 17.279 30.3268 17.4473 30.3268 17.6549C30.3268 17.8625 30.4951 18.0308 30.7027 18.0308C30.9103 18.0308 31.0786 17.8625 31.0786 17.6549C31.0786 17.4473 30.9103 17.279 30.7027 17.279ZM28.7566 16.3059C28.549 16.3059 28.3806 16.4743 28.3806 16.6819C28.3806 16.8894 28.549 17.0578 28.7566 17.0578C28.9642 17.0578 29.1325 16.8894 29.1325 16.6819C29.1325 16.4743 28.9642 16.3059 28.7566 16.3059ZM30.7027 15.3329C30.4951 15.3329 30.3268 15.5012 30.3268 15.7088C30.3268 15.9164 30.4951 16.0847 30.7027 16.0847C30.9103 16.0847 31.0786 15.9164 31.0786 15.7088C31.0786 15.5012 30.9103 15.3329 30.7027 15.3329ZM28.7566 14.3598C28.549 14.3598 28.3806 14.5281 28.3806 14.7357C28.3806 14.9433 28.549 15.1117 28.7566 15.1117C28.9642 15.1117 29.1325 14.9433 29.1325 14.7357C29.1325 14.5281 28.9642 14.3598 28.7566 14.3598ZM30.7027 21.1713C30.4951 21.1713 30.3268 21.3396 30.3268 21.5472C30.3268 21.7548 30.4951 21.9231 30.7027 21.9231C30.9103 21.9231 31.0786 21.7548 31.0786 21.5472C31.0786 21.3396 30.9103 21.1713 30.7027 21.1713ZM28.7566 20.1982C28.549 20.1982 28.3806 20.3665 28.3806 20.5741C28.3806 20.7817 28.549 20.95 28.7566 20.95C28.9642 20.95 29.1325 20.7817 29.1325 20.5741C29.1325 20.3665 28.9642 20.1982 28.7566 20.1982ZM30.7027 19.2251C30.4951 19.2251 30.3268 19.3935 30.3268 19.601C30.3268 19.8086 30.4951 19.977 30.7027 19.977C30.9103 19.977 31.0786 19.8086 31.0786 19.601C31.0786 19.3935 30.9103 19.2251 30.7027 19.2251ZM28.7566 18.2521C28.549 18.2521 28.3806 18.4204 28.3806 18.628C28.3806 18.8356 28.549 19.0039 28.7566 19.0039C28.9642 19.0039 29.1325 18.8356 29.1325 18.628C29.1325 18.4204 28.9642 18.2521 28.7566 18.2521ZM30.7027 25.0635C30.4951 25.0635 30.3268 25.2318 30.3268 25.4394C30.3268 25.647 30.4951 25.8154 30.7027 25.8154C30.9103 25.8154 31.0786 25.647 31.0786 25.4394C31.0786 25.2318 30.9103 25.0635 30.7027 25.0635ZM28.7566 24.0904C28.549 24.0904 28.3806 24.2588 28.3806 24.4664C28.3806 24.674 28.549 24.8423 28.7566 24.8423C28.9642 24.8423 29.1325 24.674 29.1325 24.4664C29.1325 24.2588 28.9642 24.0904 28.7566 24.0904ZM30.7027 23.1174C30.4951 23.1174 30.3268 23.2857 30.3268 23.4933C30.3268 23.7009 30.4951 23.8692 30.7027 23.8692C30.9103 23.8692 31.0786 23.7009 31.0786 23.4933C31.0786 23.2857 30.9103 23.1174 30.7027 23.1174ZM28.7566 22.1443C28.549 22.1443 28.3806 22.3127 28.3806 22.5202C28.3806 22.7278 28.549 22.8962 28.7566 22.8962C28.9642 22.8962 29.1325 22.7278 29.1325 22.5202C29.1325 22.3127 28.9642 22.1443 28.7566 22.1443ZM30.7027 28.9558C30.4951 28.9558 30.3268 29.1241 30.3268 29.3317C30.3268 29.5393 30.4951 29.7076 30.7027 29.7076C30.9103 29.7076 31.0786 29.5393 31.0786 29.3317C31.0786 29.1241 30.9103 28.9558 30.7027 28.9558ZM28.7566 27.9827C28.549 27.9827 28.3806 28.151 28.3806 28.3586C28.3806 28.5662 28.549 28.7346 28.7566 28.7346C28.9642 28.7346 29.1325 28.5662 29.1325 28.3586C29.1325 28.151 28.9642 27.9827 28.7566 27.9827ZM30.7027 27.0096C30.4951 27.0096 30.3268 27.178 30.3268 27.3856C30.3268 27.5931 30.4951 27.7615 30.7027 27.7615C30.9103 27.7615 31.0786 27.5931 31.0786 27.3856C31.0786 27.178 30.9103 27.0096 30.7027 27.0096ZM28.7566 26.0366C28.549 26.0366 28.3806 26.2049 28.3806 26.4125C28.3806 26.6201 28.549 26.7884 28.7566 26.7884C28.9642 26.7884 29.1325 26.6201 29.1325 26.4125C29.1325 26.2049 28.9642 26.0366 28.7566 26.0366ZM30.7027 32.848C30.4951 32.848 30.3268 33.0164 30.3268 33.224C30.3268 33.4315 30.4951 33.5999 30.7027 33.5999C30.9103 33.5999 31.0786 33.4315 31.0786 33.224C31.0786 33.0164 30.9103 32.848 30.7027 32.848ZM28.7566 31.875C28.549 31.875 28.3806 32.0433 28.3806 32.2509C28.3806 32.4585 28.549 32.6268 28.7566 32.6268C28.9642 32.6268 29.1325 32.4585 29.1325 32.2509C29.1325 32.0433 28.9642 31.875 28.7566 31.875ZM30.7027 30.9019C30.4951 30.9019 30.3268 31.0702 30.3268 31.2778C30.3268 31.4854 30.4951 31.6537 30.7027 31.6537C30.9103 31.6537 31.0786 31.4854 31.0786 31.2778C31.0786 31.0702 30.9103 30.9019 30.7027 30.9019ZM28.7566 29.9288C28.549 29.9288 28.3806 30.0972 28.3806 30.3048C28.3806 30.5123 28.549 30.6807 28.7566 30.6807C28.9642 30.6807 29.1325 30.5123 29.1325 30.3048C29.1325 30.0972 28.9642 29.9288 28.7566 29.9288ZM30.7027 36.7403C30.4951 36.7403 30.3268 36.9086 30.3268 37.1162C30.3268 37.3238 30.4951 37.4921 30.7027 37.4921C30.9103 37.4921 31.0786 37.3238 31.0786 37.1162C31.0786 36.9086 30.9103 36.7403 30.7027 36.7403ZM28.7566 35.7672C28.549 35.7672 28.3806 35.9356 28.3806 36.1431C28.3806 36.3507 28.549 36.5191 28.7566 36.5191C28.9642 36.5191 29.1325 36.3507 29.1325 36.1431C29.1325 35.9356 28.9642 35.7672 28.7566 35.7672ZM30.7027 34.7942C30.4951 34.7942 30.3268 34.9625 30.3268 35.1701C30.3268 35.3777 30.4951 35.546 30.7027 35.546C30.9103 35.546 31.0786 35.3777 31.0786 35.1701C31.0786 34.9625 30.9103 34.7942 30.7027 34.7942ZM28.7566 33.8211C28.549 33.8211 28.3806 33.9894 28.3806 34.197C28.3806 34.4046 28.549 34.5729 28.7566 34.5729C28.9642 34.5729 29.1325 34.4046 29.1325 34.197C29.1325 33.9894 28.9642 33.8211 28.7566 33.8211ZM30.7027 40.6325C30.4951 40.6325 30.3268 40.8009 30.3268 41.0085C30.3268 41.2161 30.4951 41.3844 30.7027 41.3844C30.9103 41.3844 31.0786 41.2161 31.0786 41.0085C31.0786 40.8009 30.9103 40.6325 30.7027 40.6325ZM28.7566 39.6595C28.549 39.6595 28.3806 39.8278 28.3806 40.0354C28.3806 40.243 28.549 40.4113 28.7566 40.4113C28.9642 40.4113 29.1325 40.243 29.1325 40.0354C29.1325 39.8278 28.9642 39.6595 28.7566 39.6595ZM30.7027 38.6864C30.4951 38.6864 30.3268 38.8547 30.3268 39.0623C30.3268 39.2699 30.4951 39.4383 30.7027 39.4383C30.9103 39.4383 31.0786 39.2699 31.0786 39.0623C31.0786 38.8547 30.9103 38.6864 30.7027 38.6864ZM28.7566 37.7133C28.549 37.7133 28.3806 37.8817 28.3806 38.0893C28.3806 38.2969 28.549 38.4652 28.7566 38.4652C28.9642 38.4652 29.1325 38.2969 29.1325 38.0893C29.1325 37.8817 28.9642 37.7133 28.7566 37.7133ZM30.7027 44.5248C30.4951 44.5248 30.3268 44.6931 30.3268 44.9007C30.3268 45.1083 30.4951 45.2766 30.7027 45.2766C30.9103 45.2766 31.0786 45.1083 31.0786 44.9007C31.0786 44.6931 30.9103 44.5248 30.7027 44.5248ZM28.7566 43.5517C28.549 43.5517 28.3806 43.7201 28.3806 43.9277C28.3806 44.1352 28.549 44.3036 28.7566 44.3036C28.9642 44.3036 29.1325 44.1352 29.1325 43.9277C29.1325 43.7201 28.9642 43.5517 28.7566 43.5517ZM30.7027 42.5787C30.4951 42.5787 30.3268 42.747 30.3268 42.9546C30.3268 43.1622 30.4951 43.3305 30.7027 43.3305C30.9103 43.3305 31.0786 43.1622 31.0786 42.9546C31.0786 42.747 30.9103 42.5787 30.7027 42.5787ZM28.7566 41.6056C28.549 41.6056 28.3806 41.7739 28.3806 41.9815C28.3806 42.1891 28.549 42.3575 28.7566 42.3575C28.9642 42.3575 29.1325 42.1891 29.1325 41.9815C29.1325 41.7739 28.9642 41.6056 28.7566 41.6056ZM30.7027 48.4171C30.4951 48.4171 30.3268 48.5854 30.3268 48.793C30.3268 49.0006 30.4951 49.1689 30.7027 49.1689C30.9103 49.1689 31.0786 49.0006 31.0786 48.793C31.0786 48.5854 30.9103 48.4171 30.7027 48.4171ZM30.7027 46.4709C30.4951 46.4709 30.3268 46.6393 30.3268 46.8469C30.3268 47.0544 30.4951 47.2228 30.7027 47.2228C30.9103 47.2228 31.0786 47.0544 31.0786 46.8469C31.0786 46.6393 30.9103 46.4709 30.7027 46.4709ZM28.7566 45.4979C28.549 45.4979 28.3806 45.6662 28.3806 45.8738C28.3806 46.0814 28.549 46.2497 28.7566 46.2497C28.9642 46.2497 29.1325 46.0814 29.1325 45.8738C29.1325 45.6662 28.9642 45.4979 28.7566 45.4979ZM30.7027 52.3093C30.4951 52.3093 30.3268 52.4777 30.3268 52.6852C30.3268 52.8928 30.4951 53.0612 30.7027 53.0612C30.9103 53.0612 31.0786 52.8928 31.0786 52.6852C31.0786 52.4777 30.9103 52.3093 30.7027 52.3093ZM30.7027 50.3632C30.4951 50.3632 30.3268 50.5315 30.3268 50.7391C30.3268 50.9467 30.4951 51.115 30.7027 51.115C30.9103 51.115 31.0786 50.9467 31.0786 50.7391C31.0786 50.5315 30.9103 50.3632 30.7027 50.3632ZM30.7027 56.2016C30.5593 56.2016 30.439 56.2846 30.3757 56.4023L30.3942 56.5775L30.4195 56.8175C30.4886 56.8989 30.5879 56.9538 30.703 56.9538C30.9106 56.9538 31.079 56.7854 31.079 56.5778C31.0786 56.3699 30.9103 56.2016 30.7027 56.2016ZM30.7027 54.2554C30.4951 54.2554 30.3268 54.4238 30.3268 54.6314C30.3268 54.839 30.4951 55.0073 30.7027 55.0073C30.9103 55.0073 31.0786 54.839 31.0786 54.6314C31.0786 54.4238 30.9103 54.2554 30.7027 54.2554ZM30.7656 60.1065L30.8039 60.4698L30.8406 60.8178C30.9797 60.7626 31.0783 60.6284 31.0783 60.4698C31.0786 60.2845 30.9421 60.1376 30.7656 60.1065ZM30.7027 58.1477C30.6531 58.1477 30.606 58.1584 30.5626 58.1759L30.6375 58.8863C30.6596 58.8901 30.6797 58.8996 30.703 58.8996C30.9106 58.8996 31.079 58.7312 31.079 58.5236C31.0786 58.316 30.9103 58.1477 30.7027 58.1477ZM31.0277 62.594C31.0572 62.5401 31.0786 62.4817 31.0786 62.4159C31.0786 62.3215 31.0407 62.2381 30.9833 62.172L31.0277 62.594ZM32.2729 65.3351C32.2729 65.5427 32.4412 65.711 32.6488 65.711L32.6511 65.7107L32.859 65.0318C32.7984 64.9896 32.7286 64.9592 32.6488 64.9592C32.4412 64.9592 32.2729 65.1275 32.2729 65.3351ZM27.0758 1.81992C27.0076 1.75213 26.9139 1.70996 26.8104 1.70996C26.6029 1.70996 26.4345 1.8783 26.4345 2.08589C26.4345 2.29348 26.6029 2.46182 26.8104 2.46182C27.018 2.46182 27.1864 2.29348 27.1864 2.08589C27.1864 2.06189 27.177 2.04113 27.1727 2.01842L27.0758 1.81992ZM28.7566 5.38101C28.7751 5.38101 28.791 5.3729 28.8085 5.37063L28.7566 5.26392L28.4981 4.73425C28.4264 4.80268 28.3806 4.89804 28.3806 5.00508C28.3806 5.21267 28.549 5.38101 28.7566 5.38101ZM26.8104 5.60222C26.7206 5.60222 26.6415 5.63822 26.5766 5.69077L26.5915 5.97815L26.6074 6.28661C26.6668 6.32585 26.7339 6.35407 26.8101 6.35407C27.0177 6.35407 27.186 6.18573 27.186 5.97815C27.1864 5.77056 27.018 5.60222 26.8104 5.60222ZM26.8104 3.65609C26.6658 3.65609 26.5445 3.74042 26.4815 3.85978L26.501 4.23279C26.5681 4.33561 26.6784 4.40794 26.8104 4.40794C27.018 4.40794 27.1864 4.2396 27.1864 4.03202C27.1864 3.82443 27.018 3.65609 26.8104 3.65609ZM26.8104 9.49448C26.7978 9.49448 26.7871 9.50032 26.7748 9.50161L26.7939 9.8704L26.8134 10.2457C27.0197 10.2441 27.1864 10.077 27.1864 9.8704C27.1864 9.66282 27.018 9.49448 26.8104 9.49448ZM26.8104 7.54835C26.7624 7.54835 26.717 7.55938 26.6745 7.57559L26.7112 8.28009C26.7436 8.28917 26.7751 8.3002 26.8104 8.3002C27.018 8.3002 27.1864 8.13186 27.1864 7.92428C27.1864 7.71669 27.018 7.54835 26.8104 7.54835ZM26.9791 13.4315L26.9963 13.7627L27.0122 14.0714C27.1147 14.0043 27.186 13.894 27.186 13.7627C27.1864 13.6167 27.1007 13.4934 26.9791 13.4315ZM26.8763 11.4539L26.9136 12.1717C27.0699 12.126 27.1864 11.9875 27.1864 11.8165C27.1864 11.6323 27.0511 11.486 26.8763 11.4539ZM27.1085 15.9264C27.1539 15.8642 27.186 15.7918 27.186 15.7088C27.186 15.6102 27.1462 15.522 27.0839 15.4548L27.1085 15.9264ZM26.8104 25.0635C26.6029 25.0635 26.4345 25.2318 26.4345 25.4394C26.4345 25.647 26.6029 25.8154 26.8104 25.8154C27.018 25.8154 27.1864 25.647 27.1864 25.4394C27.1864 25.2318 27.018 25.0635 26.8104 25.0635ZM24.8643 24.0904C24.6567 24.0904 24.4884 24.2588 24.4884 24.4664C24.4884 24.674 24.6567 24.8423 24.8643 24.8423C25.0719 24.8423 25.2402 24.674 25.2402 24.4664C25.2402 24.2588 25.0719 24.0904 24.8643 24.0904ZM26.8104 23.1174C26.6029 23.1174 26.4345 23.2857 26.4345 23.4933C26.4345 23.7009 26.6029 23.8692 26.8104 23.8692C27.018 23.8692 27.1864 23.7009 27.1864 23.4933C27.1864 23.2857 27.018 23.1174 26.8104 23.1174ZM24.8643 22.1443C24.6567 22.1443 24.4884 22.3127 24.4884 22.5202C24.4884 22.7278 24.6567 22.8962 24.8643 22.8962C25.0719 22.8962 25.2402 22.7278 25.2402 22.5202C25.2402 22.3127 25.0719 22.1443 24.8643 22.1443ZM26.8104 28.9558C26.6029 28.9558 26.4345 29.1241 26.4345 29.3317C26.4345 29.5393 26.6029 29.7076 26.8104 29.7076C27.018 29.7076 27.1864 29.5393 27.1864 29.3317C27.1864 29.1241 27.018 28.9558 26.8104 28.9558ZM24.8643 27.9827C24.6567 27.9827 24.4884 28.151 24.4884 28.3586C24.4884 28.5662 24.6567 28.7346 24.8643 28.7346C25.0719 28.7346 25.2402 28.5662 25.2402 28.3586C25.2402 28.151 25.0719 27.9827 24.8643 27.9827ZM26.8104 27.0096C26.6029 27.0096 26.4345 27.178 26.4345 27.3856C26.4345 27.5931 26.6029 27.7615 26.8104 27.7615C27.018 27.7615 27.1864 27.5931 27.1864 27.3856C27.1864 27.178 27.018 27.0096 26.8104 27.0096ZM24.8643 26.0366C24.6567 26.0366 24.4884 26.2049 24.4884 26.4125C24.4884 26.6201 24.6567 26.7884 24.8643 26.7884C25.0719 26.7884 25.2402 26.6201 25.2402 26.4125C25.2402 26.2049 25.0719 26.0366 24.8643 26.0366ZM26.8104 32.848C26.6029 32.848 26.4345 33.0164 26.4345 33.224C26.4345 33.4315 26.6029 33.5999 26.8104 33.5999C27.018 33.5999 27.1864 33.4315 27.1864 33.224C27.1864 33.0164 27.018 32.848 26.8104 32.848ZM24.8643 31.875C24.6567 31.875 24.4884 32.0433 24.4884 32.2509C24.4884 32.4585 24.6567 32.6268 24.8643 32.6268C25.0719 32.6268 25.2402 32.4585 25.2402 32.2509C25.2402 32.0433 25.0719 31.875 24.8643 31.875ZM26.8104 30.9019C26.6029 30.9019 26.4345 31.0702 26.4345 31.2778C26.4345 31.4854 26.6029 31.6537 26.8104 31.6537C27.018 31.6537 27.1864 31.4854 27.1864 31.2778C27.1864 31.0702 27.018 30.9019 26.8104 30.9019ZM24.8643 29.9288C24.6567 29.9288 24.4884 30.0972 24.4884 30.3048C24.4884 30.5123 24.6567 30.6807 24.8643 30.6807C25.0719 30.6807 25.2402 30.5123 25.2402 30.3048C25.2402 30.0972 25.0719 29.9288 24.8643 29.9288ZM26.8104 36.7403C26.6029 36.7403 26.4345 36.9086 26.4345 37.1162C26.4345 37.3238 26.6029 37.4921 26.8104 37.4921C27.018 37.4921 27.1864 37.3238 27.1864 37.1162C27.1864 36.9086 27.018 36.7403 26.8104 36.7403ZM24.8643 35.7672C24.6567 35.7672 24.4884 35.9356 24.4884 36.1431C24.4884 36.3507 24.6567 36.5191 24.8643 36.5191C25.0719 36.5191 25.2402 36.3507 25.2402 36.1431C25.2402 35.9356 25.0719 35.7672 24.8643 35.7672ZM26.8104 34.7942C26.6029 34.7942 26.4345 34.9625 26.4345 35.1701C26.4345 35.3777 26.6029 35.546 26.8104 35.546C27.018 35.546 27.1864 35.3777 27.1864 35.1701C27.1864 34.9625 27.018 34.7942 26.8104 34.7942ZM24.8643 33.8211C24.6567 33.8211 24.4884 33.9894 24.4884 34.197C24.4884 34.4046 24.6567 34.5729 24.8643 34.5729C25.0719 34.5729 25.2402 34.4046 25.2402 34.197C25.2402 33.9894 25.0719 33.8211 24.8643 33.8211ZM26.8104 40.6325C26.6029 40.6325 26.4345 40.8009 26.4345 41.0085C26.4345 41.2161 26.6029 41.3844 26.8104 41.3844C27.018 41.3844 27.1864 41.2161 27.1864 41.0085C27.1864 40.8009 27.018 40.6325 26.8104 40.6325ZM24.8643 39.6595C24.6567 39.6595 24.4884 39.8278 24.4884 40.0354C24.4884 40.243 24.6567 40.4113 24.8643 40.4113C25.0719 40.4113 25.2402 40.243 25.2402 40.0354C25.2402 39.8278 25.0719 39.6595 24.8643 39.6595ZM26.8104 38.6864C26.6029 38.6864 26.4345 38.8547 26.4345 39.0623C26.4345 39.2699 26.6029 39.4383 26.8104 39.4383C27.018 39.4383 27.1864 39.2699 27.1864 39.0623C27.1864 38.8547 27.018 38.6864 26.8104 38.6864ZM24.8643 37.7133C24.6567 37.7133 24.4884 37.8817 24.4884 38.0893C24.4884 38.2969 24.6567 38.4652 24.8643 38.4652C25.0719 38.4652 25.2402 38.2969 25.2402 38.0893C25.2402 37.8817 25.0719 37.7133 24.8643 37.7133ZM26.8104 44.5248C26.6029 44.5248 26.4345 44.6931 26.4345 44.9007C26.4345 45.1083 26.6029 45.2766 26.8104 45.2766C27.018 45.2766 27.1864 45.1083 27.1864 44.9007C27.1864 44.6931 27.018 44.5248 26.8104 44.5248ZM24.8643 43.5517C24.6567 43.5517 24.4884 43.7201 24.4884 43.9277C24.4884 44.1352 24.6567 44.3036 24.8643 44.3036C25.0719 44.3036 25.2402 44.1352 25.2402 43.9277C25.2402 43.7201 25.0719 43.5517 24.8643 43.5517ZM26.8104 42.5787C26.6029 42.5787 26.4345 42.747 26.4345 42.9546C26.4345 43.1622 26.6029 43.3305 26.8104 43.3305C27.018 43.3305 27.1864 43.1622 27.1864 42.9546C27.1864 42.747 27.018 42.5787 26.8104 42.5787ZM24.8643 41.6056C24.6567 41.6056 24.4884 41.7739 24.4884 41.9815C24.4884 42.1891 24.6567 42.3575 24.8643 42.3575C25.0719 42.3575 25.2402 42.1891 25.2402 41.9815C25.2402 41.7739 25.0719 41.6056 24.8643 41.6056ZM24.8643 47.444C24.6567 47.444 24.4884 47.6123 24.4884 47.8199C24.4884 48.0275 24.6567 48.1958 24.8643 48.1958C25.0719 48.1958 25.2402 48.0275 25.2402 47.8199C25.2402 47.6123 25.0719 47.444 24.8643 47.444ZM26.8104 46.4709C26.6029 46.4709 26.4345 46.6393 26.4345 46.8469C26.4345 47.0544 26.6029 47.2228 26.8104 47.2228C27.018 47.2228 27.1864 47.0544 27.1864 46.8469C27.1864 46.6393 27.018 46.4709 26.8104 46.4709ZM24.8643 45.4979C24.6567 45.4979 24.4884 45.6662 24.4884 45.8738C24.4884 46.0814 24.6567 46.2497 24.8643 46.2497C25.0719 46.2497 25.2402 46.0814 25.2402 45.8738C25.2402 45.6662 25.0719 45.4979 24.8643 45.4979ZM22.9182 21.1713C22.7106 21.1713 22.5423 21.3396 22.5423 21.5472C22.5423 21.7548 22.7106 21.9231 22.9182 21.9231C23.1258 21.9231 23.2941 21.7548 23.2941 21.5472C23.2941 21.3396 23.1258 21.1713 22.9182 21.1713ZM20.9721 20.1982C20.7645 20.1982 20.5961 20.3665 20.5961 20.5741C20.5961 20.7817 20.7645 20.95 20.9721 20.95C21.1796 20.95 21.348 20.7817 21.348 20.5741C21.348 20.3665 21.1796 20.1982 20.9721 20.1982ZM22.9182 25.0635C22.7106 25.0635 22.5423 25.2318 22.5423 25.4394C22.5423 25.647 22.7106 25.8154 22.9182 25.8154C23.1258 25.8154 23.2941 25.647 23.2941 25.4394C23.2941 25.2318 23.1258 25.0635 22.9182 25.0635ZM20.9721 24.0904C20.7645 24.0904 20.5961 24.2588 20.5961 24.4664C20.5961 24.674 20.7645 24.8423 20.9721 24.8423C21.1796 24.8423 21.348 24.674 21.348 24.4664C21.348 24.2588 21.1796 24.0904 20.9721 24.0904ZM22.9182 23.1174C22.7106 23.1174 22.5423 23.2857 22.5423 23.4933C22.5423 23.7009 22.7106 23.8692 22.9182 23.8692C23.1258 23.8692 23.2941 23.7009 23.2941 23.4933C23.2941 23.2857 23.1258 23.1174 22.9182 23.1174ZM20.9721 22.1443C20.7645 22.1443 20.5961 22.3127 20.5961 22.5202C20.5961 22.7278 20.7645 22.8962 20.9721 22.8962C21.1796 22.8962 21.348 22.7278 21.348 22.5202C21.348 22.3127 21.1796 22.1443 20.9721 22.1443ZM22.9182 28.9558C22.7106 28.9558 22.5423 29.1241 22.5423 29.3317C22.5423 29.5393 22.7106 29.7076 22.9182 29.7076C23.1258 29.7076 23.2941 29.5393 23.2941 29.3317C23.2941 29.1241 23.1258 28.9558 22.9182 28.9558ZM20.9721 27.9827C20.7645 27.9827 20.5961 28.151 20.5961 28.3586C20.5961 28.5662 20.7645 28.7346 20.9721 28.7346C21.1796 28.7346 21.348 28.5662 21.348 28.3586C21.348 28.151 21.1796 27.9827 20.9721 27.9827ZM22.9182 27.0096C22.7106 27.0096 22.5423 27.178 22.5423 27.3856C22.5423 27.5931 22.7106 27.7615 22.9182 27.7615C23.1258 27.7615 23.2941 27.5931 23.2941 27.3856C23.2941 27.178 23.1258 27.0096 22.9182 27.0096ZM20.9721 26.0366C20.7645 26.0366 20.5961 26.2049 20.5961 26.4125C20.5961 26.6201 20.7645 26.7884 20.9721 26.7884C21.1796 26.7884 21.348 26.6201 21.348 26.4125C21.348 26.2049 21.1796 26.0366 20.9721 26.0366ZM22.9182 32.848C22.7106 32.848 22.5423 33.0164 22.5423 33.224C22.5423 33.4315 22.7106 33.5999 22.9182 33.5999C23.1258 33.5999 23.2941 33.4315 23.2941 33.224C23.2941 33.0164 23.1258 32.848 22.9182 32.848ZM20.9721 31.875C20.7645 31.875 20.5961 32.0433 20.5961 32.2509C20.5961 32.4585 20.7645 32.6268 20.9721 32.6268C21.1796 32.6268 21.348 32.4585 21.348 32.2509C21.348 32.0433 21.1796 31.875 20.9721 31.875ZM22.9182 30.9019C22.7106 30.9019 22.5423 31.0702 22.5423 31.2778C22.5423 31.4854 22.7106 31.6537 22.9182 31.6537C23.1258 31.6537 23.2941 31.4854 23.2941 31.2778C23.2941 31.0702 23.1258 30.9019 22.9182 30.9019ZM22.9182 36.7403C22.7106 36.7403 22.5423 36.9086 22.5423 37.1162C22.5423 37.3238 22.7106 37.4921 22.9182 37.4921C23.1258 37.4921 23.2941 37.3238 23.2941 37.1162C23.2941 36.9086 23.1258 36.7403 22.9182 36.7403ZM20.9721 35.7672C20.7645 35.7672 20.5961 35.9356 20.5961 36.1431C20.5961 36.3507 20.7645 36.5191 20.9721 36.5191C21.1796 36.5191 21.348 36.3507 21.348 36.1431C21.348 35.9356 21.1796 35.7672 20.9721 35.7672ZM22.9182 34.7942C22.7106 34.7942 22.5423 34.9625 22.5423 35.1701C22.5423 35.3777 22.7106 35.546 22.9182 35.546C23.1258 35.546 23.2941 35.3777 23.2941 35.1701C23.2941 34.9625 23.1258 34.7942 22.9182 34.7942ZM20.9721 33.8211C20.7645 33.8211 20.5961 33.9894 20.5961 34.197C20.5961 34.4046 20.7645 34.5729 20.9721 34.5729C21.1796 34.5729 21.348 34.4046 21.348 34.197C21.348 33.9894 21.1796 33.8211 20.9721 33.8211ZM22.9182 40.6325C22.7106 40.6325 22.5423 40.8009 22.5423 41.0085C22.5423 41.2161 22.7106 41.3844 22.9182 41.3844C23.1258 41.3844 23.2941 41.2161 23.2941 41.0085C23.2941 40.8009 23.1258 40.6325 22.9182 40.6325ZM22.9182 38.6864C22.7106 38.6864 22.5423 38.8547 22.5423 39.0623C22.5423 39.2699 22.7106 39.4383 22.9182 39.4383C23.1258 39.4383 23.2941 39.2699 23.2941 39.0623C23.2941 38.8547 23.1258 38.6864 22.9182 38.6864ZM20.9721 37.7133C20.7645 37.7133 20.5961 37.8817 20.5961 38.0893C20.5961 38.2969 20.7645 38.4652 20.9721 38.4652C21.1796 38.4652 21.348 38.2969 21.348 38.0893C21.348 37.8817 21.1796 37.7133 20.9721 37.7133ZM22.9182 44.5248C22.7106 44.5248 22.5423 44.6931 22.5423 44.9007C22.5423 45.1083 22.7106 45.2766 22.9182 45.2766C23.1258 45.2766 23.2941 45.1083 23.2941 44.9007C23.2941 44.6931 23.1258 44.5248 22.9182 44.5248ZM20.9721 43.5517C20.7645 43.5517 20.5961 43.7201 20.5961 43.9277C20.5961 44.1352 20.7645 44.3036 20.9721 44.3036C21.1796 44.3036 21.348 44.1352 21.348 43.9277C21.348 43.7201 21.1796 43.5517 20.9721 43.5517ZM22.9182 42.5787C22.7106 42.5787 22.5423 42.747 22.5423 42.9546C22.5423 43.1622 22.7106 43.3305 22.9182 43.3305C23.1258 43.3305 23.2941 43.1622 23.2941 42.9546C23.2941 42.747 23.1258 42.5787 22.9182 42.5787ZM21.0372 42.3442C21.2124 42.3124 21.348 42.1658 21.348 41.9815C21.348 41.9546 21.3379 41.9313 21.3327 41.906L21.0372 42.3442ZM22.9182 48.4171C22.7106 48.4171 22.5423 48.5854 22.5423 48.793C22.5423 49.0006 22.7106 49.1689 22.9182 49.1689C23.1258 49.1689 23.2941 49.0006 23.2941 48.793C23.2941 48.5854 23.1258 48.4171 22.9182 48.4171ZM20.9721 47.444C20.7645 47.444 20.5961 47.6123 20.5961 47.8199C20.5961 48.0275 20.7645 48.1958 20.9721 48.1958C21.1796 48.1958 21.348 48.0275 21.348 47.8199C21.348 47.6123 21.1796 47.444 20.9721 47.444ZM22.9182 46.4709C22.7106 46.4709 22.5423 46.6393 22.5423 46.8469C22.5423 47.0544 22.7106 47.2228 22.9182 47.2228C23.1258 47.2228 23.2941 47.0544 23.2941 46.8469C23.2941 46.6393 23.1258 46.4709 22.9182 46.4709ZM20.9721 45.4979C20.7645 45.4979 20.5961 45.6662 20.5961 45.8738C20.5961 46.0814 20.7645 46.2497 20.9721 46.2497C21.1796 46.2497 21.348 46.0814 21.348 45.8738C21.348 45.6662 21.1796 45.4979 20.9721 45.4979ZM20.9721 49.3901C20.7645 49.3901 20.5961 49.5585 20.5961 49.766C20.5961 49.9736 20.7645 50.142 20.9721 50.142C21.1796 50.142 21.348 49.9736 21.348 49.766C21.348 49.5585 21.1796 49.3901 20.9721 49.3901ZM19.0259 21.1713C18.8183 21.1713 18.65 21.3396 18.65 21.5472C18.65 21.7548 18.8183 21.9231 19.0259 21.9231C19.2335 21.9231 19.4019 21.7548 19.4019 21.5472C19.4019 21.3396 19.2335 21.1713 19.0259 21.1713ZM17.0798 20.1982C16.8722 20.1982 16.7039 20.3665 16.7039 20.5741C16.7039 20.7817 16.8722 20.95 17.0798 20.95C17.2874 20.95 17.4557 20.7817 17.4557 20.5741C17.4557 20.3665 17.2874 20.1982 17.0798 20.1982ZM18.9212 19.2462C18.7655 19.2923 18.65 19.4304 18.65 19.601C18.65 19.8086 18.8183 19.977 19.0259 19.977C19.2335 19.977 19.4019 19.8086 19.4019 19.601C19.4019 19.5443 19.3873 19.4917 19.3649 19.4437L18.9212 19.2462ZM17.0798 18.4269L16.8618 18.3299C16.7684 18.3983 16.7039 18.5034 16.7039 18.628C16.7039 18.8356 16.8722 19.0039 17.0798 19.0039C17.2874 19.0039 17.4557 18.8356 17.4557 18.628C17.4557 18.6147 17.4496 18.6037 17.4483 18.5907L17.0798 18.4269ZM19.0259 25.0635C18.8183 25.0635 18.65 25.2318 18.65 25.4394C18.65 25.647 18.8183 25.8154 19.0259 25.8154C19.2335 25.8154 19.4019 25.647 19.4019 25.4394C19.4019 25.2318 19.2335 25.0635 19.0259 25.0635ZM17.0798 24.0904C16.8722 24.0904 16.7039 24.2588 16.7039 24.4664C16.7039 24.674 16.8722 24.8423 17.0798 24.8423C17.2874 24.8423 17.4557 24.674 17.4557 24.4664C17.4557 24.2588 17.2874 24.0904 17.0798 24.0904ZM19.0259 23.1174C18.8183 23.1174 18.65 23.2857 18.65 23.4933C18.65 23.7009 18.8183 23.8692 19.0259 23.8692C19.2335 23.8692 19.4019 23.7009 19.4019 23.4933C19.4019 23.2857 19.2335 23.1174 19.0259 23.1174ZM17.0798 22.1443C16.8722 22.1443 16.7039 22.3127 16.7039 22.5202C16.7039 22.7278 16.8722 22.8962 17.0798 22.8962C17.2874 22.8962 17.4557 22.7278 17.4557 22.5202C17.4557 22.3127 17.2874 22.1443 17.0798 22.1443ZM19.0259 27.0096C18.9977 27.0096 18.9731 27.0197 18.9465 27.0255L19.3804 27.4913C19.3908 27.4572 19.4019 27.4232 19.4019 27.3856C19.4019 27.178 19.2335 27.0096 19.0259 27.0096ZM19.0259 32.848C18.8183 32.848 18.65 33.0164 18.65 33.224C18.65 33.4315 18.8183 33.5999 19.0259 33.5999C19.2335 33.5999 19.4019 33.4315 19.4019 33.224C19.4019 33.0164 19.2335 32.848 19.0259 32.848ZM17.2319 31.9084L17.0798 31.9522L16.7778 32.0388C16.7347 32.0997 16.7039 32.1704 16.7039 32.2509C16.7039 32.4585 16.8722 32.6268 17.0798 32.6268C17.2874 32.6268 17.4557 32.4585 17.4557 32.2509C17.4557 32.0978 17.3633 31.9671 17.2319 31.9084ZM19.0259 31.6537C19.2306 31.6537 19.3954 31.4896 19.4002 31.2863L18.7184 31.4818C18.7856 31.583 18.8952 31.6537 19.0259 31.6537ZM19.0259 36.7403C18.8183 36.7403 18.65 36.9086 18.65 37.1162C18.65 37.3238 18.8183 37.4921 19.0259 37.4921C19.2335 37.4921 19.4019 37.3238 19.4019 37.1162C19.4019 36.9086 19.2335 36.7403 19.0259 36.7403ZM17.0798 35.7672C16.8722 35.7672 16.7039 35.9356 16.7039 36.1431C16.7039 36.3507 16.8722 36.5191 17.0798 36.5191C17.2874 36.5191 17.4557 36.3507 17.4557 36.1431C17.4557 35.9356 17.2874 35.7672 17.0798 35.7672ZM19.0259 34.7942C18.8183 34.7942 18.65 34.9625 18.65 35.1701C18.65 35.3777 18.8183 35.546 19.0259 35.546C19.2335 35.546 19.4019 35.3777 19.4019 35.1701C19.4019 34.9625 19.2335 34.7942 19.0259 34.7942ZM17.0798 33.8211C16.8722 33.8211 16.7039 33.9894 16.7039 34.197C16.7039 34.4046 16.8722 34.5729 17.0798 34.5729C17.2874 34.5729 17.4557 34.4046 17.4557 34.197C17.4557 33.9894 17.2874 33.8211 17.0798 33.8211ZM19.0259 38.6864C18.8183 38.6864 18.65 38.8547 18.65 39.0623C18.65 39.0666 18.6523 39.0698 18.6523 39.074L19.3814 39.1639C19.3908 39.1308 19.4019 39.0983 19.4019 39.0627C19.4019 38.8547 19.2335 38.6864 19.0259 38.6864ZM17.0798 37.7133C16.8722 37.7133 16.7039 37.8817 16.7039 38.0893C16.7039 38.2969 16.8722 38.4652 17.0798 38.4652C17.2874 38.4652 17.4557 38.2969 17.4557 38.0893C17.4557 37.8817 17.2874 37.7133 17.0798 37.7133ZM19.3136 44.9007L19.0655 45.2685C19.2533 45.2478 19.4015 45.094 19.4015 44.9007C19.4015 44.865 19.3905 44.8329 19.3811 44.8002L19.3136 44.9007ZM19.0259 48.4171C18.8183 48.4171 18.65 48.5854 18.65 48.793C18.65 49.0006 18.8183 49.1689 19.0259 49.1689C19.2335 49.1689 19.4019 49.0006 19.4019 48.793C19.4019 48.5854 19.2335 48.4171 19.0259 48.4171ZM17.0941 48.1929C17.2945 48.1848 17.4554 48.0223 17.4554 47.8199C17.4554 47.7755 17.4444 47.734 17.4301 47.6944L17.0941 48.1929ZM19.0259 46.4709C18.8183 46.4709 18.65 46.6393 18.65 46.8469C18.65 47.0544 18.8183 47.2228 19.0259 47.2228C19.2335 47.2228 19.4019 47.0544 19.4019 46.8469C19.4019 46.6393 19.2335 46.4709 19.0259 46.4709ZM20.5961 51.7122C20.5961 51.7252 20.6023 51.7359 20.6036 51.7485L20.9721 51.5095L21.1553 51.3907C21.1005 51.3593 21.0402 51.3363 20.9721 51.3363C20.7645 51.3363 20.5961 51.5046 20.5961 51.7122ZM19.0259 52.3093C18.8183 52.3093 18.65 52.4777 18.65 52.6852C18.65 52.7871 18.6912 52.8789 18.757 52.9467L19.1599 52.6852L19.374 52.5464C19.3185 52.4079 19.1842 52.3093 19.0259 52.3093ZM17.0798 51.3363C16.8722 51.3363 16.7039 51.5046 16.7039 51.7122C16.7039 51.9198 16.8722 52.0881 17.0798 52.0881C17.2874 52.0881 17.4557 51.9198 17.4557 51.7122C17.4557 51.5046 17.2874 51.3363 17.0798 51.3363ZM19.0259 50.3632C18.8183 50.3632 18.65 50.5315 18.65 50.7391C18.65 50.9467 18.8183 51.115 19.0259 51.115C19.2335 51.115 19.4019 50.9467 19.4019 50.7391C19.4019 50.5315 19.2335 50.3632 19.0259 50.3632ZM17.0798 49.3901C16.8722 49.3901 16.7039 49.5585 16.7039 49.766C16.7039 49.9736 16.8722 50.142 17.0798 50.142C17.2874 50.142 17.4557 49.9736 17.4557 49.766C17.4557 49.5585 17.2874 49.3901 17.0798 49.3901ZM17.0798 53.2824C16.8722 53.2824 16.7039 53.4507 16.7039 53.6583C16.7039 53.8659 16.8722 54.0342 17.0798 54.0342L17.0811 54.0339L17.4197 53.8143C17.4418 53.7666 17.4557 53.7144 17.4557 53.6583C17.4557 53.4507 17.2874 53.2824 17.0798 53.2824ZM15.1337 21.1713C14.9261 21.1713 14.7577 21.3396 14.7577 21.5472C14.7577 21.7548 14.9261 21.9231 15.1337 21.9231C15.3413 21.9231 15.5096 21.7548 15.5096 21.5472C15.5096 21.3396 15.3413 21.1713 15.1337 21.1713ZM13.1875 20.1982C13.0185 20.1982 12.881 20.3117 12.8337 20.4648L13.1875 20.8446L13.2702 20.9335C13.437 20.8949 13.5635 20.7525 13.5635 20.5741C13.5635 20.3665 13.3951 20.1982 13.1875 20.1982ZM15.1337 19.2251C14.9261 19.2251 14.7577 19.3935 14.7577 19.601C14.7577 19.8086 14.9261 19.977 15.1337 19.977C15.3413 19.977 15.5096 19.8086 15.5096 19.601C15.5096 19.3935 15.3413 19.2251 15.1337 19.2251ZM13.1875 18.2521C12.98 18.2521 12.8116 18.4204 12.8116 18.628C12.8116 18.8356 12.98 19.0039 13.1875 19.0039C13.3951 19.0039 13.5635 18.8356 13.5635 18.628C13.5635 18.4204 13.3951 18.2521 13.1875 18.2521ZM15.1337 18.0308C15.3176 18.0308 15.4632 17.8966 15.496 17.7221L15.3448 17.6549L14.8398 17.4301C14.7911 17.4934 14.7574 17.569 14.7574 17.6549C14.7577 17.8625 14.9261 18.0308 15.1337 18.0308ZM15.1337 32.848C14.9261 32.848 14.7577 33.0164 14.7577 33.224C14.7577 33.4315 14.9261 33.5999 15.1337 33.5999C15.3413 33.5999 15.5096 33.4315 15.5096 33.224C15.5096 33.0164 15.3413 32.848 15.1337 32.848ZM15.1337 36.7403C14.9261 36.7403 14.7577 36.9086 14.7577 37.1162C14.7577 37.3238 14.9261 37.4921 15.1337 37.4921C15.3413 37.4921 15.5096 37.3238 15.5096 37.1162C15.5096 36.9086 15.3413 36.7403 15.1337 36.7403ZM13.1875 35.7672C12.98 35.7672 12.8116 35.9356 12.8116 36.1431C12.8116 36.3507 12.98 36.5191 13.1875 36.5191C13.3951 36.5191 13.5635 36.3507 13.5635 36.1431C13.5635 35.9356 13.3951 35.7672 13.1875 35.7672ZM15.1337 34.7942C14.9261 34.7942 14.7577 34.9625 14.7577 35.1701C14.7577 35.3777 14.9261 35.546 15.1337 35.546C15.3413 35.546 15.5096 35.3777 15.5096 35.1701C15.5096 34.9625 15.3413 34.7942 15.1337 34.7942ZM13.1875 33.8211C12.98 33.8211 12.8116 33.9894 12.8116 34.197C12.8116 34.4046 12.98 34.5729 13.1875 34.5729C13.3951 34.5729 13.5635 34.4046 13.5635 34.197C13.5635 33.9894 13.3951 33.8211 13.1875 33.8211ZM13.1875 37.7133C12.98 37.7133 12.8116 37.8817 12.8116 38.0893C12.8116 38.2031 12.8648 38.3017 12.9449 38.3705L13.1875 38.4003L13.3552 38.4211C13.4775 38.3591 13.5635 38.2356 13.5635 38.0893C13.5635 37.8817 13.3951 37.7133 13.1875 37.7133ZM15.1337 52.3093C14.9261 52.3093 14.7577 52.4777 14.7577 52.6852C14.7577 52.8928 14.9261 53.0612 15.1337 53.0612C15.3413 53.0612 15.5096 52.8928 15.5096 52.6852C15.5096 52.4777 15.3413 52.3093 15.1337 52.3093ZM15.1252 51.1134C15.1282 51.1134 15.1307 51.115 15.1337 51.115C15.3413 51.115 15.5096 50.9467 15.5096 50.7391C15.5096 50.6859 15.4979 50.636 15.4781 50.5899L15.1252 51.1134ZM13.1875 55.2285C12.98 55.2285 12.8116 55.3968 12.8116 55.6044C12.8116 55.812 12.98 55.9804 13.1875 55.9804C13.3951 55.9804 13.5635 55.812 13.5635 55.6044C13.5635 55.3968 13.3951 55.2285 13.1875 55.2285ZM15.1337 54.2554C14.9261 54.2554 14.7577 54.4238 14.7577 54.6314C14.7577 54.839 14.9261 55.0073 15.1337 55.0073C15.3413 55.0073 15.5096 54.839 15.5096 54.6314C15.5096 54.4238 15.3413 54.2554 15.1337 54.2554ZM13.1875 53.9875L13.16 54.0284C13.1697 54.029 13.1778 54.0339 13.1875 54.0339C13.3951 54.0339 13.5635 53.8656 13.5635 53.658C13.5635 53.5976 13.5463 53.5432 13.521 53.4926L13.1875 53.9875ZM13.1875 17.0578C13.3364 17.0578 13.4623 16.9696 13.5232 16.8444L13.1875 16.6952L12.8402 16.5408C12.8223 16.5845 12.8116 16.6319 12.8116 16.6822C12.8116 16.8894 12.98 17.0578 13.1875 17.0578ZM11.2414 17.279C11.0338 17.279 10.8655 17.4473 10.8655 17.6549C10.8655 17.8625 11.0338 18.0308 11.2414 18.0308C11.449 18.0308 11.6173 17.8625 11.6173 17.6549C11.6173 17.4473 11.449 17.279 11.2414 17.279ZM9.29528 16.3059C9.19992 16.3059 9.11526 16.3445 9.04909 16.4029L9.29528 16.6673L9.55833 16.9494C9.62774 16.8813 9.67121 16.7869 9.67121 16.6819C9.67121 16.4743 9.50287 16.3059 9.29528 16.3059ZM11.2414 16.0847C11.3543 16.0847 11.4526 16.0325 11.5213 15.9537L10.8742 15.6657C10.8726 15.6806 10.8655 15.6935 10.8655 15.7088C10.8655 15.9164 11.0338 16.0847 11.2414 16.0847ZM11.2414 36.7403C11.0338 36.7403 10.8655 36.9086 10.8655 37.1162C10.8655 37.3238 11.0338 37.4921 11.2414 37.4921C11.449 37.4921 11.6173 37.3238 11.6173 37.1162C11.6173 36.9086 11.449 36.7403 11.2414 36.7403ZM9.29528 35.7672C9.08769 35.7672 8.91935 35.9356 8.91935 36.1431C8.91935 36.3507 9.08769 36.5191 9.29528 36.5191C9.50287 36.5191 9.67121 36.3507 9.67121 36.1431C9.67121 35.9356 9.50287 35.7672 9.29528 35.7672ZM11.2414 34.7942C11.0338 34.7942 10.8655 34.9625 10.8655 35.1701C10.8655 35.3777 11.0338 35.546 11.2414 35.546C11.449 35.546 11.6173 35.3777 11.6173 35.1701C11.6173 34.9625 11.449 34.7942 11.2414 34.7942ZM9.29528 34.186L8.93784 34.2885C8.97968 34.4507 9.12013 34.5726 9.29528 34.5726C9.50287 34.5726 9.67121 34.4043 9.67121 34.1967C9.67121 34.1568 9.66018 34.1205 9.6485 34.0845L9.29528 34.186ZM9.29528 37.7133C9.16554 37.7133 9.05656 37.7831 8.98909 37.8833L9.29528 37.9209L9.64591 37.9641C9.59401 37.8188 9.45843 37.7133 9.29528 37.7133ZM11.4415 56.5775L11.1944 56.944C11.2106 56.946 11.2245 56.9534 11.2414 56.9534C11.449 56.9534 11.6173 56.7851 11.6173 56.5775C11.6173 56.5104 11.595 56.4504 11.5638 56.3959L11.4415 56.5775ZM9.29528 15.1117C9.36826 15.1117 9.43216 15.0854 9.48989 15.0497L9.29528 14.9631L8.93265 14.8019C8.96476 14.9767 9.11105 15.1117 9.29528 15.1117ZM7.34915 14.1386C7.37186 14.1386 7.39164 14.1295 7.41337 14.1256L7.0355 13.9573C7.10167 14.064 7.21422 14.1386 7.34915 14.1386ZM7.34915 36.7403C7.14156 36.7403 6.97322 36.9086 6.97322 37.1162C6.97322 37.3238 7.14156 37.4921 7.34915 37.4921C7.55674 37.4921 7.72508 37.3238 7.72508 37.1162C7.72508 36.9086 7.55674 36.7403 7.34915 36.7403ZM5.40302 35.7672C5.19544 35.7672 5.0271 35.9356 5.0271 36.1431C5.0271 36.3507 5.19544 36.5191 5.40302 36.5191C5.61061 36.5191 5.77895 36.3507 5.77895 36.1431C5.77895 35.9356 5.61061 35.7672 5.40302 35.7672ZM7.34915 34.7942C7.14156 34.7942 6.97322 34.9625 6.97322 35.1701C6.97322 35.3777 7.14156 35.546 7.34915 35.546C7.55674 35.546 7.72508 35.3777 7.72508 35.1701C7.72508 34.9625 7.55674 34.7942 7.34915 34.7942ZM3.45689 36.7403C3.24931 36.7403 3.08097 36.9086 3.08097 37.1162C3.08097 37.1305 3.08745 37.1425 3.08908 37.1564L3.80687 37.245C3.82179 37.2044 3.83282 37.1619 3.83282 37.1165C3.83282 36.9086 3.66448 36.7403 3.45689 36.7403ZM1.33594 36.4704C1.38881 36.499 1.44654 36.5191 1.51076 36.5191C1.64959 36.5191 1.76603 36.4403 1.8309 36.3284L1.51076 36.4201L1.33594 36.4704Z" fill="white"/>
<path d="M32.1515 69L31.2025 68.9085L28.8898 46.9517L10.3682 58.9687L9.70003 58.2885L22.0421 39.9819L0.129289 37.282L0.0546875 36.3316L21.2766 30.2412L6.22586 14.0877L6.77954 13.3115L26.9512 22.2874L25.8049 0.238401L26.728 0L36.411 19.8418L49.7053 2.21469L50.5658 2.62533L45.2292 24.049L66.744 19.0912L67.1394 19.9589L49.2804 32.9402L68.9483 42.9715L68.6934 43.8904L46.6684 42.3552L55.2865 62.6822L54.5006 63.2223L38.6153 47.8887L32.1515 69ZM29.0257 45.7035L29.7743 46.0607L31.92 66.4324L37.9173 46.8456L38.7204 46.638L53.4587 60.8642L45.4627 42.0049L45.9444 41.3296L66.3791 42.7542L48.1312 33.4471L48.0663 32.62L64.636 20.5761L44.6749 25.1758L44.0936 24.5838L49.0449 4.70704L36.71 21.0613L35.8842 20.9815L26.9006 2.57246L27.9641 23.0292L27.2804 23.4989L8.56511 15.171L22.5292 30.1582L22.3074 30.9574L2.61806 36.6083L22.9486 39.1133L23.2924 39.8681L11.8414 56.8529L29.0257 45.7035Z" fill="#231F20"/>
</g>
<defs>
<clipPath id="clip0_1_45173">
<rect width="69" height="69" fill="white"/>
</clipPath>
</defs>
</svg>
