<svg width="54" height="47" viewBox="0 0 54 47" fill="none" xmlns="http://www.w3.org/2000/svg">
<path d="M52.0258 2.42368L43.9326 43.7552C43.9326 43.7552 42.8011 46.622 39.6866 45.2463L21.0081 30.7425L14.2159 27.4177L2.78255 23.5212C2.78255 23.5212 1.02683 22.8918 0.857194 21.5161C0.68756 20.1403 2.83683 19.3956 2.83683 19.3956L48.2905 1.33802C48.2905 1.33293 52.0258 -0.329495 52.0258 2.42368Z" fill="white"/>
<path d="M41.2785 46.0453C40.7238 46.0453 40.1352 45.9079 39.516 45.6348L20.7494 31.0768L14.0318 27.7977L2.64933 23.9216C2.56112 23.8893 0.639152 23.1837 0.438983 21.5653C0.228636 19.869 2.60014 19.0276 2.70192 18.992L48.1352 0.941147L48.1403 0.953021C48.7035 0.639197 50.1878 0.243952 51.1309 0.498404C51.6246 0.629023 52.4507 1.0548 52.4507 2.42376L52.4422 2.50518L44.3489 43.8367C44.3065 43.9673 43.7756 45.2752 42.4575 45.8163C42.0843 45.969 41.6908 46.0453 41.2785 46.0453ZM48.6678 1.63834V1.64174L48.449 1.72995L2.99538 19.7876C2.95976 19.8011 1.15654 20.4593 1.27868 21.4619C1.41269 22.5492 2.91226 23.1158 2.92753 23.1209L14.3541 27.0157L21.1955 30.3609L39.9486 44.9122C40.7221 45.2379 41.4855 45.2972 42.1369 45.0309C43.1259 44.6255 43.5364 43.6094 43.5398 43.5992L51.6025 2.38305C51.5957 1.91825 51.4634 1.60951 51.2022 1.43987C50.5644 1.03105 49.2497 1.41782 48.6678 1.63834Z" fill="#300030"/>
<path d="M19.568 43.2875C19.568 43.2875 19.0235 43.2366 18.3432 41.0568C17.6647 38.8787 14.2109 27.4131 14.2109 27.4131L41.6646 9.75578C41.6646 9.75578 43.249 8.78038 43.193 9.75578C43.193 9.75578 43.4746 9.9271 42.6265 10.7312C41.7783 11.5352 21.0591 30.3935 21.0591 30.3935L19.568 43.2875Z" fill="white"/>
<path d="M19.9416 43.7478L19.5294 43.7105C19.2207 43.6816 18.6032 43.3169 17.9382 41.1846C17.2597 39.0065 13.8042 27.5375 13.8042 27.5375L13.7109 27.2305L13.9807 27.0574L41.4344 9.40185C41.8059 9.17115 42.7134 8.68599 43.2613 9.01339C43.3851 9.08633 43.5768 9.25427 43.6142 9.59693L43.66 9.80219C43.6956 10.1398 43.4683 10.5231 42.9203 11.0405C42.1027 11.8158 23.3089 28.9234 21.4649 30.6028L19.9416 43.7478ZM14.7084 27.5969C15.2614 29.4323 18.135 38.9641 18.7474 40.9302C18.9374 41.5392 19.1121 41.9632 19.2597 42.255L20.6558 30.1872L20.7728 30.0803C20.9798 29.892 41.4988 11.2153 42.3334 10.4214C42.5726 10.194 42.693 10.0414 42.7558 9.95147L42.7677 9.74791C42.5777 9.77166 42.1926 9.92772 41.8839 10.1177L14.7084 27.5969Z" fill="#53539D"/>
<path d="M41.2764 46.4698C40.6657 46.4698 40.2852 46.5105 39.6101 46.212L39.1916 45.9355L27.8108 38.7896L21.3545 43.7455C20 44.5 20.3452 44.4953 19.324 44.1034C18.3198 43.8303 17.7362 42.9575 17.5343 42.3112C16.9661 40.4876 14.4487 32.1399 13.6463 29.4801L13.5259 29.0814L8.01784 26.7036L2.5098 24.3257C2.40462 24.2884 0.246872 23.4945 0.0161687 21.62C-0.184 19.9949 1.52083 17.9534 2.56069 17.5937L47.9787 0.549686L47.9838 0.563256C48.703 0.20872 50.3706 -0.257775 51.4935 0.173097C52.0092 0.373266 53.8744 0.929667 53.8744 2.42585L45.7641 43.9202C45.6589 44.2256 44.0754 45.6115 42.6165 46.212C42.1908 46.3833 41.7446 46.4698 41.2764 46.4698ZM40.106 44.5037C40.8235 44.8057 41.4512 44.8481 41.9719 44.6378C42.7692 44.3121 43.139 43.452 43.1424 43.4435L51.1933 2.2613C51.178 2.09675 51.1085 1.88641 50.9711 1.79989C50.5979 1.55732 49.6479 1.73373 48.9626 1.97971L48.9609 1.9831L3.14932 20.1815C2.59122 20.3783 1.63787 20.9245 1.69724 21.4097C1.78545 22.1221 2.79987 22.626 3.0679 22.7209L14.8524 26.7379L14.9966 27.1009C14.9966 27.1009 15.1001 27.4283 15.268 27.9864C16.0704 30.6446 18.5844 38.9804 19.1527 40.8057C19.5276 42.0101 19.8278 42.4138 19.9177 42.5139C20.0806 42.5784 20.274 42.4427 20.2757 42.4393L27.6751 35.6064L40.106 44.5037Z" fill="#53539D"/>
</svg>
