<svg width="56" height="57" viewBox="0 0 56 57" fill="none" xmlns="http://www.w3.org/2000/svg">
<g clip-path="url(#clip0_1_45181)">
<path d="M55.4237 9.45414L55.3327 7.98207L55.2415 6.50954L55.1502 5.03769L55.0589 3.5647L54.9677 2.09081L54.8762 0.616699L53.6475 1.4318L52.4184 2.24713L51.1902 3.062L49.9606 3.87756L48.7304 4.69379L47.5001 5.5098L47.9274 5.72253L48.3554 5.93548L48.7825 6.1482L49.2109 6.36138L49.6398 6.57478L50.0686 6.78841L48.5422 10.0654L47.0162 13.3416L45.4898 16.6188L43.9636 19.8951L42.4365 23.1736L40.9094 26.4519L39.2851 24.8928L37.6602 23.3331L36.0364 21.7745L34.411 20.2143L32.7844 18.6531L31.1579 17.0918L29.4893 20.6207L27.8211 24.1484L26.1525 27.6775L24.4836 31.2068L22.8145 34.7366L21.1454 38.2661L19.6955 36.4298L18.2452 34.5929L16.7944 32.7554L15.3438 30.9184L13.8925 29.0802L12.441 27.2421L10.4008 32.1313L8.36081 37.0208L6.32058 41.9101L4.28035 46.7995L2.23967 51.6899L0.199219 56.5801H3.60443L5.21759 52.7139L6.8303 48.8488L8.44369 44.9824L10.0571 41.1158L11.6707 37.2487L13.2843 33.3816L14.7061 35.1824L16.1284 36.9834L17.5511 38.7853L18.9732 40.5866L20.3966 42.3892L21.8197 44.1916L23.5382 40.5571L25.2564 36.9238L26.9751 33.2892L28.694 29.6543L30.4129 26.019L32.1321 22.3834L33.7595 23.9459L35.3876 25.5086L37.0148 27.0704L38.6434 28.6335L40.2731 30.1978L41.9027 31.7621L43.7326 27.8336L45.562 23.906L47.3921 19.9773L49.2222 16.0484L51.0525 12.1187L52.8828 8.18935L53.3056 8.39958L53.7288 8.61027L54.1516 8.82073L54.5753 9.03164L54.9996 9.24278L55.4237 9.45414Z" fill="#FFC700"/>
<path d="M3.60532 56.9199H0.200112L-0.113281 56.4491L12.1285 27.1111L12.7085 27.0314L21.0736 37.6256L30.8518 16.9466L31.3939 16.8467L40.8029 25.8778L49.6216 6.94493L47.3495 5.81402L47.3131 5.2266L54.6894 0.333496L55.2161 0.595606L55.7636 9.43305L55.2734 9.75836L53.0443 8.64876L42.2114 31.9054L41.6684 32.0072L32.238 22.9554L22.1275 44.3368L21.5539 44.402L13.3762 34.0451L3.91872 56.711L3.60532 56.9199ZM0.710056 56.2402H3.37911L12.9718 33.2506L13.5517 33.1709L21.7477 43.5511L31.8259 22.2382L32.368 22.1383L41.7963 31.188L52.5758 8.0457L53.035 7.88508L55.0492 8.88776L54.5743 1.2254L48.1788 5.46809L50.2206 6.48436L50.377 6.93224L41.218 26.5957L40.675 26.6974L31.2639 17.6643L21.4531 38.4117L20.8796 38.477L12.5327 27.9058L0.710056 56.2402Z" fill="#231F20"/>
</g>
<defs>
<clipPath id="clip0_1_45181">
<rect width="55.5637" height="56.5864" fill="white" transform="translate(0.199219 0.333496)"/>
</clipPath>
</defs>
</svg>
