<svg width="117" height="38" viewBox="0 0 117 38" fill="none" xmlns="http://www.w3.org/2000/svg">
<path d="M71.4095 0.458496C70.562 0.695995 69.8606 0.838497 69.8606 0.814747C69.8606 0.767246 69.0423 1.05225 68.0487 1.47974C65.4185 2.57225 63.1389 4.47224 61.7946 6.776C60.684 8.62849 60.6548 8.77099 60.5671 11.6685C60.4503 14.566 60.4795 14.6847 61.3562 16.2522C62.0284 17.4397 62.7882 18.2947 64.3079 19.506C65.4477 20.4085 66.4998 21.1447 66.6459 21.1447C66.8212 21.1447 67.1719 21.311 67.435 21.501C67.7272 21.6672 68.9254 22.4035 70.1236 23.0922C72.8123 24.636 73.8644 26.0372 73.3384 27.3435C71.994 30.5735 66.266 31.096 59.9827 28.5547C57.9077 27.7235 58.0538 27.6285 57.6155 30.051C57.4693 30.9535 57.1771 32.4022 56.9725 33.2572C56.388 35.8697 56.388 35.9172 57.9369 36.511C58.6968 36.796 59.632 37.1047 59.9827 37.1522C60.3626 37.1997 61.5608 37.4372 62.6713 37.651C65.3892 38.1735 69.8898 38.1022 72.4616 37.4847C77.839 36.1785 81.1414 33.6372 82.8948 29.4572C83.2748 28.4835 83.4209 27.4622 83.4209 25.4197C83.4209 22.8785 83.3624 22.5935 82.5149 21.0972C81.1706 18.7697 78.3066 16.4422 74.5366 14.661C73.0753 13.9722 71.2342 12.6422 70.7666 11.906C69.9191 10.6472 70.7374 9.151 72.8123 8.31974C74.4781 7.63099 77.6052 7.6785 80.3815 8.4385C81.5797 8.77099 82.6903 9.151 82.8364 9.26974C83.4793 9.79224 83.83 9.45975 84.0054 8.01099C84.1223 7.2035 84.473 5.46975 84.7945 4.18724C85.1744 2.69099 85.2913 1.76474 85.0867 1.5985C84.9406 1.47974 83.8593 1.09975 82.661 0.790997C79.7678 -0.0402527 73.7767 -0.206505 71.4095 0.458496Z" fill="#DEE7FF"/>
<path d="M0.130291 0.814922C-0.24963 1.64617 0.159516 2.00242 1.913 2.40617C5.30307 3.14242 9.716 4.94742 10.4174 5.87367C10.7389 6.30117 11.5279 8.36742 11.8202 9.50742C12.4631 12.0962 13.5444 16.2762 14.1582 18.6512C14.5965 20.2187 15.0641 22.0949 15.2395 22.8074C15.4148 23.5199 15.5902 24.2087 15.6486 24.3512C15.9409 25.4199 16.087 26.0137 16.4961 27.5574C16.7299 28.5312 17.2852 30.6687 17.6944 32.3074C18.1035 33.9462 18.6003 35.7274 18.7757 36.2974L19.0971 37.2949L24.2115 37.2474L29.3258 37.1762L30.8747 33.3762C31.7515 31.2862 32.8035 28.7687 33.2127 27.7949C33.6218 26.8212 34.0018 25.8949 34.031 25.7762C34.0894 25.6337 34.2063 25.3724 34.294 25.1824C34.4109 24.9924 35.4045 22.5937 36.5443 19.8387C37.6841 17.0837 39.8759 11.8587 41.4248 8.20117C42.9445 4.54367 44.2596 1.31367 44.3473 1.00492L44.4934 0.482422H39.496C34.9662 0.482422 34.4694 0.529922 34.3232 0.886173C34.2356 1.12367 34.031 1.52742 33.8849 1.78867C33.768 2.04992 33.4465 2.78617 33.2127 3.45117C32.1606 6.30117 29.7349 12.5237 29.5011 12.9512C29.3842 13.2124 29.0336 14.0199 28.7705 14.7324C28.5075 15.4449 28.0399 16.6324 27.7477 17.3449C27.4554 18.0574 26.8125 19.7674 26.3157 21.1449C25.4681 23.4012 24.5914 25.3012 24.5622 24.8974C24.5622 24.8262 24.2407 22.9499 23.8023 20.7412C23.3932 18.5562 22.9256 15.9437 22.7795 14.9699C22.6041 13.9962 22.2826 12.2862 22.0488 11.1699C21.815 10.0537 21.4059 8.08242 21.2013 6.77617C20.6168 3.52242 20.3538 2.76242 19.5647 1.95492C18.1912 0.577423 18.3665 0.601173 8.98538 0.529922C1.4454 0.458672 0.276415 0.506172 0.130291 0.814922Z" fill="#DEE7FF"/>
<path d="M48.117 1.36098C48.0293 1.85973 47.8832 2.52473 47.7955 2.85723C47.7371 3.18973 47.5325 4.09223 47.3864 4.87598C47.211 5.65973 46.6265 8.48598 46.042 11.1697C45.4575 13.8535 44.8146 16.941 44.5808 18.0572C44.347 19.1735 44.0255 20.7172 43.8502 21.501C43.6748 22.2847 43.3534 23.876 43.1196 25.0635C42.8858 26.2272 42.5643 27.7947 42.3889 28.5072C42.2428 29.2197 41.8921 30.7635 41.6583 31.951C41.3953 33.1385 41.0738 34.611 40.9277 35.276C40.4309 37.4847 40.0217 37.2947 45.4283 37.2947H50.2212L50.5134 35.7985C50.6888 34.991 51.1564 32.7822 51.5655 30.8822C51.9747 28.9822 52.4423 26.7497 52.6176 25.8947C52.7929 25.0397 52.9975 24.0897 53.0852 23.7572C53.1729 23.4247 53.3482 22.5222 53.4943 21.7385C53.6405 20.9547 53.9035 19.7197 54.0788 19.0072C54.2542 18.2947 54.6049 16.7985 54.8095 15.6822C55.0433 14.566 55.3647 13.0222 55.5401 12.2385C55.7154 11.4547 56.0369 9.91098 56.2707 8.79473C56.5045 7.67848 56.826 6.15848 57.0013 5.39848C57.615 2.59598 57.8781 1.28973 57.8781 0.885983C57.8781 0.529732 57.4689 0.482231 53.0852 0.482231H48.3216L48.117 1.36098Z" fill="#DEE7FF"/>
<path d="M99.8455 0.719921C98.8519 0.957424 97.829 1.88367 97.1861 3.07117C96.923 3.52242 95.3449 7.20367 93.6791 11.2649C91.9841 15.3262 89.0324 22.4512 87.1035 27.0824C85.1455 31.7137 83.5089 35.6799 83.4504 35.8699C83.392 36.0599 83.2459 36.4637 83.129 36.7724L82.9536 37.2949L88.0095 37.2474L93.0654 37.1762L93.4745 36.1074C93.6791 35.5137 94.0882 34.3499 94.3513 33.4949L94.8481 31.9512L100.868 31.8799C105.574 31.8324 106.889 31.8799 106.918 32.1174C106.918 32.2837 107.152 33.4474 107.385 34.6824C107.649 35.9174 107.853 37.0099 107.853 37.1049C107.853 37.2237 109.899 37.2949 112.412 37.2949H117L116.796 36.4162C116.679 35.9174 116.416 34.6112 116.182 33.4949C115.831 31.7137 115.13 28.3649 113.143 19.0074C112.558 16.1812 112.471 15.7537 111.798 12.3574C111.565 11.2412 111.243 9.69742 111.068 8.91367C110.892 8.12992 110.542 6.51492 110.337 5.35117C110.103 4.16367 109.87 2.99992 109.782 2.73867C109.694 2.47742 109.548 1.85992 109.46 1.36117L109.285 0.482422L104.989 0.506172C102.622 0.506172 100.313 0.624924 99.8455 0.719921ZM102.885 12.5949C103.06 13.4499 103.265 14.3999 103.323 14.7324C103.382 15.0649 103.849 17.2499 104.346 19.5774C104.814 21.9287 105.223 23.9237 105.223 24.0424C105.223 24.1374 103.586 24.2324 101.57 24.2324C97.5075 24.2324 97.6537 24.3037 98.3258 22.5462C98.5304 21.9762 98.8811 21.0262 99.0857 20.4324C99.2902 19.8387 99.524 19.1974 99.6117 19.0074C99.6994 18.8174 99.7871 18.4849 99.8455 18.2949C99.904 18.1049 100.225 17.2499 100.576 16.3949C100.898 15.5399 101.219 14.6374 101.278 14.3762C101.336 14.1149 101.57 13.4262 101.833 12.8324C102.096 12.2387 102.3 11.5499 102.3 11.3124C102.3 10.4812 102.563 11.0274 102.885 12.5949Z" fill="#DEE7FF"/>
</svg>
