<svg width="95" height="67" viewBox="0 0 95 67" fill="none" xmlns="http://www.w3.org/2000/svg">
<path d="M52.4833 0.88829C42.6567 3.43429 35.108 9.59829 30.82 18.5316C29.614 20.9883 28.4527 23.8023 28.274 24.785C28.006 26.0356 27.872 24.0703 27.6933 18.085L27.47 9.59829L13.7573 9.46429C2.90333 9.37496 0 9.46429 0 9.91096C0 10.2236 3.35 21.301 7.45933 34.4776L14.9633 58.5083H21.3507H27.6933L27.738 49.441V40.4183L28.542 43.0983C31.7133 53.729 39.664 61.8583 50.25 65.4763C53.1087 66.459 54.8953 66.727 59.2727 66.9056C66.1513 67.1736 70.1267 66.3696 75.9333 63.511C79.596 61.769 80.7573 60.8756 84.42 57.213C87.77 53.863 89.11 52.121 90.584 49.2623C94.9613 40.7756 95.7207 31.217 92.6833 22.2836C89.11 11.8316 80.132 3.70229 69.0547 0.88829C64.4093 -0.273041 56.9053 -0.317711 52.4833 0.88829ZM66.0173 22.4623C68.742 23.713 71.7793 27.2416 72.628 30.279C75.5313 40.195 64.9453 49.039 55.61 44.483C50.8753 42.1603 48.374 37.649 48.8207 32.3336C49.4907 23.9363 58.29 18.8443 66.0173 22.4623Z" fill="#9640EC"/>
</svg>
